<svg xmlns="http://www.w3.org/2000/svg" width="33.294" height="29.153" viewBox="0 0 33.294 29.153">
  <g id="Group_11" data-name="Group 11" transform="translate(-196 -147)">
    <path id="Path_69" data-name="Path 69" d="M33.222,13.01,17.784,5.676a.912.912,0,0,0-.779,0L1.57,13.01a.907.907,0,0,0,0,1.639l15.435,7.333a.908.908,0,0,0,.779,0L33.222,14.65a.907.907,0,0,0,0-1.639Z" transform="translate(195.251 141.412)" fill="#ff6c00"/>
    <path id="Path_70" data-name="Path 70" d="M16.874,51.3a1.215,1.215,0,0,1-.52-.117L.919,43.849a1.21,1.21,0,1,1,1.039-2.186L16.873,48.75l14.919-7.087a1.21,1.21,0,1,1,1.038,2.186L17.393,51.183A1.216,1.216,0,0,1,16.874,51.3Z" transform="translate(195.772 118.669)" fill="#fff"/>
    <path id="Path_71" data-name="Path 71" d="M16.874,68.125a1.215,1.215,0,0,1-.52-.117L.919,60.675a1.211,1.211,0,0,1,1.039-2.187l14.915,7.086,14.92-7.086a1.211,1.211,0,0,1,1.039,2.187L17.393,68.008A1.211,1.211,0,0,1,16.874,68.125Z" transform="translate(195.772 108.028)" fill="#fff"/>
  </g>
</svg>
