<svg width="60" height="60" viewBox="0 0 60 60" fill="none" xmlns="http://www.w3.org/2000/svg">
<g clip-path="url(#clip0_106_79)">
<path d="M42.5391 0.820307C42.731 0.828464 42.731 0.828464 42.9268 0.836786C47.6358 1.0542 52.3842 1.71668 56.1328 4.80468C56.2346 4.88082 56.2346 4.88082 56.3383 4.95849C58.4157 6.57797 59.5746 9.4536 59.9501 11.982C60.0406 12.7797 60.0461 13.5757 60.044 14.3774C60.0439 14.5114 60.0439 14.5114 60.0438 14.6481C60.0349 17.3837 59.8327 21.5205 58.2715 23.8623C57.8907 24.095 57.625 24.0781 57.1875 24.0234C56.9092 23.8916 56.9092 23.8916 56.7188 23.6719C56.5921 23.1596 56.6095 22.8031 56.7531 22.2986C56.8056 22.1075 56.8056 22.1075 56.8592 21.9126C56.9166 21.7103 56.9166 21.7103 56.9751 21.5039C57.3602 20.089 57.6661 18.6754 57.8906 17.2266C57.9215 17.0329 57.9215 17.0329 57.9531 16.8353C58.3403 13.8012 58.0904 10.3949 56.25 7.85156C55.9176 7.4405 55.5659 7.05648 55.1953 6.67968C55.1146 6.5975 55.034 6.51533 54.9509 6.43066C52.0786 3.69723 47.5794 3.08311 43.796 2.88222C43.6513 2.87447 43.5066 2.86671 43.3575 2.85873C43.2279 2.85251 43.0982 2.84628 42.9647 2.83987C42.6563 2.81249 42.6563 2.81249 42.4219 2.69531C42.4219 9.65624 42.4219 16.6172 42.4219 23.7891C42.8086 23.8277 43.1953 23.8664 43.5938 23.9062C45.8321 24.5289 47.639 25.9558 48.7907 27.9597C49.3486 29.1111 49.6956 30.3126 49.7241 31.5967C49.7285 31.7263 49.7329 31.8559 49.7374 31.9894C49.6751 32.4318 49.5657 32.5391 49.2188 32.8125C48.9043 32.8689 48.9043 32.8689 48.5416 32.8657C48.4037 32.8657 48.2657 32.8656 48.1236 32.8655C47.9793 32.8631 47.8349 32.8607 47.6862 32.8583C47.553 32.8578 47.4199 32.8573 47.2827 32.8568C46.7855 32.8544 46.2882 32.8478 45.791 32.8418C44.6792 32.8321 43.5674 32.8225 42.4219 32.8125C42.4219 35.0555 42.4219 37.2984 42.4219 39.6094C47.4448 38.2699 50.5966 34.8391 53.1637 30.49C53.8373 29.3119 54.4668 28.1127 55.0096 26.8683C55.2077 26.4244 55.3937 26.0816 55.7813 25.7812C56.1055 25.6894 56.3913 25.7056 56.7188 25.7812C57.019 26.0156 57.019 26.0156 57.1875 26.3672C57.1596 27.1805 56.8839 27.8042 56.5283 28.5278C56.472 28.6438 56.4156 28.7598 56.3576 28.8794C55.3684 30.8725 54.2063 32.8033 52.8516 34.5703C52.7715 34.675 52.6914 34.7797 52.6089 34.8875C50.059 38.1424 46.8269 40.9846 42.588 41.5393C40.1403 41.7649 37.9907 41.1165 35.8594 39.9609C35.6361 40.5478 35.4241 41.137 35.2209 41.7311C34.1498 44.8534 34.1498 44.8534 33.6328 45.2344C33.27 45.2804 33.0419 45.3068 32.6953 45.2344C32.395 45 32.395 45 32.2266 44.6484C32.2618 43.8397 32.5291 43.1678 32.8271 42.4219C34.6805 37.6177 36.1124 31.9316 34.1016 26.9531C33.0667 24.6449 31.0619 22.9538 28.7416 22.0192C25.7222 20.8849 22.7847 20.5598 19.5703 20.3906C19.5316 28.3957 19.493 36.4008 19.4531 44.6484C21.6188 44.6484 23.7844 44.6484 26.0156 44.6484C26.4844 44.8828 26.4844 44.8828 26.635 45.1286C26.7472 45.5841 26.7091 45.9979 26.6528 46.4575C26.6417 46.5507 26.6305 46.6438 26.619 46.7398C26.3263 48.9074 25.2073 50.7169 23.5327 52.1118C22.3557 52.9822 20.928 53.6719 19.4531 53.6719C19.4531 54.832 19.4531 55.9922 19.4531 57.1875C22.075 56.5825 24.2659 55.266 26.1328 53.3203C26.3281 53.125 26.5234 52.9297 26.7188 52.7344C28.1747 51.2732 29.3371 49.5325 30.3287 47.7296C30.7489 46.978 30.7489 46.978 31.1719 46.7578C31.6146 46.7111 31.9964 46.7894 32.3511 47.0581C32.514 47.4816 32.4531 47.8519 32.3438 48.2812C32.168 48.6729 31.9492 49.0313 31.7212 49.3945C31.6585 49.4965 31.5959 49.5984 31.5313 49.7035C30.9214 50.6801 30.2463 51.5985 29.5313 52.5C29.4411 52.6151 29.3509 52.7302 29.258 52.8488C28.2147 54.1534 27.1174 55.3574 25.7813 56.3672C25.6737 56.4491 25.5661 56.5309 25.4553 56.6153C23.0045 58.4397 20.2567 59.4367 17.1753 59.1138C14.2882 58.6515 11.9385 57.1865 9.84375 55.1953C9.78182 55.1372 9.71988 55.0791 9.65607 55.0192C8.56902 53.9936 7.65172 52.9042 6.79688 51.6797C6.73983 51.5988 6.68279 51.5179 6.62401 51.4345C3.04974 46.3339 0.0161566 39.5166 -0.0238011 33.1787C-0.0244691 33.0934 -0.0251371 33.0082 -0.0258253 32.9203C-0.0269248 32.7407 -0.0276952 32.5611 -0.0281499 32.3815C-0.029278 32.1133 -0.0329172 31.8452 -0.0366185 31.577C-0.0575801 28.6692 0.779141 25.9779 2.57813 23.6719C2.62994 23.6033 2.68176 23.5347 2.73514 23.464C5.25972 20.2509 9.92156 19.0987 13.7569 18.6327C16.9321 18.2886 20.1432 18.3462 23.3203 18.6328C23.3034 18.5293 23.2865 18.4259 23.269 18.3192C22.9125 16.0139 22.9125 16.0139 23.2617 15.3882C23.7043 15.1558 23.9939 15.179 24.4922 15.2344C24.8068 15.4731 24.8952 15.6713 24.9609 16.0547C24.9788 16.1559 24.9966 16.2571 25.015 16.3614C25.0358 16.4922 25.0566 16.623 25.0781 16.7578C25.0927 16.8477 25.1072 16.9376 25.1222 17.0303C25.2273 17.6813 25.3293 18.3327 25.4297 18.9844C25.5703 19.0158 25.711 19.0472 25.8559 19.0796C28.622 19.7203 31.27 20.6807 33.3984 22.6172C33.4809 22.6901 33.5634 22.7631 33.6484 22.8383C34.4997 23.6345 35.1785 24.6487 35.7422 25.6641C35.7422 25.7414 35.7422 25.8187 35.7422 25.8984C35.8365 25.8356 35.9307 25.7727 36.0278 25.708C36.092 25.6654 36.1562 25.6228 36.2224 25.5789C36.3803 25.4732 36.5374 25.3663 36.6939 25.2585C37.82 24.4895 39.1446 23.7891 40.5469 23.7891C40.5469 16.8281 40.5469 9.86718 40.5469 2.69531C40.4695 2.73398 40.3922 2.77265 40.3125 2.81249C40.0905 2.83318 39.8678 2.84748 39.6451 2.85873C35.2806 3.10355 30.6168 3.72074 27.4219 7.03124C26.1369 8.49803 25.5136 10.0702 25.1274 11.9526C24.8934 13.0683 24.8934 13.0683 24.6387 13.3594C24.2792 13.5192 24.0617 13.5402 23.6719 13.4766C23.3276 13.2788 23.3276 13.2788 23.0859 12.8906C22.9537 11.3352 23.5528 9.56161 24.2578 8.20312C24.3353 8.04473 24.3353 8.04473 24.4144 7.88314C24.8456 7.03861 25.3883 6.33352 26.0156 5.62499C26.1108 5.5151 26.1108 5.5151 26.2079 5.40298C30.0634 1.24562 37.2374 0.590869 42.5391 0.820307ZM4.43115 24.4702C2.1471 26.8186 1.80456 29.8803 1.84296 32.9961C1.95191 38.8127 4.55015 45.358 7.96875 50.0391C8.04789 50.1505 8.04789 50.1505 8.12863 50.2641C8.9995 51.4898 9.95521 52.6062 11.0156 53.6719C11.0761 53.7328 11.1365 53.7937 11.1987 53.8564C12.798 55.4469 15.2233 57.1875 17.5781 57.1875C17.5781 56.0273 17.5781 54.8672 17.5781 53.6719C17.2833 53.6114 16.9884 53.551 16.6846 53.4888C14.5212 52.9965 12.7868 51.8144 11.586 49.9516C10.8169 48.6113 10.1252 46.805 10.4297 45.2344C12.1202 43.5438 15.1877 44.6904 17.5781 44.6484C17.5781 36.6047 17.5781 28.5609 17.5781 20.2734C12.9103 20.2734 7.91296 21.1562 4.43115 24.4702ZM36.8939 27.5143C36.6489 27.8107 36.5897 27.9784 36.5625 28.3594C36.5936 28.6343 36.5936 28.6343 36.665 28.9087C36.781 29.4276 36.8442 29.9353 36.8852 30.4651C36.9014 30.7107 36.9014 30.7107 37.0313 30.9375C40.5504 30.9375 44.0695 30.9375 47.6953 30.9375C47.4707 29.1405 46.5564 27.8711 45.1758 26.7334C42.5189 24.7662 39.2211 25.4349 36.8939 27.5143ZM37.0313 32.8125C37.0022 33.0469 36.9732 33.2814 36.9434 33.5229C36.8226 34.4657 36.656 35.3999 36.483 36.3343C36.3832 36.8862 36.2996 37.4051 36.3281 37.9687C37.6862 38.8005 38.9403 39.4085 40.5469 39.6094C40.5469 37.3664 40.5469 35.1234 40.5469 32.8125C39.3867 32.8125 38.2266 32.8125 37.0313 32.8125ZM12.3047 46.5234C12.465 47.8058 12.8994 48.6987 13.7109 49.6875C13.7955 49.8059 13.8801 49.9244 13.9673 50.0464C14.9239 51.1717 16.6083 51.7943 18.0469 51.9141C19.9111 51.932 21.6036 51.3647 22.998 50.0903C23.9725 49.0386 24.3796 47.9114 24.7266 46.5234C20.6273 46.5234 16.5281 46.5234 12.3047 46.5234Z" fill="currentColor"/>
<path d="M55.6094 14.0223C56.1439 14.5117 56.3426 15.1489 56.3965 15.8496C56.3506 16.5378 56.1839 17.0324 55.73 17.5561C54.8913 18.2721 54.2977 18.3414 53.2031 18.2812C52.9284 18.2077 52.6549 18.1295 52.3828 18.0469C50.8556 17.7795 49.4377 18.0928 48.1641 18.9844C47.9085 19.2186 47.6705 19.4625 47.433 19.715C46.9216 20.2275 46.2963 20.3893 45.5859 20.3906C44.8988 20.3184 44.3177 20.0623 43.8281 19.5703C43.416 18.9758 43.1794 18.3082 43.2719 17.5777C43.5309 16.3484 44.4939 15.4486 45.4829 14.7368C48.2511 12.9789 52.7084 11.9111 55.6094 14.0223ZM45.4688 17.3437C45.3914 17.4211 45.3141 17.4984 45.2344 17.5781C45.2148 17.9395 45.2148 17.9395 45.2344 18.2812C45.5244 18.3973 45.5244 18.3973 45.8203 18.5156C45.8771 18.4646 45.9339 18.4135 45.9924 18.3609C46.2453 18.1363 46.5011 17.9155 46.7578 17.6953C46.8268 17.6338 46.8959 17.5723 46.967 17.509C48.4378 16.2904 50.3682 15.9669 52.2162 16.1215C52.539 16.162 52.8326 16.2155 53.1445 16.3037C53.6206 16.4227 53.9009 16.3878 54.375 16.2891C54.4652 16.0142 54.4652 16.0142 54.4922 15.7031C54.2491 15.3877 54.0026 15.2775 53.6279 15.1611C53.54 15.133 53.4521 15.1049 53.3615 15.076C50.4956 14.2857 47.5163 15.266 45.4688 17.3437Z" fill="currentColor"/>
<path d="M31.6553 12.9639C31.8313 12.9641 31.8313 12.9641 32.0108 12.9644C34.6055 13.0068 37.0532 14.1108 38.8966 15.9242C39.5179 16.6069 39.7988 17.2966 39.7678 18.2236C39.6631 18.9653 39.2641 19.5884 38.6719 20.0391C37.8322 20.4437 37.0909 20.4394 36.2109 20.1562C35.8147 19.9434 35.5493 19.7301 35.2368 19.4092C34.3119 18.5058 33.1793 17.9649 31.875 17.9297C31.2885 17.9509 30.7385 18.0005 30.1758 18.1714C29.435 18.3698 28.6747 18.4133 27.9639 18.0908C27.3305 17.7235 26.9529 17.2177 26.7188 16.5234C26.6117 15.6908 26.6872 14.9838 27.1875 14.2969C28.275 13.1298 30.1446 12.9613 31.6553 12.9639ZM28.5938 15.5859C28.5547 15.8789 28.5547 15.8789 28.5938 16.1719C28.7995 16.4315 28.7995 16.4315 29.0538 16.4117C29.1461 16.4003 29.2384 16.3888 29.3335 16.377C29.4923 16.3586 29.4923 16.3586 29.6544 16.3399C29.8846 16.306 30.1139 16.266 30.342 16.2199C32.4313 15.8148 34.2697 16.3174 36.0283 17.4788C36.4674 17.7959 36.8717 18.1443 37.2656 18.5156C37.459 18.3996 37.6523 18.2836 37.8516 18.1641C37.7852 17.4046 37.4853 17.1526 36.9228 16.6768C35.079 15.2922 30.6246 13.5551 28.5938 15.5859Z" fill="currentColor"/>
<path d="M32.4609 31.5234C32.9386 31.969 33.2368 32.467 33.3206 33.1187C33.3327 33.9551 33.2292 34.5915 32.6454 35.2185C31.9864 35.8043 31.3997 35.8974 30.5493 35.8827C30.1502 35.8531 29.7978 35.7375 29.4141 35.625C27.8475 35.3755 26.4099 35.6687 25.1042 36.5927C24.8217 36.8213 24.5785 37.0663 24.3384 37.3389C23.8552 37.7659 23.338 37.959 22.6909 37.9761C21.9174 37.9135 21.3558 37.6872 20.8301 37.1045C20.3519 36.5024 20.2112 36.0048 20.2295 35.2368C20.3884 34.0982 21.1479 33.339 22.0175 32.6697C24.8198 30.6102 29.316 29.506 32.4609 31.5234ZM22.4931 34.747C22.2302 35.0846 22.1821 35.3203 22.1484 35.7422C22.4123 35.9435 22.4123 35.9435 22.7344 36.0938C23.0848 36.0088 23.1971 35.8673 23.4155 35.5811C24.3678 34.4383 26.0842 33.8593 27.5176 33.6575C28.5368 33.59 29.4926 33.6941 30.4688 33.9844C30.8449 34.0237 30.8449 34.0237 31.1719 33.9844C31.4307 33.7702 31.4307 33.7702 31.4575 33.4644C31.4321 33.3157 31.4321 33.3157 31.4063 33.1641C28.7392 31.2853 24.6502 32.786 22.4931 34.747Z" fill="currentColor"/>
<path d="M13.0078 31.5234C13.109 31.568 13.2102 31.6126 13.3145 31.6585C14.5463 32.2283 15.7744 33.1875 16.5161 34.3359C16.839 35.2476 16.7743 35.9125 16.4063 36.7969C16.0449 37.3905 15.5323 37.74 14.8668 37.9189C14.1884 38.029 13.6172 37.9366 13.0078 37.6172C12.7601 37.4277 12.5347 37.225 12.307 37.012C11.3482 36.1404 10.1972 35.6281 8.90625 35.5078C8.60254 35.5318 8.29948 35.5662 7.99805 35.6104C7.84638 35.6318 7.69471 35.6533 7.53845 35.6754C7.15013 35.7318 7.15013 35.7318 6.79688 35.8594C6.03444 35.9166 5.33441 35.9654 4.6875 35.5078C4.01824 34.9164 3.67159 34.3712 3.60352 33.4863C3.6494 32.7981 3.81613 32.3035 4.27002 31.7798C4.36912 31.6952 4.46821 31.6106 4.57031 31.5234C4.67069 31.4362 4.67069 31.4362 4.7731 31.3472C5.11649 31.1208 5.44849 31.0311 5.84473 30.9229C5.98461 30.8839 6.12449 30.8449 6.26862 30.8048C8.54984 30.2408 10.8957 30.538 13.0078 31.5234ZM5.625 33.0469C5.49841 33.3283 5.49841 33.3283 5.50781 33.6328C5.64844 33.8382 5.64844 33.8382 5.85938 33.9844C6.34471 33.9605 6.80116 33.8888 7.27798 33.7976C9.1871 33.4637 11.0653 33.7479 12.6929 34.8486C13.2127 35.2358 13.7026 35.6553 14.1797 36.0938C14.373 36.0164 14.5664 35.9391 14.7656 35.8594C14.7987 35.4615 14.8136 35.2301 14.5926 34.8898C13.0268 33.3582 10.9008 32.4104 8.70117 32.4243C8.5986 32.4246 8.49603 32.425 8.39035 32.4253C7.43848 32.4406 6.45735 32.546 5.625 33.0469Z" fill="currentColor"/>
</g>
<defs>
<clipPath id="clip0_106_79">
<rect width="60" height="60" fill="white"/>
</clipPath>
</defs>
</svg>
