<svg width="60" height="60" viewBox="0 0 60 60" fill="none" xmlns="http://www.w3.org/2000/svg">
<g clip-path="url(#clip0_105_70)">
<path d="M58.125 18.2812C59.055 18.9637 59.6974 19.736 60 20.8594C60.2245 22.5902 59.7083 24.3072 59.3211 25.9797C59.2493 26.2933 59.1801 26.6075 59.111 26.9217C59.0275 27.2992 58.9414 27.6761 58.8556 28.0531C58.8092 28.2628 58.8092 28.2628 58.7619 28.4767C58.7162 28.6716 58.7162 28.6716 58.6696 28.8705C58.6306 29.0412 58.6306 29.0412 58.5908 29.2154C58.4559 29.5883 58.2768 29.8276 58.0078 30.1172C57.6501 30.2548 57.476 30.2495 57.1069 30.1465C56.8359 30 56.8359 30 56.6016 29.6484C56.533 28.8327 56.7173 28.0998 56.9092 27.3102C56.9733 27.0366 57.0374 26.763 57.1014 26.4894C57.2028 26.0622 57.3046 25.6351 57.407 25.2082C57.5061 24.7934 57.6032 24.3783 57.7002 23.963C57.731 23.8373 57.7617 23.7117 57.7934 23.5822C58.0122 22.6403 58.2444 21.5844 57.8101 20.6836C57.3837 20.2227 57.0147 19.8544 56.3695 19.7768C55.6816 19.7536 55.1569 19.8388 54.6094 20.2734C53.8793 21.2791 53.6502 22.667 53.3286 23.8449C53.2632 24.0809 53.1976 24.3168 53.132 24.5527C52.9598 25.1728 52.789 25.7933 52.6186 26.4139C52.4475 27.0361 52.2753 27.6579 52.1031 28.2797C52.0697 28.4006 52.0362 28.5214 52.0018 28.646C51.8368 29.2417 51.6718 29.8374 51.5064 30.4331C51.4592 30.6033 51.4592 30.6033 51.411 30.777C51.3496 30.9981 51.2882 31.2193 51.2267 31.4405C51.0971 31.9074 50.9678 32.3745 50.8412 32.8422C50.7337 33.2389 50.6243 33.6351 50.5142 34.0311C50.4869 34.1351 50.4595 34.2391 50.4314 34.3463C50.1248 35.4309 49.4543 36.2477 48.7134 37.0752C48.5782 37.2286 48.4432 37.3821 48.3083 37.5357C48.2432 37.6097 48.1782 37.6837 48.1111 37.7599C47.8684 38.0393 47.6348 38.3254 47.4023 38.6133C46.8525 39.292 46.2809 39.9507 45.7054 40.6078C45.4972 40.8459 45.2952 41.0855 45.0966 41.3319C44.7945 41.705 44.6198 41.9195 44.165 42.0923C43.7264 42.0637 43.4361 41.9126 43.125 41.6016C43.0456 41.1164 43.0275 40.8258 43.2848 40.399C43.534 40.0868 43.7956 39.7895 44.0625 39.4922C44.1729 39.3639 44.2829 39.2352 44.3925 39.1063C44.6301 38.827 44.8685 38.5485 45.108 38.2709C45.501 37.8148 45.8907 37.3559 46.2782 36.8951C46.5533 36.5683 46.8307 36.244 47.1126 35.923C47.2 35.8224 47.2 35.8224 47.2892 35.7198C47.3998 35.5928 47.511 35.4664 47.6232 35.3409C48.0475 34.8505 48.3664 34.3532 48.4236 33.6941C48.3493 33.1187 48.2512 32.7574 47.8125 32.3437C47.4592 32.1306 47.1836 32.0718 46.7725 32.0654C46.6761 32.0621 46.5797 32.0588 46.4804 32.0554C45.7143 32.1895 45.2542 32.7842 44.7876 33.3545C44.6641 33.5021 44.5405 33.6497 44.4168 33.7971C44.3566 33.8692 44.2965 33.9412 44.2345 34.0154C44.0006 34.2919 43.7576 34.5595 43.5132 34.8267C43.1604 35.2149 42.8243 35.612 42.4951 36.0205C41.9146 36.7374 41.2977 37.4158 40.6641 38.0859C40.5707 38.1871 40.4773 38.2884 40.3812 38.3926C40.043 38.7042 39.7079 38.8968 39.3018 39.1113C37.0702 40.3372 35.1443 42.3352 34.3314 44.7803C33.7268 47.0854 34.2633 49.1108 35.2469 51.1969C36.331 53.512 36.0937 55.5886 36.0937 58.2422C39.3422 58.2422 42.5906 58.2422 45.9375 58.2422C45.9191 56.6682 45.9191 56.6682 45.8953 55.0944C45.87 52.638 46.4799 50.6408 47.8198 48.5669C47.8971 48.4453 47.9745 48.3236 48.0541 48.1983C48.2111 47.9514 48.3686 47.7048 48.5265 47.4584C48.7876 47.0507 49.0459 46.6412 49.3038 46.2315C49.6444 45.6906 49.9865 45.1507 50.3286 44.6108C50.6798 44.0567 51.0302 43.502 51.3796 42.9467C51.5047 42.7481 51.63 42.5495 51.7554 42.3511C52.2065 41.6371 52.6512 40.9195 53.0859 40.1953C53.1369 40.1105 53.1878 40.0257 53.2403 39.9383C54.4429 37.9018 55.0808 35.6461 55.5275 33.3357C55.6721 32.6343 55.7718 32.1847 56.3672 31.7578C56.8341 31.6605 57.0089 31.7199 57.4146 31.9702C57.8329 32.6167 57.6001 33.325 57.4557 34.0534C57.351 34.5206 57.239 34.9851 57.1216 35.4492C57.1009 35.5317 57.0803 35.6143 57.059 35.6993C56.7362 36.9775 56.3475 38.1963 55.7721 39.3854C55.6721 39.5927 55.5781 39.8028 55.4846 40.0131C55.0091 41.0394 54.3929 41.9631 53.7692 42.9041C53.278 43.6459 52.8064 44.3953 52.3535 45.1611C51.9273 45.8808 51.492 46.5918 51.0352 47.2925C50.9831 47.3724 50.9311 47.4523 50.8775 47.5347C50.6549 47.8763 50.432 48.2178 50.2091 48.5593C48.9053 50.5631 47.8748 52.3763 47.8821 54.836C47.8802 55.026 47.8802 55.026 47.8782 55.2198C47.8729 55.7554 47.8715 56.2909 47.8698 56.8265C47.8679 57.2202 47.8641 57.6137 47.8601 58.0073C47.8605 58.1281 47.8608 58.2488 47.8612 58.3732C47.8543 59.0318 47.8342 59.5096 47.3438 60C47.1803 60.0122 47.0162 60.0164 46.8523 60.0172C46.6934 60.0185 46.6934 60.0185 46.5312 60.0198C46.414 60.0201 46.2968 60.0204 46.1761 60.0207C46.0534 60.0215 45.9307 60.0223 45.8042 60.0231C45.3962 60.0254 44.9882 60.0267 44.5802 60.0279C44.3718 60.0286 44.3718 60.0286 44.1592 60.0294C43.4239 60.0318 42.6886 60.0335 41.9533 60.0346C41.1923 60.0359 40.4314 60.0399 39.6704 60.0446C39.0867 60.0476 38.5029 60.0486 37.9191 60.049C37.6385 60.0496 37.3579 60.051 37.0774 60.0531C36.6851 60.056 36.2929 60.0559 35.9007 60.0551C35.7842 60.0566 35.6677 60.0581 35.5477 60.0596C34.7669 60.0537 34.7669 60.0537 34.381 59.7928C34.2064 59.5113 34.1603 59.3694 34.1604 59.0415C34.1586 58.8982 34.1586 58.8982 34.1568 58.7519C34.1578 58.6493 34.1587 58.5466 34.1597 58.4408C34.1586 58.3336 34.1575 58.2263 34.1564 58.1157C34.153 57.7721 34.1526 57.4286 34.1528 57.085C34.1527 54.4319 34.1527 54.4319 33.3545 51.9214C32.1688 49.3547 31.596 46.5813 32.5411 43.829C33.5679 41.0643 35.6359 38.9105 38.166 37.4336C39.4454 36.6805 40.2949 35.5691 41.2134 34.4275C41.5592 34.0116 41.925 33.617 42.2938 33.2216C42.6549 32.8322 42.9921 32.4302 43.3228 32.0142C43.9258 31.2678 44.56 30.5936 45.4688 30.2344C45.5848 30.2344 45.7008 30.2344 45.8203 30.2344C45.8191 30.0819 45.8191 30.0819 45.8179 29.9264C45.8109 28.9645 45.8055 28.0025 45.8021 27.0406C45.8003 26.5461 45.7978 26.0517 45.7938 25.5573C45.7899 25.0793 45.7879 24.6014 45.787 24.1235C45.7863 23.9419 45.7851 23.7604 45.7831 23.5788C45.7688 22.1565 45.8287 20.8763 46.875 19.8047C47.7073 19.048 48.6627 18.8311 49.774 18.8818C50.8001 19.035 51.5813 19.64 52.2656 20.3906C52.3285 20.2529 52.3913 20.1151 52.4561 19.9731C53.0058 18.8945 53.789 18.2493 54.9481 17.8542C56.0305 17.6717 57.1704 17.7054 58.125 18.2812ZM48.2813 21.0937C47.7462 21.7385 47.6805 22.2337 47.682 23.0503C47.682 23.1281 47.682 23.2059 47.682 23.2861C47.682 23.5422 47.6829 23.7984 47.6839 24.0546C47.6841 24.2326 47.6843 24.4105 47.6844 24.5885C47.6848 25.0563 47.686 25.5241 47.6873 25.9918C47.6885 26.4694 47.689 26.947 47.6896 27.4246C47.6908 28.3612 47.6928 29.2978 47.6953 30.2344C47.7941 30.2838 47.8929 30.3332 47.9947 30.3841C48.4418 30.6076 48.8889 30.8311 49.3359 31.0547C49.5342 30.3623 49.7323 29.67 49.9303 28.9776C49.9977 28.7421 50.0651 28.5065 50.1325 28.271C50.2295 27.9324 50.3263 27.5938 50.4231 27.2552C50.4684 27.0974 50.4684 27.0974 50.5145 26.9363C50.5427 26.8378 50.5708 26.7393 50.5998 26.6378C50.6245 26.5514 50.6492 26.465 50.6747 26.376C50.8843 25.6205 50.8854 24.8957 50.8875 24.1152C50.8887 23.8639 50.8923 23.6128 50.896 23.3615C50.8968 23.2004 50.8974 23.0392 50.8978 22.8781C50.8989 22.7326 50.9 22.587 50.9011 22.4371C50.841 21.8529 50.6502 21.4706 50.2368 21.0571C49.5568 20.6301 48.9552 20.6943 48.2813 21.0937Z" fill="currentColor"/>
<path d="M6.47461 18.5962C7.06022 19.0618 7.4979 19.6812 7.73438 20.3906C7.78 20.3382 7.82562 20.2858 7.87262 20.2318C8.62502 19.4187 9.48232 18.9161 10.605 18.8599C11.6021 18.8848 12.3666 19.1449 13.125 19.8047C13.9704 20.7297 14.1952 21.6232 14.193 22.8641C14.193 22.9442 14.193 23.0243 14.193 23.1069C14.193 23.3694 14.1921 23.6319 14.1911 23.8944C14.1909 24.0773 14.1907 24.2602 14.1906 24.4431C14.1902 24.9228 14.189 25.4025 14.1877 25.8822C14.1865 26.3724 14.186 26.8626 14.1854 27.3528C14.1842 28.3133 14.1822 29.2738 14.1797 30.2344C14.2714 30.2513 14.363 30.2683 14.4575 30.2857C15.9135 30.5968 17.0142 32.3318 17.8931 33.4241C18.2388 33.8399 18.6045 34.2344 18.9733 34.6297C19.3366 35.0217 19.6765 35.4264 20.0098 35.8447C20.7321 36.7336 21.4868 37.2527 22.467 37.8429C23.0233 38.1945 23.5223 38.5984 24.0234 39.0234C24.1038 39.0881 24.1842 39.1528 24.267 39.2194C26.2339 40.8455 27.6046 43.2844 27.8906 45.8203C28.0629 47.8128 27.6611 49.6343 26.8359 51.4453C26.7081 51.7394 26.5847 52.0351 26.4624 52.3316C26.4051 52.4671 26.3479 52.6026 26.2889 52.7422C25.7484 54.237 25.8569 55.8476 25.8538 57.4138C25.8527 57.7521 25.8487 58.0902 25.8444 58.4285C25.845 58.5323 25.8456 58.636 25.8462 58.7429C25.8447 58.8396 25.8431 58.9363 25.8415 59.0359C25.8412 59.1205 25.8408 59.2051 25.8405 59.2923C25.7477 59.6666 25.6344 59.7823 25.3125 60C24.9097 60.0698 24.511 60.0628 24.1031 60.0588C23.9186 60.0598 23.9186 60.0598 23.7305 60.0607C23.3238 60.0622 22.9172 60.0602 22.5105 60.0581C22.2283 60.0582 21.946 60.0583 21.6638 60.0587C21.0722 60.0588 20.4807 60.0573 19.8891 60.0547C19.1298 60.0514 18.3706 60.0517 17.6113 60.0532C17.0286 60.054 16.4458 60.0531 15.863 60.0516C15.583 60.0511 15.303 60.051 15.023 60.0515C14.6321 60.0518 14.2414 60.0499 13.8505 60.0474C13.676 60.0481 13.676 60.0481 13.498 60.049C13.3917 60.0478 13.2854 60.0466 13.1759 60.0454C13.0835 60.0452 12.9911 60.0449 12.8959 60.0446C12.5921 59.9881 12.4918 59.8905 12.3047 59.6484C12.1923 59.3112 12.1723 59.0974 12.1709 58.747C12.1696 58.5796 12.1696 58.5796 12.1684 58.4088C12.1679 58.2879 12.1674 58.1671 12.1669 58.0426C12.1642 57.7847 12.1614 57.5269 12.1584 57.269C12.1543 56.8641 12.1509 56.4592 12.1493 56.0542C12.1405 54.1774 12.1104 52.4593 11.1621 50.7861C11.1226 50.7148 11.0831 50.6435 11.0424 50.5701C10.8382 50.2061 10.6216 49.852 10.3949 49.5017C10.3517 49.4342 10.3084 49.3668 10.2639 49.2973C10.1444 49.1134 10.0216 48.9316 9.89868 48.75C9.6915 48.3268 9.6766 48.0439 9.72656 47.5781C10.0253 47.2355 10.2182 47.1271 10.6641 47.0435C11.1883 47.1418 11.4395 47.4712 11.7471 47.8965C11.8963 48.1222 12.0393 48.3506 12.1802 48.5816C12.2311 48.6645 12.282 48.7475 12.3345 48.833C13.0746 50.053 13.6063 51.2246 13.9453 52.6172C13.9663 52.6975 13.9872 52.7778 14.0088 52.8606C14.0873 53.3615 14.0768 53.8564 14.0739 54.3626C14.0738 54.4611 14.0737 54.5596 14.0736 54.661C14.073 55.0271 14.0713 55.3932 14.0698 55.7593C14.0674 56.5786 14.065 57.398 14.0625 58.2422C17.3109 58.2422 20.5594 58.2422 23.9062 58.2422C23.9062 56.9274 23.9062 55.6125 23.9062 54.2578C24.2999 52.1583 24.2999 52.1583 24.6533 51.4307C24.7259 51.2752 24.7981 51.1196 24.8698 50.9638C24.9051 50.888 24.9403 50.8122 24.9766 50.7342C25.8865 48.7061 26.2741 46.5698 25.5469 44.4141C25.0898 43.2931 24.4878 42.3742 23.6719 41.4844C23.5361 41.3344 23.5361 41.3344 23.3977 41.1813C22.4803 40.2149 21.4421 39.4992 20.2661 38.8843C19.4368 38.4138 18.9107 37.7286 18.3247 36.9945C18.0985 36.7163 17.8575 36.4528 17.6147 36.189C17.2619 35.8007 16.9259 35.4036 16.5967 34.9951C16.1069 34.3892 15.5878 33.8183 15.0563 33.2492C14.7656 32.9297 14.7656 32.9297 14.5226 32.6102C14.2236 32.2573 14.0058 32.1346 13.5507 32.07C12.8818 32.0596 12.4659 32.1029 11.9531 32.5781C11.5891 33.0831 11.5736 33.4666 11.635 34.0613C11.8433 34.7442 12.377 35.2797 12.8394 35.8081C12.9651 35.9533 13.0909 36.0986 13.2166 36.2439C13.2797 36.3167 13.3428 36.3895 13.4079 36.4645C13.743 36.8525 14.0733 37.2445 14.4039 37.6363C14.6768 37.9597 14.9503 38.2825 15.2252 38.6041C15.4459 38.8625 15.6654 39.1218 15.8835 39.3823C16.0567 39.5891 16.2314 39.7946 16.409 39.9976C16.7303 40.3837 16.9169 40.6587 16.9409 41.1694C16.875 41.6016 16.875 41.6016 16.7432 41.8286C16.4266 42.008 16.1843 42.0558 15.8203 42.0703C15.3686 41.8452 15.0672 41.5688 14.7363 41.1914C14.6445 41.0867 14.5526 40.982 14.458 40.8742C14.1055 40.4596 13.762 40.0384 13.4198 39.6153C13.0747 39.1968 12.7198 38.7877 12.3633 38.3789C11.0322 36.849 11.0322 36.849 10.5469 36.2109C10.465 36.1103 10.465 36.1103 10.3816 36.0077C9.80855 35.243 9.58079 34.4024 9.33692 33.4949C9.25516 33.1908 9.17104 32.8875 9.08638 32.5842C8.95141 32.0996 8.81752 31.6148 8.68423 31.1298C8.24531 29.5345 7.79989 27.9411 7.35305 26.348C7.17787 25.7232 7.00388 25.098 6.83079 24.4726C6.72077 24.0759 6.60983 23.6795 6.49866 23.2831C6.44657 23.0966 6.39487 22.9101 6.34357 22.7234C6.27239 22.4646 6.19982 22.2062 6.12694 21.9479C6.08642 21.8021 6.0459 21.6564 6.00416 21.5063C5.82074 20.9837 5.60645 20.4578 5.17685 20.0908C4.43743 19.742 3.79765 19.6665 3.01758 19.9365C2.56865 20.2426 2.23809 20.6019 1.99219 21.0938C1.92213 22.0463 2.04238 22.9242 2.25886 23.8488C2.28726 23.9755 2.31566 24.1023 2.34492 24.2329C2.43839 24.648 2.53404 25.0627 2.62985 25.4773C2.69629 25.7692 2.76264 26.0611 2.82889 26.353C2.96791 26.9639 3.10798 27.5746 3.24889 28.1851C3.41024 28.8842 3.56953 29.5837 3.72772 30.2835C3.88151 30.9635 4.03687 31.6432 4.19287 32.3228C4.25833 32.6086 4.3234 32.8945 4.38806 33.1805C5.10703 36.3536 5.10703 36.3536 6.40869 39.3237C6.45734 39.4135 6.50599 39.5033 6.55612 39.5958C7.18961 40.746 7.90754 41.8482 8.62736 42.9457C8.81263 43.2289 8.99507 43.5137 9.17725 43.7988C9.23426 43.884 9.29128 43.9691 9.35002 44.0568C9.61955 44.4826 9.72691 44.6975 9.72427 45.2142C9.56221 45.7385 9.56221 45.7385 9.25781 45.9375C8.88178 46.0577 8.58163 46.0439 8.20313 45.9375C7.99945 45.7195 7.99945 45.7195 7.81174 45.4303C7.74163 45.3238 7.67151 45.2173 7.59928 45.1075C7.49213 44.9383 7.49213 44.9383 7.38281 44.7656C7.31304 44.6574 7.24327 44.5492 7.17138 44.4377C6.71785 43.728 6.27684 43.0104 5.83517 42.2933C5.65426 42.0005 5.47131 41.7091 5.28763 41.418C4.18739 39.6492 3.46994 37.7896 2.97821 35.7678C2.93858 35.6068 2.89894 35.4459 2.85928 35.2849C2.36043 33.2498 1.8873 31.2084 1.42144 29.1655C1.28223 28.555 1.14215 27.9448 0.999927 27.335C0.859384 26.7323 0.721001 26.1292 0.584099 25.5258C0.532508 25.2999 0.4802 25.0742 0.427101 24.8487C-0.42841 21.2076 -0.42841 21.2076 0.487976 19.6394C1.9359 17.5969 4.39349 17.1892 6.47461 18.5962ZM9.63867 21.189C8.93933 21.8689 9.05226 22.8923 9.03323 23.8013C9.01072 26.0287 9.72799 28.1538 10.3912 30.2583C10.4156 30.3361 10.4401 30.4139 10.4653 30.494C10.5517 30.7376 10.5517 30.7376 10.7813 31.0547C10.8618 31.0053 10.9423 30.9559 11.0252 30.905C11.1308 30.8408 11.2364 30.7766 11.3452 30.7105C11.4499 30.6466 11.5546 30.5827 11.6624 30.5168C11.9531 30.3516 11.9531 30.3516 12.3047 30.2344C12.3129 29.2116 12.3191 28.1888 12.3229 27.166C12.3247 26.691 12.3272 26.216 12.3312 25.741C12.335 25.282 12.3371 24.8231 12.338 24.3642C12.3387 24.1896 12.34 24.0151 12.3419 23.8405C12.3639 22.5421 12.3639 22.5421 11.9531 21.3281C11.1557 20.6521 10.5097 20.6149 9.63867 21.189Z" fill="currentColor"/>
<path d="M33.8933 12.1921C35.5774 13.3811 36.3884 15.1543 37.1434 17.0059C37.5759 18.0883 37.5759 18.0883 38.291 18.9917C38.3724 19.0692 38.4539 19.1467 38.5377 19.2265C38.7773 19.4425 39.0202 19.6535 39.2651 19.8633C40.6527 21.0685 41.3582 22.4477 41.5178 24.2926C41.5627 25.9256 41.1131 27.2785 40.0195 28.4985C38.8301 29.6262 37.2885 30.0601 35.6905 30.0279C34.5095 29.9488 33.4832 29.5097 32.4123 29.0369C30.9572 28.3969 29.2916 28.3821 27.7917 28.9124C27.2425 29.1353 26.7 29.373 26.1566 29.61C24.7836 30.1793 23.3185 30.1653 21.9182 29.6786C20.4984 29.0903 19.5338 28.2299 18.8892 26.8286C18.2606 25.2736 18.4099 23.5835 18.9844 22.0313C19.5851 20.7628 20.6386 19.8276 21.7044 18.9455C22.2951 18.3947 22.5529 17.788 22.8177 17.0437C22.9922 16.5769 23.1564 16.2446 23.5547 15.9375C24.0175 15.8714 24.2633 15.861 24.6533 16.1279C24.8937 16.4793 24.9345 16.6824 24.9609 17.1094C24.8783 17.4681 24.7484 17.8017 24.6094 18.1421C24.5715 18.236 24.5336 18.33 24.4946 18.4268C24.0028 19.6006 23.3417 20.2797 22.3499 21.0645C21.4369 21.82 20.8258 22.6342 20.5371 23.7891C20.438 24.9781 20.5406 25.9953 21.3281 26.9531C22.1742 27.7376 23.1018 28.0906 24.256 28.0568C25.3189 27.9095 26.3311 27.4021 27.3033 26.9664C29.5488 26.1364 31.9388 26.5633 34.0649 27.5024C34.2193 27.5735 34.3736 27.6448 34.5277 27.7162C35.4486 28.1237 36.3864 28.1375 37.3462 27.8247C38.2536 27.4553 38.9031 26.9008 39.2958 25.9959C39.673 24.9732 39.5595 23.8064 39.1434 22.8127C38.6953 21.9619 38.0151 21.3691 37.3054 20.7399C36.325 19.869 35.7421 19.0826 35.2881 17.8564C34.5465 15.9381 33.7568 14.355 31.8819 13.3553C30.8193 12.9082 29.3166 12.9541 28.2349 13.3081C27.6119 13.5765 27.1139 13.9768 26.6016 14.4141C26.3026 14.6572 26.1743 14.7586 25.7886 14.8242C25.2991 14.7443 25.1356 14.5746 24.8437 14.1797C24.7559 13.8501 24.7559 13.8501 24.8437 13.4766C25.5551 12.3338 26.8749 11.6468 28.125 11.25C30.1241 10.7968 32.1618 11.1136 33.8933 12.1921Z" fill="currentColor"/>
<path d="M37.7344 0.18311C38.8942 0.817166 39.6249 1.76237 40.0356 3.01072C40.2097 3.61884 40.2586 4.18878 40.2539 4.81934C40.2532 4.92574 40.2526 5.03215 40.2519 5.14178C40.2113 6.69889 39.7253 8.00603 38.7891 9.25782C38.7351 9.33441 38.6812 9.41099 38.6256 9.4899C37.8804 10.4627 36.7136 11.0897 35.5078 11.25C34.3367 11.2987 33.3664 10.9722 32.4902 10.188C31.5175 9.13707 31.126 7.76322 31.1353 6.36475C31.1359 6.26097 31.1366 6.15719 31.1373 6.05027C31.1757 3.96711 31.9965 2.42581 33.4721 0.985569C34.5804 -0.00789816 36.3319 -0.392625 37.7344 0.18311ZM33.75 3.51563C32.9874 4.71586 32.8497 6.13621 33.1192 7.51969C33.3619 8.29825 33.7435 8.84138 34.4531 9.25782C34.9971 9.47347 35.4082 9.39732 35.9399 9.17725C37.1864 8.54548 37.8412 7.42099 38.2722 6.11939C38.4577 5.11642 38.4699 3.83518 37.9688 2.92969C37.6453 2.46035 37.3357 2.08893 36.7969 1.875C35.3827 1.64653 34.5579 2.44564 33.75 3.51563Z" fill="currentColor"/>
<path d="M25.7812 0.468749C25.8973 0.534008 26.0133 0.599267 26.1328 0.666503C27.6195 1.81246 28.5421 3.28626 28.8281 5.15625C28.9528 6.89937 28.8354 8.57309 27.6562 9.96094C26.8493 10.8024 26.0441 11.1965 24.8726 11.2637C23.5099 11.2145 22.3748 10.563 21.4421 9.59793C19.9889 7.84579 19.6107 5.84593 19.8047 3.63281C20.0571 2.27966 20.791 1.14544 21.9141 0.351562C22.996 -0.336265 24.7317 -0.183223 25.7812 0.468749ZM22.1777 2.73926C21.5323 3.64716 21.5763 4.79407 21.6797 5.85937C21.9802 7.22048 22.7736 8.33949 23.9062 9.14062C24.4569 9.39761 24.9688 9.45592 25.5469 9.25781C26.2574 8.84573 26.64 8.29548 26.8803 7.51877C27.1826 5.98073 26.9256 4.62827 26.0944 3.3197C25.6414 2.68897 25.126 2.12534 24.375 1.875C23.3984 1.74713 22.7886 1.94069 22.1777 2.73926Z" fill="currentColor"/>
<path d="M18.9574 9.85381C19.2528 10.1134 19.5306 10.3821 19.8047 10.6641C19.8707 10.7277 19.9367 10.7913 20.0047 10.8568C21.1915 12.0936 21.6218 13.7546 21.5913 15.4184C21.5087 16.5695 21.0468 17.4929 20.2441 18.3179C19.1702 18.9769 18.134 19.1808 16.8883 18.9111C15.3658 18.4246 14.1927 17.3542 13.4496 15.9655C12.7217 14.5443 12.3927 13.0915 12.8032 11.5063C13.1395 10.5202 13.7212 9.77092 14.632 9.25048C16.0606 8.59304 17.7266 8.92681 18.9574 9.85381ZM15.2344 11.1328C14.7225 11.6447 14.526 12.1909 14.4873 12.9053C14.5256 14.1742 15.1091 15.2395 15.9375 16.1719C16.6244 16.8137 17.3319 17.1738 18.2863 17.1464C18.8085 17.062 19.1306 16.7622 19.4312 16.3476C19.8397 15.4876 19.7697 14.59 19.4971 13.6963C19.088 12.5817 18.2667 11.5134 17.1712 10.9959C16.4098 10.7323 15.9714 10.7578 15.2344 11.1328Z" fill="currentColor"/>
<path d="M45.9375 9.60937C46.8359 10.3993 47.2836 11.3985 47.3621 12.5807C47.4237 14.3599 46.8183 15.9148 45.6738 17.2705C44.6663 18.3243 43.4801 18.981 42.019 19.0356C41.0375 19.0093 40.1737 18.7183 39.4455 18.0437C38.4988 16.8776 38.3549 15.6275 38.4375 14.1797C38.6656 12.5983 39.436 11.4273 40.5469 10.3125C40.613 10.2436 40.6792 10.1747 40.7474 10.1038C42.1457 8.76681 44.3418 8.51199 45.9375 9.60937ZM41.6364 11.8996C40.695 12.9066 40.2266 14.0078 40.2718 15.3969C40.36 16.0605 40.6123 16.4871 41.1035 16.9336C41.6663 17.1934 42.107 17.206 42.6874 17.0279C43.8623 16.5523 44.5321 15.7581 45.1172 14.6484C45.494 13.7563 45.6312 12.8592 45.3369 11.9238C45.1244 11.4263 44.871 11.1884 44.4141 10.8984C43.2676 10.5523 42.4401 11.127 41.6364 11.8996Z" fill="currentColor"/>
</g>
<defs>
<clipPath id="clip0_105_70">
<rect width="60" height="60" fill="white"/>
</clipPath>
</defs>
</svg>
