<svg width="58" height="58" viewBox="0 0 58 58" fill="none" xmlns="http://www.w3.org/2000/svg">
<path d="M36.0682 8.72622e-05C34.1559 -0.00452881 32.2309 0.173952 30.3409 0.545541C29.5027 0.709412 29.0081 1.34708 29.231 1.96102C29.4571 2.57726 30.3152 2.94543 31.1503 2.77694C37.6335 1.5006 44.6093 2.87326 49.35 6.36071C54.0939 9.84815 55.9611 14.9763 54.2249 19.7401C53.9989 20.3563 54.4965 20.9872 55.3348 21.1511C55.4698 21.1788 55.6106 21.1916 55.7456 21.1916C56.4395 21.1916 57.0657 20.8521 57.2541 20.3351C59.2823 14.7797 57.1048 8.79792 51.5698 4.72886C47.4185 1.67706 41.8049 0.01361 36.0682 8.72622e-05ZM36.0559 4.61616C34.69 4.61293 33.3159 4.74176 31.9659 5.00834C31.1276 5.17222 30.6331 5.80537 30.856 6.41931C31.0789 7.03786 31.9433 7.39911 32.7753 7.23524C37.0985 6.38819 41.7428 7.30243 44.9043 9.62892C48.0659 11.9531 49.3158 15.3674 48.1604 18.5455C47.9375 19.1618 48.432 19.7926 49.2703 19.9565C49.4053 19.9842 49.5461 19.9971 49.6811 19.9971C50.375 19.9971 51.0044 19.6576 51.1896 19.1406C52.6369 15.1707 51.0829 10.8984 47.1302 7.99256C44.1657 5.81493 40.1538 4.62568 36.0559 4.61616ZM11.6201 5.20218C11.2182 5.20218 10.8163 5.31523 10.5102 5.54027C5.17292 9.46394 2.23204 14.6784 2.23204 20.227C2.23204 23.8206 3.48384 27.2666 5.80083 30.3201C5.50571 30.484 5.21221 30.6491 4.94849 30.843C3.46662 31.9324 2.64901 33.3854 2.64901 34.9272C2.64901 36.4689 3.46662 37.9174 4.94849 39.0068C5.32524 39.2838 5.72951 39.5248 6.15649 39.7326L3.32965 53.2472C1.41138 53.6834 0 54.9869 0 56.5379V58.846C0 59.483 0.703262 60 1.56978 60H26.6863C27.5528 60 28.2561 59.483 28.2561 58.846V56.5379C28.2561 54.9085 26.7133 53.5488 24.6443 53.1841L16.2681 38.813C16.4565 38.6629 16.6352 38.508 16.8016 38.3441C21.0463 40.0752 25.7301 40.9722 30.4206 40.9722C37.7515 40.9722 45.0501 38.9019 50.4721 34.9136C51.0844 34.4636 51.0844 33.7318 50.4721 33.2818L32.7079 20.227L35.2588 18.3517C36.298 18.5455 37.4319 18.386 38.245 17.7882C39.4726 16.8857 39.4726 15.4246 38.245 14.5245C37.0175 13.6243 35.0299 13.622 33.8055 14.5245C32.9923 15.1223 32.7721 15.9582 33.039 16.7198L30.4881 18.5951L12.7299 5.54027C12.4238 5.31524 12.0219 5.20218 11.6201 5.20218ZM11.6507 8.01059L29.323 21.0023C29.3419 21.0162 29.3472 21.0335 29.3659 21.0474C29.3848 21.0612 29.4146 21.0695 29.4334 21.0835L47.1057 34.0752C38.811 39.4483 26.4008 40.2169 16.9978 35.8062C15.4594 35.0838 14.0266 34.235 12.7299 33.2818C7.98607 29.7943 5.3716 25.1592 5.3716 20.227C5.3716 15.6824 7.59127 11.3849 11.6507 8.01059ZM36.0437 9.22772C35.2248 9.22603 34.4054 9.30624 33.597 9.46664C32.7587 9.63051 32.2581 10.2637 32.481 10.8776C32.707 11.4939 33.5744 11.8597 34.4064 11.6935C36.5696 11.2712 38.8886 11.7294 40.4709 12.8926C42.0501 14.0559 42.6736 15.763 42.0959 17.3509C41.8698 17.9672 42.3675 18.598 43.2058 18.7619C43.3408 18.7896 43.4755 18.8025 43.6105 18.8025C44.3043 18.8025 44.9398 18.463 45.1251 17.946C45.9947 15.5641 45.0611 12.9988 42.6907 11.2563C40.9106 9.94934 38.5002 9.23281 36.0437 9.22772ZM7.52391 32.2946C8.42183 33.2132 9.39877 34.1011 10.5102 34.9181C11.609 35.726 12.8261 36.4398 14.0851 37.1045C13.9909 37.1899 13.9404 37.2919 13.8337 37.3704C11.9971 38.7206 9.01104 38.7206 7.17439 37.3704C6.28276 36.715 5.78857 35.8482 5.78857 34.9226C5.78857 33.9994 6.28276 33.1304 7.17439 32.4749C7.27486 32.3987 7.41403 32.3615 7.52391 32.2946ZM13.662 40.1879L21.1675 53.0759H6.5428L9.15501 40.5981C9.60083 40.6535 10.0519 40.6927 10.504 40.6927C11.5841 40.6927 12.6573 40.5133 13.662 40.1879ZM4.71548 55.3839H23.5529C24.4194 55.3839 25.1226 55.9009 25.1226 56.5379V57.692H14.1342H3.14569V56.5379C3.14569 55.9009 3.84896 55.3839 4.71548 55.3839Z" fill="currentColor"/>
</svg>
