<svg width="60" height="60" viewBox="0 0 60 60" fill="none" xmlns="http://www.w3.org/2000/svg">
<g clip-path="url(#clip0_93_58)">
<path d="M32.8 0H27.2C25.3075 0 23.71 1.4175 23.485 3.3L22.8875 7.99C21.695 8.3775 20.545 8.855 19.4525 9.4125L15.7175 6.51C14.2025 5.3375 12.07 5.4725 10.755 6.825L6.8175 10.7625C5.475 12.065 5.34 14.1975 6.5125 15.71L9.415 19.4475C8.855 20.54 8.3775 21.69 7.9925 22.8825L3.2925 23.48C1.4175 23.71 0 25.3075 0 27.2V32.8C0 34.6925 1.4175 36.29 3.3 36.515L7.99 37.1125C8.3775 38.305 8.855 39.455 9.4125 40.5475L6.5125 44.2825C5.3375 45.7975 5.475 47.9325 6.83 49.2475L10.7675 53.185C12.07 54.5275 14.205 54.66 15.715 53.49L19.45 50.585C20.5425 51.1425 21.6925 51.62 22.8875 52.0075L23.485 56.7075C23.71 58.5825 25.3075 60 27.2 60H32.8C34.6925 60 36.29 58.5825 36.515 56.7L37.1125 52.01C38.3075 51.6225 39.4575 51.145 40.55 50.5875L44.285 53.49C45.8025 54.6625 47.9325 54.5275 49.2475 53.1725L53.185 49.235C54.5275 47.9325 54.6625 45.8 53.49 44.2875L50.5875 40.55C51.1475 39.4575 51.625 38.3075 52.01 37.115L56.71 36.5175C58.5825 36.29 60 34.6925 60 32.8V27.2C60 25.3075 58.5825 23.71 56.7 23.485L52.01 22.8875C51.6225 21.695 51.145 20.545 50.5875 19.4525L53.49 15.7175C54.665 14.2025 54.5275 12.07 53.1725 10.755L49.235 6.8175C47.9325 5.475 45.7975 5.3375 44.2875 6.5125L40.55 9.415C39.4575 8.855 38.3075 8.3775 37.115 7.9925L36.5175 3.2925C36.29 1.4175 34.6925 0 32.8 0ZM19.325 12.15C19.5325 12.15 19.745 12.0975 19.935 11.9925C21.3125 11.2225 22.805 10.6025 24.37 10.1525C24.85 10.015 25.2025 9.605 25.265 9.11L25.965 3.61C26.04 2.9825 26.5825 2.5 27.2 2.5H32.8C33.4175 2.5 33.96 2.9825 34.0325 3.5975L34.735 9.1075C34.7975 9.6025 35.15 10.0125 35.63 10.15C37.195 10.6 38.6875 11.22 40.065 11.99C40.5025 12.235 41.0475 12.1925 41.44 11.885L45.815 8.485C46.3175 8.095 47.0225 8.1275 47.4525 8.57L51.415 12.5325C51.8675 12.9725 51.9025 13.6775 51.5125 14.1825L48.1125 18.5575C47.805 18.9525 47.7625 19.495 48.0075 19.9325C48.7775 21.31 49.3975 22.8025 49.8475 24.3675C49.985 24.8475 50.395 25.2 50.89 25.2625L56.39 25.9625C57.0175 26.04 57.5 26.5825 57.5 27.2V32.8C57.5 33.4175 57.0175 33.96 56.4025 34.0325L50.8925 34.735C50.3975 34.7975 49.9875 35.15 49.85 35.63C49.4 37.195 48.78 38.6875 48.01 40.065C47.765 40.5025 47.805 41.045 48.115 41.44L51.515 45.815C51.9075 46.32 51.8725 47.025 51.4325 47.45L47.47 51.4125C47.0325 51.8675 46.325 51.9025 45.82 51.51L41.445 48.11C41.0475 47.8025 40.505 47.76 40.0675 48.005C38.695 48.775 37.2025 49.3925 35.6325 49.845C35.1525 49.9825 34.8 50.3925 34.7375 50.8875L34.0375 56.3875C33.96 57.0175 33.4175 57.5 32.8 57.5H27.2C26.5825 57.5 26.04 57.0175 25.9675 56.4025L25.265 50.8925C25.2025 50.3975 24.85 49.9875 24.37 49.8475C22.8 49.3975 21.3075 48.7775 19.935 48.01C19.4975 47.7625 18.955 47.8075 18.5575 48.1125L14.1825 51.5125C13.6775 51.905 12.975 51.87 12.5475 51.43L8.585 47.465C8.1325 47.025 8.0975 46.32 8.4875 45.815L11.8875 41.44C12.195 41.045 12.2375 40.5025 11.9925 40.065C11.22 38.6875 10.6025 37.195 10.1525 35.63C10.015 35.15 9.605 34.7975 9.11 34.735L3.61 34.035C2.9825 33.96 2.5 33.4175 2.5 32.8V27.2C2.5 26.5825 2.9825 26.04 3.5975 25.9675L9.1075 25.265C9.6025 25.2025 10.0125 24.85 10.15 24.37C10.6 22.805 11.22 21.3125 11.99 19.935C12.235 19.4975 12.195 18.955 11.885 18.56L8.485 14.185C8.0925 13.68 8.1275 12.975 8.5675 12.55L12.53 8.5875C12.9675 8.135 13.67 8.1 14.18 8.49L18.555 11.89C18.7825 12.06 19.0525 12.15 19.325 12.15Z" />
<path d="M30 14C21.1776 14 14 21.1776 14 30C14 38.8224 21.1776 46 30 46C38.8224 46 46 38.8224 46 30C46 21.1776 38.8224 14 30 14ZM30 42.8C22.9408 42.8 17.2 37.0592 17.2 30C17.2 22.9408 22.9408 17.2 30 17.2C37.0592 17.2 42.8 22.9408 42.8 30C42.8 37.0592 37.0592 42.8 30 42.8Z" />
</g>
<path d="M27.8616 26.7536C27.7054 24.9559 25.8311 24.0739 25.7518 24.0379C25.6777 24.003 25.5946 23.9918 25.5138 24.0059C23.3501 24.3652 23.0246 25.6252 23.0115 25.6776C22.9937 25.7506 22.9966 25.8271 23.0197 25.8985C25.6002 33.9096 30.9627 35.3954 32.7265 35.884L32.7272 35.8842C32.746 35.8895 32.7645 35.8946 32.7824 35.8995C32.8935 35.9302 32.9868 35.956 33.06 35.98C33.157 36.0117 33.2625 36.0056 33.3552 35.9628C33.4092 35.9382 34.6832 35.3377 34.9948 33.3788C35.0086 33.2933 34.9948 33.2056 34.9555 33.1284C34.9277 33.0744 34.2613 31.8053 32.4132 31.357C32.3505 31.3409 32.2848 31.3403 32.2218 31.3553C32.1589 31.3703 32.1005 31.4003 32.0517 31.4429C31.4687 31.9412 30.6632 32.4722 30.3156 32.527C27.9859 31.3872 26.6849 29.2001 26.6358 28.7852C26.6072 28.552 27.1412 27.733 27.7553 27.067C27.7939 27.025 27.8233 26.9755 27.8416 26.9215C27.8599 26.8676 27.8667 26.8103 27.8616 26.7536Z" />
<path d="M27.8616 26.7536C27.7054 24.9559 25.8311 24.0739 25.7518 24.0379C25.6777 24.003 25.5946 23.9918 25.5138 24.0059C23.3501 24.3652 23.0246 25.6252 23.0115 25.6776C22.9937 25.7506 22.9966 25.8271 23.0197 25.8985C25.6002 33.9096 30.9627 35.3954 32.7265 35.884L32.7272 35.8842C32.746 35.8895 32.7645 35.8946 32.7824 35.8995C32.8935 35.9302 32.9868 35.956 33.06 35.98C33.157 36.0117 33.2625 36.0056 33.3552 35.9628C33.4092 35.9382 34.6832 35.3377 34.9948 33.3788C35.0086 33.2933 34.9948 33.2056 34.9555 33.1284C34.9277 33.0744 34.2613 31.8053 32.4132 31.357C32.3505 31.3409 32.2848 31.3403 32.2218 31.3553C32.1589 31.3703 32.1005 31.4003 32.0517 31.4429C31.4687 31.9412 30.6632 32.4722 30.3156 32.527C27.9859 31.3872 26.6849 29.2001 26.6358 28.7852C26.6072 28.552 27.1412 27.733 27.7553 27.067C27.7939 27.025 27.8233 26.9755 27.8416 26.9215C27.8599 26.8676 27.8667 26.8103 27.8616 26.7536Z" stroke="black"/>
<defs>
<clipPath id="clip0_93_58">
<rect width="60" height="60" fill="white" transform="matrix(1 0 0 -1 0 60)"/>
</clipPath>
</defs>
</svg>
