<svg width="60" height="60" viewBox="0 0 60 60" fill="none" xmlns="http://www.w3.org/2000/svg">

<path d="M1 1C14.2 1 27.4 1 41 1C41 4.3 41 7.6 41 11C40.01 11 39.02 11 38 11C38 14.63 38 18.26 38 22C39.1756 21.9587 40.3512 21.9175 41.5625 21.875C45.7063 21.9044 49.1464 22.3376 53 24C54.75 27.0625 54.75 27.0625 56 30C56.99 30.33 57.98 30.66 59 31C58.69 33.7295 58.3771 36.4586 58.0625 39.1875C57.932 40.3409 57.932 40.3409 57.7988 41.5176C57.3504 45.3877 56.8471 49.1919 56 53C57.32 53 58.64 53 60 53C60 53.99 60 54.98 60 56C59.3735 56.1212 58.747 56.2423 58.1016 56.3672C56.8757 56.6186 56.8757 56.6186 55.625 56.875C54.4068 57.1186 54.4068 57.1186 53.1641 57.3672C50.8133 57.8666 50.8133 57.8666 49 60C43.6667 60.3333 43.6667 60.3333 41 59C41 58.34 41 57.68 41 57C37.7502 58.0878 37.7502 58.0878 35 60C29.4706 60.2353 29.4706 60.2353 27 59C27 58.34 27 57.68 27 57C24.03 56.67 21.06 56.34 18 56C17.67 55.01 17.34 54.02 17 53C18.65 53 20.3 53 22 53C21.67 50.36 21.34 47.72 21 45C14.4 45 7.8 45 1 45C1 44.01 1 43.02 1 42C2.32 42 3.64 42 5 42C5 31.77 5 21.54 5 11C3.68 11 2.36 11 1 11C1 7.7 1 4.4 1 1ZM4 4C4 5.32 4 6.64 4 8C15.22 8 26.44 8 38 8C38 6.68 38 5.36 38 4C26.78 4 15.56 4 4 4ZM7 11C7 21.23 7 31.46 7 42C11.29 42 15.58 42 20 42C19.67 38.37 19.34 34.74 19 31C19.99 31 20.98 31 22 31C22.2887 30.0719 22.5775 29.1437 22.875 28.1875C26.0596 23.4106 29.5043 23.2847 35 22C35 18.37 35 14.74 35 11C25.76 11 16.52 11 7 11ZM26 27C25.67 28.32 25.34 29.64 25 31C33.91 31 42.82 31 52 31C51.67 29.68 51.34 28.36 51 27C46.8312 25.0627 43.0556 24.7283 38.5 24.75C37.4172 24.7448 36.3344 24.7397 35.2188 24.7344C31.7849 25.0178 29.1286 25.5461 26 27ZM22 34C22.5838 48.3602 22.5838 48.3602 26 53C26.3506 52.4844 26.7013 51.9688 27.0625 51.4375C29 50 29 50 32.625 50.1875C33.7388 50.4556 34.8525 50.7238 36 51C36.33 51.66 36.66 52.32 37 53C38.32 53 39.64 53 41 53C41.66 52.01 42.32 51.02 43 50C45.3431 50.2556 47.6784 50.5927 50 51C50.33 51.66 50.66 52.32 51 53C51.66 53 52.32 53 53 53C53.3391 50.9593 53.671 48.9174 54 46.875C54.2784 45.1696 54.2784 45.1696 54.5625 43.4297C55.1265 39.5843 55.1265 39.5843 55 34C44.11 34 33.22 34 22 34ZM30 54C30.33 54.66 30.66 55.32 31 56C31.66 56 32.32 56 33 56C33 55.34 33 54.68 33 54C32.01 54 31.02 54 30 54ZM45 54C45 54.66 45 55.32 45 56C45.66 56 46.32 56 47 56C47 55.34 47 54.68 47 54C46.34 54 45.68 54 45 54Z"/>
<path d="M37 38C38.32 38 39.64 38 41 38C41 40.64 41 43.28 41 46C39.68 46 38.36 46 37 46C37 43.36 37 40.72 37 38Z"/>
<path d="M44 38C45.32 38 46.64 38 48 38C48 40.64 48 43.28 48 46C46.68 46 45.36 46 44 46C44 43.36 44 40.72 44 38Z" />
<path d="M30 38C31.32 38 32.64 38 34 38C34 40.64 34 43.28 34 46C32.68 46 31.36 46 30 46C30 43.36 30 40.72 30 38Z"/>
<path d="M40 31C42.31 31 44.62 31 47 31C46.67 31.99 46.34 32.98 46 34C44.02 34 42.04 34 40 34C40 33.01 40 32.02 40 31Z"/>

</svg>
