<svg width="61" height="61" viewBox="0 0 61 61" fill="currentColor" xmlns="http://www.w3.org/2000/svg">
<mask id="path-1-inside-1_94_61" fill="white">
<path d="M50.925 25.0645C51.0861 24.2655 50.3268 23.5227 49.2292 23.4054L37.8843 22.1981L32.8147 14.6777C32.6321 14.4483 32.3702 14.2578 32.0548 14.1252C31.059 13.7062 29.7851 13.9542 29.2095 14.6791L24.1418 22.1981L12.7969 23.4055C12.3632 23.4518 11.9623 23.6002 11.6551 23.8279C10.8779 24.4042 10.8898 25.3299 11.6814 25.8957L19.8975 31.7593L17.9587 40.0361C17.9403 40.1153 17.9309 40.1955 17.9306 40.2759C17.9276 41.0846 18.8257 41.742 19.9367 41.7443C20.2642 41.7439 20.5867 41.6851 20.8758 41.573L31.0131 37.6715L41.1484 41.5716C41.5401 41.7229 41.9895 41.7756 42.4267 41.7214C43.5191 41.5858 44.2537 40.8313 44.0675 40.0361L42.1286 31.7593L50.3467 25.8941C50.6584 25.6708 50.8614 25.3795 50.925 25.0645ZM40.3485 30.9829C40.1135 31.1508 40.006 31.3916 40.0604 31.628L42.0874 40.28L31.4816 36.1986C31.1879 36.0873 30.8382 36.0873 30.5445 36.1986L19.9387 40.2815L21.9656 31.628C22.0202 31.3917 21.9126 31.1509 21.6775 30.983L13.0869 24.8525L24.9553 23.5896C25.283 23.5539 25.5658 23.4035 25.7121 23.1872L31.0131 15.3229L36.3139 23.1871C36.4602 23.4034 36.7431 23.5538 37.0707 23.5895L48.941 24.851L40.3485 30.9829Z"/>
</mask>
<path d="M50.925 25.0645C51.0861 24.2655 50.3268 23.5227 49.2292 23.4054L37.8843 22.1981L32.8147 14.6777C32.6321 14.4483 32.3702 14.2578 32.0548 14.1252C31.059 13.7062 29.7851 13.9542 29.2095 14.6791L24.1418 22.1981L12.7969 23.4055C12.3632 23.4518 11.9623 23.6002 11.6551 23.8279C10.8779 24.4042 10.8898 25.3299 11.6814 25.8957L19.8975 31.7593L17.9587 40.0361C17.9403 40.1153 17.9309 40.1955 17.9306 40.2759C17.9276 41.0846 18.8257 41.742 19.9367 41.7443C20.2642 41.7439 20.5867 41.6851 20.8758 41.573L31.0131 37.6715L41.1484 41.5716C41.5401 41.7229 41.9895 41.7756 42.4267 41.7214C43.5191 41.5858 44.2537 40.8313 44.0675 40.0361L42.1286 31.7593L50.3467 25.8941C50.6584 25.6708 50.8614 25.3795 50.925 25.0645ZM40.3485 30.9829C40.1135 31.1508 40.006 31.3916 40.0604 31.628L42.0874 40.28L31.4816 36.1986C31.1879 36.0873 30.8382 36.0873 30.5445 36.1986L19.9387 40.2815L21.9656 31.628C22.0202 31.3917 21.9126 31.1509 21.6775 30.983L13.0869 24.8525L24.9553 23.5896C25.283 23.5539 25.5658 23.4035 25.7121 23.1872L31.0131 15.3229L36.3139 23.1871C36.4602 23.4034 36.7431 23.5538 37.0707 23.5895L48.941 24.851L40.3485 30.9829Z" />
<path d="M50.925 25.0645L80.3318 31.0007L80.3331 30.9944L50.925 25.0645ZM49.2292 23.4054L52.4168 -6.42477L52.4037 -6.42616L49.2292 23.4054ZM37.8843 22.1981L13.0086 38.9672L20.8177 50.5514L34.7098 52.0297L37.8843 22.1981ZM32.8147 14.6777L57.6904 -2.09132L57.0271 -3.07522L56.2882 -4.00366L32.8147 14.6777ZM32.0548 14.1252L20.4213 41.7777L20.4256 41.7795L32.0548 14.1252ZM29.2095 14.6791L5.7153 -3.97626L4.98691 -3.05894L4.33226 -2.08763L29.2095 14.6791ZM24.1418 22.1981L27.3166 52.0297L41.2102 50.5511L49.019 38.9649L24.1418 22.1981ZM12.7969 23.4055L9.62215 -6.42605L9.61335 -6.42511L12.7969 23.4055ZM11.6551 23.8279L-6.21011 -0.272614L-6.213 -0.270471L11.6551 23.8279ZM11.6814 25.8957L-5.76125 50.3037L-5.75359 50.3092L-5.74593 50.3147L11.6814 25.8957ZM19.8975 31.7593L49.1068 38.6017L53.6933 19.0222L37.3249 7.34034L19.8975 31.7593ZM17.9587 40.0361L-11.2506 33.1938L-11.2577 33.2242L-11.2648 33.2546L17.9587 40.0361ZM17.9306 40.2759L47.9304 40.3896L47.9304 40.3785L47.9305 40.3673L17.9306 40.2759ZM19.9367 41.7443L19.8765 71.7442L19.923 71.7443L19.9694 71.7442L19.9367 41.7443ZM20.8758 41.573L10.1003 13.575L10.0636 13.5891L10.027 13.6033L20.8758 41.573ZM31.0131 37.6715L41.7869 9.67287L31.0121 5.52674L20.2376 9.67349L31.0131 37.6715ZM41.1484 41.5716L51.961 13.5879L51.9416 13.5804L51.9223 13.5729L41.1484 41.5716ZM42.4267 41.7214L46.1196 71.4933L46.1237 71.4928L42.4267 41.7214ZM44.0675 40.0361L73.2771 33.1952L73.2767 33.1938L44.0675 40.0361ZM42.1286 31.7593L24.701 7.3405L8.33283 19.0224L12.9193 38.6017L42.1286 31.7593ZM50.3467 25.8941L67.7742 50.313L67.7967 50.2969L67.8192 50.2808L50.3467 25.8941ZM40.3485 30.9829L22.9218 6.56348L22.9118 6.57064L40.3485 30.9829ZM40.0604 31.628L10.8248 38.3571L10.8379 38.4142L10.8513 38.4712L40.0604 31.628ZM42.0874 40.28L31.3129 68.2784L84.2304 88.6424L71.2965 33.4367L42.0874 40.28ZM31.4816 36.1986L42.2561 8.20024L42.1848 8.17282L42.1135 8.14577L31.4816 36.1986ZM30.5445 36.1986L19.9127 8.14577L19.8396 8.17345L19.7668 8.2015L30.5445 36.1986ZM19.9387 40.2815L-9.2707 33.4396L-22.2031 88.6505L30.7165 68.2786L19.9387 40.2815ZM21.9656 31.628L51.175 38.4699L51.1865 38.4208L51.1979 38.3716L21.9656 31.628ZM21.6775 30.983L39.1082 6.56642L39.1041 6.56353L21.6775 30.983ZM13.0869 24.8525L9.91252 -4.97907L-68.6463 3.38045L-4.33973 49.272L13.0869 24.8525ZM24.9553 23.5896L28.1297 53.4212L28.1656 53.4173L28.2015 53.4134L24.9553 23.5896ZM25.7121 23.1872L50.5646 39.9906L50.5765 39.9729L50.5885 39.9552L25.7121 23.1872ZM31.0131 15.3229L55.8895 -1.44502L31.0132 -38.3508L6.13672 -1.44515L31.0131 15.3229ZM36.3139 23.1871L11.4375 39.955L11.4494 39.9727L11.4614 39.9905L36.3139 23.1871ZM37.0707 23.5895L33.8233 53.4132L33.8618 53.4174L33.9004 53.4215L37.0707 23.5895ZM48.941 24.851L66.3677 49.2704L130.687 3.36949L52.1114 -4.98102L48.941 24.851ZM80.3331 30.9944C82.806 18.7303 77.5962 8.4711 71.5288 2.53512C65.6977 -3.16971 58.6196 -5.76195 52.4168 -6.42477L46.0417 53.2356C40.9364 52.6901 34.7868 50.5278 29.5694 45.4235C24.1158 40.088 19.205 30.5997 21.5169 19.1346L80.3331 30.9944ZM52.4037 -6.42616L41.0588 -7.63342L34.7098 52.0297L46.0547 53.237L52.4037 -6.42616ZM62.76 5.42912L57.6904 -2.09132L7.93899 31.4467L13.0086 38.9672L62.76 5.42912ZM56.2882 -4.00366C52.4873 -8.77954 47.862 -11.7722 43.684 -13.5291L20.4256 41.7795C16.8783 40.2878 12.7769 37.6761 9.34115 33.3591L56.2882 -4.00366ZM43.6883 -13.5273C37.2335 -16.2429 30.5694 -16.6084 24.742 -15.474C19.1405 -14.3835 11.5355 -11.3061 5.7153 -3.97626L52.7037 33.3345C47.4591 39.9394 40.7789 42.5304 36.2072 43.4204C31.4096 44.3544 25.8802 44.0743 20.4213 41.7777L43.6883 -13.5273ZM4.33226 -2.08763L-0.735406 5.43139L49.019 38.9649L54.0867 31.4459L4.33226 -2.08763ZM20.9671 -7.6334L9.62215 -6.42604L15.9717 53.237L27.3166 52.0297L20.9671 -7.6334ZM9.61335 -6.42511C4.61692 -5.89188 -1.03613 -4.10798 -6.21011 -0.272613L29.5203 47.9284C24.9606 51.3084 20.1094 52.7955 15.9805 53.2361L9.61335 -6.42511ZM-6.213 -0.270471C-12.9619 4.73357 -19.0658 13.6418 -18.9176 25.2488C-18.7699 36.8128 -12.4897 45.4953 -5.76125 50.3037L29.1241 1.48762C35.061 5.73025 40.9394 13.667 41.0775 24.4827C41.2162 35.3413 35.4948 43.4985 29.5232 47.9263L-6.213 -0.270471ZM-5.74593 50.3147L2.47016 56.1783L37.3249 7.34034L29.1088 1.47667L-5.74593 50.3147ZM-9.31177 24.917L-11.2506 33.1938L47.168 46.8784L49.1068 38.6017L-9.31177 24.917ZM-11.2648 33.2546C-11.7822 35.4844 -12.062 37.808 -12.0692 40.1845L47.9305 40.3673C47.9237 42.5829 47.6628 44.7462 47.1821 46.8176L-11.2648 33.2546ZM-12.0692 40.1623C-12.116 52.5253 -5.20049 61.131 0.796812 65.5207C6.81751 69.9275 13.6638 71.7317 19.8765 71.7442L19.9969 11.7443C25.0986 11.7546 30.9403 13.229 36.2349 17.1044C41.5062 20.9626 47.9742 28.8352 47.9304 40.3896L-12.0692 40.1623ZM19.9694 71.7442C23.7823 71.7401 27.7918 71.0681 31.7245 69.5427L10.027 13.6033C13.3816 12.3021 16.7462 11.7477 19.9041 11.7443L19.9694 71.7442ZM31.6512 69.571L41.7885 65.6695L20.2376 9.67349L10.1003 13.575L31.6512 69.571ZM20.2392 65.6702L30.3745 69.5702L51.9223 13.5729L41.7869 9.67287L20.2392 65.6702ZM30.3358 69.5553C35.5677 71.5768 41.0204 72.1258 46.1196 71.4933L38.7338 11.9496C42.9587 11.4255 47.5125 11.869 51.961 13.5879L30.3358 69.5553ZM46.1237 71.4928C52.3267 70.7225 59.4447 67.9874 65.222 62.0533C71.2754 55.8355 76.1232 45.3475 73.2771 33.1952L14.8578 46.877C12.198 35.5199 16.7715 25.8067 22.2312 20.1989C27.4146 14.8747 33.6191 12.5847 38.7298 11.9501L46.1237 71.4928ZM73.2767 33.1938L71.3379 24.917L12.9193 38.6017L14.8582 46.8784L73.2767 33.1938ZM59.5562 56.1782L67.7742 50.313L32.9191 1.47532L24.701 7.3405L59.5562 56.1782ZM67.8192 50.2808C73.0373 46.5422 78.4854 40.1475 80.3318 31.0007L21.5181 19.1283C23.2374 10.6116 28.2794 4.79944 32.8741 1.50745L67.8192 50.2808ZM22.9118 6.57064C15.1812 12.0923 7.45388 23.7119 10.8248 38.3571L69.2959 24.8988C72.558 39.0713 65.0459 50.2093 57.7853 55.3952L22.9118 6.57064ZM10.8513 38.4712L12.8784 47.1233L71.2965 33.4367L69.2694 24.7847L10.8513 38.4712ZM52.8619 12.2816L42.2561 8.20024L20.7071 64.197L31.3129 68.2784L52.8619 12.2816ZM42.1135 8.14577C34.9696 5.43829 27.0565 5.43829 19.9127 8.14577L41.1764 64.2515C34.6199 66.7364 27.4062 66.7364 20.8497 64.2515L42.1135 8.14577ZM19.7668 8.2015L9.16092 12.2843L30.7165 68.2786L41.3223 64.1958L19.7668 8.2015ZM49.1481 47.1234L51.175 38.4699L-7.24376 24.7861L-9.2707 33.4396L49.1481 47.1234ZM51.1979 38.3716C54.5792 23.7142 46.8411 12.0869 39.1082 6.56642L4.24675 55.3996C-3.01595 50.2149 -10.5389 39.0692 -7.26661 24.8845L51.1979 38.3716ZM39.1041 6.56353L30.5136 0.433012L-4.33973 49.272L4.2508 55.4025L39.1041 6.56353ZM16.2613 54.6841L28.1297 53.4212L21.7809 -6.24199L9.91252 -4.97907L16.2613 54.6841ZM28.2015 53.4134C34.8088 52.6942 44.2322 49.3562 50.5646 39.9906L0.859639 6.38374C6.89941 -2.54915 15.7573 -5.58642 21.709 -6.23426L28.2015 53.4134ZM50.5885 39.9552L55.8894 32.0909L6.13672 -1.44515L0.835758 6.41912L50.5885 39.9552ZM6.13662 32.0908L11.4375 39.955L61.1903 6.41916L55.8895 -1.44502L6.13662 32.0908ZM11.4614 39.9905C17.795 49.358 27.2199 52.6942 33.8233 53.4132L40.3182 -6.23422C46.2663 -5.58654 55.1253 -2.55109 61.1664 6.38365L11.4614 39.9905ZM33.9004 53.4215L45.7707 54.683L52.1114 -4.98102L40.2411 -6.24252L33.9004 53.4215ZM31.5143 0.431533L22.9218 6.56348L57.7753 55.4024L66.3677 49.2704L31.5143 0.431533Z"  mask="url(#path-1-inside-1_94_61)"/>
<path d="M50.3467 25.8941C50.6584 25.6708 50.8614 25.3795 50.925 25.0645C51.0861 24.2656 50.327 23.5229 49.2296 23.4055L37.8843 22.1981L32.8147 14.6777C32.6322 14.4487 32.3697 14.2576 32.0548 14.1252C31.0602 13.7068 29.7882 13.9536 29.2116 14.6765L29.2095 14.6791L24.1418 22.1981L12.7977 23.4054C12.3639 23.4517 11.9623 23.6002 11.6551 23.8279C10.8779 24.4042 10.8898 25.3299 11.6814 25.8957L19.8975 31.7593L17.9587 40.0361C17.9403 40.1153 17.9309 40.1955 17.9306 40.2759C17.9276 41.0846 18.8257 41.742 19.9367 41.7443C20.2633 41.7439 20.5849 41.6854 20.8733 41.5739L20.8758 41.573L31.0131 37.6715L38.8489 40.6867L41.1484 41.5716L41.1526 41.5732C41.5433 41.7233 41.9911 41.7755 42.4267 41.7214C43.3838 41.6026 44.0662 41.0088 44.0953 40.3287L44.0957 40.3184C44.0988 40.2255 44.0897 40.1311 44.0675 40.0361L42.1286 31.7593L50.3467 25.8941ZM48.9404 24.8515L37.0707 23.5895C37.0106 23.5829 36.9519 23.5725 36.8953 23.5585L36.8838 23.5556C36.6374 23.4923 36.4315 23.361 36.3139 23.1871L31.0138 15.324L25.7121 23.1872C25.5658 23.4035 25.283 23.5539 24.9553 23.5896L13.0869 24.8525L21.6775 30.983C21.7466 31.0324 21.8048 31.0881 21.851 31.1482L21.8541 31.1522C21.9626 31.2954 22.0038 31.4628 21.9656 31.628L19.939 40.28L19.9387 40.2815L19.9413 40.2805L19.9446 40.2792L30.5445 36.1986C30.8382 36.0873 31.1879 36.0873 31.4816 36.1986L42.0862 40.2796L40.0604 31.628C40.0519 31.5914 40.0474 31.5547 40.0466 31.5181L40.0465 31.5063C40.0466 31.3111 40.1539 31.122 40.3485 30.9829L48.9404 24.8515Z" />
<path d="M50.3467 25.8941C50.6584 25.6708 50.8614 25.3795 50.925 25.0645C51.0861 24.2656 50.327 23.5229 49.2296 23.4055L37.8843 22.1981L32.8147 14.6777C32.6322 14.4487 32.3697 14.2576 32.0548 14.1252C31.0602 13.7068 29.7882 13.9536 29.2116 14.6765L29.2095 14.6791L24.1418 22.1981L12.7977 23.4054C12.3639 23.4517 11.9623 23.6002 11.6551 23.8279C10.8779 24.4042 10.8898 25.3299 11.6814 25.8957L19.8975 31.7593L17.9587 40.0361C17.9403 40.1153 17.9309 40.1955 17.9306 40.2759C17.9276 41.0846 18.8257 41.742 19.9367 41.7443C20.2633 41.7439 20.5849 41.6854 20.8733 41.5739L20.8758 41.573L31.0131 37.6715L38.8489 40.6867L41.1484 41.5716L41.1526 41.5732C41.5433 41.7233 41.9911 41.7755 42.4267 41.7214C43.3838 41.6026 44.0662 41.0088 44.0953 40.3287L44.0957 40.3184C44.0988 40.2255 44.0897 40.1311 44.0675 40.0361L42.1286 31.7593L50.3467 25.8941ZM48.9404 24.8515L37.0707 23.5895C37.0106 23.5829 36.9519 23.5725 36.8953 23.5585L36.8838 23.5556C36.6374 23.4923 36.4315 23.361 36.3139 23.1871L31.0138 15.324L25.7121 23.1872C25.5658 23.4035 25.283 23.5539 24.9553 23.5896L13.0869 24.8525L21.6775 30.983C21.7466 31.0324 21.8048 31.0881 21.851 31.1482L21.8541 31.1522C21.9626 31.2954 22.0038 31.4628 21.9656 31.628L19.939 40.28L19.9387 40.2815L19.9413 40.2805L19.9446 40.2792L30.5445 36.1986C30.8382 36.0873 31.1879 36.0873 31.4816 36.1986L42.0862 40.2796L40.0604 31.628C40.0519 31.5914 40.0474 31.5547 40.0466 31.5181L40.0465 31.5063C40.0466 31.3111 40.1539 31.122 40.3485 30.9829L48.9404 24.8515Z" stroke="black"/>
<path d="M60.934 6.11747C60.7218 5.32055 59.728 4.80966 58.7141 4.97624C49.4544 6.51305 39.7988 4.96113 32.0502 0.690529C31.4043 0.333626 30.5428 0.333626 29.8969 0.690529C22.1486 4.96131 12.4928 6.51341 3.23311 4.97624C3.10722 4.95556 2.97905 4.94512 2.85042 4.94512C1.8145 4.94458 0.974274 5.60406 0.973587 6.41825V30.0516C0.979767 38.7056 6.28067 46.8294 15.2192 51.8831L29.8823 60.1465C30.2002 60.3264 30.582 60.4232 30.9736 60.4229C31.3652 60.4232 31.747 60.3266 32.0649 60.1467L46.728 51.8831C55.6665 46.8294 60.9674 38.7056 60.9736 30.0516V6.41825C60.9736 6.31715 60.9603 6.21641 60.934 6.11747ZM57.2236 30.0516C57.2195 37.7557 52.5018 44.9884 44.5454 49.4884L30.9736 57.1359L17.4018 49.4884C9.44542 44.9882 4.72771 37.7557 4.72359 30.0516V8.17974C13.8802 9.25476 23.2204 7.65212 30.9736 3.67527C38.7274 7.65104 48.0672 9.25368 57.2236 8.17974V30.0516Z" />
</svg>
