<svg width="60" height="60" viewBox="0 0 60 60" fill="none" xmlns="http://www.w3.org/2000/svg">
<path d="M3.91033 0.906161C4.00875 0.90563 4.10716 0.905099 4.20857 0.904552C4.53818 0.903069 4.86776 0.90326 5.19738 0.903454C5.43378 0.902752 5.67018 0.901955 5.90658 0.901068C6.5487 0.898997 7.19081 0.898448 7.83293 0.898299C8.36907 0.898076 8.9052 0.897214 9.44133 0.896384C10.7064 0.894475 11.9714 0.893903 13.2364 0.894069C14.541 0.89421 15.8457 0.891737 17.1503 0.888036C18.2707 0.88497 19.391 0.883714 20.5113 0.883864C21.1804 0.883923 21.8494 0.883256 22.5184 0.880775C23.1477 0.878505 23.7771 0.878489 24.4064 0.880193C24.6371 0.880438 24.8679 0.879885 25.0986 0.878468C25.4141 0.876655 25.7295 0.877749 26.0451 0.879553C26.1359 0.878348 26.2267 0.877142 26.3202 0.8759C27.0879 0.885568 27.6918 1.1293 28.2706 1.6365C28.3337 1.71279 28.3969 1.78908 28.4619 1.86768C28.5269 1.94366 28.5918 2.01964 28.6588 2.09793C29.1067 2.74797 29.0949 3.3403 29.0891 4.10422C29.0892 4.22204 29.0892 4.33985 29.0892 4.46124C29.0891 4.84993 29.0872 5.2386 29.0854 5.62729C29.085 5.89707 29.0846 6.16685 29.0844 6.43663C29.0835 7.14618 29.0812 7.85572 29.0786 8.56526C29.0762 9.2895 29.0751 10.0137 29.074 10.738C29.0714 12.1587 29.0674 13.5793 29.0625 15C28.7531 15 28.4438 15 28.125 15C28.1637 15.6187 28.2024 16.2375 28.2422 16.875C29.4024 16.875 30.5625 16.875 31.7578 16.875C31.7965 16.2562 31.8352 15.6375 31.875 15C31.5656 15 31.2563 15 30.9375 15C30.9266 13.4424 30.9183 11.8849 30.9132 10.3273C30.9108 9.60396 30.9075 8.88069 30.9022 8.15741C30.8971 7.45912 30.8943 6.76086 30.893 6.06255C30.8922 5.79642 30.8905 5.5303 30.888 5.26418C30.8845 4.8908 30.8841 4.51753 30.8843 4.14413C30.8826 4.03464 30.8809 3.92514 30.8792 3.81233C30.8844 2.97914 31.0831 2.36097 31.6365 1.72943C31.7128 1.66629 31.7891 1.60314 31.8677 1.53809C31.9437 1.47313 32.0197 1.40817 32.0979 1.34125C32.6803 0.940029 33.2189 0.903421 33.9103 0.906161C34.0087 0.90563 34.1072 0.905099 34.2086 0.904552C34.5382 0.903069 34.8678 0.90326 35.1974 0.903454C35.4338 0.902752 35.6702 0.901955 35.9066 0.901068C36.5487 0.898997 37.1908 0.898448 37.8329 0.898299C38.3691 0.898076 38.9052 0.897214 39.4413 0.896384C40.7064 0.894475 41.9714 0.893903 43.2364 0.894069C44.541 0.89421 45.8457 0.891737 47.1503 0.888036C48.2707 0.88497 49.391 0.883714 50.5113 0.883864C51.1804 0.883923 51.8494 0.883256 52.5184 0.880775C53.1477 0.878505 53.7771 0.878489 54.4064 0.880193C54.6371 0.880438 54.8679 0.879885 55.0986 0.878468C55.4141 0.876655 55.7295 0.877749 56.0451 0.879553C56.1359 0.878348 56.2267 0.877142 56.3202 0.8759C57.0879 0.885568 57.6918 1.1293 58.2706 1.6365C58.3337 1.71279 58.3969 1.78908 58.4619 1.86768C58.5269 1.94366 58.5918 2.01964 58.6588 2.09793C59.06 2.68024 59.0966 3.2189 59.0939 3.91031C59.0944 4.00873 59.0949 4.10715 59.0955 4.20855C59.0969 4.53816 59.0968 4.86775 59.0966 5.19736C59.0973 5.43376 59.0981 5.67017 59.0989 5.90657C59.101 6.54869 59.1016 7.1908 59.1017 7.83292C59.1019 8.36905 59.1028 8.90518 59.1036 9.44131C59.1055 10.7063 59.1061 11.9714 59.1059 13.2364C59.1058 14.541 59.1083 15.8457 59.112 17.1503C59.1151 18.2706 59.1163 19.391 59.1162 20.5113C59.1161 21.1803 59.1168 21.8493 59.1192 22.5184C59.1215 23.1477 59.1215 23.777 59.1198 24.4064C59.1196 24.6371 59.1201 24.8678 59.1216 25.0986C59.1234 25.4141 59.1223 25.7295 59.1205 26.045C59.1217 26.1358 59.1229 26.2266 59.1241 26.3202C59.1145 27.0879 58.8707 27.6918 58.3635 28.2706C58.2872 28.3337 58.2109 28.3969 58.1323 28.4619C58.0564 28.5269 57.9804 28.5918 57.9021 28.6588C57.252 29.1066 56.6597 29.0949 55.8958 29.0891C55.7191 29.0892 55.7191 29.0892 55.5388 29.0892C55.1501 29.089 54.7614 29.0872 54.3727 29.0854C54.1029 29.085 53.8332 29.0846 53.5634 29.0844C52.8538 29.0835 52.1443 29.0812 51.4348 29.0786C50.7105 29.0762 49.9863 29.0751 49.262 29.0739C47.8414 29.0714 46.4207 29.0674 45 29.0625C45 28.7531 45 28.4438 45 28.125C44.3813 28.1637 43.7625 28.2023 43.125 28.2422C43.125 29.4023 43.125 30.5625 43.125 31.7578C43.7438 31.7965 44.3625 31.8352 45 31.875C45 31.5656 45 31.2562 45 30.9375C46.5576 30.9266 48.1152 30.9183 49.6728 30.9132C50.3961 30.9108 51.1193 30.9075 51.8426 30.9021C52.5409 30.897 53.2392 30.8942 53.9375 30.893C54.2036 30.8922 54.4697 30.8905 54.7358 30.8879C55.1092 30.8845 55.4825 30.8841 55.8559 30.8843C56.0201 30.8818 56.0201 30.8818 56.1877 30.8792C57.0209 30.8844 57.639 31.0831 58.2706 31.6365C58.3337 31.7128 58.3969 31.7891 58.4619 31.8677C58.5269 31.9437 58.5918 32.0196 58.6588 32.0979C59.06 32.6802 59.0966 33.2189 59.0939 33.9103C59.0944 34.0087 59.0949 34.1071 59.0955 34.2085C59.0969 34.5382 59.0968 34.8677 59.0966 35.1974C59.0973 35.4338 59.0981 35.6702 59.0989 35.9066C59.101 36.5487 59.1016 37.1908 59.1017 37.8329C59.1019 38.369 59.1028 38.9052 59.1036 39.4413C59.1055 40.7063 59.1061 41.9714 59.1059 43.2364C59.1058 44.541 59.1083 45.8456 59.112 47.1503C59.1151 48.2706 59.1163 49.391 59.1162 50.5113C59.1161 51.1803 59.1168 51.8493 59.1192 52.5184C59.1215 53.1477 59.1215 53.777 59.1198 54.4064C59.1196 54.6371 59.1201 54.8678 59.1216 55.0985C59.1234 55.4141 59.1223 55.7295 59.1205 56.045C59.1217 56.1358 59.1229 56.2266 59.1241 56.3202C59.1145 57.0879 58.8707 57.6918 58.3635 58.2706C58.2872 58.3337 58.2109 58.3969 58.1323 58.4619C58.0564 58.5269 57.9804 58.5918 57.9021 58.6588C57.3198 59.06 56.7811 59.0966 56.0897 59.0938C55.9913 59.0944 55.8929 59.0949 55.7915 59.0954C55.4619 59.0969 55.1323 59.0967 54.8027 59.0965C54.5663 59.0972 54.3299 59.098 54.0935 59.0989C53.4513 59.101 52.8092 59.1015 52.1671 59.1017C51.631 59.1019 51.0948 59.1028 50.5587 59.1036C49.2937 59.1055 48.0287 59.1061 46.7636 59.1059C45.459 59.1058 44.1544 59.1083 42.8497 59.112C41.7294 59.115 40.6091 59.1163 39.4887 59.1161C38.8197 59.1161 38.1507 59.1167 37.4817 59.1192C36.8523 59.1215 36.223 59.1215 35.5936 59.1198C35.3629 59.1196 35.1322 59.1201 34.9015 59.1215C34.5859 59.1233 34.2705 59.1222 33.955 59.1204C33.8642 59.1217 33.7734 59.1229 33.6798 59.1241C32.9121 59.1144 32.3082 58.8707 31.7294 58.3635C31.6663 58.2872 31.6032 58.2109 31.5381 58.1323C31.4731 58.0563 31.4082 57.9804 31.3413 57.9021C30.8934 57.252 30.9051 56.6597 30.9109 55.8958C30.9109 55.778 30.9108 55.6601 30.9108 55.5388C30.911 55.1501 30.9128 54.7614 30.9146 54.3727C30.9151 54.1029 30.9154 53.8331 30.9156 53.5634C30.9165 52.8538 30.9188 52.1443 30.9214 51.4347C30.9238 50.7105 30.9249 49.9863 30.9261 49.262C30.9286 47.8413 30.9326 46.4207 30.9375 45C31.2469 45 31.5563 45 31.875 45C31.8363 44.3812 31.7977 43.7625 31.7578 43.125C30.5977 43.125 29.4375 43.125 28.2422 43.125C28.2035 43.7437 28.1649 44.3625 28.125 45C28.4344 45 28.7438 45 29.0625 45C29.0734 46.5576 29.0817 48.1151 29.0868 49.6727C29.0892 50.396 29.0926 51.1193 29.0979 51.8426C29.103 52.5409 29.1058 53.2391 29.107 53.9374C29.1079 54.2036 29.1095 54.4697 29.1121 54.7358C29.1155 55.1092 29.1159 55.4825 29.1157 55.8559C29.1174 55.9654 29.1191 56.0749 29.1208 56.1877C29.1156 57.0209 28.9169 57.639 28.3635 58.2706C28.2872 58.3337 28.2109 58.3969 28.1323 58.4619C28.0564 58.5269 27.9804 58.5918 27.9021 58.6588C27.3198 59.06 26.7811 59.0966 26.0897 59.0938C25.9913 59.0944 25.8929 59.0949 25.7915 59.0954C25.4619 59.0969 25.1323 59.0967 24.8027 59.0965C24.5663 59.0972 24.3299 59.098 24.0935 59.0989C23.4513 59.101 22.8092 59.1015 22.1671 59.1017C21.631 59.1019 21.0948 59.1028 20.5587 59.1036C19.2937 59.1055 18.0287 59.1061 16.7636 59.1059C15.459 59.1058 14.1544 59.1083 12.8497 59.112C11.7294 59.115 10.609 59.1163 9.4887 59.1161C8.81968 59.1161 8.15068 59.1167 7.48166 59.1192C6.8523 59.1215 6.22298 59.1215 5.59362 59.1198C5.3629 59.1196 5.13218 59.1201 4.90146 59.1215C4.58592 59.1233 4.27051 59.1222 3.95497 59.1204C3.86417 59.1217 3.77337 59.1229 3.67982 59.1241C2.91208 59.1144 2.30825 58.8707 1.72945 58.3635C1.6663 58.2872 1.60316 58.2109 1.5381 58.1323C1.47314 58.0563 1.40819 57.9804 1.34126 57.9021C0.940044 57.3198 0.903436 56.7811 0.906176 56.0897C0.905645 55.9913 0.905114 55.8928 0.904567 55.7914C0.903084 55.4618 0.903275 55.1322 0.903469 54.8026C0.902768 54.5662 0.90197 54.3298 0.901084 54.0934C0.899012 53.4513 0.898464 52.8092 0.898314 52.1671C0.898092 51.6309 0.897229 51.0948 0.896399 50.5587C0.89449 49.2937 0.893918 48.0286 0.894085 46.7636C0.894226 45.459 0.891753 44.1543 0.888051 42.8497C0.884986 41.7294 0.883729 40.609 0.883879 39.4887C0.883939 38.8197 0.883272 38.1507 0.88079 37.4816C0.87852 36.8523 0.878504 36.223 0.880208 35.5936C0.880453 35.3629 0.879901 35.1322 0.878483 34.9014C0.876671 34.5859 0.877764 34.2705 0.879569 33.955C0.878363 33.8642 0.877158 33.7734 0.875916 33.6798C0.885583 32.9121 1.12931 32.3082 1.63652 31.7294C1.75095 31.6347 1.75095 31.6347 1.86769 31.5381C1.94368 31.4731 2.01966 31.4082 2.09795 31.3412C2.74799 30.8934 3.34032 30.9051 4.10424 30.9109C4.28096 30.9108 4.28096 30.9108 4.46125 30.9108C4.84995 30.9109 5.23861 30.9128 5.6273 30.9146C5.89709 30.915 6.16687 30.9154 6.43665 30.9156C7.1462 30.9165 7.85573 30.9188 8.56527 30.9214C9.28952 30.9238 10.0138 30.9249 10.738 30.9261C12.1587 30.9286 13.5793 30.9326 15 30.9375C15 31.2469 15 31.5562 15 31.875C15.6188 31.8363 16.2375 31.7977 16.875 31.7578C16.875 30.5977 16.875 29.4375 16.875 28.2422C16.2563 28.2035 15.6375 28.1648 15 28.125C15 28.4344 15 28.7437 15 29.0625C13.4424 29.0734 11.8849 29.0817 10.3273 29.0868C9.60397 29.0892 8.8807 29.0925 8.15742 29.0979C7.45913 29.103 6.76087 29.1058 6.06257 29.107C5.79644 29.1078 5.53031 29.1095 5.2642 29.1121C4.89082 29.1155 4.51754 29.1159 4.14415 29.1157C4.03465 29.1174 3.92516 29.1191 3.81234 29.1208C2.97916 29.1156 2.36099 28.9169 1.72945 28.3635C1.63473 28.2491 1.63473 28.2491 1.5381 28.1323C1.47314 28.0563 1.40819 27.9804 1.34126 27.9021C0.940044 27.3198 0.903436 26.7811 0.906176 26.0897C0.905645 25.9913 0.905114 25.8929 0.904567 25.7914C0.903084 25.4618 0.903275 25.1322 0.903469 24.8026C0.902768 24.5662 0.90197 24.3298 0.901084 24.0934C0.899012 23.4513 0.898464 22.8092 0.898314 22.1671C0.898092 21.6309 0.897229 21.0948 0.896399 20.5587C0.89449 19.2937 0.893918 18.0286 0.894085 16.7636C0.894226 15.459 0.891753 14.1543 0.888051 12.8497C0.884986 11.7294 0.883729 10.609 0.883879 9.48869C0.883939 8.81967 0.883272 8.15066 0.88079 7.48165C0.87852 6.85229 0.878504 6.22297 0.880208 5.5936C0.880453 5.36288 0.879901 5.13216 0.878483 4.90145C0.876671 4.5859 0.877764 4.2705 0.879569 3.95495C0.878363 3.86416 0.877158 3.77336 0.875916 3.6798C0.885583 2.91207 1.12931 2.30823 1.63652 1.72943C1.71281 1.66629 1.78909 1.60314 1.86769 1.53809C1.94368 1.47313 2.01966 1.40817 2.09795 1.34125C2.68026 0.940029 3.21892 0.903421 3.91033 0.906161Z" fill="none"/>
<path d="M45 30.9375C46.5576 30.9266 48.1152 30.9183 49.6728 30.9132C50.3961 30.9108 51.1193 30.9075 51.8426 30.9021C52.5409 30.897 53.2392 30.8942 53.9375 30.893C54.2036 30.8922 54.4697 30.8905 54.7358 30.8879C55.1092 30.8845 55.4825 30.8841 55.8559 30.8843C56.0201 30.8818 56.0201 30.8818 56.1877 30.8792C57.0209 30.8844 57.639 31.0831 58.2706 31.6365C58.3337 31.7128 58.3969 31.7891 58.4619 31.8677C58.5269 31.9437 58.5918 32.0196 58.6588 32.0979C59.06 32.6802 59.0966 33.2189 59.0939 33.9103C59.0944 34.0087 59.0949 34.1072 59.0955 34.2086C59.097 34.5382 59.0968 34.8678 59.0966 35.1974C59.0973 35.4338 59.0981 35.6702 59.099 35.9066C59.101 36.5487 59.1016 37.1908 59.1017 37.8329C59.1019 38.3691 59.1028 38.9052 59.1036 39.4413C59.1055 40.7063 59.1061 41.9714 59.1059 43.2364C59.1058 44.541 59.1083 45.8457 59.112 47.1503C59.115 48.2706 59.1163 49.391 59.1162 50.5113C59.1161 51.1803 59.1168 51.8493 59.1192 52.5184C59.1215 53.1477 59.1215 53.777 59.1198 54.4064C59.1196 54.6371 59.1201 54.8678 59.1216 55.0986C59.1234 55.4141 59.1223 55.7295 59.1205 56.045C59.1217 56.1358 59.1229 56.2266 59.1241 56.3202C59.1145 57.0879 58.8707 57.6918 58.3635 58.2706C58.2872 58.3337 58.2109 58.3969 58.1323 58.4619C58.0564 58.5269 57.9804 58.5918 57.9021 58.6588C57.3198 59.06 56.7811 59.0966 56.0897 59.0938C55.9913 59.0944 55.8929 59.0949 55.7915 59.0955C55.4619 59.0969 55.1323 59.0967 54.8027 59.0965C54.5663 59.0973 54.3299 59.098 54.0935 59.0989C53.4513 59.101 52.8092 59.1016 52.1671 59.1017C51.631 59.1019 51.0948 59.1028 50.5587 59.1036C49.2937 59.1055 48.0287 59.1061 46.7636 59.1059C45.459 59.1058 44.1544 59.1083 42.8497 59.112C41.7294 59.115 40.6091 59.1163 39.4887 59.1161C38.8197 59.1161 38.1507 59.1167 37.4817 59.1192C36.8523 59.1215 36.223 59.1215 35.5936 59.1198C35.3629 59.1196 35.1322 59.1201 34.9015 59.1215C34.5859 59.1234 34.2705 59.1223 33.955 59.1205C33.8642 59.1217 33.7734 59.1229 33.6798 59.1241C32.9121 59.1144 32.3083 58.8707 31.7294 58.3635C31.6347 58.2491 31.6347 58.2491 31.5381 58.1323C31.4731 58.0563 31.4082 57.9804 31.3413 57.9021C30.8934 57.252 30.9051 56.6597 30.9109 55.8958C30.9109 55.778 30.9108 55.6602 30.9108 55.5388C30.911 55.1501 30.9128 54.7614 30.9146 54.3727C30.9151 54.1029 30.9154 53.8332 30.9156 53.5634C30.9165 52.8538 30.9188 52.1443 30.9214 51.4347C30.9238 50.7105 30.9249 49.9863 30.9261 49.262C30.9286 47.8413 30.9326 46.4207 30.9375 45C31.2469 45 31.5563 45 31.875 45C31.875 44.3426 31.875 43.6852 31.875 43.0078C32.0549 42.9595 32.2348 42.9111 32.4202 42.8613C36.0356 41.8653 39.2566 40.1282 41.1846 36.7799C42.0565 35.2072 42.5981 33.6203 43.0078 31.875C43.6653 31.875 44.3227 31.875 45 31.875C45 31.5656 45 31.2563 45 30.9375Z" fill="none"/>
<path d="M4.10424 30.9109C4.28096 30.9108 4.28096 30.9108 4.46125 30.9108C4.84995 30.9109 5.23861 30.9128 5.6273 30.9146C5.89709 30.915 6.16687 30.9154 6.43665 30.9156C7.1462 30.9165 7.85573 30.9188 8.56527 30.9214C9.28952 30.9238 10.0138 30.9249 10.738 30.9261C12.1587 30.9286 13.5793 30.9326 15 30.9375C15 31.2469 15 31.5562 15 31.875C15.6961 31.875 16.3922 31.875 17.1094 31.875C17.1311 32.0611 17.1529 32.2472 17.1753 32.439C17.5429 34.619 18.5831 36.7839 20.0391 38.4375C20.1169 38.5321 20.1947 38.6266 20.2748 38.7241C22.3179 41.1335 25.1242 42.2897 28.125 43.0078C28.125 43.6652 28.125 44.3227 28.125 45C28.4344 45 28.7438 45 29.0625 45C29.0734 46.5576 29.0817 48.1151 29.0868 49.6727C29.0892 50.396 29.0926 51.1193 29.0979 51.8426C29.103 52.5409 29.1058 53.2391 29.107 53.9374C29.1079 54.2036 29.1095 54.4697 29.1121 54.7358C29.1155 55.1092 29.1159 55.4825 29.1157 55.8559C29.1183 56.0201 29.1183 56.0201 29.1208 56.1877C29.1156 57.0209 28.9169 57.639 28.3635 58.2706C28.2872 58.3337 28.2109 58.3969 28.1323 58.4619C28.0564 58.5269 27.9804 58.5918 27.9021 58.6587C27.3198 59.06 26.7811 59.0966 26.0897 59.0938C25.9913 59.0944 25.8929 59.0949 25.7915 59.0954C25.4619 59.0969 25.1323 59.0967 24.8027 59.0965C24.5663 59.0972 24.3299 59.098 24.0935 59.0989C23.4513 59.101 22.8092 59.1015 22.1671 59.1017C21.631 59.1019 21.0948 59.1028 20.5587 59.1036C19.2937 59.1055 18.0287 59.1061 16.7636 59.1059C15.459 59.1058 14.1544 59.1083 12.8497 59.112C11.7294 59.115 10.609 59.1163 9.4887 59.1161C8.81968 59.1161 8.15068 59.1167 7.48166 59.1192C6.8523 59.1215 6.22298 59.1215 5.59362 59.1198C5.3629 59.1196 5.13218 59.1201 4.90146 59.1215C4.58592 59.1233 4.27051 59.1222 3.95497 59.1204C3.86417 59.1216 3.77337 59.1229 3.67982 59.1241C2.91208 59.1144 2.30825 58.8707 1.72945 58.3635C1.63473 58.2491 1.63473 58.2491 1.5381 58.1323C1.47314 58.0563 1.40819 57.9804 1.34126 57.9021C0.940044 57.3198 0.903436 56.7811 0.906176 56.0897C0.905645 55.9913 0.905114 55.8928 0.904567 55.7914C0.903084 55.4618 0.903275 55.1322 0.903469 54.8026C0.902768 54.5662 0.90197 54.3298 0.901084 54.0934C0.899012 53.4513 0.898464 52.8092 0.898314 52.1671C0.898092 51.6309 0.897229 51.0948 0.896399 50.5587C0.89449 49.2937 0.893918 48.0286 0.894085 46.7636C0.894226 45.459 0.891753 44.1543 0.888051 42.8497C0.884986 41.7294 0.883729 40.609 0.883879 39.4887C0.883939 38.8197 0.883272 38.1507 0.88079 37.4816C0.87852 36.8523 0.878504 36.223 0.880208 35.5936C0.880453 35.3629 0.879901 35.1322 0.878483 34.9014C0.876671 34.5859 0.877764 34.2705 0.879569 33.9549C0.878363 33.8642 0.877158 33.7734 0.875916 33.6798C0.885583 32.9121 1.12931 32.3082 1.63652 31.7294C1.71281 31.6663 1.78909 31.6031 1.86769 31.5381C1.94368 31.4731 2.01966 31.4082 2.09795 31.3412C2.74799 30.8934 3.34032 30.9051 4.10424 30.9109Z" fill="none"/>
<path d="M3.91033 0.906161C4.00875 0.90563 4.10716 0.905099 4.20857 0.904552C4.53818 0.903069 4.86776 0.90326 5.19738 0.903454C5.43378 0.902752 5.67018 0.901955 5.90658 0.901068C6.5487 0.898997 7.19081 0.898448 7.83293 0.898299C8.36907 0.898076 8.9052 0.897214 9.44133 0.896384C10.7064 0.894475 11.9714 0.893903 13.2364 0.894069C14.541 0.89421 15.8457 0.891737 17.1503 0.888036C18.2707 0.88497 19.391 0.883714 20.5113 0.883864C21.1804 0.883923 21.8494 0.883256 22.5184 0.880775C23.1477 0.878505 23.7771 0.878489 24.4064 0.880193C24.6371 0.880438 24.8679 0.879885 25.0986 0.878468C25.4141 0.876655 25.7295 0.877749 26.0451 0.879553C26.1359 0.878348 26.2267 0.877142 26.3202 0.8759C27.0879 0.885568 27.6918 1.1293 28.2706 1.63651C28.3337 1.71279 28.3969 1.78908 28.4619 1.86768C28.5269 1.94366 28.5918 2.01964 28.6588 2.09793C29.1067 2.74797 29.0949 3.3403 29.0891 4.10422C29.0892 4.22204 29.0892 4.33985 29.0892 4.46124C29.0891 4.84993 29.0872 5.2386 29.0854 5.62729C29.085 5.89707 29.0846 6.16685 29.0844 6.43664C29.0835 7.14618 29.0812 7.85572 29.0786 8.56526C29.0762 9.2895 29.0751 10.0137 29.074 10.738C29.0714 12.1587 29.0674 13.5793 29.0625 15C28.7531 15 28.4438 15 28.125 15C28.125 15.6574 28.125 16.3148 28.125 16.9922C27.9647 17.0307 27.8045 17.0692 27.6393 17.1089C23.8237 18.0638 20.7394 20.0393 18.6621 23.4229C17.8324 24.9128 17.3926 26.4792 16.9922 28.125C16.3348 28.125 15.6774 28.125 15 28.125C15 28.4344 15 28.7438 15 29.0625C13.4424 29.0734 11.8849 29.0817 10.3273 29.0868C9.60397 29.0892 8.8807 29.0925 8.15742 29.0979C7.45913 29.103 6.76087 29.1058 6.06257 29.107C5.79644 29.1078 5.53031 29.1095 5.2642 29.1121C4.89082 29.1155 4.51754 29.1159 4.14415 29.1157C4.03465 29.1174 3.92516 29.1191 3.81234 29.1208C2.97916 29.1156 2.36099 28.9169 1.72945 28.3635C1.63473 28.2491 1.63473 28.2491 1.5381 28.1323C1.47314 28.0563 1.40819 27.9804 1.34126 27.9021C0.940044 27.3198 0.903436 26.7811 0.906176 26.0897C0.905645 25.9913 0.905114 25.8929 0.904567 25.7915C0.903084 25.4618 0.903275 25.1323 0.903469 24.8026C0.902768 24.5662 0.90197 24.3298 0.901084 24.0934C0.899012 23.4513 0.898464 22.8092 0.898314 22.1671C0.898092 21.6309 0.897229 21.0948 0.896399 20.5587C0.89449 19.2937 0.893918 18.0286 0.894085 16.7636C0.894226 15.459 0.891753 14.1544 0.888051 12.8497C0.884986 11.7294 0.883729 10.609 0.883879 9.48869C0.883939 8.81967 0.883272 8.15066 0.88079 7.48165C0.87852 6.85229 0.878504 6.22297 0.880208 5.5936C0.880453 5.36288 0.879901 5.13216 0.878483 4.90145C0.876671 4.5859 0.877764 4.2705 0.879569 3.95495C0.878363 3.86416 0.877158 3.77336 0.875916 3.6798C0.885583 2.91207 1.12931 2.30823 1.63652 1.72943C1.71281 1.66629 1.78909 1.60314 1.86769 1.53809C1.94368 1.47313 2.01966 1.40817 2.09795 1.34125C2.68026 0.940029 3.21892 0.903421 3.91033 0.906161Z" fill="none"/>
<path d="M33.9844 17.4609C34.1881 17.5285 34.1881 17.5285 34.3959 17.5973C35.8878 18.1264 37.25 18.8741 38.4375 19.9219C38.5334 20.0024 38.6294 20.0829 38.7282 20.1659C40.5257 21.7126 41.7925 23.6544 42.5391 25.8984C42.5675 25.9806 42.596 26.0627 42.6252 26.1473C43.7442 29.4865 43.2124 32.8773 41.7188 35.9766C41.2599 36.8679 40.7244 37.672 40.0781 38.4375C39.961 38.5782 39.961 38.5782 39.8415 38.7218C37.7875 41.1014 34.8493 42.5978 31.7578 43.125C28.9543 43.305 26.553 42.9626 24.0235 41.7188C23.9097 41.6648 23.796 41.6109 23.6788 41.5553C20.4793 39.9393 18.4682 36.9829 17.3576 33.6687C17.1662 33.0681 17.0604 32.501 16.9922 31.875C16.9535 31.8363 16.9149 31.7977 16.875 31.7578C16.724 29.7612 16.8027 27.7997 17.461 25.8984C17.4873 25.8193 17.5136 25.7402 17.5407 25.6587C18.6747 22.3162 21.156 19.7142 24.2727 18.1385C27.2672 16.6824 30.8292 16.3297 33.9844 17.4609Z" fill="none"/>
<path d="M48.1641 4.6875C48.7195 5.14148 48.9496 5.64362 49.2261 6.28418C50.0116 8.01417 51.0652 9.54622 52.1874 11.0728C52.5961 11.6325 52.9783 12.2012 53.335 12.7954C53.3765 12.8643 53.418 12.9331 53.4607 13.004C54.3543 14.5273 54.6281 16.1394 54.2208 17.8757C53.9266 18.9347 53.5256 19.754 52.8516 20.625C52.7174 20.8099 52.7174 20.8099 52.5806 20.9985C51.3679 22.2676 49.761 22.9551 48.0234 23.0224C46.3382 23.0496 45.0396 22.6363 43.711 21.5625C43.5951 21.4719 43.4792 21.3812 43.3599 21.2878C42.3416 20.4319 41.7586 19.1721 41.3672 17.9297C41.3436 17.8575 41.3201 17.7853 41.2958 17.7109C40.9076 15.5912 41.6337 13.6907 42.8115 11.9545C43.1543 11.4596 43.5044 10.97 43.8565 10.4816C44.4208 9.69736 44.9727 8.91261 45.4614 8.07861C45.5107 7.99521 45.56 7.9118 45.6107 7.82587C46.0136 7.13074 46.3599 6.41513 46.6772 5.67716C47.0033 4.94031 47.3189 4.54951 48.1641 4.6875Z" fill="none"/>
<path d="M33.9844 17.4609C34.1881 17.5285 34.1881 17.5285 34.3959 17.5973C35.8878 18.1264 37.25 18.8741 38.4375 19.9219C38.5334 20.0024 38.6294 20.0829 38.7282 20.1659C40.5257 21.7126 41.7925 23.6544 42.5391 25.8984C42.5675 25.9806 42.596 26.0627 42.6252 26.1473C43.7442 29.4865 43.2124 32.8773 41.7188 35.9766C41.2599 36.8679 40.7244 37.672 40.0781 38.4375C39.961 38.5782 39.961 38.5782 39.8415 38.7218C37.7875 41.1014 34.8493 42.5978 31.7578 43.125C28.9543 43.305 26.553 42.9626 24.0235 41.7188C23.9097 41.6648 23.796 41.6109 23.6788 41.5553C20.4793 39.9393 18.4682 36.9829 17.3576 33.6687C17.1662 33.0681 17.0604 32.501 16.9922 31.875C16.9535 31.8363 16.9149 31.7977 16.875 31.7578C16.724 29.7612 16.8027 27.7997 17.461 25.8984C17.4873 25.8193 17.5136 25.7402 17.5407 25.6587C18.6747 22.3162 21.156 19.7142 24.2727 18.1385C27.2672 16.6824 30.8292 16.3297 33.9844 17.4609ZM21.7969 22.2656C21.7091 22.3522 21.6214 22.4387 21.5309 22.5279C19.6676 24.4795 18.7293 27.2285 18.7134 29.8975C18.7915 33.2079 20.0021 36.0595 22.3897 38.3675C24.8754 40.5627 27.7952 41.3989 31.0512 41.2766C33.7127 41.0776 36.0687 39.7823 37.9688 37.9688C38.0393 37.907 38.1099 37.8452 38.1825 37.7815C40.0541 36.0758 41.1729 33.2415 41.2903 30.7434C41.3684 27.6901 40.5383 24.7817 38.4375 22.5073C38.2071 22.2664 37.9722 22.0306 37.7344 21.7969C37.6005 21.6632 37.6005 21.6632 37.4639 21.5268C35.3166 19.5016 32.3416 18.6724 29.4466 18.7253C26.4436 18.8366 23.8792 20.1537 21.7969 22.2656Z" fill="#020302"/>
<path d="M45 30.9375C46.5576 30.9266 48.1152 30.9183 49.6728 30.9132C50.3961 30.9108 51.1193 30.9075 51.8426 30.9021C52.5409 30.897 53.2392 30.8942 53.9375 30.893C54.2036 30.8922 54.4697 30.8905 54.7358 30.8879C55.1092 30.8845 55.4825 30.8841 55.8559 30.8843C56.0201 30.8818 56.0201 30.8818 56.1877 30.8792C57.0209 30.8844 57.639 31.0831 58.2706 31.6365C58.3337 31.7128 58.3969 31.7891 58.4619 31.8677C58.5269 31.9437 58.5918 32.0196 58.6588 32.0979C59.06 32.6802 59.0966 33.2189 59.0939 33.9103C59.0944 34.0087 59.0949 34.1072 59.0955 34.2086C59.097 34.5382 59.0968 34.8678 59.0966 35.1974C59.0973 35.4338 59.0981 35.6702 59.099 35.9066C59.101 36.5487 59.1016 37.1908 59.1017 37.8329C59.1019 38.3691 59.1028 38.9052 59.1036 39.4413C59.1055 40.7063 59.1061 41.9714 59.1059 43.2364C59.1058 44.541 59.1083 45.8457 59.112 47.1503C59.115 48.2706 59.1163 49.391 59.1162 50.5113C59.1161 51.1803 59.1168 51.8493 59.1192 52.5184C59.1215 53.1477 59.1215 53.777 59.1198 54.4064C59.1196 54.6371 59.1201 54.8678 59.1216 55.0986C59.1234 55.4141 59.1223 55.7295 59.1205 56.045C59.1217 56.1358 59.1229 56.2266 59.1241 56.3202C59.1145 57.0879 58.8707 57.6918 58.3635 58.2706C58.2872 58.3337 58.2109 58.3969 58.1323 58.4619C58.0564 58.5269 57.9804 58.5918 57.9021 58.6588C57.3198 59.06 56.7811 59.0966 56.0897 59.0938C55.9913 59.0944 55.8929 59.0949 55.7915 59.0955C55.4619 59.0969 55.1323 59.0967 54.8027 59.0965C54.5663 59.0973 54.3299 59.098 54.0935 59.0989C53.4513 59.101 52.8092 59.1016 52.1671 59.1017C51.631 59.1019 51.0948 59.1028 50.5587 59.1036C49.2937 59.1055 48.0287 59.1061 46.7636 59.1059C45.459 59.1058 44.1544 59.1083 42.8497 59.112C41.7294 59.115 40.6091 59.1163 39.4887 59.1161C38.8197 59.1161 38.1507 59.1167 37.4817 59.1192C36.8523 59.1215 36.223 59.1215 35.5936 59.1198C35.3629 59.1196 35.1322 59.1201 34.9015 59.1215C34.5859 59.1234 34.2705 59.1223 33.955 59.1205C33.8642 59.1217 33.7734 59.1229 33.6798 59.1241C32.9121 59.1144 32.3083 58.8707 31.7294 58.3635C31.6347 58.2491 31.6347 58.2491 31.5381 58.1323C31.4731 58.0563 31.4082 57.9804 31.3413 57.9021C30.8934 57.252 30.9051 56.6597 30.9109 55.8958C30.9109 55.778 30.9108 55.6602 30.9108 55.5388C30.911 55.1501 30.9128 54.7614 30.9146 54.3727C30.9151 54.1029 30.9154 53.8332 30.9156 53.5634C30.9165 52.8538 30.9188 52.1443 30.9214 51.4347C30.9238 50.7105 30.9249 49.9863 30.9261 49.262C30.9286 47.8413 30.9326 46.4207 30.9375 45C31.5563 45 32.175 45 32.8125 45C32.8139 45.2143 32.8139 45.2143 32.8154 45.4328C32.8245 46.7779 32.8347 48.1229 32.8462 49.4678C32.8521 50.1593 32.8575 50.8508 32.862 51.5424C32.8663 52.2095 32.8717 52.8766 32.8779 53.5438C32.8801 53.7985 32.8819 54.0532 32.8832 54.308C32.8852 54.6643 32.8886 55.0206 32.8923 55.3769C32.8926 55.4826 32.8928 55.5883 32.8931 55.6972C32.8944 55.7945 32.8957 55.8918 32.8971 55.992C32.8977 56.0763 32.8984 56.1605 32.899 56.2473C32.9351 56.5263 33.017 56.7142 33.1641 56.9531C33.5249 57.1335 33.904 57.0868 34.2999 57.086C34.3941 57.0863 34.4882 57.0865 34.5852 57.0868C34.9024 57.0875 35.2196 57.0874 35.5368 57.0873C35.7636 57.0877 35.9903 57.0881 36.217 57.0885C36.8342 57.0896 37.4513 57.0898 38.0685 57.0899C38.5831 57.09 39.0977 57.0905 39.6123 57.0909C40.8261 57.0918 42.0399 57.0921 43.2538 57.092C44.5072 57.092 45.7607 57.0932 47.0141 57.095C48.0891 57.0966 49.164 57.0972 50.2389 57.0971C50.8815 57.0971 51.524 57.0974 52.1666 57.0987C52.7708 57.0998 53.375 57.0998 53.9793 57.099C54.2013 57.0988 54.4234 57.0991 54.6454 57.0998C54.948 57.1007 55.2506 57.1002 55.5532 57.0993C55.6856 57.1002 55.6856 57.1002 55.8207 57.1011C56.4255 57.0987 56.4255 57.0987 56.9531 56.8359C57.096 56.4075 57.0869 56.0141 57.086 55.568C57.0864 55.4265 57.0864 55.4265 57.0868 55.2822C57.0875 54.9651 57.0875 54.648 57.0874 54.3308C57.0877 54.1039 57.0881 53.877 57.0885 53.6501C57.0896 53.0329 57.0899 52.4157 57.0899 51.7986C57.09 51.284 57.0905 50.7693 57.0909 50.2547C57.0918 49.0411 57.0921 47.8274 57.092 46.6138C57.092 45.3603 57.0932 44.1068 57.0951 42.8532C57.0966 41.7782 57.0972 40.7031 57.0971 39.6281C57.0971 38.9855 57.0975 38.3429 57.0987 37.7003C57.0998 37.0962 57.0998 36.4922 57.099 35.8882C57.0989 35.6661 57.0991 35.444 57.0998 35.2219C57.1007 34.9195 57.1002 34.6172 57.0993 34.3148C57.1002 34.1819 57.1002 34.1819 57.1011 34.0464C57.0982 33.6093 57.085 33.4204 56.836 33.0469C56.5191 32.9413 56.3318 32.9141 56.0061 32.9111C55.909 32.91 55.8119 32.9089 55.7118 32.9077C55.6057 32.907 55.4996 32.9063 55.3903 32.9056C55.2222 32.9039 55.2222 32.9039 55.0507 32.9021C54.6797 32.8984 54.3088 32.8955 53.9379 32.8926C53.6809 32.8902 53.4239 32.8877 53.1669 32.8852C52.4901 32.8788 51.8133 32.873 51.1365 32.8673C50.4461 32.8614 49.7556 32.8549 49.0652 32.8484C47.7101 32.8358 46.3551 32.8239 45 32.8125C45 32.1938 45 31.575 45 30.9375Z" />
<path d="M4.10424 30.9109C4.28096 30.9108 4.28096 30.9108 4.46125 30.9108C4.84995 30.9109 5.23861 30.9128 5.6273 30.9146C5.89709 30.915 6.16687 30.9154 6.43665 30.9156C7.1462 30.9165 7.85573 30.9188 8.56527 30.9214C9.28952 30.9238 10.0138 30.9249 10.738 30.9261C12.1587 30.9286 13.5793 30.9326 15 30.9375C15 31.5562 15 32.175 15 32.8125C14.8557 32.8129 14.7114 32.8133 14.5627 32.8138C13.2039 32.8181 11.8451 32.8249 10.4863 32.834C9.78773 32.8387 9.08915 32.8424 8.39054 32.8443C7.71655 32.846 7.0426 32.8501 6.36863 32.8557C6.11128 32.8574 5.85393 32.8583 5.59658 32.8584C5.23655 32.8587 4.87666 32.8619 4.51665 32.8657C4.40986 32.8651 4.30306 32.8645 4.19303 32.8639C4.04563 32.8664 4.04563 32.8664 3.89526 32.8689C3.81014 32.8693 3.72502 32.8697 3.63732 32.8702C3.27561 32.9603 3.14642 33.0961 2.9297 33.3984C2.88416 33.7239 2.86731 34.0028 2.87176 34.3281C2.87119 34.4224 2.87062 34.5168 2.87004 34.614C2.86872 34.9305 2.87075 35.2469 2.87277 35.5634C2.87252 35.7902 2.87206 36.0169 2.87142 36.2437C2.87028 36.8599 2.87208 37.476 2.87446 38.0922C2.87651 38.7366 2.8761 39.3809 2.87601 40.0252C2.87623 41.1073 2.87827 42.1893 2.88147 43.2714C2.88515 44.5232 2.88639 45.7749 2.88622 47.0266C2.88607 48.2298 2.88727 49.4331 2.88921 50.6363C2.89004 51.1488 2.89047 51.6612 2.89059 52.1737C2.89083 52.777 2.89226 53.3803 2.89462 53.9835C2.8953 54.2052 2.89559 54.4269 2.89546 54.6485C2.89534 54.9506 2.89666 55.2526 2.89836 55.5547C2.898 55.6429 2.89764 55.731 2.89726 55.8218C2.90128 56.2528 2.91019 56.5942 3.16408 56.9531C3.52491 57.1335 3.90396 57.0868 4.29991 57.086C4.39406 57.0862 4.4882 57.0865 4.58519 57.0868C4.90241 57.0875 5.21962 57.0874 5.53684 57.0873C5.76356 57.0877 5.99028 57.0881 6.217 57.0885C6.83416 57.0896 7.45133 57.0898 8.0685 57.0899C8.58311 57.09 9.09771 57.0905 9.61232 57.0909C10.8261 57.0918 12.0399 57.0921 13.2538 57.092C14.5072 57.092 15.7607 57.0932 17.0141 57.095C18.0891 57.0966 19.164 57.0972 20.2389 57.0971C20.8815 57.0971 21.524 57.0974 22.1666 57.0987C22.7708 57.0998 23.375 57.0998 23.9793 57.099C24.2013 57.0988 24.4234 57.0991 24.6454 57.0998C24.948 57.1007 25.2506 57.1002 25.5532 57.0993C25.6856 57.1002 25.6856 57.1002 25.8207 57.1011C26.4255 57.0987 26.4255 57.0987 26.9531 56.8359C27.0588 56.5191 27.086 56.3318 27.0889 56.0061C27.09 55.909 27.0912 55.8119 27.0923 55.7118C27.093 55.6057 27.0937 55.4996 27.0944 55.3902C27.0956 55.2782 27.0967 55.1661 27.0979 55.0506C27.1016 54.6797 27.1045 54.3088 27.1074 53.9378C27.1098 53.6809 27.1123 53.4239 27.1148 53.1669C27.1213 52.4901 27.1271 51.8133 27.1327 51.1365C27.1386 50.4461 27.1451 49.7556 27.1516 49.0652C27.1642 47.7101 27.1761 46.3551 27.1875 45C27.8063 45 28.425 45 29.0625 45C29.0734 46.5576 29.0817 48.1151 29.0868 49.6727C29.0892 50.396 29.0926 51.1193 29.0979 51.8426C29.103 52.5409 29.1058 53.2391 29.107 53.9374C29.1079 54.2036 29.1095 54.4697 29.1121 54.7358C29.1155 55.1092 29.1159 55.4825 29.1157 55.8559C29.1183 56.0201 29.1183 56.0201 29.1208 56.1877C29.1156 57.0209 28.9169 57.639 28.3635 58.2706C28.2872 58.3337 28.2109 58.3969 28.1323 58.4619C28.0564 58.5269 27.9804 58.5918 27.9021 58.6587C27.3198 59.06 26.7811 59.0966 26.0897 59.0938C25.9913 59.0944 25.8929 59.0949 25.7915 59.0954C25.4619 59.0969 25.1323 59.0967 24.8027 59.0965C24.5663 59.0972 24.3299 59.098 24.0935 59.0989C23.4513 59.101 22.8092 59.1015 22.1671 59.1017C21.631 59.1019 21.0948 59.1028 20.5587 59.1036C19.2937 59.1055 18.0287 59.1061 16.7636 59.1059C15.459 59.1058 14.1544 59.1083 12.8497 59.112C11.7294 59.115 10.609 59.1163 9.4887 59.1161C8.81968 59.1161 8.15068 59.1167 7.48166 59.1192C6.8523 59.1215 6.22298 59.1215 5.59362 59.1198C5.3629 59.1196 5.13218 59.1201 4.90146 59.1215C4.58592 59.1233 4.27051 59.1222 3.95497 59.1204C3.86417 59.1216 3.77337 59.1229 3.67982 59.1241C2.91208 59.1144 2.30825 58.8707 1.72945 58.3635C1.63473 58.2491 1.63473 58.2491 1.5381 58.1323C1.47314 58.0563 1.40819 57.9804 1.34126 57.9021C0.940044 57.3198 0.903436 56.7811 0.906176 56.0897C0.905645 55.9913 0.905114 55.8928 0.904567 55.7914C0.903084 55.4618 0.903275 55.1322 0.903469 54.8026C0.902768 54.5662 0.90197 54.3298 0.901084 54.0934C0.899012 53.4513 0.898464 52.8092 0.898314 52.1671C0.898092 51.6309 0.897229 51.0948 0.896399 50.5587C0.89449 49.2937 0.893918 48.0286 0.894085 46.7636C0.894226 45.459 0.891753 44.1543 0.888051 42.8497C0.884986 41.7294 0.883729 40.609 0.883879 39.4887C0.883939 38.8197 0.883272 38.1507 0.88079 37.4816C0.87852 36.8523 0.878504 36.223 0.880208 35.5936C0.880453 35.3629 0.879901 35.1322 0.878483 34.9014C0.876671 34.5859 0.877764 34.2705 0.879569 33.9549C0.878363 33.8642 0.877158 33.7734 0.875916 33.6798C0.885583 32.9121 1.12931 32.3082 1.63652 31.7294C1.71281 31.6663 1.78909 31.6031 1.86769 31.5381C1.94368 31.4731 2.01966 31.4082 2.09795 31.3412C2.74799 30.8934 3.34032 30.9051 4.10424 30.9109Z" />
<path d="M33.9103 0.906161C34.0087 0.90563 34.1072 0.905099 34.2086 0.904552C34.5382 0.903069 34.8678 0.90326 35.1974 0.903454C35.4338 0.902752 35.6702 0.901955 35.9066 0.901068C36.5487 0.898997 37.1908 0.898448 37.8329 0.898299C38.3691 0.898076 38.9052 0.897214 39.4413 0.896384C40.7063 0.894475 41.9714 0.893903 43.2364 0.894069C44.541 0.89421 45.8457 0.891737 47.1503 0.888036C48.2706 0.88497 49.391 0.883714 50.5113 0.883864C51.1803 0.883923 51.8493 0.883256 52.5184 0.880775C53.1477 0.878505 53.777 0.878489 54.4064 0.880193C54.6371 0.880438 54.8678 0.879885 55.0986 0.878468C55.4141 0.876655 55.7295 0.877749 56.045 0.879553C56.1358 0.878348 56.2266 0.877142 56.3202 0.8759C57.0879 0.885568 57.6918 1.1293 58.2706 1.63651C58.3337 1.71279 58.3969 1.78908 58.4619 1.86768C58.5269 1.94366 58.5918 2.01964 58.6588 2.09793C59.06 2.68024 59.0966 3.2189 59.0938 3.91031C59.0944 4.00873 59.0949 4.10715 59.0955 4.20855C59.0969 4.53816 59.0967 4.86775 59.0965 5.19736C59.0973 5.43376 59.098 5.67017 59.0989 5.90657C59.101 6.54869 59.1016 7.1908 59.1017 7.83292C59.1019 8.36905 59.1028 8.90518 59.1036 9.44131C59.1055 10.7063 59.1061 11.9714 59.1059 13.2364C59.1058 14.541 59.1083 15.8457 59.112 17.1503C59.115 18.2706 59.1163 19.391 59.1161 20.5113C59.1161 21.1803 59.1167 21.8493 59.1192 22.5184C59.1215 23.1477 59.1215 23.777 59.1198 24.4064C59.1196 24.6371 59.1201 24.8678 59.1215 25.0986C59.1234 25.4141 59.1223 25.7295 59.1205 26.045C59.1217 26.1358 59.1229 26.2266 59.1241 26.3202C59.1144 27.0879 58.8707 27.6918 58.3635 28.2706C58.2872 28.3337 58.2109 28.3969 58.1323 28.4619C58.0563 28.5269 57.9804 28.5918 57.9021 28.6588C57.252 29.1066 56.6597 29.0949 55.8958 29.0891C55.7191 29.0892 55.7191 29.0892 55.5388 29.0892C55.1501 29.0891 54.7614 29.0872 54.3727 29.0854C54.1029 29.085 53.8332 29.0846 53.5634 29.0844C52.8538 29.0835 52.1443 29.0812 51.4347 29.0786C50.7105 29.0762 49.9863 29.0751 49.262 29.0739C47.8413 29.0714 46.4207 29.0674 45 29.0625C45 28.4438 45 27.825 45 27.1875C45.1428 27.1866 45.2857 27.1856 45.4328 27.1846C46.7779 27.1756 48.1229 27.1653 49.4678 27.1538C50.1593 27.148 50.8508 27.1425 51.5424 27.1381C52.2095 27.1337 52.8766 27.1283 53.5438 27.1221C53.7985 27.1199 54.0532 27.1182 54.308 27.1168C54.6643 27.1148 55.0206 27.1114 55.3769 27.1077C55.4826 27.1074 55.5883 27.1072 55.6972 27.1069C55.7945 27.1056 55.8918 27.1043 55.992 27.1029C56.0763 27.1023 56.1605 27.1017 56.2473 27.101C56.5296 27.0645 56.7146 26.991 56.9531 26.8359C57.096 26.4075 57.0869 26.0141 57.086 25.568C57.0864 25.4265 57.0864 25.4265 57.0868 25.2822C57.0875 24.9651 57.0874 24.648 57.0873 24.3308C57.0877 24.1039 57.0881 23.877 57.0885 23.65C57.0896 23.0329 57.0898 22.4157 57.0899 21.7986C57.09 21.284 57.0905 20.7693 57.0909 20.2547C57.0918 19.0411 57.0921 17.8274 57.092 16.6138C57.092 15.3603 57.0932 14.1067 57.095 12.8532C57.0966 11.7782 57.0972 10.7031 57.0971 9.6281C57.0971 8.98549 57.0974 8.34289 57.0987 7.70028C57.0998 7.09624 57.0998 6.4922 57.099 5.88815C57.0988 5.66606 57.0991 5.44398 57.0998 5.2219C57.1007 4.91951 57.1002 4.61716 57.0993 4.31478C57.1002 4.18194 57.1002 4.18194 57.1011 4.04641C57.0982 3.60931 57.085 3.42041 56.8359 3.04688C56.4079 2.9042 56.0145 2.91233 55.5688 2.91244C55.4746 2.91201 55.3803 2.91158 55.2832 2.91114C54.9664 2.90984 54.6495 2.90939 54.3327 2.90895C54.106 2.90821 53.8792 2.90743 53.6525 2.90661C53.0358 2.90457 52.4191 2.90333 51.8024 2.90237C51.4174 2.90177 51.0324 2.90105 50.6474 2.90032C49.4436 2.89808 48.2397 2.89642 47.0358 2.89544C45.6447 2.89429 44.2536 2.89121 42.8625 2.88648C41.788 2.88295 40.7136 2.88121 39.6391 2.88082C38.997 2.88054 38.3548 2.87948 37.7127 2.87654C37.1089 2.87383 36.5052 2.87332 35.9014 2.87452C35.6796 2.87458 35.4577 2.87384 35.2359 2.87223C34.9335 2.87017 34.6313 2.87098 34.3289 2.87253C34.2407 2.87124 34.1524 2.86996 34.0615 2.86863C33.6641 2.87356 33.4364 2.90247 33.1097 3.13658C32.9134 3.42217 32.8706 3.55323 32.8689 3.89525C32.8664 4.04264 32.8664 4.04264 32.8639 4.19301C32.8645 4.29981 32.8651 4.40661 32.8657 4.51664C32.8645 4.62986 32.8633 4.74309 32.862 4.85975C32.8586 5.23387 32.8584 5.60792 32.8583 5.98206C32.8565 6.2415 32.8546 6.50094 32.8524 6.76038C32.8473 7.44314 32.8449 8.12589 32.8432 8.80867C32.8409 9.50542 32.836 10.2022 32.8313 10.8989C32.8224 12.2659 32.8166 13.6329 32.8125 15C32.1938 15 31.575 15 30.9375 15C30.9266 13.4424 30.9183 11.8849 30.9132 10.3273C30.9108 9.60396 30.9075 8.88069 30.9021 8.15741C30.897 7.45912 30.8942 6.76086 30.893 6.06255C30.8922 5.79642 30.8905 5.5303 30.8879 5.26418C30.8845 4.8908 30.8841 4.51753 30.8843 4.14413C30.8826 4.03464 30.8809 3.92514 30.8792 3.81233C30.8844 2.97914 31.0831 2.36097 31.6365 1.72943C31.7128 1.66629 31.7891 1.60314 31.8677 1.53809C31.9437 1.47313 32.0196 1.40817 32.0979 1.34125C32.6802 0.940029 33.2189 0.903421 33.9103 0.906161Z" />
<path d="M3.91033 0.906161C4.00875 0.90563 4.10716 0.905099 4.20857 0.904552C4.53818 0.903069 4.86776 0.90326 5.19738 0.903454C5.43378 0.902752 5.67018 0.901955 5.90658 0.901068C6.5487 0.898997 7.19081 0.898448 7.83293 0.898299C8.36907 0.898076 8.9052 0.897214 9.44133 0.896384C10.7064 0.894475 11.9714 0.893903 13.2364 0.894069C14.541 0.89421 15.8457 0.891737 17.1503 0.888036C18.2707 0.88497 19.391 0.883714 20.5113 0.883864C21.1804 0.883923 21.8494 0.883256 22.5184 0.880775C23.1477 0.878505 23.7771 0.878489 24.4064 0.880193C24.6371 0.880438 24.8679 0.879885 25.0986 0.878468C25.4141 0.876655 25.7295 0.877749 26.0451 0.879553C26.1359 0.878348 26.2267 0.877142 26.3202 0.8759C27.0879 0.885568 27.6918 1.1293 28.2706 1.63651C28.3337 1.71279 28.3969 1.78908 28.4619 1.86768C28.5269 1.94366 28.5918 2.01964 28.6588 2.09793C29.1067 2.74797 29.0949 3.3403 29.0891 4.10422C29.0892 4.22204 29.0892 4.33985 29.0892 4.46124C29.0891 4.84993 29.0872 5.2386 29.0854 5.62729C29.085 5.89707 29.0846 6.16685 29.0844 6.43664C29.0835 7.14618 29.0812 7.85572 29.0786 8.56526C29.0762 9.2895 29.0751 10.0137 29.074 10.738C29.0714 12.1587 29.0674 13.5793 29.0625 15C28.4438 15 27.825 15 27.1875 15C27.1866 14.8554 27.1856 14.7109 27.1846 14.5619C27.1756 13.2014 27.1653 11.8408 27.1538 10.4802C27.148 9.78073 27.1425 9.08121 27.1381 8.38168C27.1338 7.70694 27.1283 7.03222 27.1221 6.3575C27.1199 6.09973 27.1182 5.84195 27.1168 5.58417C27.1148 5.22387 27.1114 4.86362 27.1077 4.50334C27.1074 4.39612 27.1072 4.2889 27.1069 4.17843C27.1056 4.08033 27.1043 3.98223 27.103 3.88115C27.1023 3.79592 27.1017 3.7107 27.101 3.62288C27.0817 3.36008 27.0817 3.36008 26.836 3.04688C26.4079 2.9042 26.0145 2.91233 25.5688 2.91244C25.4746 2.91201 25.3804 2.91158 25.2833 2.91114C24.9664 2.90984 24.6496 2.90939 24.3327 2.90895C24.106 2.90821 23.8792 2.90743 23.6525 2.90661C23.0358 2.90457 22.4191 2.90333 21.8025 2.90237C21.4174 2.90177 21.0324 2.90105 20.6474 2.90032C19.4436 2.89808 18.2397 2.89642 17.0359 2.89544C15.6447 2.89429 14.2536 2.89121 12.8625 2.88648C11.788 2.88295 10.7136 2.88121 9.63914 2.88082C8.99698 2.88054 8.35484 2.87948 7.71269 2.87654C7.10892 2.87383 6.50519 2.87332 5.90142 2.87452C5.67957 2.87458 5.45772 2.87384 5.23588 2.87223C4.9335 2.87017 4.63127 2.87098 4.32889 2.87253C4.24067 2.87124 4.15245 2.86996 4.06155 2.86863C3.68184 2.87334 3.43438 2.90732 3.10955 3.10953C2.86013 3.5102 2.8655 3.87049 2.87176 4.32808C2.87119 4.42243 2.87062 4.51677 2.87004 4.61397C2.86872 4.9305 2.87075 5.24691 2.87277 5.56343C2.87252 5.79018 2.87206 6.01694 2.87142 6.24369C2.87028 6.85989 2.87208 7.47606 2.87446 8.09225C2.87651 8.73656 2.8761 9.38087 2.87601 10.0252C2.87623 11.1073 2.87827 12.1893 2.88147 13.2714C2.88515 14.5232 2.88639 15.7749 2.88622 17.0266C2.88607 18.2298 2.88727 19.4331 2.88921 20.6363C2.89004 21.1488 2.89047 21.6612 2.89059 22.1737C2.89083 22.777 2.89226 23.3803 2.89462 23.9836C2.8953 24.2052 2.89559 24.4269 2.89546 24.6485C2.89534 24.9506 2.89666 25.2527 2.89836 25.5547C2.898 25.6429 2.89764 25.731 2.89726 25.8218C2.90128 26.2528 2.91019 26.5942 3.16408 26.9531C3.42841 27.0853 3.57371 27.0863 3.86708 27.0889C3.96502 27.09 4.06296 27.0912 4.16386 27.0923C4.2715 27.093 4.37915 27.0937 4.49005 27.0944C4.60324 27.0955 4.71643 27.0967 4.83305 27.0979C5.20843 27.1016 5.5838 27.1045 5.95918 27.1074C6.21896 27.1098 6.47873 27.1123 6.73851 27.1148C7.4232 27.1213 8.10789 27.127 8.79259 27.1327C9.49089 27.1386 10.1892 27.1451 10.8875 27.1516C12.2583 27.1642 13.6292 27.1761 15 27.1875C15 27.8063 15 28.425 15 29.0625C13.4424 29.0734 11.8849 29.0817 10.3273 29.0868C9.60397 29.0892 8.8807 29.0925 8.15742 29.0979C7.45913 29.103 6.76087 29.1058 6.06257 29.107C5.79644 29.1078 5.53031 29.1095 5.2642 29.1121C4.89082 29.1155 4.51754 29.1159 4.14415 29.1157C4.03465 29.1174 3.92516 29.1191 3.81234 29.1208C2.97916 29.1156 2.36099 28.9169 1.72945 28.3635C1.63473 28.2491 1.63473 28.2491 1.5381 28.1323C1.47314 28.0563 1.40819 27.9804 1.34126 27.9021C0.940044 27.3198 0.903436 26.7811 0.906176 26.0897C0.905645 25.9913 0.905114 25.8929 0.904567 25.7915C0.903084 25.4618 0.903275 25.1323 0.903469 24.8026C0.902768 24.5662 0.90197 24.3298 0.901084 24.0934C0.899012 23.4513 0.898464 22.8092 0.898314 22.1671C0.898092 21.6309 0.897229 21.0948 0.896399 20.5587C0.89449 19.2937 0.893918 18.0286 0.894085 16.7636C0.894226 15.459 0.891753 14.1544 0.888051 12.8497C0.884986 11.7294 0.883729 10.609 0.883879 9.48869C0.883939 8.81967 0.883272 8.15066 0.88079 7.48165C0.87852 6.85229 0.878504 6.22297 0.880208 5.5936C0.880453 5.36288 0.879901 5.13216 0.878483 4.90145C0.876671 4.5859 0.877764 4.2705 0.879569 3.95495C0.878363 3.86416 0.877158 3.77336 0.875916 3.6798C0.885583 2.91207 1.12931 2.30823 1.63652 1.72943C1.71281 1.66629 1.78909 1.60314 1.86769 1.53809C1.94368 1.47313 2.01966 1.40817 2.09795 1.34125C2.68026 0.940029 3.21892 0.903421 3.91033 0.906161Z" />
<path d="M7.26565 39.9609C7.61721 40.1701 7.61721 40.1701 7.96877 40.437C9.31424 41.4184 10.7189 42.1022 12.3349 42.5208C13.8914 42.932 15.4446 43.5418 16.6406 44.6484C16.7364 44.7323 16.8322 44.8161 16.9309 44.9025C18.4192 46.2807 19.3266 48.2448 19.4793 50.2685C19.4927 50.6318 19.4966 50.9939 19.4971 51.3574C19.5 51.4804 19.5028 51.6033 19.5058 51.73C19.5093 52.6417 19.3671 53.0316 18.7427 53.6938C17.0803 54.7196 14.1811 54.6268 12.3398 54.2548C10.2468 53.7388 8.39856 52.4591 7.26565 50.625C5.94412 48.3483 5.59846 45.9528 5.5884 43.3594C5.58775 43.2183 5.5871 43.0772 5.58643 42.9318C5.60493 40.6397 5.60493 40.6397 6.11574 39.9829C6.55576 39.7971 6.80182 39.8571 7.26565 39.9609Z" fill="#030302"/>
<path d="M48.1641 4.6875C48.7195 5.14148 48.9496 5.64362 49.2261 6.28418C50.0116 8.01417 51.0652 9.54622 52.1874 11.0728C52.5961 11.6325 52.9783 12.2012 53.335 12.7954C53.3765 12.8643 53.418 12.9331 53.4607 13.004C54.3543 14.5273 54.6281 16.1394 54.2208 17.8757C53.9266 18.9347 53.5256 19.754 52.8516 20.625C52.7174 20.8099 52.7174 20.8099 52.5806 20.9985C51.3679 22.2676 49.761 22.9551 48.0234 23.0224C46.3382 23.0496 45.0396 22.6363 43.711 21.5625C43.5951 21.4719 43.4792 21.3812 43.3599 21.2878C42.3416 20.4319 41.7586 19.1721 41.3672 17.9297C41.3436 17.8575 41.3201 17.7853 41.2958 17.7109C40.9076 15.5912 41.6337 13.6907 42.8115 11.9545C43.1543 11.4596 43.5044 10.97 43.8565 10.4816C44.4208 9.69736 44.9727 8.91261 45.4614 8.07861C45.5107 7.99521 45.56 7.9118 45.6107 7.82587C46.0136 7.13074 46.3599 6.41513 46.6772 5.67716C47.0033 4.94031 47.3189 4.54951 48.1641 4.6875ZM47.6953 7.96875C47.5534 8.15775 47.5534 8.15775 47.4184 8.40729C47.3361 8.54962 47.3361 8.54962 47.2522 8.69482C47.193 8.79843 47.1338 8.90204 47.0728 9.00879C46.5925 9.83131 46.0883 10.6174 45.52 11.3818C44.9984 12.087 44.5076 12.8026 44.0479 13.5498C43.9952 13.6344 43.9426 13.719 43.8883 13.8062C43.2035 14.9381 42.9827 15.8892 43.125 17.2266C43.4748 18.5959 44.202 19.6858 45.3516 20.5078C46.5606 21.1651 47.9281 21.3128 49.2696 20.9999C50.5966 20.4977 51.537 19.5466 52.1485 18.2812C52.1882 18.1998 52.2279 18.1184 52.2689 18.0345C52.6738 17.0399 52.6745 15.8138 52.3096 14.8096C51.6802 13.4828 50.7519 12.2901 49.9169 11.088C49.8087 10.932 49.7005 10.7761 49.5923 10.6201C49.5407 10.5461 49.4891 10.4722 49.436 10.3959C49.0119 9.78188 48.6273 9.14751 48.2596 8.49821C48.1557 8.31808 48.0435 8.1428 47.9297 7.96875C47.8524 7.96875 47.775 7.96875 47.6953 7.96875Z" fill="#020303"/>
<path d="M15.162 8.84949C16.532 9.62649 17.371 10.6744 17.8125 12.1875C17.9686 13.569 17.6671 14.9288 16.8375 16.0556C15.9375 17.123 14.7641 17.7136 13.3699 17.8445C11.9927 17.8889 10.8652 17.4482 9.84375 16.5234C9.78151 16.4675 9.71927 16.4117 9.65515 16.3541C8.80901 15.4861 8.37096 14.3012 8.36426 13.103C8.40133 11.6723 8.93659 10.6444 9.92889 9.63867C11.365 8.32717 13.41 8.00434 15.162 8.84949Z" fill="#030303"/>
<path d="M7.50001 42.5391C7.67857 42.6304 7.67857 42.6304 7.86073 42.7235C9.14992 43.3788 10.402 43.9711 11.8067 44.3335C13.8665 44.8732 15.6194 45.8485 16.7578 47.6953C17.3348 48.7717 17.6292 49.7519 17.5781 50.9766C17.0962 50.8022 16.6872 50.5657 16.2525 50.2954C15.3162 49.7215 14.3521 49.2019 13.3844 48.6833C13.2683 48.621 13.1522 48.5587 13.0325 48.4946C12.8772 48.4117 12.8772 48.4117 12.7187 48.3271C12.4197 48.1628 12.1273 47.9899 11.8359 47.8125C12.7987 49.6095 13.9521 51.1597 15.7031 52.2656C15.7031 52.3043 15.7031 52.343 15.7031 52.3828C13.3707 52.4605 11.5691 52.3281 9.72657 50.7422C7.96262 48.7604 7.46949 46.2978 7.49269 43.7109C7.49321 43.5978 7.49374 43.4846 7.49429 43.3681C7.49566 43.0917 7.49757 42.8154 7.50001 42.5391Z" fill="none"/>
<path d="M50.2734 48.2813C50.8278 48.737 51.3336 49.3523 51.5625 50.0391C51.653 51.117 51.6446 51.9614 50.9766 52.8516C50.9113 52.9555 50.846 53.0594 50.7788 53.1665C49.8552 54.0902 48.7411 54.3997 47.4658 54.4042C47.3203 54.4029 47.3203 54.4029 47.1718 54.4016C47.0665 54.4016 46.9612 54.4017 46.8527 54.4017C46.5084 54.4016 46.1641 54.3997 45.8199 54.3979C45.5796 54.3975 45.3394 54.3971 45.0992 54.3969C44.4698 54.396 43.8404 54.3937 43.2111 54.3911C42.5677 54.3887 41.9243 54.3876 41.2809 54.3864C40.0206 54.3839 38.7603 54.3799 37.5 54.375C37.5 53.7563 37.5 53.1375 37.5 52.5C37.6298 52.4993 37.7596 52.4986 37.8933 52.4979C39.1191 52.4912 40.345 52.4827 41.5708 52.4724C42.2009 52.4671 42.831 52.4625 43.4612 52.4594C44.0698 52.4563 44.6785 52.4516 45.2871 52.4457C45.5188 52.4438 45.7504 52.4424 45.9821 52.4417C46.3078 52.4406 46.6333 52.4373 46.959 52.4335C47.1012 52.4337 47.1012 52.4337 47.2463 52.434C47.9569 52.4224 48.7367 52.3362 49.3001 51.8653C49.6054 51.4949 49.6089 51.0831 49.6046 50.6177C49.5847 50.3616 49.5847 50.3616 49.3506 50.105C48.8978 49.7721 48.4816 49.7402 47.9297 49.8047C47.5577 50.0011 47.5577 50.0011 47.4783 50.3329C47.3438 50.625 47.3438 50.625 47.0554 50.7632C46.8863 50.8036 46.8863 50.8036 46.7139 50.8447C46.5457 50.8878 46.5457 50.8878 46.3742 50.9317C46.0635 50.9753 45.8791 50.9608 45.5859 50.8594C45.5215 50.0857 45.5917 49.5053 46.0547 48.8672C47.1962 47.6094 48.8062 47.4664 50.2734 48.2813Z" fill="#010101"/>
<path d="M54.0234 39.8438C54.5778 40.2995 55.0836 40.9148 55.3125 41.6016C55.403 42.6795 55.3946 43.5239 54.7266 44.4141C54.6613 44.518 54.596 44.6219 54.5288 44.729C53.6052 45.6527 52.4911 45.9622 51.2158 45.9667C51.0703 45.9654 51.0703 45.9654 50.9218 45.9641C50.8165 45.9641 50.7112 45.9642 50.6027 45.9642C50.2584 45.9641 49.9141 45.9622 49.5699 45.9604C49.3296 45.96 49.0894 45.9596 48.8492 45.9594C48.2198 45.9585 47.5904 45.9562 46.9611 45.9536C46.3177 45.9512 45.6743 45.9501 45.0309 45.949C43.7706 45.9464 42.5103 45.9424 41.25 45.9375C41.25 45.3188 41.25 44.7 41.25 44.0625C41.3798 44.0618 41.5096 44.0611 41.6433 44.0604C42.8691 44.0537 44.095 44.0452 45.3208 44.0349C45.9509 44.0297 46.581 44.0251 47.2112 44.0219C47.8198 44.0189 48.4285 44.0141 49.0371 44.0082C49.2688 44.0063 49.5004 44.0049 49.7321 44.0042C50.0578 44.0031 50.3833 43.9998 50.709 43.996C50.8512 43.9962 50.8512 43.9962 50.9963 43.9965C51.7069 43.9849 52.4867 43.8987 53.0501 43.4278C53.3554 43.0574 53.3589 42.6456 53.3546 42.1802C53.3347 41.9241 53.3347 41.9241 53.1006 41.6675C52.6478 41.3346 52.2316 41.3027 51.6797 41.3672C51.3077 41.5636 51.3077 41.5636 51.2283 41.8955C51.0938 42.1875 51.0938 42.1875 50.8054 42.3258C50.6363 42.3661 50.6363 42.3661 50.4639 42.4072C50.2957 42.4503 50.2957 42.4503 50.1242 42.4942C49.8135 42.5378 49.6291 42.5233 49.3359 42.4219C49.2715 41.6482 49.3417 41.0678 49.8047 40.4297C50.9462 39.1719 52.5562 39.0289 54.0234 39.8438Z" fill="#010101"/>
<path d="M14.3921 10.5469C15.1026 11.0016 15.6761 11.6118 15.9375 12.4219C16.0487 13.2756 15.9605 14.0471 15.4688 14.7656C14.8689 15.4258 14.3188 15.8793 13.4143 15.9659C12.667 16.0008 12.0893 15.9266 11.4844 15.4688C10.7651 14.7886 10.3017 14.149 10.2612 13.1397C10.2875 12.3225 10.4619 11.8192 11.0266 11.2271C11.9849 10.3359 13.1393 9.90866 14.3921 10.5469Z" fill="none"/>
<path d="M28.2422 24.375C29.209 24.375 30.1758 24.375 31.1719 24.375C31.0873 24.6291 31.0027 24.8832 30.9155 25.145C30.8338 25.3927 30.7525 25.6406 30.6712 25.8885C30.6147 26.06 30.5579 26.2314 30.5007 26.4027C30.4182 26.6496 30.3372 26.897 30.2563 27.1445C30.2307 27.2203 30.2051 27.2961 30.1787 27.3743C30.0305 27.8333 29.9588 28.2291 30 28.7109C30.1608 29.0037 30.1608 29.0037 30.4688 29.1797C30.8046 29.2323 31.0994 29.261 31.4355 29.2676C31.5665 29.2728 31.5665 29.2728 31.7001 29.2781C31.9146 29.2864 32.1292 29.2919 32.3438 29.2969C31.8642 30.0938 31.342 30.8462 30.7837 31.5894C30.7219 31.6717 30.66 31.754 30.5964 31.8388C30.1503 32.4278 30.1503 32.4278 29.8828 32.6953C29.8888 32.6303 29.8948 32.5653 29.901 32.4984C29.9268 32.2028 29.9488 31.9072 29.9707 31.6113C29.9802 31.5091 29.9897 31.4068 29.9995 31.3014C30.0297 30.8631 30.0489 30.5643 29.8462 30.1685C29.3421 29.8988 28.8348 29.9204 28.2715 29.9121C28.1562 29.9086 28.041 29.9052 27.9222 29.9016C27.6382 29.8933 27.3544 29.8871 27.0703 29.8828C27.1554 28.9681 27.377 28.0862 27.5903 27.1948C27.6458 26.9612 27.701 26.7276 27.7563 26.494C27.8065 26.2817 27.8571 26.0695 27.9078 25.8573C28.0232 25.3641 28.1323 24.8694 28.2422 24.375Z" fill="none"/>
<path d="M48.8672 49.6875C49.2874 49.8793 49.4289 50.0027 49.6875 50.3906C49.7376 51.012 49.7501 51.4171 49.3359 51.9141C48.6686 52.4363 48.1426 52.515 47.3134 52.5133C47.168 52.5133 47.0226 52.5133 46.8727 52.5133C46.7153 52.5127 46.5578 52.5121 46.4003 52.5114C46.2382 52.5112 46.0762 52.5111 45.9141 52.5109C45.4889 52.5105 45.0638 52.5093 44.6386 52.508C44.2042 52.5068 43.7698 52.5063 43.3353 52.5057C42.484 52.5045 41.6326 52.5025 40.7812 52.5C41.1001 52.3373 41.4034 52.2079 41.7467 52.1054C41.842 52.0768 41.9374 52.0482 42.0356 52.0187C42.1365 51.989 42.2374 51.9593 42.3413 51.9287C42.4449 51.898 42.5485 51.8672 42.6553 51.8355C45.1709 51.0938 45.1709 51.0938 45.5859 51.0938C45.6246 51.0164 45.6633 50.9391 45.7031 50.8594C45.9247 50.7893 45.9247 50.7893 46.2012 50.7349C46.2962 50.7149 46.3912 50.695 46.4891 50.6744C46.7578 50.625 46.7578 50.625 47.1021 50.5884C47.2217 50.5485 47.2217 50.5485 47.3438 50.5078C47.4808 50.2238 47.4808 50.2238 47.5781 49.9219C48.0125 49.6323 48.3635 49.6226 48.8672 49.6875Z" fill="none"/>
<path d="M52.6172 41.25C53.0374 41.4418 53.1789 41.5652 53.4375 41.9531C53.4876 42.5745 53.5001 42.9796 53.086 43.4766C52.4187 43.9988 51.8926 44.0775 51.0634 44.0758C50.918 44.0758 50.7726 44.0758 50.6227 44.0758C50.4653 44.0752 50.3078 44.0746 50.1503 44.074C49.9883 44.0737 49.8262 44.0736 49.6641 44.0734C49.239 44.073 48.8138 44.0719 48.3886 44.0706C47.9542 44.0694 47.5198 44.0688 47.0854 44.0682C46.234 44.067 45.3826 44.065 44.5313 44.0625C44.8501 43.8998 45.1535 43.7704 45.4967 43.6679C45.592 43.6393 45.6874 43.6107 45.7856 43.5812C45.8865 43.5515 45.9874 43.5218 46.0913 43.4912C46.1949 43.4605 46.2985 43.4297 46.4053 43.398C48.9209 42.6563 48.9209 42.6563 49.336 42.6563C49.3746 42.5789 49.4133 42.5016 49.4531 42.4219C49.6747 42.3518 49.6747 42.3518 49.9512 42.2974C50.0462 42.2774 50.1412 42.2575 50.2391 42.2369C50.5078 42.1875 50.5078 42.1875 50.8521 42.1509C50.9717 42.111 50.9717 42.111 51.0938 42.0703C51.2308 41.7863 51.2308 41.7863 51.3281 41.4844C51.7625 41.1948 52.1135 41.1851 52.6172 41.25Z" fill="none"/>
<path d="M49.6875 16.2891C50.3063 16.2891 50.925 16.2891 51.5625 16.2891C51.5625 17.4533 51.1963 18.4048 50.3865 19.2554C49.5733 19.9538 48.8711 20.1562 47.8125 20.1562C47.8125 19.5375 47.8125 18.9188 47.8125 18.2812C47.9769 18.2353 48.1412 18.1894 48.3106 18.1421C48.8164 17.97 49.0655 17.8223 49.336 17.3438C49.4708 16.9949 49.5803 16.6481 49.6875 16.2891Z" fill="#010204"/>
<path d="M12.1875 19.6875C12.8063 19.6875 13.425 19.6875 14.0625 19.6875C14.0625 20.3063 14.0625 20.925 14.0625 21.5625C13.4438 21.5625 12.825 21.5625 12.1875 21.5625C12.1875 20.9438 12.1875 20.325 12.1875 19.6875Z"/>
<path d="M19.6875 12.1875C20.3063 12.1875 20.925 12.1875 21.5625 12.1875C21.5625 12.8063 21.5625 13.425 21.5625 14.0625C20.9438 14.0625 20.325 14.0625 19.6875 14.0625C19.6875 13.4438 19.6875 12.825 19.6875 12.1875Z" />
<path d="M4.6875 12.1875C5.30625 12.1875 5.925 12.1875 6.5625 12.1875C6.5625 12.8063 6.5625 13.425 6.5625 14.0625C5.94375 14.0625 5.325 14.0625 4.6875 14.0625C4.6875 13.4438 4.6875 12.825 4.6875 12.1875Z" />
<path d="M12.1875 4.6875C12.8063 4.6875 13.425 4.6875 14.0625 4.6875C14.0625 5.30625 14.0625 5.925 14.0625 6.5625C13.4438 6.5625 12.825 6.5625 12.1875 6.5625C12.1875 5.94375 12.1875 5.325 12.1875 4.6875Z" />
<path d="M18.3984 17.1094C18.8445 17.4853 19.2827 17.8602 19.6875 18.2812C19.5144 18.6858 19.2846 18.9433 18.9697 19.248C18.8848 19.3308 18.7999 19.4136 18.7125 19.4989C18.6475 19.5611 18.5826 19.6234 18.5156 19.6875C18.1111 19.5144 17.8536 19.2846 17.5488 18.9697C17.466 18.8848 17.3833 18.7999 17.298 18.7125C17.2357 18.6475 17.1735 18.5826 17.1094 18.5156C17.5206 18.0253 17.9391 17.5552 18.3984 17.1094Z" />
<path d="M7.73438 17.1094C8.26478 17.5404 8.71808 17.9778 9.14062 18.5156C8.75391 18.9023 8.36719 19.2891 7.96875 19.6875C7.53894 19.4726 7.32793 19.3066 7.00195 18.9697C6.91917 18.8848 6.83639 18.7999 6.7511 18.7125C6.68886 18.6475 6.62662 18.5826 6.5625 18.5156C6.73561 18.1111 6.96538 17.8536 7.28027 17.5488C7.36517 17.466 7.45007 17.3833 7.53754 17.298C7.60249 17.2357 7.66745 17.1735 7.73438 17.1094Z" />
<path d="M18.2812 6.5625C18.7111 6.77741 18.9221 6.94343 19.248 7.28027C19.3308 7.36517 19.4136 7.45007 19.4989 7.53754C19.5923 7.63497 19.5923 7.63497 19.6875 7.73438C19.5144 8.13891 19.2846 8.39644 18.9697 8.70117C18.8848 8.78395 18.7999 8.86674 18.7125 8.95203C18.6475 9.01426 18.5826 9.0765 18.5156 9.14062C17.9852 8.70957 17.5319 8.27216 17.1094 7.73438C17.4961 7.34766 17.8828 6.96094 18.2812 6.5625Z" />
<path d="M7.73438 6.5625C8.13891 6.73561 8.39644 6.96538 8.70117 7.28027C8.78395 7.36517 8.86674 7.45007 8.95203 7.53754C9.04538 7.63497 9.04538 7.63497 9.14062 7.73438C8.70957 8.26478 8.27216 8.71808 7.73438 9.14062C7.34766 8.75391 6.96094 8.36719 6.5625 7.96875C6.77741 7.53894 6.94343 7.32793 7.28027 7.00195C7.36517 6.91917 7.45007 6.83639 7.53754 6.7511C7.60249 6.68886 7.66745 6.62662 7.73438 6.5625Z" />
<path fill-rule="evenodd" clip-rule="evenodd" d="M29.4964 32.8175C29.4748 32.8569 29.452 32.895 29.4286 32.9325C29.326 33.0981 29.1952 33.2613 29.0542 33.5688C28.9816 33.7275 29.0482 33.8781 29.1022 34.0294C29.176 34.2381 29.2666 34.4456 29.3236 34.6531C29.4628 35.1588 29.455 35.6663 28.9486 36.1931C28.7836 36.365 28.5316 36.4075 28.3234 36.2975C27.2806 35.7481 26.1778 34.8644 25.4626 33.81C24.952 33.0569 24.6388 32.2169 24.6448 31.3569C24.6232 28.9638 26.0614 27.3444 27.244 26.4631C27.571 26.22 27.7966 25.835 27.9658 25.4075C28.2562 24.6725 28.3708 23.8069 28.4098 23.1369C28.4206 22.9438 28.5262 22.7706 28.6882 22.6775C28.8508 22.5844 29.0476 22.585 29.2102 22.6788C31.0534 23.7413 31.5586 25.515 31.5898 27.0313C31.6192 28.4881 31.204 29.6894 31.204 29.6894C31.1032 29.9819 30.7936 30.1338 30.5134 30.0294C30.2326 29.9244 30.0868 29.6025 30.187 29.31C30.187 29.31 30.535 28.2906 30.5098 27.055C30.4906 26.0994 30.244 25.0031 29.3866 24.1831C29.3044 24.7325 29.1712 25.3125 28.9642 25.8363C28.714 26.4681 28.3558 27.0181 27.8728 27.3781C26.9092 28.0963 25.7068 29.3975 25.7248 31.3556C25.72 31.9956 25.9696 32.6069 26.3452 33.1613C26.842 33.8944 27.5614 34.5275 28.2922 34.9925C28.2874 34.9706 28.2814 34.9494 28.2754 34.9281C28.2352 34.7944 28.1794 34.6613 28.1284 34.5275C27.9514 34.0575 27.8524 33.5794 28.0798 33.0844C28.2184 32.7806 28.3474 32.5888 28.4584 32.42C28.561 32.2638 28.6414 32.1388 28.675 31.8531C28.696 31.6688 28.8034 31.5075 28.9612 31.4219C29.119 31.3363 29.3068 31.3369 29.464 31.4238C30.7726 32.1475 31.261 33.4106 31.4356 34.8838C32.4934 34.1625 33.3586 33.0231 33.3952 31.7506C33.439 30.2238 32.866 29.4613 32.008 28.185C31.837 27.9306 31.8964 27.5794 32.1406 27.4013C32.3848 27.2238 32.7214 27.2856 32.8924 27.5394C33.9082 29.05 34.5262 29.9775 34.4746 31.7838C34.4188 33.7344 32.8942 35.4931 31.1914 36.3069C31.0246 36.3869 30.8296 36.3725 30.6748 36.2694C30.5212 36.1663 30.4276 35.99 30.4264 35.8C30.3706 34.6313 30.2236 33.5369 29.4964 32.8175Z" />
</svg>
