<svg width="57" height="60" viewBox="0 0 57 60" fill="none" xmlns="http://www.w3.org/2000/svg">
<path d="M56.4477 60.1094H56.4375L1.75396 60.1094C1.75373 60.1094 1.75351 60.1094 1.75329 60.1094H1.75312V59.8594C1.63752 59.8598 1.52601 59.8165 1.44087 59.7383C1.35572 59.6601 1.30318 59.5527 1.29375 59.4375L56.4477 60.1094ZM56.4477 60.1094L56.4578 60.1085C56.641 60.0936 56.8109 60.0073 56.931 59.8681C57.0484 59.732 57.1089 59.556 57.1001 59.3767C57.1002 59.3762 57.1002 59.3757 57.1002 59.3752L57.1011 59.3551C57.102 59.3379 57.1033 59.3153 57.1051 59.2867C57.1085 59.2306 57.1135 59.1514 57.1193 59.0555C57.1308 58.8623 57.1457 58.5943 57.159 58.2654C57.1855 57.6078 57.2056 56.7063 57.1796 55.6695C57.1278 53.5998 56.8924 50.9753 56.1504 48.6733L56.1502 48.6727C55.6333 47.0826 54.3059 45.5748 52.6106 44.2019C50.9098 42.8246 48.8104 41.5607 46.7056 40.4657C42.6719 38.3672 38.5901 36.8744 37.1875 36.3846M56.4477 60.1094L36.9375 36.5625M35.75 36.9183C35.7497 37.0685 35.7978 37.2148 35.8871 37.3356C35.9764 37.4564 36.1021 37.5453 36.2458 37.5891L36.2458 37.5893L36.2556 37.5919C36.2546 37.5916 36.2557 37.592 36.2595 37.5932C36.2662 37.5953 36.2813 37.6001 36.3077 37.6088C36.3444 37.6209 36.3963 37.6383 36.4625 37.6609C36.595 37.706 36.7839 37.7716 37.0216 37.8564C37.497 38.026 38.1673 38.2722 38.9719 38.5851C40.5817 39.2111 42.7272 40.1033 44.9262 41.1826C47.1265 42.2627 49.3729 43.5264 51.1884 44.8942C53.0097 46.2665 54.3596 47.7157 54.8289 49.1583C55.6547 52.2647 55.9731 55.4836 55.7723 58.6906H2.42767C2.22687 55.4835 2.54531 52.2645 3.37116 49.1581C3.84049 47.7085 5.19107 46.2558 7.01229 44.8823C8.82769 43.5133 11.0734 42.2504 13.2714 41.1721C17.5099 39.0929 21.5396 37.715 21.8936 37.594C21.9017 37.5912 21.9079 37.5891 21.9121 37.5876L36 32.7281C36 32.6038 36.0494 32.4846 36.1373 32.3967C36.2252 32.3088 36.3444 32.2594 36.4687 32.2594C36.5931 32.2594 36.7123 32.3088 36.8002 32.3967C36.8881 32.4846 36.9375 32.6038 36.9375 32.7281V36.5625M35.75 36.9183L36 36.9187H35.75V36.9183ZM35.75 36.9183V32.7281C35.75 32.5375 35.8257 32.3547 35.9605 32.2199C36.0953 32.0851 36.2781 32.0094 36.4687 32.0094C36.6594 32.0094 36.8422 32.0851 36.977 32.2199C37.1118 32.3547 37.1875 32.5375 37.1875 32.7281V36.3846M37.1875 36.3846C37.1261 36.3632 37.0699 36.3437 37.019 36.3262L36.9375 36.5625M37.1875 36.3846V36.5625H36.9375M20.9656 32.7281V36.3864L22.4031 36.9187V36.9183V32.7281C22.4031 32.5375 22.3274 32.3547 22.1926 32.2199C22.0578 32.0851 21.875 32.0094 21.6844 32.0094C21.4937 32.0094 21.3109 32.0851 21.1761 32.2199C21.0413 32.3547 20.9656 32.5375 20.9656 32.7281Z"  stroke="black" stroke-width="0.5"/>
<path d="M39.979 48.0613L39.9911 48.0625H40.0031H40.047C40.2247 48.0664 40.3976 48.0043 40.5323 47.8881C40.6679 47.7711 40.7549 47.6077 40.7764 47.4299L40.7767 47.4266L41.7142 38.661L41.7144 38.6592C41.7238 38.565 41.7146 38.4699 41.6872 38.3792C41.6599 38.2885 41.6149 38.2042 41.555 38.1309C41.495 38.0576 41.4212 37.9968 41.3377 37.9521C41.2543 37.9073 41.1628 37.8794 41.0686 37.87C40.9744 37.8606 40.8792 37.8698 40.7886 37.8971C40.6979 37.9245 40.6135 37.9694 40.5403 38.0294C40.467 38.0894 40.4062 38.1632 40.3614 38.2466C40.3168 38.3298 40.289 38.4209 40.2795 38.5148C40.2794 38.5151 40.2794 38.5154 40.2794 38.5158L39.3421 47.2796C39.342 47.2796 39.342 47.2796 39.342 47.2797C39.3321 47.3729 39.3406 47.4671 39.3673 47.557C39.394 47.6469 39.4382 47.7306 39.4974 47.8034C39.5567 47.8761 39.6298 47.9363 39.7124 47.9806C39.7951 48.0249 39.8857 48.0523 39.979 48.0613ZM44.1518 48.0625H44.175H44.2505C44.4191 48.0733 44.586 48.0227 44.7204 47.92C44.8575 47.8151 44.9511 47.6633 44.9831 47.4938C44.9831 47.4935 44.9832 47.4932 44.9832 47.493L46.2767 40.81L46.2773 40.8068C46.3114 40.6172 46.2688 40.4218 46.1589 40.2637C46.049 40.1055 45.8807 39.9975 45.6912 39.9633C45.5016 39.9292 45.3062 39.9718 45.148 40.0817C44.9903 40.1913 44.8825 40.3589 44.848 40.5478C44.8479 40.5484 44.8478 40.5489 44.8477 40.5495L43.5645 47.2186C43.5644 47.2191 43.5642 47.2197 43.5641 47.2202C43.5456 47.312 43.5453 47.4065 43.5635 47.4984C43.5817 47.5908 43.6182 47.6786 43.6707 47.7568C43.7233 47.8349 43.7909 47.9018 43.8696 47.9536C43.9483 48.0054 44.0365 48.0409 44.1291 48.0582L44.1518 48.0625ZM18.1374 48.0625L18.1374 48.0625H18.1406H18.2063H18.2183L18.2303 48.0613C18.3237 48.0523 18.4143 48.0249 18.497 47.9806C18.5796 47.9363 18.6527 47.8761 18.7119 47.8034C18.7712 47.7307 18.8154 47.6469 18.8421 47.557C18.8687 47.4671 18.8773 47.3729 18.8673 47.2797C18.8673 47.2796 18.8673 47.2796 18.8673 47.2796L17.93 38.5157C17.93 38.5154 17.9299 38.5151 17.9299 38.5148C17.9107 38.3249 17.8169 38.1503 17.6691 38.0294C17.5211 37.9083 17.331 37.851 17.1407 37.87C16.9505 37.889 16.7755 37.9829 16.6544 38.1309C16.5333 38.2789 16.476 38.469 16.495 38.6592L16.495 38.6592L16.4952 38.661L17.4327 47.4266L17.4326 47.4266L17.4331 47.43C17.4539 47.6028 17.5369 47.7622 17.6664 47.8786L17.8334 47.6926L17.6664 47.8786C17.796 47.9949 17.9633 48.0603 18.1374 48.0625ZM11.9508 40.8255L11.9508 40.8255L11.9514 40.8286L13.2355 47.4834C13.2356 47.4837 13.2356 47.4839 13.2357 47.4842C13.2661 47.6462 13.352 47.7925 13.4787 47.8981C13.6006 47.9997 13.7529 48.0574 13.9112 48.0622L14.0271 48.0787L14.0705 48.0849L14.1134 48.076C14.2972 48.0378 14.4588 47.9292 14.5636 47.7734C14.6683 47.6176 14.708 47.4269 14.674 47.2423L14.674 47.2423L14.6736 47.2399L13.3801 40.5664C13.3456 40.3776 13.2378 40.21 13.0801 40.1005C12.9219 39.9905 12.7265 39.948 12.537 39.9821C12.3474 40.0162 12.1791 40.1242 12.0692 40.2824L12.273 40.424L12.0692 40.2824C11.9593 40.4406 11.9167 40.636 11.9508 40.8255Z"  stroke="black" stroke-width="0.5"/>
<path d="M47.6094 50.7069V50.7094V59.4C47.6094 59.4943 47.6282 59.5878 47.6647 59.6748C47.7013 59.7618 47.7548 59.8407 47.8222 59.9067C47.8897 59.9728 47.9696 60.0248 48.0573 60.0595C48.1443 60.094 48.2371 60.1109 48.3306 60.1094C48.5179 60.1087 48.6973 60.034 48.8297 59.9016L48.653 59.7248L48.8297 59.9016C48.9628 59.7686 49.0375 59.5881 49.0375 59.4V50.7094V50.7088C49.0349 49.6364 48.6077 48.6088 47.8495 47.8505C47.0912 47.0923 46.0636 46.6651 44.9912 46.6625H44.9906H13.1438V46.6625L13.1407 46.6625C12.076 46.6757 11.0595 47.1078 10.3113 47.8653C9.56318 48.6229 9.14368 49.6447 9.14375 50.7094C9.14375 50.7094 9.14375 50.7094 9.14375 50.7094V59.3719C9.14375 59.5625 9.21948 59.7453 9.35427 59.8801C9.48906 60.0149 9.67187 60.0906 9.8625 60.0906C10.0531 60.0906 10.2359 60.0149 10.3707 59.8801C10.5055 59.7453 10.5813 59.5625 10.5813 59.3719V50.6813C10.5813 49.9867 10.8572 49.3206 11.3483 48.8295C11.8394 48.3384 12.5055 48.0625 13.2 48.0625H44.9906C45.3367 48.0625 45.6794 48.1311 45.9988 48.2643C46.3182 48.3975 46.608 48.5927 46.8515 48.8386C47.095 49.0845 47.2874 49.3762 47.4175 49.6969C47.5476 50.0176 47.6128 50.3609 47.6094 50.7069Z"  stroke="black" stroke-width="0.5"/>
<path d="M41.2391 17.3687C41.3434 17.3698 41.4467 17.3482 41.5419 17.3054C41.6375 17.2623 41.7226 17.1988 41.7911 17.1193C41.8596 17.0399 41.9098 16.9464 41.9383 16.8454C41.9648 16.7516 41.972 16.6535 41.9594 16.557V14.3906V14.39C41.9522 11.5417 41.0003 8.77636 39.2528 6.52715C37.5054 4.27795 35.0611 2.67203 32.303 1.96103L32.303 1.96103L32.3013 1.96058C32.1126 1.91342 31.913 1.94313 31.7462 2.04317C31.5795 2.14322 31.4593 2.3054 31.4122 2.49405C31.365 2.68269 31.3947 2.88235 31.4947 3.04909C31.5946 3.21555 31.7564 3.33559 31.9447 3.38292C34.4023 4.01604 36.5797 5.44839 38.1342 7.45456C39.6888 9.46095 40.5321 11.9273 40.5312 14.4655V14.4656V16.6477C40.5297 16.7411 40.5466 16.8339 40.5811 16.9208C40.6159 17.0086 40.6678 17.0885 40.7339 17.1559L40.9124 16.9809L40.7339 17.1559C40.7999 17.2233 40.8788 17.2768 40.9658 17.3134C41.0523 17.3497 41.1452 17.3685 41.2391 17.3687ZM41.2391 17.3687C41.2385 17.3687 41.238 17.3687 41.2374 17.3687L41.2406 17.1187L41.2407 17.3687C41.2401 17.3687 41.2396 17.3687 41.2391 17.3687ZM16.2406 14.4656V14.4654C16.2429 11.6158 17.193 8.84788 18.9413 6.59759C20.6894 4.34757 23.1362 2.74288 25.8964 2.03618C25.9863 2.01245 26.0801 2.00664 26.1722 2.01909C26.2648 2.03159 26.3541 2.06226 26.4348 2.10934C26.5155 2.15643 26.5861 2.21899 26.6426 2.29345C26.699 2.3679 26.7402 2.45278 26.7638 2.5432L26.7651 2.54812L26.765 2.54813C26.8087 2.73102 26.779 2.92375 26.6823 3.08499L26.4679 2.95637L26.6823 3.08499C26.5855 3.24623 26.4295 3.36314 26.2475 3.41064L26.2466 3.41088C23.7878 4.04246 21.6093 5.4745 20.0545 7.48116C18.4996 9.48783 17.657 11.955 17.6594 14.4935V14.4937V16.6781V16.6883L17.6592 16.6883C17.6517 16.8714 17.5737 17.0445 17.4414 17.1713C17.3092 17.2981 17.1331 17.3689 16.9499 17.3687L16.2406 14.4656ZM16.2406 14.4656V16.6477C16.2391 16.7411 16.256 16.8339 16.2905 16.9208C16.3252 17.0086 16.3772 17.0885 16.4433 17.1559L16.6194 16.9833L16.4433 17.1559C16.5093 17.2233 16.5882 17.2768 16.6752 17.3134C16.7621 17.3499 16.8555 17.3687 16.9498 17.3687L16.2406 14.4656ZM17.9695 52.6569L17.7387 52.5609L17.9695 52.6569C18.068 52.42 18.1188 52.1659 18.1187 51.9094C18.1187 51.5248 18.0048 51.1488 17.7914 50.8289C17.5779 50.5089 17.2745 50.2594 16.9194 50.1117C16.5643 49.9641 16.1734 49.9249 15.796 49.9991C15.4186 50.0734 15.0717 50.2578 14.799 50.529C14.5263 50.8002 14.3401 51.146 14.2637 51.523C14.1874 51.8999 14.2244 52.291 14.3701 52.647C14.5158 53.0029 14.7637 53.3077 15.0824 53.5229C15.4012 53.7381 15.7765 53.8541 16.1611 53.8562C16.4177 53.8577 16.672 53.8083 16.9095 53.7111C17.1469 53.6139 17.3628 53.4708 17.5447 53.2898C17.7266 53.1089 17.871 52.8938 17.9695 52.6569ZM15.6445 52.0124L15.3997 52.0611L15.6445 52.0124C15.6241 51.91 15.6346 51.8038 15.6746 51.7073C15.7145 51.6108 15.7822 51.5283 15.8691 51.4702C15.9559 51.4122 16.058 51.3812 16.1625 51.3812C16.3026 51.3812 16.4369 51.4369 16.5359 51.5359C16.635 51.635 16.6906 51.7693 16.6906 51.9094C16.6906 52.0138 16.6596 52.1159 16.6016 52.2028L16.8095 52.3417L16.6016 52.2028C16.5436 52.2896 16.4611 52.3573 16.3646 52.3973C16.2681 52.4373 16.1619 52.4477 16.0595 52.4273C15.957 52.407 15.8629 52.3567 15.7891 52.2828L15.613 52.4588L15.7891 52.2828C15.7152 52.2089 15.6649 52.1148 15.6445 52.0124ZM40.9199 53.5229C41.2387 53.7381 41.614 53.8541 41.9986 53.8562C42.2552 53.8577 42.5095 53.8083 42.747 53.7111C42.9844 53.6139 43.2003 53.4708 43.3822 53.2898C43.5641 53.1089 43.7085 52.8938 43.807 52.6569C43.9055 52.42 43.9563 52.1659 43.9562 51.9094C43.9562 51.5248 43.8423 51.1488 43.6289 50.8289C43.4154 50.5089 43.112 50.2594 42.7569 50.1117C42.4018 49.9641 42.0109 49.9249 41.6335 49.9991C41.2561 50.0734 40.9092 50.2578 40.6365 50.529C40.3638 50.8002 40.1776 51.1461 40.1012 51.523C40.0249 51.8999 40.0619 52.291 40.2076 52.647C40.3533 53.0029 40.6012 53.3077 40.9199 53.5229ZM41.7066 51.4702C41.7934 51.4122 41.8955 51.3812 42 51.3812C42.1401 51.3812 42.2744 51.4369 42.3734 51.5359C42.4725 51.635 42.5281 51.7693 42.5281 51.9094C42.5281 52.0138 42.4972 52.1159 42.4391 52.2028C42.3811 52.2896 42.2986 52.3573 42.2021 52.3973C42.1056 52.4373 41.9994 52.4477 41.897 52.4273C41.7945 52.407 41.7004 52.3567 41.6266 52.2828C41.5527 52.2089 41.5024 52.1148 41.482 52.0124C41.4616 51.91 41.4721 51.8038 41.5121 51.7073C41.552 51.6108 41.6197 51.5283 41.7066 51.4702Z"  stroke="black" stroke-width="0.5"/>
<path d="M14.3938 19.6875H14.3936L15.8438 20.8406V21.0906H15.8439H42.3561C42.3562 21.0906 42.3562 21.0906 42.3563 21.0906C42.7306 21.0908 43.0902 20.9453 43.3591 20.6848C43.628 20.4244 43.785 20.0695 43.7968 19.6954L43.7969 19.6954V19.6875V17.3813C43.7969 16.9992 43.6451 16.6327 43.3749 16.3626C43.1048 16.0924 42.7383 15.9406 42.3563 15.9406H15.8438C15.8438 15.9406 15.8438 15.9406 15.8438 15.9406C15.4611 15.9406 15.094 16.0918 14.8224 16.3613C14.5508 16.6308 14.3967 16.9967 14.3938 17.3793H14.3938V17.3813V19.6875ZM15.8348 17.3405L15.8348 17.3406L15.8435 17.3406L42.356 17.3688V17.3689L42.3652 17.3686C42.3669 17.3685 42.3685 17.3688 42.3701 17.3694C42.3717 17.37 42.3731 17.3709 42.3743 17.3721C42.3755 17.3733 42.3765 17.3746 42.3771 17.3762C42.3778 17.3777 42.3781 17.3794 42.3781 17.3811V17.3813V19.6875C42.3781 19.6933 42.3758 19.6989 42.3717 19.703C42.3676 19.7071 42.362 19.7094 42.3563 19.7094H15.8438C15.838 19.7094 15.8324 19.7071 15.8283 19.703C15.8242 19.6989 15.8219 19.6933 15.8219 19.6875L15.8219 17.3531L15.8219 17.353C15.8219 17.3513 15.8222 17.3496 15.8229 17.3481C15.8235 17.3465 15.8245 17.3451 15.8257 17.344C15.8269 17.3428 15.8283 17.3419 15.8299 17.3413C15.8315 17.3407 15.8331 17.3404 15.8348 17.3405Z"  stroke="black" stroke-width="0.5"/>
<path d="M32.068 16.7073L32.068 16.7073C32.0532 16.8928 31.9671 17.0654 31.8277 17.1888C31.6884 17.312 31.5068 17.3764 31.3211 17.3685M32.068 16.7073L32.359 11.6863L32.3589 11.6869C32.3647 11.5939 32.3521 11.5008 32.3219 11.4127C32.2916 11.3243 32.2441 11.2429 32.1822 11.1729C32.1204 11.103 32.0453 11.046 31.9613 11.0051C31.8783 10.9647 31.7881 10.9409 31.696 10.935M32.068 16.7073L32.0683 16.702L32.3589 11.6876L32.068 16.7073ZM31.3211 17.3685C31.2267 17.3649 31.1341 17.3421 31.0488 17.3017C30.9632 17.2612 30.8868 17.2038 30.8241 17.1329L31.0114 16.9672L30.8241 17.1329C30.7614 17.062 30.7137 16.9791 30.684 16.8893C30.6546 16.8006 30.6432 16.707 30.6506 16.6139L30.9409 11.6034C30.9449 11.5097 30.9676 11.4179 31.0077 11.3331C31.0482 11.2476 31.1056 11.1712 31.1765 11.1085C31.2474 11.0458 31.3302 10.9981 31.4201 10.9683C31.5089 10.9389 31.6027 10.9276 31.696 10.935M31.3211 17.3685C31.3209 17.3685 31.3207 17.3685 31.3205 17.3685L31.3313 17.1188L31.3217 17.3686C31.3215 17.3686 31.3213 17.3686 31.3211 17.3685ZM31.696 10.935C31.695 10.9349 31.694 10.9349 31.6929 10.9348L31.6781 11.1844L31.6991 10.9353C31.6981 10.9352 31.697 10.9351 31.696 10.935ZM26.2878 7.53438L26.2878 7.53421C26.1092 7.52775 25.9392 7.45579 25.8102 7.33204C25.6811 7.2083 25.6022 7.04142 25.5883 6.8632L25.5878 6.85769L25.5879 6.85768L25.241 0.642059L25.2403 0.629669L25.2406 0.629667C25.2395 0.43975 25.3089 0.256181 25.4355 0.11461L25.4402 0.109381L25.4403 0.109449C25.5076 0.0382789 25.5891 -0.0179672 25.6795 -0.0556494C25.769 -0.0929117 25.8652 -0.1112 25.962 -0.109371H32.2304C32.3336 -0.117041 32.4373 -0.102632 32.5345 -0.0670477C32.6357 -0.030013 32.7275 0.0290345 32.8031 0.105831L32.8096 0.112407L32.8095 0.112522C32.8749 0.184005 32.9251 0.267969 32.9572 0.359373C32.9893 0.450723 33.0026 0.547616 32.9964 0.644235L32.9964 0.643935L32.7469 0.62813L32.9963 0.644397L26.2878 7.53438ZM26.2878 7.53438H26.2969H26.325H26.3348L26.3445 7.53361C26.5301 7.51906 26.703 7.43402 26.8278 7.29595C26.9526 7.15789 27.0198 6.97727 27.0156 6.79121L27.0157 6.79121L27.0152 6.78301L26.7112 1.30938M26.2878 7.53438L26.7112 1.30938M26.7112 1.30938H31.4889L31.1849 6.78113C31.1848 6.78149 31.1848 6.78185 31.1848 6.7822L26.7112 1.30938ZM26.1094 11.4219H25.8439L25.8598 11.6868L26.1597 16.691C26.1678 16.8731 26.2457 17.0451 26.3773 17.1713L26.5504 16.9909L26.3773 17.1713C26.4874 17.2769 26.6279 17.3436 26.7777 17.3629L26.8272 17.4001L26.9158 17.3967C27.0104 17.3931 27.1032 17.3703 27.1887 17.3298C27.2743 17.2893 27.3507 17.2319 27.4134 17.161L27.2261 16.9954L27.4134 17.161C27.4761 17.0901 27.5238 17.0073 27.5535 16.9174C27.5829 16.8287 27.5943 16.7351 27.5869 16.6419L27.2965 11.6573L27.2827 11.4219H27.0469H26.1094ZM32.6027 6.85854L32.3531 6.84375L32.6026 6.85956L32.6027 6.85904C32.6027 6.85887 32.6027 6.8587 32.6027 6.85854Z"  stroke="black" stroke-width="0.5"/>
<path d="M28.85 6.19523V6.20238L29.0993 6.20312C29.8599 6.20536 30.5891 6.50735 31.1286 7.04362C31.6678 7.57961 31.9741 8.30646 31.9813 9.06669C31.981 9.63617 31.8121 10.1928 31.4957 10.6664C31.1791 11.1402 30.7291 11.5095 30.2026 11.7275C29.6761 11.9456 29.0968 12.0027 28.5379 11.8915C27.979 11.7803 27.4656 11.5059 27.0626 11.103C26.6597 10.7 26.3853 10.1866 26.2741 9.62772C26.1629 9.06881 26.22 8.48949 26.4381 7.96301C26.6561 7.43653 27.0254 6.98654 27.4993 6.66995C27.9035 6.39984 28.3683 6.23718 28.85 6.19523ZM16.8125 20.3958L16.8126 20.3969C16.9308 25.1316 18.3119 29.3633 20.5051 32.4181C22.6984 35.473 25.7177 37.3656 29.1 37.3656C32.4592 37.3656 35.4783 35.4727 37.6772 32.4159C39.8762 29.359 41.2692 25.1226 41.3874 20.3781L41.3875 20.3781V20.3719C41.3875 20.1812 41.3118 19.9984 41.177 19.8636C41.0422 19.7288 40.8594 19.6531 40.6688 19.6531C40.4781 19.6531 40.2953 19.7288 40.1605 19.8636C40.0265 19.9976 39.9509 20.1791 39.95 20.3685C39.8428 24.7601 38.5821 28.6656 36.6168 31.4666C34.6508 34.2686 31.9957 35.9469 29.0906 35.9469C26.1855 35.9469 23.5305 34.2686 21.5644 31.4666C19.5987 28.6651 18.338 24.7584 18.2312 20.3658H18.2312L18.231 20.3619C18.2236 20.1763 18.1446 20.0008 18.0106 19.8721C17.8766 19.7435 17.698 19.6717 17.5123 19.6719L17.5123 19.6718L17.5074 19.6719C17.4143 19.6738 17.3224 19.694 17.2371 19.7314C17.1517 19.7688 17.0746 19.8227 17.01 19.8899C16.9455 19.9571 16.8949 20.0364 16.861 20.1232C16.8271 20.21 16.8106 20.3026 16.8125 20.3958ZM26.7058 12.6487C27.4145 13.1223 28.2477 13.375 29.1 13.375C30.2429 13.375 31.339 12.921 32.1472 12.1128C32.9554 11.3046 33.4094 10.2085 33.4094 9.06562C33.4094 8.2133 33.1566 7.38013 32.6831 6.67146C32.2096 5.96278 31.5366 5.41044 30.7491 5.08427C29.9617 4.75811 29.0952 4.67277 28.2593 4.83905C27.4233 5.00532 26.6555 5.41575 26.0528 6.01843C25.4501 6.62111 25.0397 7.38896 24.8734 8.2249C24.7071 9.06084 24.7925 9.92731 25.1187 10.7147C25.4448 11.5022 25.9972 12.1752 26.7058 12.6487Z"  stroke="black" stroke-width="0.5"/>
</svg>
