<svg width="60" height="60" viewBox="0 0 60 60" fill="currentColor" xmlns="http://www.w3.org/2000/svg">
<path d="M33.9521 1.98129C34.3932 2.16919 34.8351 2.35542 35.2768 2.54173C35.5094 2.63981 35.7419 2.73795 35.9744 2.83618C37.2271 3.36509 38.484 3.88381 39.7412 4.40186C40.1937 4.58843 40.6461 4.77507 41.0985 4.9617C41.2094 5.00743 41.3202 5.05315 41.4344 5.10026C43.0682 5.7742 44.7004 6.45193 46.3328 7.12929C47.156 7.47085 47.9795 7.81174 48.803 8.15253C49.6082 8.4858 50.413 8.82005 51.2176 9.15471C51.7289 9.36721 52.2407 9.57832 52.7534 9.78756C53.1014 9.92988 53.4488 10.0737 53.7964 10.2173C53.9154 10.2652 54.0344 10.3132 54.1571 10.3626C55.4086 10.8832 56.4589 11.6229 56.9897 12.9053C57.2149 13.4999 57.3199 14.0474 57.3161 14.6837C57.3158 14.7981 57.3154 14.9125 57.315 15.0304C57.314 15.1485 57.313 15.2666 57.312 15.3882C57.3115 15.5085 57.311 15.6288 57.3104 15.7528C57.309 16.0487 57.3071 16.3447 57.3047 16.6406C57.398 16.6365 57.4914 16.6325 57.5876 16.6283C58.8719 16.5955 58.8719 16.5955 59.4141 16.9922C59.9315 17.5166 60.0741 17.7998 60.0737 18.5596C60.074 18.6401 60.0743 18.7207 60.0746 18.8037C60.0744 18.9731 60.0729 19.1425 60.07 19.3119C60.0659 19.5697 60.0675 19.827 60.0698 20.0848C60.069 20.2502 60.0679 20.4157 60.0664 20.5811C60.0651 20.73 60.0638 20.879 60.0625 21.0324C59.9722 21.6291 59.721 22.0025 59.2456 22.3682C58.8281 22.5 58.8281 22.5 57.3047 22.5C57.3047 32.9027 57.3047 43.3055 57.3047 54.0234C57.7688 54.0234 58.2328 54.0234 58.7109 54.0234C59.2843 54.2111 59.7238 54.5343 60 55.0781C60.0904 55.6042 60.0871 56.1202 60.0806 56.6528C60.0854 56.8641 60.0854 56.8641 60.0904 57.0797C60.0883 57.8428 60.051 58.3575 59.5051 58.916C58.9484 59.3076 58.4056 59.3305 57.744 59.3267C57.6466 59.3271 57.5492 59.3274 57.4488 59.3278C57.121 59.3288 56.7931 59.3281 56.4653 59.3274C56.2284 59.3278 55.9915 59.3282 55.7547 59.3288C55.1027 59.33 54.4506 59.3297 53.7986 59.3292C53.0959 59.3289 52.3932 59.33 51.6904 59.3309C50.3133 59.3324 48.9361 59.3326 47.559 59.3323C46.44 59.3321 45.321 59.3323 44.202 59.3328C44.0413 59.3329 43.8806 59.3329 43.7199 59.333C43.4778 59.3331 43.2356 59.3332 42.9935 59.3333C40.7419 59.3343 38.4902 59.3348 36.2386 59.3343C36.1537 59.3343 36.0688 59.3343 35.9813 59.3343C35.551 59.3342 35.1206 59.3341 34.6903 59.334C34.6048 59.334 34.5193 59.334 34.4313 59.3339C34.2584 59.3339 34.0856 59.3339 33.9128 59.3338C31.2229 59.3332 28.5331 59.3341 25.8432 59.3363C22.8221 59.3387 19.8009 59.34 16.7798 59.3395C16.4578 59.3394 16.1357 59.3394 15.8137 59.3394C15.6948 59.3393 15.6948 59.3393 15.5735 59.3393C14.3756 59.3392 13.1777 59.34 11.9798 59.3412C10.6178 59.3426 9.25579 59.3428 7.89378 59.3414C7.19853 59.3407 6.50329 59.3405 5.80804 59.3419C5.17201 59.3432 4.536 59.3429 3.89997 59.3412C3.66946 59.3409 3.43896 59.3412 3.20845 59.3421C2.89585 59.3433 2.58333 59.3423 2.27073 59.3408C2.18062 59.3416 2.09051 59.3425 1.99767 59.3434C1.26403 59.3359 0.812372 59.133 0.254062 58.6702C-0.184518 58.1 -0.0889686 57.3513 -0.0805628 56.6675C-0.0838106 56.5266 -0.0870585 56.3857 -0.0904047 56.2406C-0.0883003 55.4775 -0.0509632 54.9628 0.494932 54.4043C0.989968 54.056 1.43206 53.9957 2.02881 54.0088C2.15404 54.0109 2.27927 54.013 2.4083 54.0152C2.55037 54.0193 2.55037 54.0193 2.69532 54.0234C2.6951 53.8989 2.69488 53.7743 2.69466 53.6459C2.68946 50.617 2.68561 47.5881 2.68317 44.5592C2.68196 43.0945 2.68031 41.6298 2.67763 40.165C2.6753 38.8887 2.67379 37.6123 2.67326 36.3359C2.67296 35.6598 2.67224 34.9837 2.67054 34.3076C2.66895 33.6717 2.66845 33.0357 2.66881 32.3997C2.66874 32.166 2.66827 31.9322 2.66738 31.6985C2.66622 31.3799 2.66649 31.0614 2.66713 30.7429C2.66645 30.6499 2.66577 30.5569 2.66506 30.461C2.66748 30.0185 2.67106 29.6671 2.92969 29.2969C3.24561 29.0512 3.40933 29.0631 3.81592 29.0845C4.34981 29.2107 4.34981 29.2107 4.57032 29.5312C4.60408 29.8236 4.61627 30.0865 4.61259 30.3788C4.61289 30.4657 4.61319 30.5526 4.6135 30.6422C4.61408 30.9342 4.61215 31.2262 4.61023 31.5183C4.61013 31.7273 4.61018 31.9363 4.61038 32.1453C4.61048 32.7136 4.60841 33.2818 4.60596 33.85C4.60377 34.4435 4.60356 35.0371 4.60314 35.6306C4.60205 36.7549 4.59916 37.8792 4.59564 39.0036C4.59171 40.2834 4.58977 41.5632 4.58801 42.8431C4.58433 45.4761 4.57807 48.1091 4.57032 50.7422C5.73047 50.7422 6.89063 50.7422 8.08594 50.7422C8.08594 42.8531 8.08594 34.9641 8.08594 26.8359C6.50039 26.8359 4.91485 26.8359 3.28125 26.8359C2.8125 26.4844 2.8125 26.4844 2.69532 26.1328C2.68548 25.8566 2.68274 25.5802 2.68387 25.3038C2.68404 25.2237 2.68421 25.1435 2.68438 25.061C2.68503 24.8055 2.6865 24.5499 2.68799 24.2944C2.68858 24.121 2.68911 23.9476 2.68959 23.7742C2.69088 23.3495 2.69291 22.9247 2.69532 22.5C2.59019 22.5015 2.48506 22.5031 2.37674 22.5046C2.1703 22.5064 2.1703 22.5064 1.95969 22.5082C1.82314 22.5098 1.68659 22.5113 1.5459 22.5129C1.09291 22.4973 0.829431 22.4259 0.468754 22.1484C-0.114908 21.4147 -0.079384 20.7281 -0.0739825 19.8352C-0.0732413 19.5786 -0.078746 19.3226 -0.0846827 19.0661C-0.0973091 17.6986 -0.0973091 17.6986 0.319523 17.1822C0.853135 16.6993 1.31777 16.6103 2.02881 16.626C2.15404 16.6281 2.27927 16.6302 2.4083 16.6324C2.50301 16.6351 2.59773 16.6378 2.69532 16.6406C2.69348 16.5693 2.69163 16.4979 2.68974 16.4244C2.61328 13.014 2.61328 13.014 3.75 11.7188C4.36087 11.1068 4.95912 10.7232 5.75684 10.4004C5.92477 10.3298 5.92477 10.3298 6.0961 10.2578C6.44064 10.1137 6.78591 9.97149 7.13148 9.82985C7.51074 9.67399 7.8894 9.5167 8.26813 9.35956C9.30066 8.93116 10.3339 8.50457 11.3676 8.07907C12.6501 7.55118 13.9315 7.0208 15.2124 6.48926C15.4101 6.40723 15.6079 6.32521 15.8056 6.24318C16.1994 6.07982 16.5932 5.91645 16.987 5.75306C17.5836 5.50552 18.1803 5.25808 18.777 5.01068C18.8764 4.96948 18.9758 4.92827 19.0782 4.88582C19.5769 4.67902 20.0757 4.47224 20.5745 4.26547C21.5037 3.88028 22.4328 3.49495 23.3617 3.10909C23.7954 2.92896 24.2291 2.7489 24.6628 2.56886C24.8674 2.48389 25.072 2.39888 25.2766 2.31382C25.9131 2.04921 26.55 1.78565 27.1875 1.52344C27.2721 1.48854 27.3568 1.45364 27.444 1.41769C27.6851 1.31852 27.9265 1.22011 28.168 1.12198C28.3044 1.06634 28.4408 1.0107 28.5813 0.95338C30.4593 0.266806 32.2354 1.2499 33.9521 1.98129ZM28.5695 2.99515C28.4639 3.03913 28.3584 3.08312 28.2497 3.12843C27.9024 3.27344 27.556 3.42017 27.2095 3.5669C26.966 3.66893 26.7224 3.77084 26.4788 3.87262C25.9796 4.08136 25.4807 4.29071 24.982 4.50056C24.027 4.90212 23.0697 5.2981 22.1123 5.69401C21.6185 5.89832 21.125 6.10316 20.6314 6.30798C20.4348 6.38954 20.2383 6.4711 20.0417 6.55266C19.8455 6.63406 19.6493 6.71547 19.4531 6.79688C18.6646 7.12408 17.876 7.45124 17.0874 7.77832C16.9897 7.81886 16.8919 7.8594 16.7912 7.90116C15.3828 8.48525 13.9739 9.06817 12.5646 9.65009C12.1027 9.84082 11.6409 10.0318 11.1792 10.223C9.34349 10.9829 9.34349 10.9829 8.44218 11.3435C8.1242 11.4707 7.80664 11.599 7.48909 11.7273C7.28166 11.8105 7.07356 11.892 6.86543 11.9734C6.00535 12.3212 5.3067 12.6789 4.81934 13.4912C4.38539 14.6002 4.57032 15.2071 4.57032 16.6406C6.89063 16.6406 9.21094 16.6406 11.6016 16.6406C11.6402 15.9832 11.6789 15.3258 11.7188 14.6484C11.9549 13.999 12.1937 13.619 12.7734 13.2422C12.8379 13.2002 12.9024 13.1583 12.9688 13.1151C13.3615 12.961 13.7437 12.9747 14.1593 12.9765C14.2523 12.9759 14.3453 12.9754 14.4411 12.9749C14.753 12.9734 15.0649 12.9736 15.3768 12.9738C15.6003 12.9731 15.8237 12.9723 16.0472 12.9714C16.6544 12.9693 17.2616 12.9688 17.8689 12.9686C18.3753 12.9684 18.8818 12.9675 19.3883 12.9667C20.5827 12.9648 21.777 12.9642 22.9714 12.9644C24.2049 12.9645 25.4384 12.962 26.6719 12.9583C27.73 12.9553 28.7881 12.954 29.8463 12.9542C30.4786 12.9542 31.111 12.9536 31.7434 12.9511C32.3378 12.9488 32.9321 12.9488 33.5264 12.9505C33.7449 12.9508 33.9634 12.9502 34.1819 12.9488C34.4794 12.947 34.7768 12.9481 35.0744 12.9499C35.205 12.9481 35.205 12.9481 35.3383 12.9462C35.7233 12.9514 35.9235 12.9572 36.2082 13.2285C36.3556 13.5334 36.3452 13.7013 36.2915 14.0332C36.2775 14.1269 36.2634 14.2205 36.2489 14.317C36.2301 14.4231 36.2301 14.4231 36.2109 14.5313C35.7141 14.652 35.2325 14.6657 34.7242 14.6654C34.5894 14.666 34.5894 14.666 34.452 14.6667C34.1515 14.6679 33.851 14.6683 33.5506 14.6688C33.335 14.6695 33.1194 14.6703 32.9037 14.6712C32.4398 14.6729 31.9758 14.6742 31.5118 14.6754C30.7787 14.6772 30.0456 14.68 29.3126 14.683C27.2281 14.6913 25.1436 14.6983 23.0591 14.7043C21.9077 14.7076 20.7562 14.7118 19.6048 14.7168C18.8754 14.72 18.146 14.7221 17.4167 14.7234C16.9639 14.7244 16.5112 14.7265 16.0584 14.7288C15.8478 14.7297 15.6372 14.7301 15.4266 14.7302C15.1401 14.7303 14.8536 14.7319 14.5671 14.7338C14.4829 14.7335 14.3988 14.7332 14.312 14.7329C13.842 14.7251 13.842 14.7251 13.4766 15C13.4407 15.2419 13.4407 15.2419 13.446 15.5241C13.4452 15.6343 13.4444 15.7446 13.4435 15.8582C13.4438 15.9795 13.4441 16.1009 13.4444 16.2259C13.4435 16.4171 13.4435 16.4171 13.4426 16.6122C13.4409 17.0353 13.441 17.4585 13.4413 17.8816C13.4409 18.1747 13.4404 18.4678 13.4398 18.7609C13.4389 19.3759 13.4389 19.9909 13.4396 20.606C13.4403 21.3172 13.4388 22.0284 13.4363 22.7396C13.434 23.4233 13.4337 24.1071 13.4341 24.7909C13.434 25.082 13.4334 25.3732 13.4322 25.6643C13.4308 26.0709 13.4316 26.4774 13.4329 26.884C13.432 27.0051 13.4311 27.1262 13.4302 27.2509C13.431 27.3615 13.4319 27.4721 13.4327 27.586C13.4327 27.7303 13.4327 27.7303 13.4327 27.8774C13.4887 28.1932 13.5779 28.2797 13.8281 28.4766C14.0851 28.5292 14.0851 28.5292 14.3755 28.5208C14.4887 28.5217 14.6018 28.5226 14.7184 28.5236C14.843 28.5228 14.9676 28.522 15.0959 28.5212C15.2941 28.522 15.2941 28.522 15.4963 28.5229C15.9414 28.5243 16.3864 28.5232 16.8315 28.5221C17.1497 28.5223 17.4678 28.5231 17.7859 28.5239C18.5617 28.5255 19.3375 28.5251 20.1133 28.5241C20.7436 28.5233 21.374 28.5232 22.0043 28.5236C22.1387 28.5237 22.1387 28.5237 22.2759 28.5238C22.4579 28.5239 22.6399 28.524 22.822 28.5241C24.5301 28.5251 26.2382 28.524 27.9463 28.5221C29.4129 28.5205 30.8794 28.5208 32.3459 28.5224C34.0478 28.5243 35.7497 28.525 37.4516 28.5239C37.6329 28.5238 37.8143 28.5237 37.9957 28.5236C38.1296 28.5235 38.1296 28.5235 38.2662 28.5234C38.8959 28.5231 39.5257 28.5237 40.1555 28.5245C40.9227 28.5255 41.6899 28.5252 42.4571 28.5233C42.8488 28.5224 43.2404 28.5222 43.6321 28.5232C44.0561 28.5242 44.4801 28.523 44.9041 28.5212C45.0287 28.522 45.1532 28.5228 45.2816 28.5236C45.3947 28.5227 45.5079 28.5217 45.6245 28.5208C45.7714 28.5207 45.7714 28.5207 45.9212 28.5206C46.2307 28.4662 46.3345 28.3717 46.5234 28.125C46.5758 27.8715 46.5758 27.8715 46.5673 27.586C46.5681 27.4754 46.5689 27.3649 46.5698 27.2509C46.5689 27.1298 46.568 27.0087 46.5671 26.884C46.5675 26.7563 46.5679 26.6286 46.5684 26.497C46.5693 26.0739 46.5677 25.6509 46.566 25.2278C46.566 24.9346 46.566 24.6414 46.5662 24.3482C46.5662 23.7334 46.565 23.1186 46.5628 22.5037C46.5604 21.7925 46.5599 21.0812 46.5607 20.3699C46.5613 19.6861 46.5607 19.0023 46.5594 18.3184C46.5589 18.0272 46.5588 17.736 46.559 17.4447C46.559 17.0384 46.5575 16.6322 46.5556 16.2259C46.5559 16.1045 46.5562 15.9832 46.5565 15.8582C46.5557 15.7479 46.5548 15.6377 46.554 15.5241C46.5538 15.428 46.5535 15.3319 46.5533 15.2328C46.5441 14.9729 46.5441 14.9729 46.2891 14.7656C45.9946 14.7284 45.9946 14.7284 45.6478 14.732C45.5137 14.7304 45.3795 14.7288 45.2413 14.7272C45.0228 14.7263 45.0228 14.7263 44.8 14.7253C44.5762 14.7228 44.5762 14.7228 44.348 14.7201C43.8695 14.7147 43.3911 14.7106 42.9126 14.707C42.2844 14.7023 41.6562 14.6959 41.028 14.6887C40.8831 14.6881 40.7382 14.6875 40.5889 14.6868C40.4536 14.6853 40.3183 14.6837 40.1789 14.6821C40.0602 14.6812 39.9414 14.6804 39.8191 14.6795C39.4714 14.6465 39.2176 14.571 38.9063 14.4141C38.7417 14.0849 38.7599 13.8412 38.7891 13.4766C38.9214 13.2232 38.9214 13.2232 39.1406 13.0078C39.4658 12.9475 39.4658 12.9475 39.8649 12.9453C40.0891 12.9425 40.0891 12.9425 40.3178 12.9397C40.4813 12.9401 40.6448 12.9407 40.8083 12.9414C40.9763 12.9408 41.1443 12.9401 41.3124 12.9392C41.6649 12.938 42.0175 12.9386 42.3701 12.9403C42.82 12.9423 43.2697 12.9395 43.7196 12.9354C44.0669 12.9328 44.4143 12.933 44.7616 12.934C44.9274 12.9341 45.0931 12.9333 45.2588 12.9315C46.1995 12.9232 46.9809 12.9221 47.6953 13.5938C48.4907 14.6135 48.3109 15.152 48.3984 16.6406C50.7188 16.6406 53.0391 16.6406 55.4297 16.6406C55.5586 14.5616 55.5586 14.5616 54.6828 12.8154C53.9928 12.2391 53.0215 11.9325 52.1956 11.5961C52.0383 11.5313 52.0383 11.5313 51.8778 11.4653C51.536 11.3248 51.194 11.1849 50.8521 11.0449C50.6106 10.9457 50.3692 10.8465 50.1278 10.7472C49.634 10.5441 49.1402 10.3412 48.6463 10.1384C47.6915 9.74609 46.7379 9.35074 45.7845 8.95496C45.489 8.83228 45.1934 8.70967 44.8979 8.58708C44.504 8.42367 44.1101 8.26025 43.7161 8.09681C43.1195 7.84927 42.5228 7.60183 41.9261 7.35443C41.8268 7.31325 41.7275 7.27208 41.6252 7.22965C41.1253 7.0224 40.6254 6.81516 40.1255 6.60793C38.9992 6.141 37.873 5.67371 36.747 5.20601C35.9441 4.87257 35.1408 4.54004 34.3373 4.20785C33.8139 3.99127 33.2911 3.77332 32.7689 3.55368C32.5431 3.45884 32.3171 3.36453 32.091 3.27044C31.8248 3.1596 31.559 3.04786 31.2937 2.93501C31.1781 2.88718 31.0625 2.83935 30.9435 2.79007C30.8452 2.74875 30.7469 2.70742 30.6456 2.66484C29.8596 2.43303 29.2886 2.68742 28.5695 2.99515ZM1.75782 18.5156C1.75782 19.2117 1.75782 19.9078 1.75782 20.625C5.00625 20.625 8.25469 20.625 11.6016 20.625C11.6016 19.9289 11.6016 19.2328 11.6016 18.5156C8.35313 18.5156 5.10469 18.5156 1.75782 18.5156ZM48.3984 18.5156C48.3984 19.2117 48.3984 19.9078 48.3984 20.625C51.6469 20.625 54.8953 20.625 58.2422 20.625C58.2422 19.9289 58.2422 19.2328 58.2422 18.5156C54.9938 18.5156 51.7453 18.5156 48.3984 18.5156ZM4.57032 22.5C4.57032 23.3121 4.57032 24.1242 4.57032 24.9609C6.89063 24.9609 9.21094 24.9609 11.6016 24.9609C11.6016 24.1488 11.6016 23.3367 11.6016 22.5C9.28125 22.5 6.96094 22.5 4.57032 22.5ZM48.3984 22.5C48.3984 23.3121 48.3984 24.1242 48.3984 24.9609C50.7188 24.9609 53.0391 24.9609 55.4297 24.9609C55.4297 24.1488 55.4297 23.3367 55.4297 22.5C53.1094 22.5 50.7891 22.5 48.3984 22.5ZM9.96094 26.8359C9.96094 34.725 9.96094 42.6141 9.96094 50.7422C12.784 50.7422 15.607 50.7422 18.5156 50.7422C18.5156 44.0133 18.5156 37.2844 18.5156 30.3516C16.8914 30.3129 15.2672 30.2742 13.5938 30.2344C12.2349 29.7248 12.2349 29.7248 12.0557 29.436C12.0218 29.3514 11.988 29.2668 11.9531 29.1797C11.9139 29.0966 11.8746 29.0135 11.8341 28.9279C11.6909 28.513 11.6655 28.1127 11.6455 27.6782C11.641 27.597 11.6364 27.5158 11.6318 27.4322C11.6208 27.2335 11.6111 27.0347 11.6016 26.8359C11.0602 26.8359 10.5188 26.8359 9.96094 26.8359ZM48.3984 26.8359C48.3864 27.0897 48.3743 27.3435 48.3618 27.605C48.3164 28.2564 48.235 28.7244 47.9297 29.2969C47.8717 29.4709 47.8717 29.4709 47.8125 29.6484C45.9804 30.821 43.4108 30.3057 41.4844 30.3516C41.4844 37.0805 41.4844 43.8094 41.4844 50.7422C44.3074 50.7422 47.1305 50.7422 50.0391 50.7422C50.0391 42.8531 50.0391 34.9641 50.0391 26.8359C49.4977 26.8359 48.9563 26.8359 48.3984 26.8359ZM51.9141 26.8359C51.9141 34.725 51.9141 42.6141 51.9141 50.7422C53.0742 50.7422 54.2344 50.7422 55.4297 50.7422C55.4297 42.8531 55.4297 34.9641 55.4297 26.8359C54.2695 26.8359 53.1094 26.8359 51.9141 26.8359ZM20.3906 30.3516C20.3906 37.0805 20.3906 43.8094 20.3906 50.7422C21.5508 50.7422 22.7109 50.7422 23.9063 50.7422C23.9063 44.0133 23.9063 37.2844 23.9063 30.3516C22.7461 30.3516 21.5859 30.3516 20.3906 30.3516ZM25.7813 30.3516C25.7813 32.7492 25.7813 35.1469 25.7813 37.6172C26.2453 37.3852 26.5843 37.1067 26.9678 36.7676C27.9809 35.891 28.8897 35.2135 30.2701 35.2437C31.5203 35.3615 32.3265 36.1818 33.2161 36.9855C33.658 37.437 33.658 37.437 34.2188 37.6172C34.2188 35.2195 34.2188 32.8219 34.2188 30.3516C31.4344 30.3516 28.65 30.3516 25.7813 30.3516ZM36.0938 30.3516C36.0938 37.0805 36.0938 43.8094 36.0938 50.7422C37.2539 50.7422 38.4141 50.7422 39.6094 50.7422C39.6094 44.0133 39.6094 37.2844 39.6094 30.3516C38.4492 30.3516 37.2891 30.3516 36.0938 30.3516ZM28.0884 38.2324C27.486 38.7663 26.8768 39.2795 26.2331 39.7636C25.8503 40.111 25.7859 40.3553 25.7531 40.8776C25.7524 41.0616 25.753 41.2456 25.7546 41.4296C25.7546 41.5302 25.7546 41.6309 25.7545 41.7346C25.7547 42.0668 25.7565 42.3991 25.7584 42.7313C25.7588 42.9619 25.7591 43.1924 25.7594 43.4229C25.7603 44.0294 25.7626 44.6359 25.7652 45.2424C25.7676 45.8613 25.7686 46.4803 25.7698 47.0993C25.7723 48.3136 25.7764 49.5279 25.7813 50.7422C26.8641 50.7422 27.9469 50.7422 29.0625 50.7422C29.0636 50.4464 29.0647 50.1507 29.0658 49.846C29.0698 48.8693 29.0763 47.8927 29.0841 46.9161C29.0887 46.3239 29.0925 45.7317 29.0943 45.1395C29.096 44.5681 29.1001 43.9967 29.1057 43.4253C29.1074 43.2072 29.1083 42.9891 29.1084 42.771C29.1087 42.4657 29.1119 42.1606 29.1157 41.8553C29.1151 41.7649 29.1145 41.6746 29.1139 41.5815C29.1219 41.1724 29.1486 40.9402 29.3961 40.6079C29.7412 40.3642 29.9379 40.3607 30.3516 40.4297C30.6039 40.6079 30.6039 40.6079 30.8203 40.8984C30.8675 41.2323 30.8865 41.5214 30.8843 41.8553C30.8855 41.9514 30.8867 42.0474 30.888 42.1464C30.8914 42.4635 30.8916 42.7805 30.8917 43.0975C30.8935 43.3176 30.8954 43.5376 30.8976 43.7576C30.9027 44.3364 30.9051 44.9151 30.9068 45.4938C30.9091 46.0845 30.914 46.6752 30.9187 47.2659C30.9276 48.4247 30.9332 49.5834 30.9375 50.7422C32.0203 50.7422 33.1031 50.7422 34.2188 50.7422C34.2293 49.4098 34.2379 48.0773 34.243 46.7449C34.2455 46.1261 34.2488 45.5074 34.2541 44.8887C34.2592 44.2915 34.262 43.6943 34.2632 43.097C34.2641 42.8693 34.2658 42.6416 34.2683 42.4139C34.2717 42.0946 34.2722 41.7754 34.272 41.4562C34.2737 41.3623 34.2753 41.2684 34.2771 41.1716C34.2726 40.5573 34.1512 40.2169 33.75 39.7266C33.4778 39.4671 33.4778 39.4671 33.1714 39.2358C33.0587 39.1469 32.946 39.0579 32.8299 38.9662C32.7702 38.9191 32.7105 38.8721 32.649 38.8236C32.4499 38.663 32.256 38.4974 32.0627 38.3299C31.9627 38.2435 31.9627 38.2435 31.8608 38.1554C31.732 38.0436 31.6036 37.9313 31.4756 37.8185C30.1045 36.6367 29.2711 37.1689 28.0884 38.2324ZM4.57032 52.6172C4.57032 53.0812 4.57032 53.5453 4.57032 54.0234C4.77342 54.0236 4.97652 54.0238 5.18577 54.024C10.0037 54.0281 14.8217 54.0347 19.6396 54.0443C20.2322 54.0455 20.8248 54.0466 21.4174 54.0478C21.5944 54.0481 21.5944 54.0481 21.775 54.0484C23.687 54.0521 25.5989 54.0541 27.5109 54.0555C29.4719 54.0569 31.4328 54.0601 33.3937 54.065C34.6043 54.0679 35.8149 54.0695 37.0256 54.0693C37.855 54.0693 38.6845 54.071 39.5139 54.0741C39.9929 54.0758 40.4719 54.0768 40.9509 54.0757C41.3891 54.0747 41.8273 54.0759 42.2655 54.0788C42.4998 54.0798 42.7341 54.0784 42.9684 54.077C43.1069 54.0784 43.2454 54.0797 43.3881 54.0811C43.5079 54.0813 43.6276 54.0815 43.7511 54.0817C44.149 54.157 44.2883 54.2902 44.5313 54.6094C44.6166 55.3043 44.6166 55.3043 44.3964 55.6278C44.0852 55.8481 43.8533 55.8257 43.4739 55.8263C43.2512 55.828 43.2512 55.828 43.024 55.8297C42.8583 55.8292 42.6926 55.8286 42.5269 55.828C42.3516 55.8286 42.1763 55.8294 42.0011 55.8303C41.5182 55.8325 41.0353 55.8324 40.5524 55.832C40.0321 55.8319 39.5119 55.8338 38.9916 55.8355C38.0898 55.8382 37.188 55.8396 36.2862 55.8401C34.9823 55.8409 33.6784 55.8436 32.3745 55.8467C30.2592 55.8518 28.1439 55.8553 26.0286 55.8578C23.9734 55.8603 21.9183 55.8635 19.8631 55.8677C19.7365 55.8679 19.6098 55.8682 19.4794 55.8685C18.8442 55.8698 18.209 55.8711 17.5738 55.8724C12.3018 55.8833 7.0298 55.8917 1.75782 55.8984C1.75782 56.4012 1.75782 56.9039 1.75782 57.4219C20.3977 57.4219 39.0375 57.4219 58.2422 57.4219C58.2422 56.9191 58.2422 56.4164 58.2422 55.8984C58.1079 55.8978 57.9736 55.8971 57.8353 55.8964C56.5713 55.8897 55.3073 55.8811 54.0433 55.8708C53.3934 55.8656 52.7436 55.861 52.0937 55.8578C51.4668 55.8548 50.84 55.8501 50.2131 55.8442C49.9737 55.8422 49.7342 55.8409 49.4948 55.8401C49.16 55.839 48.8253 55.8357 48.4905 55.8319C48.391 55.8321 48.2914 55.8323 48.1889 55.8324C47.5102 55.8215 47.5102 55.8215 47.2633 55.6199C47.0512 55.3578 47.0082 55.1802 46.9922 54.8438C47.2493 54.305 47.2493 54.305 47.5781 54.1406C47.827 54.1265 48.0763 54.1198 48.3255 54.1166C48.4021 54.1154 48.4787 54.1142 48.5577 54.113C48.8113 54.1093 49.0649 54.1064 49.3185 54.1035C49.4942 54.1011 49.6699 54.0987 49.8456 54.0962C50.3084 54.0897 50.7711 54.0839 51.2339 54.0783C51.706 54.0724 52.1781 54.0658 52.6502 54.0594C53.5767 54.0468 54.5032 54.0349 55.4297 54.0234C55.4297 53.5594 55.4297 53.0953 55.4297 52.6172C38.6461 52.6172 21.8625 52.6172 4.57032 52.6172Z" fill="currentColor"/>
<path d="M33.9624 17.4243C34.8079 18.0413 35.4772 18.8267 35.8594 19.8047C35.9011 19.9089 35.9428 20.0132 35.9857 20.1205C36.3221 21.3265 36.2276 22.8084 35.625 23.9062C34.8731 25.1761 33.9149 25.983 32.4934 26.4075C30.9694 26.7126 29.5884 26.4685 28.2875 25.6393C27.2176 24.8373 26.4898 23.678 26.2761 22.3544C26.1486 20.7756 26.5229 19.3819 27.5459 18.1599C29.2577 16.4275 31.9048 16.153 33.9624 17.4243ZM28.5498 20.0317C28.1209 20.8401 28.0158 21.6133 28.2422 22.5C28.6563 23.4716 29.2728 24.0768 30.2124 24.5361C31.2991 24.7492 32.1147 24.6364 33.0469 24.0234C33.6729 23.5063 34.163 22.7889 34.2508 21.9649C34.2853 20.9469 34.097 20.2223 33.4222 19.4449C32.7767 18.8278 32.1104 18.566 31.2305 18.4717C30.0395 18.5993 29.2963 19.1084 28.5498 20.0317Z" fill="black"/>
<path d="M23.4009 17.3584C23.8997 17.7628 23.8997 17.7628 23.9575 18.2007C23.9062 18.6328 23.9062 18.6328 23.6572 18.9771C23.3203 19.2188 23.3203 19.2188 22.9907 19.2847C22.5743 19.2112 22.2722 19.0692 21.9058 18.864C21.2955 18.5564 20.6224 18.5303 19.9727 18.7212C19.0339 19.0779 18.5327 19.4728 18.0487 20.3535C17.6909 21.1696 17.7421 22.0039 18.0423 22.8273C18.3983 23.5835 18.9481 24.019 19.6875 24.375C20.399 24.5914 21.16 24.6106 21.8408 24.2944C22.5824 23.8662 22.8213 23.2805 23.0859 22.5C22.9743 22.5068 22.8627 22.5136 22.7476 22.5206C21.3961 22.5692 21.3961 22.5692 21.0425 22.2583C20.8036 21.8091 20.842 21.5782 20.9766 21.0938C21.2109 20.7422 21.2109 20.7422 21.5625 20.625C22.0453 20.5916 22.5288 20.5925 23.0127 20.5884C23.1459 20.585 23.2792 20.5816 23.4164 20.5781C24.3856 20.5707 24.3856 20.5707 24.8703 20.8177C25.2015 21.2577 25.2068 21.6198 25.172 22.1576C24.917 23.8137 24.4023 24.8635 23.0933 25.9497C21.9088 26.554 20.6011 26.6945 19.3066 26.3525C17.9633 25.8769 16.975 25.0495 16.3037 23.7891C15.6757 22.419 15.6783 21.1024 16.1719 19.6875C16.6536 18.4365 17.5605 17.5861 18.75 16.9922C20.2781 16.4289 21.9981 16.4483 23.4009 17.3584Z" fill="black"/>
<path d="M38.0859 16.7578C38.4028 17.0095 38.5186 17.2605 38.6495 17.6385C38.687 17.7453 38.7246 17.8521 38.7632 17.9621C38.8024 18.0771 38.8416 18.1921 38.882 18.3105C38.9231 18.4289 38.9642 18.5472 39.0066 18.6691C39.0933 18.9191 39.1794 19.1693 39.2651 19.4197C39.3966 19.8036 39.5297 20.1869 39.6632 20.5701C39.7471 20.813 39.831 21.0559 39.9147 21.2988C39.9546 21.4138 39.9945 21.5288 40.0356 21.6473C40.0721 21.7541 40.1085 21.8608 40.146 21.9708C40.1782 22.0647 40.2105 22.1587 40.2437 22.2554C40.3125 22.5 40.3125 22.5 40.3125 22.8516C40.3898 22.8516 40.4672 22.8516 40.5469 22.8516C40.5781 22.7011 40.6093 22.5506 40.6415 22.3956C40.7736 21.8027 40.9505 21.2311 41.1424 20.6552C41.1945 20.4987 41.1945 20.4987 41.2476 20.3391C41.3206 20.1206 41.394 19.9021 41.4677 19.6838C41.5799 19.3497 41.6893 19.0146 41.7986 18.6795C41.8702 18.4664 41.942 18.2534 42.014 18.0405C42.0622 17.8905 42.0622 17.8905 42.1114 17.7375C42.2629 17.2989 42.3524 17.0491 42.7174 16.75C43.1001 16.6059 43.3224 16.6396 43.7109 16.7578C43.9233 16.8896 43.9233 16.8896 44.0625 17.1094C44.1949 17.7231 44.162 18.129 43.9638 18.7216C43.9394 18.7961 43.915 18.8705 43.8899 18.9472C43.8095 19.1911 43.7267 19.434 43.6436 19.677C43.5867 19.8475 43.5298 20.018 43.4731 20.1886C43.3541 20.5453 43.2339 20.9015 43.1128 21.2574C42.9581 21.7122 42.8059 22.1677 42.6546 22.6235C42.5375 22.9756 42.4193 23.3272 42.3008 23.6788C42.2443 23.8466 42.1881 24.0145 42.1322 24.1824C42.0536 24.4177 41.9736 24.6525 41.8933 24.8873C41.8482 25.0206 41.8031 25.154 41.7566 25.2914C41.3553 26.2559 41.3553 26.2559 40.8984 26.4844C40.0707 26.5658 40.0707 26.5658 39.6867 26.281C39.1974 25.7717 39.0385 25.0589 38.8216 24.4038C38.7711 24.2556 38.7205 24.1074 38.6698 23.9593C38.5369 23.5698 38.406 23.1797 38.2756 22.7894C38.144 22.3967 38.0104 22.0047 37.877 21.6126C37.6362 20.9039 37.3957 20.1951 37.161 19.4843C37.0734 19.226 36.9814 18.9692 36.8854 18.7139C36.8402 18.5912 36.7951 18.4685 36.7486 18.3422C36.7072 18.2343 36.6659 18.1264 36.6232 18.0152C36.5455 17.6059 36.6327 17.3704 36.7969 16.9922C37.1886 16.5424 37.5356 16.6177 38.0859 16.7578Z" fill="black"/>
<path d="M31.9922 5.97656C32.3103 6.24335 32.3392 6.41135 32.3943 6.823C32.3258 7.42264 32.0781 7.65223 31.6589 8.06351C31.5883 8.13518 31.5177 8.20685 31.445 8.28069C31.2955 8.43128 31.1449 8.58084 30.9933 8.72941C30.7626 8.95666 30.5369 9.18821 30.3113 9.42055C30.1651 9.56663 30.0186 9.71244 29.8718 9.85794C29.8049 9.92714 29.738 9.99634 29.669 10.0676C29.31 10.4126 29.0697 10.5896 28.5615 10.6014C28.125 10.5469 28.125 10.5469 27.832 10.3638C27.5765 9.9485 27.568 9.73934 27.6562 9.25781C28.2192 8.46237 28.9913 7.78414 29.6777 7.09717C29.7829 6.99059 29.888 6.88402 29.9963 6.77422C30.0972 6.67308 30.1982 6.57194 30.3021 6.46774C30.3933 6.37613 30.4844 6.28452 30.5783 6.19014C31.0396 5.7831 31.4179 5.84324 31.9922 5.97656Z" fill="black"/>
<path d="M45.8203 44.1064C46.3175 44.21 46.4566 44.3537 46.7578 44.7656C46.8426 45.2357 46.8342 45.6955 46.8237 46.1719C46.825 46.2985 46.8263 46.4251 46.8276 46.5555C46.8226 47.1 46.8159 47.4734 46.5486 47.9549C46.2752 48.1753 46.1663 48.2415 45.8203 48.23C45.743 48.2301 45.6656 48.2303 45.5859 48.2304C45.2457 48.1341 45.1062 47.9665 44.8828 47.6953C44.7867 47.2141 44.8122 46.7275 44.8169 46.2378C44.8141 46.1051 44.8113 45.9724 44.8084 45.8356C44.8103 44.7512 44.8103 44.7512 45.1579 44.3852C45.4688 44.1797 45.4688 44.1797 45.8203 44.1064Z" fill="black"/>
<path d="M46.1719 32.1094C46.4827 32.3186 46.4827 32.3186 46.7578 32.6953C46.8426 33.1654 46.8342 33.6252 46.8237 34.1016C46.825 34.2282 46.8263 34.3547 46.8276 34.4852C46.8226 35.0297 46.8159 35.4031 46.5486 35.8846C46.2752 36.1049 46.1663 36.1712 45.8203 36.1597C45.743 36.1598 45.6656 36.16 45.5859 36.1601C45.2446 36.0635 45.1061 35.8979 44.8828 35.625C44.7862 35.1218 44.8122 34.613 44.8169 34.1016C44.8141 33.9623 44.8113 33.823 44.8084 33.6795C44.8087 33.5457 44.8089 33.4118 44.8091 33.2739C44.809 33.1517 44.8089 33.0295 44.8089 32.9036C44.8828 32.5781 44.8828 32.5781 45.1584 32.3044C45.5425 32.063 45.7262 32.0258 46.1719 32.1094Z" fill="black"/>
<path d="M45.8203 38.1372C45.8977 38.1346 45.975 38.1321 46.0547 38.1294C46.4524 38.2545 46.5548 38.4254 46.7578 38.7891C46.8236 39.2395 46.8179 39.6823 46.8091 40.1367C46.8099 40.2577 46.8107 40.3787 46.8116 40.5034C46.802 41.643 46.802 41.643 46.4063 42.0703C46.1874 42.1738 46.1874 42.1738 45.9522 42.2021C45.8751 42.2145 45.7981 42.2269 45.7187 42.2397C45.2749 42.147 45.1407 41.9727 44.8828 41.6016C44.7985 41.1094 44.8064 40.6275 44.8169 40.1294C44.8156 39.9962 44.8143 39.8631 44.813 39.7259C44.8217 38.7461 44.8217 38.7461 45.1067 38.4C45.3718 38.1869 45.4853 38.1366 45.8203 38.1372Z" fill="black"/>
<path d="M14.7656 32.1094C15.0939 32.3561 15.2191 32.4963 15.295 32.9036C15.2956 33.0258 15.2961 33.148 15.2966 33.2739C15.2972 33.4078 15.2978 33.5416 15.2985 33.6795C15.2967 33.8188 15.2948 33.9581 15.293 34.1016C15.2948 34.2408 15.2966 34.3801 15.2985 34.5236C15.2979 34.6575 15.2973 34.7913 15.2966 34.9292C15.2961 35.0514 15.2956 35.1736 15.295 35.2995C15.2192 35.7066 15.0925 35.846 14.7656 36.0938C14.3258 36.1487 14.058 36.156 13.667 35.9399C13.2176 35.4732 13.3334 34.7874 13.3301 34.1821C13.3277 34.0722 13.3252 33.9623 13.3228 33.8491C13.3192 33.221 13.3487 32.7655 13.7109 32.2266C14.0733 32.0454 14.3665 32.075 14.7656 32.1094Z" fill="black"/>
<path d="M14.8828 44.2969C15.0806 44.4358 15.0806 44.4358 15.2344 44.6484C15.3105 45.1502 15.2886 45.6576 15.2856 46.1645C15.2892 46.3743 15.2892 46.3743 15.2927 46.5882C15.2927 46.7226 15.2926 46.8569 15.2925 46.9954C15.2928 47.1798 15.2928 47.1798 15.2932 47.368C15.2203 47.7739 15.085 47.9115 14.7656 48.1641C14.4249 48.2471 14.1864 48.2039 13.8281 48.1641C13.5147 47.9518 13.4813 47.8268 13.3594 47.4609C13.3325 47.0561 13.3377 46.6507 13.3374 46.2451C13.336 46.1342 13.3345 46.0234 13.3331 45.9091C13.3309 44.876 13.3309 44.876 13.5937 44.4141C14.0024 44.0811 14.3942 44.1814 14.8828 44.2969Z" fill="black"/>
<path d="M14.3408 38.1665C14.4799 38.1599 14.4799 38.1599 14.6219 38.1532C14.8828 38.2031 14.8828 38.2031 15.0715 38.3971C15.3908 38.9357 15.2943 39.5852 15.293 40.1953C15.2963 40.3346 15.2996 40.4739 15.303 40.6174C15.3035 40.8181 15.3035 40.8181 15.304 41.0229C15.3048 41.1452 15.3056 41.2674 15.3065 41.3933C15.2344 41.7188 15.2344 41.7188 14.9636 41.9971C14.6484 42.1875 14.6484 42.1875 14.2236 42.1802C13.6942 42.0331 13.6942 42.0331 13.4766 41.7188C13.3038 41.2005 13.333 40.6943 13.3301 40.1514C13.3277 40.0405 13.3252 39.9296 13.3228 39.8154C13.3194 39.2213 13.319 38.8013 13.7109 38.3203C13.896 38.1353 14.0852 38.1744 14.3408 38.1665Z" fill="black"/>
<g clip-path="url(#clip0_96_64)">
<rect x="21" y="31" width="19" height="19" fill="white"/>
<path d="M30.5001 30.9H30.5C28.6013 30.9 26.7452 31.463 25.1665 32.5179C23.5878 33.5728 22.3574 35.0721 21.6308 36.8262C20.9042 38.5804 20.714 40.5107 21.0845 42.3729C21.4549 44.2351 22.3692 45.9456 23.7118 47.2882C25.0544 48.6308 26.7649 49.5451 28.6271 49.9155C30.4894 50.286 32.4196 50.0958 34.1738 49.3692C35.9279 48.6426 37.4273 47.4122 38.4821 45.8335C39.537 44.2548 40.1 42.3987 40.1 40.5V40.4999C40.0971 37.9547 39.0848 35.5146 37.2851 33.7149C35.4854 31.9152 33.0453 30.9029 30.5001 30.9ZM30.4999 49.3063C28.7582 49.3062 27.0557 48.7898 25.6075 47.8221C24.1593 46.8545 23.0306 45.4791 22.3641 43.87C21.6976 42.2609 21.5232 40.4902 21.863 38.782C22.2028 37.0737 23.0415 35.5046 24.273 34.273C25.5046 33.0415 27.0737 32.2028 28.782 31.863C30.4902 31.5232 32.2609 31.6976 33.87 32.3641C35.4791 33.0306 36.8545 34.1593 37.8221 35.6075C38.7898 37.0557 39.3062 38.7582 39.3063 40.4999C39.3036 42.8347 38.3749 45.0731 36.724 46.724C35.0731 48.3749 32.8347 49.3036 30.4999 49.3063Z" fill="black" stroke="black" stroke-width="0.2"/>
<path d="M32.6328 39.1509L32.519 39.0965L32.4208 39.1757C32.2452 39.3174 32.0545 39.4394 31.8521 39.5394L31.4363 39.745L31.8712 39.9063C32.6292 40.1874 33.283 40.6935 33.7451 41.3569C34.2072 42.0202 34.4553 42.809 34.4563 43.6174V45.992C34.4562 46.0177 34.446 46.0424 34.4278 46.0606C34.4096 46.0788 34.3849 46.089 34.3591 46.0891H26.6409C26.6151 46.089 26.5904 46.0788 26.5722 46.0606C26.554 46.0424 26.5438 46.0178 26.5437 45.992V43.6173C26.5447 42.8089 26.7929 42.0202 27.2549 41.3569C27.717 40.6935 28.3708 40.1874 29.1288 39.9063L29.5637 39.745L29.1479 39.5394C28.9455 39.4394 28.7548 39.3174 28.5792 39.1757L28.481 39.0965L28.3672 39.1509C27.5244 39.5541 26.8127 40.1873 26.3143 40.9775C25.8158 41.7677 25.5509 42.6827 25.55 43.617V43.6172L25.55 45.9922L25.55 45.9924C25.5503 46.2815 25.6653 46.5587 25.8697 46.7631C26.0741 46.9675 26.3513 47.0825 26.6404 47.0828H26.6406L34.3594 47.0828L34.3596 47.0828C34.6487 47.0825 34.9259 46.9675 35.1303 46.7631C35.3347 46.5587 35.4497 46.2815 35.45 45.9924V45.9922V43.6172V43.617C35.4491 42.6827 35.1842 41.7677 34.6857 40.9775C34.1873 40.1873 33.4756 39.5541 32.6328 39.1509Z" fill="black" stroke="black" stroke-width="0.4"/>
<path d="M30.4997 39.7109H30.5C31.0779 39.7109 31.6428 39.5396 32.1233 39.2185C32.6038 38.8975 32.9783 38.4411 33.1995 37.9072C33.4206 37.3733 33.4785 36.7858 33.3657 36.219C33.253 35.6522 32.9747 35.1316 32.5661 34.723C32.1574 34.3144 31.6368 34.0361 31.07 33.9233C30.5032 33.8106 29.9158 33.8685 29.3818 34.0896C28.8479 34.3108 28.3916 34.6853 28.0705 35.1658C27.7495 35.6463 27.5781 36.2112 27.5781 36.7891L27.5781 36.7893C27.579 37.5639 27.8871 38.3065 28.4348 38.8542C28.9825 39.402 29.7251 39.7101 30.4997 39.7109ZM30.5001 34.9609C30.8616 34.961 31.2151 35.0682 31.5157 35.269C31.8163 35.4699 32.0506 35.7554 32.189 36.0895C32.3273 36.4235 32.3635 36.7911 32.293 37.1457C32.2225 37.5003 32.0483 37.8261 31.7927 38.0817C31.537 38.3374 31.2113 38.5115 30.8566 38.5821C30.502 38.6526 30.1345 38.6164 29.8004 38.478C29.4664 38.3397 29.1808 38.1053 28.98 37.8047C28.7791 37.5041 28.6719 37.1507 28.6719 36.7892C28.6725 36.3045 28.8653 35.8398 29.208 35.4971C29.5507 35.1543 30.0154 34.9615 30.5001 34.9609Z" fill="black" stroke="black" stroke-width="0.5"/>
</g>
<defs>
<clipPath id="clip0_96_64">
<rect x="21" y="31" width="19" height="19" />
</clipPath>
</defs>
</svg>
