<svg width="60" height="60" viewBox="0 0 60 60" fill="none" xmlns="http://www.w3.org/2000/svg">
<path d="M59.9604 5.69462C59.7482 4.8977 58.7544 4.38681 57.7404 4.55339C48.4808 6.0902 38.8252 4.53828 31.0766 0.267677C30.4307 -0.0892259 29.5692 -0.0892259 28.9233 0.267677C21.175 4.53846 11.5191 6.09056 2.25948 4.55339C2.13359 4.5327 2.00542 4.52227 1.87679 4.52227C0.840866 4.52173 0.000640849 5.18121 -4.57764e-05 5.99539V29.6287C0.00613385 38.2827 5.30704 46.4066 14.2456 51.4602L28.9086 59.7237C29.2266 59.9036 29.6083 60.0004 30 60C30.3916 60.0004 30.7733 59.9038 31.0913 59.7239L45.7543 51.4602C54.6929 46.4066 59.9938 38.2827 60 29.6287V5.99539C60 5.8943 59.9867 5.79356 59.9604 5.69462ZM56.25 29.6287C56.2458 37.3329 51.5281 44.5656 43.5717 49.0655L30 56.713L16.4282 49.0655C8.47179 44.5654 3.75407 37.3329 3.74995 29.6287V7.75688C12.9066 8.83191 22.2468 7.22926 30 3.25242C37.7538 7.22819 47.0935 8.83083 56.25 7.75688V29.6287Z" fill="currentColor"/>
<g clip-path="url(#clip0_98_65)">
<path d="M21.4591 14.798C21.5201 14.7977 21.581 14.7974 21.6439 14.7972C21.8485 14.7965 22.0531 14.797 22.2577 14.7976C22.4043 14.7973 22.5509 14.797 22.6974 14.7966C23.0545 14.7959 23.4115 14.796 23.7685 14.7965C24.0587 14.7969 24.3489 14.797 24.6392 14.7968C24.7011 14.7968 24.7011 14.7968 24.7643 14.7967C24.8483 14.7967 24.9322 14.7966 25.0161 14.7965C25.8031 14.796 26.5902 14.7966 27.3772 14.7976C28.0522 14.7983 28.7272 14.7982 29.4023 14.7974C30.1863 14.7965 30.9703 14.7961 31.7544 14.7966C31.838 14.7967 31.9217 14.7967 32.0053 14.7968C32.0465 14.7968 32.0876 14.7968 32.13 14.7969C32.4198 14.797 32.7095 14.7968 32.9993 14.7964C33.3895 14.7958 33.7797 14.7962 34.17 14.7972C34.3132 14.7974 34.4565 14.7974 34.5997 14.797C34.7952 14.7965 34.9907 14.7971 35.1862 14.798C35.2429 14.7976 35.2997 14.7972 35.3581 14.7968C35.7908 14.8006 36.1147 14.8815 36.4417 15.1834C36.481 15.2195 36.5203 15.2555 36.5608 15.2927C36.7584 15.4815 36.9539 15.6721 37.1468 15.8656C37.1894 15.9081 37.232 15.9507 37.2759 15.9945C37.3652 16.0838 37.4545 16.1732 37.5437 16.2626C37.6791 16.3983 37.8148 16.5337 37.9506 16.6691C38.0379 16.7565 38.1252 16.8439 38.2125 16.9313C38.2525 16.9712 38.2925 17.011 38.3337 17.0521C38.5611 17.2806 38.7765 17.5159 38.9872 17.7599C39.1172 17.907 39.2562 18.0428 39.3979 18.1785C39.4545 18.2335 39.5111 18.2886 39.5677 18.3437C39.6547 18.4281 39.7418 18.5123 39.8296 18.5959C39.9159 18.6782 40.0012 18.7615 40.0864 18.845C40.1368 18.8935 40.1873 18.9421 40.2393 18.9921C40.616 19.4612 40.571 19.9897 40.5668 20.5603C40.5668 20.6551 40.5668 20.7498 40.5669 20.8446C40.567 21.1007 40.5659 21.3568 40.5647 21.6129C40.5636 21.881 40.5635 22.1491 40.5633 22.4172C40.5627 22.9243 40.5613 23.4315 40.5595 23.9386C40.5576 24.5162 40.5566 25.0938 40.5557 25.6713C40.5539 26.859 40.5508 28.0467 40.5469 29.2344C40.5991 29.242 40.6514 29.2496 40.7052 29.2574C40.8081 29.2727 40.8081 29.2727 40.913 29.2884C40.981 29.2984 41.049 29.3084 41.119 29.3187C41.8494 29.4453 42.4536 29.8715 42.9492 30.4063C42.9803 30.4364 43.0115 30.4665 43.0435 30.4976C43.2836 30.7446 43.4379 31.0053 43.5828 31.3145C43.5997 31.3506 43.6167 31.3867 43.6342 31.4239C43.8688 31.9477 43.9031 32.4175 43.8982 32.9862C43.8979 33.0945 43.8979 33.0945 43.8977 33.2049C43.897 33.4341 43.8955 33.6634 43.894 33.8926C43.8934 34.0485 43.8929 34.2045 43.8924 34.3604C43.8912 34.7416 43.8892 35.1227 43.8867 35.5039C43.9622 35.5032 44.0376 35.5026 44.1154 35.5019C44.2137 35.5013 44.3121 35.5008 44.4104 35.5002C44.4602 35.4998 44.51 35.4993 44.5613 35.4988C44.6324 35.4985 44.6324 35.4985 44.705 35.4982C44.7708 35.4977 44.7708 35.4977 44.8379 35.4973C44.9414 35.5039 44.9414 35.5039 45 35.5625C45.0068 35.7392 45.0098 35.9146 45.0104 36.0914C45.0109 36.1747 45.0109 36.1747 45.0115 36.2598C45.0127 36.4447 45.0134 36.6296 45.014 36.8145C45.0142 36.8776 45.0144 36.9408 45.0147 37.0058C45.0159 37.3405 45.0167 37.6752 45.0173 38.0099C45.0179 38.3547 45.02 38.6996 45.0223 39.0444C45.0238 39.3101 45.0243 39.5758 45.0245 39.8416C45.0248 39.9686 45.0255 40.0956 45.0266 40.2226C45.0338 41.1251 45.0112 41.8486 44.3555 42.5352C43.8199 43.034 43.1931 43.1878 42.481 43.1901C42.4285 43.1904 42.376 43.1908 42.3218 43.1912C42.1483 43.1924 41.9747 43.1931 41.8011 43.1937C41.7416 43.1939 41.6821 43.1941 41.6207 43.1944C41.3053 43.1956 40.9898 43.1964 40.6744 43.197C40.3502 43.1976 40.026 43.1996 39.7018 43.202C39.4511 43.2035 39.2005 43.204 38.9498 43.2042C38.8304 43.2045 38.711 43.2052 38.5916 43.2063C37.7453 43.2135 36.9207 43.2163 36.2695 42.5938C35.7699 42.0983 35.4968 41.5476 35.4919 40.8394C35.4923 40.763 35.4923 40.763 35.4926 40.685C35.4923 40.6029 35.4923 40.6029 35.492 40.5192C35.4915 40.3393 35.4919 40.1595 35.4922 39.9797C35.4922 39.8544 35.4921 39.7292 35.4919 39.604C35.4917 39.3421 35.492 39.0802 35.4925 38.8183C35.4932 38.4821 35.4928 38.1459 35.4921 37.8097C35.4917 37.5514 35.4918 37.2931 35.4921 37.0348C35.4922 36.9107 35.4921 36.7867 35.4918 36.6627C35.4915 36.4899 35.492 36.3171 35.4926 36.1442C35.4924 36.0927 35.4922 36.0412 35.4919 35.9881C35.4944 35.6345 35.4944 35.6345 35.625 35.5039C35.7955 35.4954 35.9602 35.493 36.1304 35.4966C36.1774 35.4971 36.2243 35.4976 36.2727 35.4982C36.3889 35.4996 36.505 35.5017 36.6211 35.5039C36.6206 35.4678 36.6201 35.4317 36.6195 35.3945C36.6143 35.0143 36.6108 34.634 36.6082 34.2536C36.607 34.1123 36.6055 33.9709 36.6034 33.8295C36.5844 32.4816 36.6889 31.3249 37.6566 30.2956C38.1891 29.759 38.878 29.4093 39.6219 29.2892C39.717 29.2737 39.717 29.2737 39.8142 29.2579C39.8868 29.2462 39.8868 29.2462 39.9609 29.2344C39.9601 27.9779 39.9577 26.7214 39.9532 25.4649C39.9512 24.8815 39.9497 24.2981 39.9495 23.7147C39.9493 23.2063 39.9481 22.6979 39.9457 22.1895C39.9444 21.9202 39.9437 21.6509 39.9442 21.3817C39.9446 21.1283 39.9437 20.875 39.9417 20.6216C39.9412 20.5285 39.9412 20.4355 39.9418 20.3424C39.9425 20.2154 39.9414 20.0886 39.9398 19.9616C39.9396 19.8905 39.9395 19.8195 39.9393 19.7462C39.9173 19.5559 39.9173 19.5559 39.7635 19.4264C39.5853 19.3173 39.4843 19.3022 39.2768 19.301C39.2115 19.3 39.1462 19.299 39.0789 19.298C39.009 19.2982 38.9391 19.2983 38.8671 19.2984C38.795 19.2976 38.7228 19.2967 38.6485 19.2959C38.4183 19.2934 38.188 19.2925 37.9578 19.2917C37.7269 19.2902 37.496 19.288 37.2651 19.2857C37.1215 19.2844 36.9778 19.2835 36.8342 19.283C36.7694 19.2826 36.7047 19.2822 36.638 19.2818C36.5523 19.2814 36.5523 19.2814 36.4648 19.2811C36.3281 19.2734 36.3281 19.2734 36.2109 19.2148C36.2104 19.1544 36.2104 19.1544 36.2099 19.0926C36.2061 18.6725 36.2012 18.2524 36.1956 17.8323C36.1935 17.6755 36.192 17.5188 36.1906 17.362C36.1887 17.1366 36.1856 16.9111 36.1823 16.6857C36.1818 16.5808 36.1818 16.5808 36.1812 16.4737C36.181 15.9987 36.181 15.9987 35.9766 15.582C35.664 15.3768 35.3873 15.3818 35.0266 15.3851C34.9364 15.3849 34.9364 15.3849 34.8444 15.3847C34.6431 15.3844 34.4418 15.3853 34.2404 15.3863C34.096 15.3863 33.9517 15.3863 33.8073 15.3862C33.4965 15.3862 33.1858 15.3867 32.875 15.3877C32.4257 15.3891 31.9764 15.3896 31.5271 15.3898C30.798 15.3902 30.069 15.3913 29.34 15.393C28.6319 15.3946 27.9238 15.3958 27.2157 15.3966C27.1502 15.3967 27.1502 15.3967 27.0834 15.3967C26.8644 15.397 26.6453 15.3972 26.4263 15.3974C24.6097 15.3992 22.7931 15.4025 20.9766 15.4063C20.9766 17.0111 20.9766 18.616 20.9766 20.2695C21.7193 20.2677 21.7193 20.2677 22.477 20.2658C24.0609 20.2621 25.6449 20.2594 27.2288 20.2576C27.4748 20.2573 27.7208 20.257 27.9668 20.2567C28.0157 20.2566 28.0647 20.2565 28.1152 20.2565C28.9083 20.2555 29.7015 20.2536 30.4947 20.2515C31.3084 20.2493 32.1222 20.248 32.9359 20.2475C33.4381 20.2472 33.9403 20.2461 34.4425 20.2442C34.7868 20.243 35.1311 20.2426 35.4754 20.2429C35.6741 20.2431 35.8728 20.2428 36.0715 20.2416C36.2869 20.2404 36.5023 20.2407 36.7177 20.2413C36.8119 20.2403 36.8119 20.2403 36.908 20.2393C37.2617 20.2421 37.4651 20.2682 37.7344 20.5039C38.0015 20.8031 38.0024 21.0609 37.9991 21.4427C37.9997 21.5301 37.9997 21.5301 38.0003 21.6192C38.0014 21.8115 38.0007 22.0037 37.9999 22.196C38 22.3303 38.0003 22.4646 38.0006 22.5989C38.0009 22.8805 38.0004 23.1621 37.9993 23.4437C37.998 23.8029 37.9987 24.1621 38.0001 24.5213C38.001 24.7988 38.0007 25.0764 38.0001 25.3539C38 25.4862 38.0001 25.6186 38.0007 25.7509C38.0044 26.9094 37.8547 27.7768 37.0862 28.6814C36.8223 28.9989 36.5667 29.3202 36.3208 29.6519C36.0964 29.9541 35.8691 30.2535 35.636 30.5491C35.5959 30.6002 35.5959 30.6002 35.555 30.6523C35.4423 30.7957 35.3286 30.9377 35.211 31.0771C34.773 31.604 34.5636 32.1886 34.5622 32.8703C34.5621 32.9112 34.5619 32.9521 34.5617 32.9943C34.5612 33.131 34.5612 33.2677 34.5611 33.4045C34.5608 33.5027 34.5605 33.6008 34.5602 33.699C34.5595 33.9103 34.559 34.1216 34.5586 34.3328C34.558 34.667 34.5568 35.0011 34.5555 35.3352C34.5519 36.2852 34.5487 37.2353 34.5468 38.1853C34.5457 38.7102 34.544 39.235 34.5416 39.7598C34.5404 40.0375 34.5395 40.3151 34.5394 40.5928C34.5392 40.8539 34.5383 41.115 34.5368 41.3761C34.5363 41.4718 34.5362 41.5676 34.5364 41.6633C34.5366 41.7942 34.5358 41.925 34.5347 42.0559C34.5345 42.1291 34.5343 42.2022 34.5341 42.2776C34.5052 42.5347 34.4232 42.7325 34.248 42.9245C33.9878 43.1271 33.8208 43.187 33.4954 43.1872C33.43 43.1874 33.3646 43.1876 33.2972 43.1878C33.2251 43.1877 33.153 43.1876 33.0786 43.1875C32.9641 43.1877 32.9641 43.1877 32.8471 43.1879C32.6347 43.1883 32.4222 43.1883 32.2097 43.1882C31.9807 43.1882 31.7517 43.1885 31.5227 43.1888C31.074 43.1893 30.6253 43.1894 30.1765 43.1895C29.812 43.1895 29.4474 43.1896 29.0828 43.1898C28.0501 43.1903 27.0174 43.1906 25.9847 43.1906C25.9012 43.1906 25.9012 43.1906 25.8159 43.1905C25.7602 43.1905 25.7044 43.1905 25.6469 43.1905C24.7424 43.1905 23.8379 43.1911 22.9334 43.1919C22.0055 43.1927 21.0776 43.1932 20.1497 43.1931C19.6284 43.1931 19.1071 43.1932 18.5858 43.1939C18.1421 43.1944 17.6984 43.1945 17.2547 43.1941C17.0282 43.1939 16.8016 43.1939 16.575 43.1944C16.3299 43.195 16.0848 43.1946 15.8397 43.1942C15.7313 43.1946 15.7313 43.1946 15.6207 43.1951C15.5555 43.1948 15.4902 43.1946 15.423 43.1943C15.3381 43.1943 15.3381 43.1943 15.2514 43.1943C15.1172 43.1797 15.1172 43.1797 15 43.0625C14.9848 42.8789 14.9848 42.8789 14.9844 42.645C14.9843 42.6038 14.9842 42.5627 14.9841 42.5203C14.984 42.4332 14.9842 42.3461 14.9847 42.259C14.9853 42.1255 14.9847 41.9921 14.984 41.8586C14.9841 41.7741 14.9842 41.6895 14.9844 41.605C14.9846 41.5278 14.9847 41.4506 14.9848 41.3711C15 41.1875 15 41.1875 15.1172 41.0703C15.2953 41.0589 15.2953 41.0589 15.5054 41.063C15.575 41.064 15.6447 41.0651 15.7164 41.0662C15.7968 41.0682 15.7968 41.0682 15.8789 41.0703C15.8783 41.0283 15.8777 40.9863 15.877 40.9431C15.8746 40.7536 15.8731 40.564 15.8716 40.3745C15.8706 40.3084 15.8696 40.2423 15.8686 40.1742C15.8682 40.1112 15.8679 40.0481 15.8675 39.9831C15.8668 39.9248 15.8662 39.8665 15.8656 39.8065C15.8789 39.6641 15.8789 39.6641 15.9961 39.5469C16.1314 39.5469 16.2668 39.5469 16.4062 39.5469C16.4062 37.7873 16.4062 36.0277 16.4062 34.2148C16.2902 34.2148 16.1742 34.2148 16.0547 34.2148C15.7915 34.089 15.6165 33.9148 15.4688 33.6655C15.3572 33.2613 15.3711 32.9813 15.5745 32.6186C15.7405 32.3746 15.9361 32.2641 16.2169 32.188C16.5003 32.1361 16.7891 32.1462 17.0762 32.1464C17.1809 32.1461 17.1809 32.1461 17.2878 32.1457C17.4351 32.1453 17.5824 32.1453 17.7297 32.1456C17.9544 32.1458 18.179 32.1444 18.4036 32.1429C18.5471 32.1428 18.6905 32.1427 18.834 32.1428C18.9008 32.1422 18.9676 32.1417 19.0364 32.1411C19.4514 32.1435 19.8295 32.1613 20.1597 32.4426C20.1863 32.4776 20.213 32.5126 20.2405 32.5486C20.2682 32.5837 20.2959 32.6188 20.3245 32.655C20.5153 32.929 20.4796 33.2483 20.4492 33.5703C20.3242 33.8297 20.1659 34.003 19.9219 34.1563C19.7865 34.1756 19.6512 34.1949 19.5117 34.2148C19.5117 35.9744 19.5117 37.734 19.5117 39.5469C20.3625 39.5469 21.2133 39.5469 22.0898 39.5469C22.0898 37.7873 22.0898 36.0277 22.0898 34.2148C21.9545 34.1955 21.8191 34.1762 21.6797 34.1563C21.4157 33.9786 21.2551 33.8143 21.1523 33.5117C21.1113 33.1619 21.1212 32.8708 21.3281 32.5742C21.7158 32.1865 22.0818 32.151 22.6052 32.1463C22.6706 32.1463 22.7361 32.1464 22.8035 32.1464C22.8719 32.1462 22.9403 32.1459 23.0108 32.1457C23.1551 32.1453 23.2994 32.1453 23.4437 32.1456C23.6634 32.1458 23.8831 32.1444 24.1029 32.1429C24.2435 32.1428 24.3841 32.1427 24.5247 32.1428C24.5899 32.1422 24.6551 32.1417 24.7223 32.1411C25.1446 32.1436 25.5656 32.1679 25.9076 32.4406C25.9466 32.4922 25.9466 32.4922 25.9863 32.5449C26.0135 32.5794 26.0407 32.6138 26.0687 32.6493C26.2363 32.9126 26.2243 33.2112 26.1914 33.5117C26.0936 33.7933 25.9185 34.0024 25.6641 34.1563C25.5287 34.1756 25.3934 34.1949 25.2539 34.2148C25.2539 35.9744 25.2539 37.734 25.2539 39.5469C26.1047 39.5469 26.9555 39.5469 27.832 39.5469C27.832 37.7873 27.832 36.0277 27.832 34.2148C27.6967 34.1955 27.5613 34.1762 27.4219 34.1563C27.2962 34.0839 27.2962 34.0839 27.1985 33.9951C27.1655 33.9664 27.1325 33.9377 27.0985 33.9081C26.8756 33.6423 26.8693 33.3557 26.876 33.0228C26.9107 32.7314 27.0626 32.5785 27.2681 32.3838C27.6547 32.1261 28.0452 32.1461 28.4942 32.1464C28.564 32.1462 28.6338 32.1459 28.7056 32.1457C28.8531 32.1453 29.0005 32.1453 29.1479 32.1456C29.3724 32.1458 29.5968 32.1444 29.8214 32.1429C29.9649 32.1428 30.1085 32.1427 30.252 32.1428C30.3187 32.1422 30.3853 32.1417 30.454 32.1411C31.3013 32.146 31.3013 32.146 31.6162 32.4208C31.8641 32.7056 31.9613 32.9427 31.9521 33.3137C31.9117 33.618 31.7728 33.8422 31.5674 34.0647C31.4062 34.1563 31.4062 34.1563 30.9375 34.2148C30.9375 35.9744 30.9375 37.734 30.9375 39.5469C31.0729 39.5469 31.2082 39.5469 31.3477 39.5469C31.4648 39.6641 31.4648 39.6641 31.4781 39.8065C31.4775 39.8648 31.4769 39.9231 31.4763 39.9831C31.4759 40.0462 31.4755 40.1093 31.4751 40.1742C31.4742 40.2403 31.4732 40.3064 31.4722 40.3745C31.4716 40.4411 31.4711 40.5076 31.4706 40.5762C31.4692 40.7409 31.4673 40.9056 31.4648 41.0703C31.5178 41.0676 31.5707 41.0649 31.6253 41.0621C31.6944 41.06 31.7635 41.0578 31.8347 41.0557C31.9034 41.0529 31.972 41.0502 32.0428 41.0474C32.2266 41.0703 32.2266 41.0703 32.3249 41.1691C32.4188 41.3336 32.4227 41.4339 32.4195 41.6224C32.4189 41.6824 32.4184 41.7425 32.4178 41.8043C32.4163 41.8667 32.4148 41.929 32.4133 41.9932C32.4125 42.0564 32.4117 42.1196 32.4109 42.1847C32.4089 42.3406 32.406 42.4965 32.4023 42.6523C32.6026 42.6442 32.8027 42.6355 33.0029 42.6267C33.0597 42.6244 33.1164 42.6221 33.1748 42.6197C33.2296 42.6173 33.2843 42.6148 33.3408 42.6123C33.3911 42.6101 33.4414 42.608 33.4933 42.6058C33.624 42.5945 33.7412 42.571 33.8672 42.5352C33.9342 42.3214 33.9332 42.1205 33.9335 41.8973C33.9336 41.8568 33.9337 41.8162 33.9338 41.7744C33.9342 41.6384 33.9341 41.5025 33.9341 41.3665C33.9343 41.269 33.9345 41.1715 33.9347 41.074C33.9352 40.8639 33.9355 40.6538 33.9357 40.4437C33.936 40.111 33.937 39.7782 33.9381 39.4455C33.9385 39.3314 33.9388 39.2174 33.9392 39.1034C33.9394 39.0463 33.9396 38.9891 33.9398 38.9303C33.9422 38.1557 33.9442 37.3812 33.9449 36.6066C33.9454 36.0841 33.9467 35.5615 33.9489 35.039C33.9501 34.7627 33.9508 34.4865 33.9505 34.2102C33.9503 33.9499 33.9511 33.6896 33.9527 33.4292C33.9531 33.3342 33.9531 33.2392 33.9527 33.1442C33.9483 32.0689 34.2427 31.2299 34.954 30.4171C35.1706 30.1693 35.3707 29.9127 35.5664 29.6482C35.7922 29.3436 36.0203 29.0415 36.2549 28.7437C36.2814 28.7097 36.308 28.6758 36.3354 28.6408C36.4529 28.4912 36.5718 28.3447 36.6966 28.201C37.2129 27.6006 37.3913 26.938 37.3923 26.1626C37.3925 26.1074 37.3928 26.0522 37.3931 25.9954C37.394 25.8133 37.3944 25.6312 37.3947 25.4491C37.3951 25.3225 37.3954 25.196 37.3957 25.0694C37.3963 24.8043 37.3967 24.5392 37.3969 24.2741C37.3972 23.934 37.3986 23.5938 37.4003 23.2537C37.4014 22.9924 37.4017 22.7311 37.4018 22.4698C37.4019 22.3444 37.4024 22.2189 37.4032 22.0935C37.4042 21.9184 37.4041 21.7434 37.4037 21.5683C37.4042 21.5162 37.4048 21.4642 37.4053 21.4106C37.405 21.3629 37.4047 21.3153 37.4043 21.2662C37.4045 21.2041 37.4045 21.2041 37.4046 21.1408C37.3751 20.9927 37.3258 20.9479 37.207 20.8555C37.0628 20.8292 37.0628 20.8292 36.8977 20.8336C36.8332 20.8332 36.7687 20.8328 36.7022 20.8323C36.631 20.8328 36.5598 20.8332 36.4865 20.8337C36.4111 20.8335 36.3357 20.8332 36.2581 20.833C36.0484 20.8324 35.8387 20.8329 35.629 20.8335C35.403 20.8341 35.177 20.8336 34.951 20.8332C34.5592 20.8326 34.1674 20.8327 33.7755 20.8332C33.2085 20.8339 32.6414 20.8333 32.0743 20.8325C31.1535 20.8311 30.2328 20.8303 29.312 20.8301C29.2569 20.83 29.2017 20.83 29.1449 20.83C28.5301 20.8299 27.9153 20.8298 27.3005 20.8299C27.0778 20.8299 26.855 20.8299 26.6323 20.8299C26.5773 20.8299 26.5223 20.8299 26.4657 20.8299C25.5489 20.83 24.632 20.8291 23.7152 20.8275C23.1497 20.8266 22.5842 20.8265 22.0187 20.8274C21.6309 20.8279 21.2432 20.8277 20.8555 20.8267C20.6318 20.8262 20.4082 20.8261 20.1846 20.827C19.9419 20.828 19.6992 20.8271 19.4566 20.8261C19.3862 20.8267 19.3158 20.8273 19.2433 20.8278C19.1451 20.827 19.1451 20.827 19.045 20.8261C18.989 20.8261 18.9331 20.8262 18.8754 20.8262C18.6914 20.7969 18.6914 20.7969 18.1641 20.5625C18.1641 23.1342 18.1641 25.7059 18.1641 28.3555C18.6891 27.9617 19.2102 27.5697 19.7246 27.1632C20.0417 26.9128 20.3629 26.6677 20.6836 26.4219C21.0697 26.1256 21.4552 25.8286 21.8389 25.5292C21.9747 25.4234 22.1109 25.3179 22.2471 25.2125C22.4018 25.0926 22.5552 24.9715 22.7071 24.8481C23.2764 24.3962 23.2764 24.3962 23.6719 24.4297C24.0309 24.609 24.3373 24.8507 24.6533 25.0962C24.7633 25.1808 24.8733 25.2653 24.9834 25.3498C25.0385 25.3921 25.0937 25.4345 25.1505 25.4781C25.3906 25.6611 25.6332 25.8404 25.8765 26.019C25.9219 26.0524 25.9674 26.0858 26.0142 26.1202C26.1057 26.1873 26.1972 26.2544 26.2888 26.3215C26.9529 26.8081 27.6146 27.2978 28.2726 27.7926C28.6029 28.0407 28.9347 28.2867 29.2676 28.5313C29.7516 28.887 30.2328 29.2464 30.7127 29.6077C30.8985 29.7474 31.0849 29.8861 31.2721 30.0238C31.3152 30.0557 31.3584 30.0875 31.4028 30.1204C31.4831 30.1797 31.5637 30.2388 31.6444 30.2976C31.8286 30.434 31.9935 30.5576 32.1094 30.7578C32.1411 31.0485 32.1179 31.2306 31.9336 31.4609C31.7578 31.5697 31.6247 31.5929 31.4195 31.5932C31.3631 31.5936 31.3067 31.594 31.2486 31.5943C31.1868 31.5942 31.125 31.594 31.0613 31.5938C30.9626 31.5942 30.9626 31.5942 30.8619 31.5946C30.6406 31.5953 30.4194 31.5952 30.1981 31.5951C30.0398 31.5954 29.8815 31.5959 29.7232 31.5963C29.3373 31.5973 28.9515 31.5976 28.5656 31.5977C28.2521 31.5978 27.9385 31.598 27.6249 31.5984C26.7361 31.5994 25.8473 31.5999 24.9585 31.5999C24.8866 31.5998 24.8866 31.5998 24.8133 31.5998C24.7653 31.5998 24.7173 31.5998 24.6679 31.5998C23.89 31.5998 23.1122 31.6009 22.3343 31.6026C21.5359 31.6042 20.7374 31.605 19.939 31.6049C19.4906 31.6049 19.0422 31.6052 18.5939 31.6065C18.2122 31.6076 17.8305 31.6078 17.4488 31.607C17.254 31.6066 17.0593 31.6068 16.8645 31.6076C16.6534 31.6085 16.4424 31.608 16.2313 31.6071C16.1696 31.6077 16.1079 31.6083 16.0444 31.6089C15.7826 31.6064 15.6299 31.6049 15.4028 31.4665C15.2522 31.2981 15.2221 31.1954 15.2124 30.9739C15.2095 30.9294 15.2067 30.8849 15.2037 30.8391C15.2752 30.5133 15.6531 30.2991 15.9082 30.1023C15.9437 30.0747 15.9791 30.0471 16.0156 30.0186C16.1261 29.9327 16.2368 29.8472 16.3477 29.7617C16.3832 29.7343 16.4187 29.707 16.4553 29.6788C16.6176 29.5537 16.7802 29.4288 16.943 29.3042C17.0537 29.2188 17.1628 29.1313 17.2703 29.0419C17.4023 28.9414 17.4023 28.9414 17.5195 28.9414C17.5194 28.8912 17.5192 28.8409 17.519 28.7891C17.5152 27.5655 17.5122 26.3419 17.5104 25.1183C17.5095 24.5266 17.5083 23.9349 17.5063 23.3431C17.5045 22.8273 17.5034 22.3114 17.503 21.7956C17.5028 21.5225 17.5022 21.2495 17.5009 20.9764C17.4997 20.7192 17.4994 20.4619 17.4996 20.2047C17.4996 20.1105 17.4993 20.0164 17.4986 19.9222C17.4906 18.7551 17.4906 18.7551 17.8784 18.3176C17.9088 18.2816 17.9391 18.2456 17.9704 18.2085C18.4529 17.8265 18.9547 17.8378 19.5447 17.8525C19.627 17.8537 19.7092 17.8548 19.7915 17.8557C19.9913 17.8585 20.1909 17.8623 20.3906 17.8672C20.3897 17.7948 20.3888 17.7224 20.3878 17.6478C20.3846 17.378 20.3826 17.1081 20.381 16.8383C20.3801 16.7217 20.3789 16.6052 20.3774 16.4886C20.3752 16.3206 20.3742 16.1526 20.3735 15.9846C20.3726 15.9329 20.3716 15.8812 20.3707 15.8279C20.3706 15.5061 20.4025 15.2765 20.5664 14.9961C20.8368 14.7674 21.123 14.7957 21.4591 14.798ZM36.7383 16.3438C36.7383 17.1365 36.7383 17.9293 36.7383 18.7461C37.5311 18.7461 38.3238 18.7461 39.1406 18.7461C38.861 18.4176 38.861 18.4176 38.5672 18.1065C38.5275 18.0666 38.4879 18.0268 38.447 17.9857C38.4054 17.9443 38.3638 17.9028 38.321 17.8601C38.2774 17.8165 38.2338 17.7728 38.1889 17.7279C38.0976 17.6364 38.0061 17.5451 37.9146 17.4538C37.7739 17.3134 37.6334 17.1727 37.493 17.0319C37.404 16.9429 37.315 16.854 37.226 16.7651C37.1839 16.7228 37.1417 16.6805 37.0982 16.637C37.0595 16.5984 37.0207 16.5598 36.9808 16.5201C36.9466 16.486 36.9124 16.4518 36.8772 16.4166C36.8077 16.3372 36.8077 16.3372 36.7383 16.3438ZM18.3607 18.6603C18.1053 18.9942 18.0598 19.2071 18.1055 19.625C18.2433 19.9112 18.4165 20.0563 18.6914 20.2109C18.8854 20.2748 19.0657 20.2763 19.2691 20.2753C19.328 20.2751 19.3869 20.275 19.4476 20.2748C19.5219 20.2743 19.5963 20.2737 19.6729 20.2732C20.0281 20.2714 20.0281 20.2714 20.3906 20.2695C20.3906 19.6508 20.3906 19.032 20.3906 18.3945C20.1368 18.3909 19.8831 18.3873 19.6216 18.3835C19.5422 18.3819 19.4628 18.3803 19.381 18.3787C19.3176 18.3783 19.2543 18.3778 19.189 18.3774C19.0923 18.376 19.0923 18.376 18.9937 18.3746C18.743 18.4016 18.5457 18.4875 18.3607 18.6603ZM23.064 25.3013C22.9898 25.3609 22.9155 25.4205 22.8413 25.48C22.8038 25.5103 22.7662 25.5405 22.7276 25.5717C22.5644 25.7024 22.3987 25.8298 22.2327 25.9568C22.1697 26.0051 22.1068 26.0534 22.0438 26.1017C22.0128 26.1255 21.9817 26.1493 21.9497 26.1738C21.7912 26.2954 21.6329 26.4172 21.4746 26.5391C21.2877 26.6829 21.1007 26.8267 20.9136 26.9703C20.5478 27.2512 20.1832 27.5336 19.8193 27.8171C19.3462 28.1857 18.8702 28.5505 18.3935 28.9143C17.9694 29.2381 17.5472 29.5642 17.1264 29.8923C16.675 30.2442 16.2216 30.5928 15.7617 30.9336C15.7811 30.9723 15.8004 31.0109 15.8203 31.0508C21.0023 31.0508 26.1844 31.0508 31.5234 31.0508C31.4136 30.8312 31.3804 30.7793 31.1945 30.647C31.151 30.6156 31.1075 30.5842 31.0626 30.5518C31.0153 30.5182 30.968 30.4847 30.9192 30.4502C30.8178 30.3771 30.7165 30.3038 30.6152 30.2305C30.5624 30.1923 30.5095 30.154 30.455 30.1147C30.1866 29.9183 29.9232 29.7153 29.6594 29.5127C29.2966 29.2347 28.9317 28.9618 28.5577 28.6992C28.1859 28.4362 27.8265 28.1569 27.4651 27.8799C27.1806 27.6623 26.8947 27.448 26.6016 27.2422C26.1977 26.9586 25.8075 26.6578 25.4159 26.3576C25.0844 26.104 24.7498 25.8563 24.4082 25.6166C24.1697 25.4487 23.9414 25.271 23.717 25.0848C23.4494 24.9064 23.2691 25.133 23.064 25.3013ZM38.2031 30.582C38.1671 30.6126 38.1311 30.6432 38.0939 30.6747C37.4987 31.2172 37.2184 31.964 37.1484 32.75C37.141 32.9661 37.1416 33.182 37.1427 33.3982C37.1428 33.4587 37.1429 33.5191 37.143 33.5814C37.1433 33.773 37.144 33.9646 37.1448 34.1563C37.1451 34.2868 37.1453 34.4173 37.1456 34.5479C37.1462 34.8666 37.1472 35.1852 37.1484 35.5039C37.5352 35.5039 37.9219 35.5039 38.3203 35.5039C38.3209 35.4168 38.3214 35.3296 38.322 35.2398C38.3243 34.9141 38.3282 34.5883 38.3325 34.2626C38.3341 34.1221 38.3354 33.9815 38.3362 33.841C38.3375 33.638 38.3402 33.4352 38.3432 33.2323C38.3433 33.1702 38.3433 33.1082 38.3434 33.0443C38.3554 32.425 38.5157 31.9093 38.9479 31.4577C39.386 31.0854 39.8546 30.9698 40.4162 30.9759C40.9062 31.018 41.3732 31.2258 41.7188 31.5781C42.1502 32.1336 42.2037 32.7257 42.2118 33.4096C42.2129 33.4699 42.214 33.5302 42.2152 33.5924C42.2187 33.7828 42.2214 33.9732 42.2241 34.1636C42.2264 34.2936 42.2286 34.4236 42.231 34.5536C42.2366 34.8704 42.2415 35.1871 42.2461 35.5039C42.6135 35.5039 42.9809 35.5039 43.3594 35.5039C43.3637 35.0818 43.3669 34.6597 43.369 34.2375C43.3699 34.0942 43.3711 33.9508 43.3726 33.8074C43.3748 33.6004 43.3758 33.3935 43.3765 33.1865C43.3774 33.1232 43.3784 33.0598 43.3793 32.9946C43.3795 32.0807 43.0506 31.275 42.4164 30.6141C41.1907 29.54 39.4342 29.4843 38.2031 30.582ZM39.1992 31.9297C38.9673 32.2656 38.8399 32.5669 38.841 32.9762C38.841 33.0333 38.841 33.0903 38.841 33.1491C38.8413 33.2087 38.8416 33.2682 38.8419 33.3295C38.842 33.3846 38.8421 33.4396 38.8421 33.4964C38.8424 33.7017 38.8432 33.907 38.844 34.1123C38.8452 34.5715 38.8464 35.0308 38.8477 35.5039C39.7758 35.5039 40.7039 35.5039 41.6602 35.5039C41.6656 35.0963 41.6702 34.6888 41.673 34.2812C41.6742 34.1427 41.6758 34.0042 41.6778 33.8657C41.6807 33.666 41.682 33.4663 41.683 33.2666C41.6843 33.2052 41.6855 33.1439 41.6867 33.0806C41.6868 32.6295 41.6026 32.2702 41.3189 31.9118C40.9988 31.6421 40.6975 31.5011 40.2832 31.439C39.8823 31.4991 39.4884 31.6369 39.1992 31.9297ZM15.9961 32.9844C15.9328 33.1251 15.9328 33.1251 15.9375 33.2773C16.0325 33.4816 16.0995 33.5611 16.2891 33.6875C16.5442 33.6829 16.6592 33.669 16.842 33.4861C16.9438 33.3486 16.9438 33.3486 16.9336 33.2188C17.0508 33.2163 17.168 33.2164 17.2852 33.2188C17.3438 33.2773 17.3438 33.2773 17.3657 33.4641C17.3369 33.7568 17.2555 33.8343 17.0508 34.0391C17.0121 34.0584 16.9734 34.0777 16.9336 34.0977C16.9336 35.8959 16.9336 37.6941 16.9336 39.5469C17.591 39.5469 18.2484 39.5469 18.9258 39.5469C18.9324 38.8414 18.9378 38.136 18.941 37.4306C18.9425 37.103 18.9446 36.7755 18.9479 36.4479C18.9511 36.1318 18.9528 35.8158 18.9536 35.4997C18.9541 35.379 18.9552 35.2584 18.9568 35.1378C18.9589 34.9689 18.9592 34.8001 18.959 34.6311C18.9606 34.5563 18.9606 34.5563 18.9622 34.4799C18.96 34.2259 18.9532 34.1304 18.7845 33.9288C18.7345 33.8879 18.6844 33.8469 18.6328 33.8047C18.4984 33.6031 18.5002 33.5136 18.5156 33.2773C18.5742 33.2188 18.5742 33.2188 18.7061 33.1895C18.8672 33.2188 18.8672 33.2188 18.9475 33.3082C18.9984 33.3821 19.0476 33.4572 19.0949 33.5335C19.1552 33.6383 19.1552 33.6383 19.2773 33.6875C19.4859 33.7102 19.5904 33.7146 19.7644 33.5923C19.8866 33.4204 19.9176 33.3124 19.9219 33.1016C19.8203 32.8831 19.8203 32.8831 19.6289 32.75C19.5219 32.7435 19.4146 32.7407 19.3074 32.7396C19.2401 32.7389 19.1728 32.7381 19.1035 32.7374C19.0305 32.7369 18.9575 32.7365 18.8823 32.736C18.7702 32.7353 18.7702 32.7353 18.6559 32.7346C18.4976 32.7338 18.3393 32.7332 18.181 32.7327C17.9783 32.7321 17.7756 32.73 17.573 32.7277C17.3795 32.7258 17.1861 32.7256 16.9926 32.7251C16.9199 32.724 16.8471 32.723 16.7722 32.7219C16.7045 32.7221 16.6369 32.7223 16.5672 32.7225C16.4779 32.722 16.4779 32.722 16.3869 32.7214C16.1883 32.7577 16.1206 32.8288 15.9961 32.9844ZM21.7789 32.917C21.6666 33.0936 21.6666 33.0936 21.6724 33.2847C21.7565 33.4998 21.8281 33.5771 22.0312 33.6875C22.2412 33.6839 22.38 33.6739 22.5513 33.5483C22.6287 33.446 22.6287 33.446 22.6758 33.2773C22.7925 33.255 22.9097 33.2356 23.0273 33.2188C23.0859 33.2773 23.0859 33.2773 23.1042 33.4348C23.0815 33.6765 23.0013 33.7922 22.8516 33.9805C22.7936 34.0191 22.7355 34.0578 22.6758 34.0977C22.659 34.2729 22.6536 34.4359 22.6558 34.6112C22.6558 34.6644 22.6558 34.7175 22.6557 34.7723C22.6559 34.9486 22.6572 35.1248 22.6586 35.3011C22.6589 35.4231 22.6592 35.5451 22.6594 35.6671C22.66 35.9887 22.6618 36.3102 22.6637 36.6318C22.6655 36.9597 22.6663 37.2876 22.6672 37.6156C22.6691 38.2593 22.6722 38.9031 22.6758 39.5469C23.3332 39.5469 23.9906 39.5469 24.668 39.5469C24.6746 38.8404 24.68 38.134 24.6831 37.4276C24.6847 37.0995 24.6868 36.7715 24.6901 36.4435C24.6932 36.127 24.695 35.8106 24.6958 35.4941C24.6963 35.3733 24.6974 35.2524 24.6989 35.1316C24.7011 34.9625 24.7014 34.7936 24.7012 34.6245C24.7028 34.5493 24.7028 34.5493 24.7044 34.4726C24.7039 34.1803 24.7039 34.1803 24.5242 33.9544C24.4504 33.9093 24.4504 33.9093 24.375 33.8633C24.2414 33.6724 24.2425 33.5067 24.2578 33.2773C24.3164 33.2188 24.3164 33.2188 24.4519 33.1931C24.6094 33.2188 24.6094 33.2188 24.7339 33.3872C24.7883 33.4778 24.7883 33.4778 24.8438 33.5703C25.0123 33.7068 25.0123 33.7068 25.2209 33.6838C25.434 33.6443 25.434 33.6443 25.5762 33.5007C25.6781 33.3407 25.6781 33.3407 25.6641 33.1565C25.5964 32.9577 25.5337 32.8812 25.3711 32.75C25.213 32.7139 25.213 32.7139 25.0372 32.7178C24.9366 32.7161 24.9366 32.7161 24.8339 32.7144C24.7617 32.7145 24.6895 32.7146 24.6151 32.7148C24.5407 32.7143 24.4663 32.7138 24.3896 32.7132C24.2322 32.7126 24.0749 32.7124 23.9175 32.713C23.7163 32.7137 23.5151 32.7117 23.3139 32.709C23.1214 32.7068 22.9289 32.7073 22.7364 32.7074C22.6643 32.7064 22.5923 32.7053 22.518 32.7042C22.1045 32.6964 22.1045 32.6964 21.7789 32.917ZM27.4805 32.9844C27.4264 33.1698 27.4044 33.2835 27.4658 33.4678C27.5421 33.5873 27.5421 33.5873 27.7148 33.6875C27.8856 33.7217 27.8856 33.7217 28.0664 33.6875C28.2379 33.5433 28.3524 33.405 28.4766 33.2188C28.6267 33.2041 28.6267 33.2041 28.7695 33.2188C28.8281 33.2773 28.8281 33.2773 28.8464 33.4348C28.8236 33.6765 28.7435 33.7922 28.5938 33.9805C28.5357 34.0191 28.4777 34.0578 28.418 34.0977C28.4012 34.2729 28.3958 34.4359 28.398 34.6112C28.398 34.6644 28.398 34.7175 28.3979 34.7723C28.3981 34.9486 28.3994 35.1248 28.4008 35.3011C28.4011 35.4231 28.4014 35.5451 28.4016 35.6671C28.4022 35.9887 28.404 36.3102 28.4059 36.6318C28.4077 36.9597 28.4085 37.2876 28.4094 37.6156C28.4113 38.2593 28.4144 38.9031 28.418 39.5469C29.0754 39.5469 29.7328 39.5469 30.4102 39.5469C30.4168 38.8404 30.4221 38.134 30.4253 37.4276C30.4269 37.0995 30.4289 36.7715 30.4323 36.4435C30.4354 36.127 30.4372 35.8106 30.438 35.4941C30.4385 35.3733 30.4396 35.2524 30.4411 35.1316C30.4433 34.9625 30.4436 34.7936 30.4434 34.6245C30.445 34.5493 30.445 34.5493 30.4466 34.4726C30.4461 34.1803 30.4461 34.1803 30.2664 33.9544C30.1925 33.9093 30.1925 33.9093 30.1172 33.8633C29.9831 33.6717 29.9896 33.507 30 33.2773C30.2783 33.2188 30.2783 33.2188 30.4102 33.2188C30.4247 33.2635 30.4392 33.3082 30.4541 33.3543C30.5376 33.5337 30.5839 33.601 30.7617 33.6875C30.9643 33.6804 31.1112 33.6694 31.2817 33.5557C31.3702 33.4181 31.3984 33.3243 31.4062 33.1602C31.3251 32.9939 31.2439 32.8807 31.1133 32.75C30.9657 32.7312 30.9657 32.7312 30.7917 32.733C30.7245 32.7322 30.6572 32.7315 30.5879 32.7307C30.5149 32.7306 30.4419 32.7305 30.3667 32.7303C30.292 32.7299 30.2172 32.7295 30.1403 32.7291C29.982 32.7285 29.8237 32.7282 29.6653 32.7283C29.4627 32.7283 29.26 32.7267 29.0573 32.7247C28.8639 32.7231 28.6705 32.7231 28.477 32.723C28.3679 32.7217 28.3679 32.7217 28.2565 32.7204C28.1551 32.721 28.1551 32.721 28.0516 32.7215C27.9921 32.7214 27.9326 32.7212 27.8713 32.721C27.6722 32.7579 27.6041 32.8271 27.4805 32.9844ZM36.0352 36.0313C36.0315 36.8409 36.0279 37.6506 36.0242 38.4849C36.0226 38.7395 36.021 38.9942 36.0193 39.2566C36.0187 39.487 36.0187 39.487 36.0184 39.7174C36.0181 39.8192 36.0175 39.9209 36.0166 40.0227C36.0101 40.8024 36.0172 41.509 36.5625 42.125C37.0752 42.5473 37.5701 42.6608 38.2257 42.6618C38.2738 42.6621 38.3218 42.6624 38.3714 42.6627C38.5297 42.6635 38.688 42.6639 38.8463 42.6642C38.9007 42.6644 38.9551 42.6646 39.0111 42.6648C39.2991 42.6656 39.5872 42.6662 39.8752 42.6664C40.1711 42.6667 40.467 42.6682 40.7629 42.6698C40.9918 42.6709 41.2207 42.6712 41.4497 42.6713C41.5586 42.6715 41.6676 42.6719 41.7766 42.6727C42.8781 42.6969 42.8781 42.6969 43.843 42.2264C44.249 41.824 44.4913 41.3805 44.4945 40.8022C44.4939 40.7556 44.4933 40.709 44.4926 40.661C44.4926 40.6098 44.4927 40.5586 44.4927 40.5059C44.4925 40.3419 44.4912 40.1778 44.4898 40.0138C44.4896 39.9119 44.4894 39.81 44.4893 39.7081C44.4884 39.3321 44.4859 38.9561 44.4836 38.5801C44.48 37.739 44.4764 36.8979 44.4727 36.0313C41.6883 36.0313 38.9039 36.0313 36.0352 36.0313ZM16.4062 40.0742C16.3869 40.5576 16.3676 41.041 16.3477 41.5391C16.077 41.5584 15.8063 41.5777 15.5273 41.5977C15.5273 41.9457 15.5273 42.2938 15.5273 42.6523C20.9027 42.6523 26.2781 42.6523 31.8164 42.6523C31.8164 42.3043 31.8164 41.9563 31.8164 41.5977C31.5457 41.5977 31.275 41.5977 30.9961 41.5977C30.9768 41.0949 30.9574 40.5922 30.9375 40.0742C26.1422 40.0742 21.3469 40.0742 16.4062 40.0742Z" fill="black"/>
<path d="M41.1328 38.1445C41.4702 38.4311 41.68 38.7719 41.735 39.2123C41.7552 39.6833 41.5922 40.0574 41.3086 40.4297C41.2506 40.4684 41.1926 40.507 41.1328 40.5469C41.1028 40.7229 41.1028 40.7229 41.1028 40.93C41.1008 41.0063 41.0987 41.0826 41.0965 41.1612C41.0952 41.2421 41.0938 41.3229 41.0925 41.4038C41.0906 41.4851 41.0886 41.5665 41.0865 41.6478C41.0816 41.8472 41.0776 42.0466 41.0742 42.2461C40.8047 42.4003 40.5576 42.3848 40.2539 42.3853C40.201 42.3867 40.1482 42.3881 40.0937 42.3896C40.0426 42.3898 39.9916 42.3901 39.939 42.3903C39.8926 42.3908 39.8462 42.3913 39.7984 42.3917C39.613 42.3513 39.5455 42.2805 39.4336 42.1289C39.4081 41.9645 39.4081 41.9645 39.4123 41.7764C39.4123 41.7079 39.4122 41.6394 39.4122 41.5688C39.4142 41.4255 39.417 41.2823 39.4204 41.139C39.4189 40.6678 39.4189 40.6678 39.1747 40.2805C39.1048 40.213 39.0348 40.1455 38.9648 40.0781C38.7588 39.7009 38.7807 39.1981 38.8969 38.7934C39.0862 38.3734 39.3685 38.1425 39.7778 37.9468C40.2653 37.8493 40.7 37.886 41.1328 38.1445ZM39.6339 38.6973C39.4162 38.9488 39.3537 39.1575 39.3585 39.4888C39.3956 39.7599 39.5653 39.924 39.7668 40.0928C39.8116 40.1266 39.8563 40.1604 39.9023 40.1953C39.9793 40.3493 39.9734 40.4722 39.9795 40.6444C39.9832 40.7429 39.9832 40.7429 39.9869 40.8435C39.9892 40.9124 39.9915 40.9813 39.9939 41.0522C39.9964 41.1216 39.999 41.1909 40.0016 41.2624C40.0078 41.434 40.0138 41.6057 40.0195 41.7773C40.1936 41.7773 40.3676 41.7773 40.5469 41.7773C40.5465 41.733 40.5461 41.6887 40.5457 41.6431C40.5452 41.4412 40.5479 41.2395 40.5505 41.0376C40.5499 40.9679 40.5493 40.8982 40.5486 40.8263C40.5586 40.3151 40.5586 40.3151 40.6962 40.1355C40.8064 40.0452 40.8064 40.0452 40.9184 39.969C41.0898 39.8515 41.1217 39.7017 41.1726 39.5096C41.2045 39.2809 41.1859 39.1101 41.0742 38.9063C40.88 38.6727 40.6904 38.5234 40.4004 38.4302C40.1064 38.4407 39.8566 38.4954 39.6339 38.6973Z" fill="black"/>
</g>
<defs>
<clipPath id="clip0_98_65">
<rect width="30" height="30" fill="white" transform="translate(15 15)"/>
</clipPath>
</defs>
</svg>
