<svg width="60" height="60" viewBox="0 0 60 60" fill="none" xmlns="http://www.w3.org/2000/svg">
<path d="M9.36217 22.8213C10.3399 23.4043 10.9486 24.2116 11.25 25.3125C11.2777 25.6238 11.2946 25.9171 11.2939 26.228C11.294 26.3517 11.294 26.3517 11.2941 26.4778C11.2796 27.1659 11.1177 27.6544 10.7812 28.2422C10.7426 28.3582 10.7039 28.4742 10.6641 28.5937C10.766 28.6556 10.766 28.6556 10.87 28.7187C11.9527 29.403 12.6938 30.252 13.0723 31.502C13.1332 31.7976 13.1425 32.0719 13.1457 32.3737C13.148 32.5579 13.148 32.5579 13.1503 32.7458C13.1512 32.8778 13.152 33.0098 13.1529 33.1457C13.1539 33.2818 13.1548 33.4179 13.1558 33.5581C13.1574 33.8457 13.1587 34.1334 13.1596 34.421C13.1616 34.8616 13.1668 35.3021 13.1719 35.7426C13.1731 36.022 13.1741 36.3014 13.1749 36.5808C13.1769 36.7128 13.179 36.8447 13.1811 36.9807C13.1808 37.1035 13.1804 37.2263 13.1801 37.3528C13.1808 37.4607 13.1814 37.5686 13.1821 37.6797C13.1071 38.059 12.9497 38.1941 12.6562 38.4375C12.3624 38.6114 12.3624 38.6114 12.0557 38.7598C11.9538 38.8099 11.852 38.8601 11.7471 38.9117C11.4844 39.0234 11.4844 39.0234 11.25 39.0234C11.25 40.9957 11.25 42.968 11.25 45C13.1062 45 14.9625 45 16.875 45C16.875 43.0277 16.875 41.0555 16.875 39.0234C16.643 38.9461 16.4109 38.8687 16.1719 38.7891C15.9812 38.6968 15.7928 38.5994 15.6079 38.4961C15.5177 38.4465 15.4275 38.397 15.3346 38.3459C15.1172 38.2031 15.1172 38.2031 15 37.9687C14.987 37.777 14.9813 37.5847 14.9792 37.3924C14.977 37.2122 14.977 37.2122 14.9747 37.0283C14.9738 36.8977 14.973 36.7671 14.9721 36.6325C14.9711 36.4981 14.9702 36.3636 14.9692 36.225C14.9676 35.9395 14.9663 35.6539 14.9654 35.3683C14.9634 34.9346 14.9583 34.5011 14.9531 34.0674C14.9519 33.7897 14.9509 33.5119 14.9501 33.2341C14.948 33.1056 14.946 32.9772 14.9439 32.8448C14.9476 31.4941 15.3424 30.3909 16.2891 29.4141C16.6673 29.0838 17.0571 28.7748 17.4609 28.4766C17.4285 28.413 17.396 28.3494 17.3625 28.2838C17.3201 28.2 17.2776 28.1162 17.2339 28.0298C17.1707 27.9054 17.1707 27.9054 17.1062 27.7785C16.7141 26.955 16.7562 25.8393 16.9551 24.9573C17.3369 23.9307 18.0034 23.2158 18.9844 22.7344C19.9588 22.3421 21.2225 22.3248 22.2143 22.6904C23.2183 23.1722 23.8568 23.9053 24.2711 24.933C24.3905 25.369 24.4198 25.7791 24.4189 26.228C24.419 26.3104 24.4191 26.3929 24.4191 26.4778C24.4046 27.1659 24.2427 27.6544 23.9062 28.2422C23.8676 28.3582 23.8289 28.4742 23.7891 28.5937C23.891 28.6556 23.891 28.6556 23.995 28.7187C25.0777 29.403 25.8188 30.252 26.1973 31.502C26.2582 31.7976 26.2675 32.0719 26.2707 32.3737C26.273 32.5579 26.273 32.5579 26.2753 32.7458C26.2762 32.8778 26.277 33.0098 26.2779 33.1457C26.2789 33.2818 26.2798 33.4179 26.2808 33.5581C26.2824 33.8457 26.2837 34.1334 26.2846 34.421C26.2866 34.8616 26.2918 35.3021 26.2969 35.7426C26.2981 36.022 26.2991 36.3014 26.2999 36.5808C26.3019 36.7128 26.304 36.8447 26.3061 36.9807C26.3056 37.1649 26.3056 37.1649 26.3051 37.3528C26.3058 37.4607 26.3064 37.5686 26.3071 37.6797C26.2321 38.059 26.0747 38.1941 25.7812 38.4375C25.4874 38.6114 25.4874 38.6114 25.1807 38.7598C25.0788 38.8099 24.977 38.8601 24.8721 38.9117C24.6094 39.0234 24.6094 39.0234 24.375 39.0234C24.375 40.9957 24.375 42.968 24.375 45C28.0875 45 31.8 45 35.625 45C35.6064 42.7071 35.6064 42.7071 35.5828 40.4142C35.5814 40.127 35.5802 39.8398 35.5792 39.5526C35.5768 39.4032 35.5744 39.2538 35.5719 39.0998C35.5719 38.8858 35.5719 38.8858 35.5718 38.6674C35.5707 38.5435 35.5697 38.4197 35.5686 38.292C35.6392 37.8873 35.7743 37.7501 36.0937 37.5C36.3621 37.4468 36.3621 37.4468 36.6522 37.4542C36.8086 37.4565 36.8086 37.4565 36.9681 37.4588C37.0759 37.4627 37.1838 37.4666 37.2949 37.4707C37.4046 37.4728 37.5143 37.4749 37.6272 37.4771C37.8975 37.4826 38.1674 37.4903 38.4375 37.5C38.4417 36.9725 38.4367 36.4454 38.4302 35.918C38.4314 35.7693 38.4327 35.6207 38.4341 35.4675C38.4314 35.3225 38.4288 35.1775 38.426 35.0281C38.4251 34.8292 38.4251 34.8292 38.4242 34.6264C38.3127 34.189 38.2158 34.0838 37.9096 33.772C37.412 33.2423 37.3843 32.8271 37.4034 32.1204C37.4035 31.9579 37.4035 31.9579 37.4036 31.7922C37.4045 31.5645 37.4075 31.3368 37.4124 31.1091C37.4194 30.7626 37.4196 30.4166 37.4187 30.07C37.4205 29.8477 37.4227 29.6254 37.4254 29.4031C37.4255 29.3006 37.4257 29.1982 37.4258 29.0926C37.4489 28.2298 37.6676 27.5925 38.2983 26.9897C38.4252 26.8556 38.4252 26.8556 38.5547 26.7187C38.5159 26.4463 38.5159 26.4463 38.4375 26.1328C38.3042 24.3043 38.3042 24.3043 38.9062 23.5547C39.4693 22.9634 39.9799 22.5462 40.8128 22.4606C41.8108 22.4496 42.5011 22.4862 43.2381 23.188C43.8661 23.8675 44.0956 24.3741 44.0845 25.3125C44.0837 25.4527 44.083 25.5929 44.0822 25.7373C44.0625 26.1328 44.0625 26.1328 43.9783 26.4477C43.9144 26.7287 43.9144 26.7287 44.1051 26.9604C44.2181 27.0728 44.2181 27.0728 44.3335 27.1875C44.9979 27.8559 45.0399 28.4633 45.0517 29.3687C45.0533 29.4775 45.0549 29.5863 45.0566 29.6984C45.0593 29.9282 45.0614 30.158 45.0627 30.3878C45.0659 30.7374 45.0747 31.0867 45.0835 31.4362C45.0855 31.6601 45.0871 31.8841 45.0883 32.108C45.0918 32.2115 45.0953 32.3151 45.0989 32.4218C45.0937 33.1683 44.8832 33.4758 44.3662 34.001C44.0852 34.329 44.0759 34.6044 44.0739 35.0281C44.0712 35.159 44.0685 35.2899 44.0657 35.4247C44.0677 35.6689 44.0677 35.6689 44.0698 35.918C44.0674 36.44 44.065 36.9621 44.0625 37.5C45.3 37.5 46.5375 37.5 47.8125 37.5C47.8089 36.7169 47.8089 36.7169 47.8052 35.918C47.8065 35.7552 47.8079 35.5924 47.8093 35.4247C47.8052 35.2284 47.8052 35.2284 47.801 35.0281C47.8001 34.8292 47.8001 34.8292 47.7992 34.6264C47.6877 34.189 47.5908 34.0838 47.2846 33.772C46.787 33.2423 46.7593 32.8271 46.7784 32.1204C46.7785 31.9579 46.7785 31.9579 46.7786 31.7922C46.7795 31.5645 46.7825 31.3368 46.7874 31.1091C46.7944 30.7626 46.7946 30.4166 46.7937 30.07C46.7955 29.8477 46.7977 29.6254 46.8004 29.4031C46.8005 29.3006 46.8007 29.1982 46.8008 29.0926C46.8239 28.2298 47.0426 27.5925 47.6733 26.9897C47.8002 26.8556 47.8002 26.8556 47.9297 26.7187C47.8909 26.4463 47.8909 26.4463 47.8125 26.1328C47.6792 24.3043 47.6792 24.3043 48.2812 23.5547C48.8443 22.9634 49.3549 22.5462 50.1878 22.4606C51.1858 22.4496 51.8761 22.4862 52.6131 23.188C53.2411 23.8675 53.4706 24.3741 53.4595 25.3125C53.4587 25.4527 53.458 25.5929 53.4572 25.7373C53.4375 26.1328 53.4375 26.1328 53.3533 26.4477C53.2894 26.7287 53.2894 26.7287 53.4801 26.9604C53.5931 27.0728 53.5931 27.0728 53.7085 27.1875C54.3729 27.8559 54.4149 28.4633 54.4267 29.3687C54.4283 29.4775 54.4299 29.5863 54.4316 29.6984C54.4343 29.9282 54.4364 30.158 54.4377 30.3878C54.4409 30.7374 54.4497 31.0867 54.4585 31.4362C54.4605 31.6601 54.4621 31.8841 54.4633 32.108C54.4668 32.2115 54.4703 32.3151 54.4739 32.4218C54.4687 33.1683 54.2582 33.4758 53.7412 34.001C53.4602 34.329 53.4509 34.6044 53.4489 35.0281C53.4463 35.1731 53.4436 35.3181 53.4409 35.4675C53.4422 35.6162 53.4435 35.7648 53.4448 35.918C53.4429 36.0702 53.441 36.2225 53.4391 36.3794C53.435 36.753 53.4345 37.1263 53.4375 37.5C53.5403 37.4963 53.5403 37.4963 53.6452 37.4926C53.9568 37.4828 54.2684 37.4767 54.5801 37.4707C54.6879 37.4668 54.7958 37.4628 54.9069 37.4588C55.0111 37.4573 55.1154 37.4558 55.2228 37.4542C55.3185 37.4518 55.4142 37.4493 55.5129 37.4468C55.888 37.5212 56.0121 37.673 56.25 37.9687C56.3064 38.292 56.3064 38.292 56.3032 38.6674C56.3032 38.8785 56.3032 38.8785 56.3031 39.0939C56.2995 39.3209 56.2995 39.3209 56.2958 39.5526C56.2949 39.7096 56.2942 39.8665 56.2938 40.0235C56.292 40.4358 56.2874 40.8481 56.2822 41.2603C56.2774 41.6814 56.2752 42.1024 56.2729 42.5235C56.2679 43.349 56.2596 44.1745 56.25 45C56.8687 45 57.4875 45 58.125 45C58.125 45.6187 58.125 46.2375 58.125 46.875C49.4625 46.9137 40.8 46.9523 31.875 46.9922C33.0803 49.131 33.0803 49.131 34.3213 51.2475C35.1809 52.6898 36.0254 54.1401 36.8582 55.598C36.9645 55.7826 37.0722 55.9664 37.1823 56.1487C37.5216 56.7144 37.5848 57.0092 37.5 57.6562C37.2684 57.9536 37.1278 58.1043 36.7553 58.184C36.6013 58.1842 36.6013 58.1842 36.4442 58.1845C36.2667 58.1865 36.2667 58.1865 36.0857 58.1885C35.9566 58.1876 35.8276 58.1866 35.6946 58.1856C35.5581 58.1865 35.4216 58.1873 35.281 58.1881C34.8292 58.1902 34.3775 58.1888 33.9258 58.1872C33.6123 58.1876 33.2988 58.188 32.9853 58.1886C32.328 58.1895 31.6708 58.1883 31.0135 58.1861C30.2538 58.1835 29.4942 58.1844 28.7345 58.187C28.082 58.1891 27.4295 58.1894 26.7771 58.1882C26.3875 58.1874 25.9979 58.1875 25.6083 58.1889C25.174 58.1901 24.7397 58.1883 24.3054 58.1856C24.1763 58.1866 24.0473 58.1875 23.9143 58.1885C23.796 58.1872 23.6777 58.1859 23.5558 58.1845C23.4532 58.1843 23.3505 58.1842 23.2447 58.184C22.8734 58.1046 22.733 57.9504 22.5 57.6562C22.3099 56.7023 22.8428 56.0093 23.3203 55.2173C23.4058 55.072 23.4912 54.9266 23.5764 54.7811C23.7971 54.4052 24.0202 54.0308 24.244 53.6567C24.4489 53.3138 24.652 52.9698 24.8552 52.6259C25.0866 52.2346 25.3183 51.8434 25.5508 51.4527C26.1208 50.495 26.6822 49.5325 27.2388 48.5669C27.3522 48.3702 27.3522 48.3702 27.4679 48.1695C27.808 47.5871 27.808 47.5871 28.125 46.9922C19.4625 46.9535 10.8 46.9148 1.87499 46.875C1.87499 46.2562 1.87499 45.6375 1.87499 45C2.49374 45 3.11249 45 3.74999 45C3.74999 43.0277 3.74999 41.0555 3.74999 39.0234C3.51796 38.9461 3.28593 38.8687 3.04687 38.7891C2.85617 38.6968 2.66783 38.5994 2.4829 38.4961C2.39272 38.4465 2.30253 38.397 2.20962 38.3459C1.99218 38.2031 1.99218 38.2031 1.87499 37.9687C1.86204 37.777 1.85634 37.5847 1.85425 37.3924C1.85275 37.2723 1.85124 37.1521 1.84969 37.0283C1.84883 36.8977 1.84796 36.7671 1.84707 36.6325C1.84612 36.4981 1.84518 36.3636 1.8442 36.225C1.84258 35.9395 1.84132 35.6539 1.8404 35.3683C1.8384 34.9346 1.83326 34.5011 1.82807 34.0674C1.82688 33.7897 1.82589 33.5119 1.8251 33.2341C1.82304 33.1056 1.82099 32.9772 1.81888 32.8448C1.82263 31.4941 2.21736 30.3909 3.16405 29.4141C3.5423 29.0838 3.93209 28.7748 4.33593 28.4766C4.28721 28.3812 4.28721 28.3812 4.23751 28.2838C4.19506 28.2 4.15261 28.1162 4.10888 28.0298C4.06673 27.9468 4.02459 27.8639 3.98116 27.7785C3.58912 26.955 3.63119 25.8393 3.8301 24.9573C4.2119 23.9307 4.87841 23.2158 5.85937 22.7344C6.93071 22.3031 8.31575 22.3192 9.36217 22.8213ZM5.93261 25.2685C5.67432 25.805 5.64876 26.2506 5.74218 26.8359C6.01519 27.4029 6.34703 27.7348 6.91405 28.0078C7.49934 28.1012 7.94499 28.0757 8.48144 27.8174C8.90145 27.4374 9.21038 27.133 9.30267 26.5549C9.33267 25.8888 9.25034 25.4708 8.78905 24.9609C8.27922 24.4996 7.86119 24.4173 7.19512 24.4473C6.61696 24.5396 6.31262 24.8485 5.93261 25.2685ZM19.0576 25.2685C18.7993 25.805 18.7738 26.2506 18.8672 26.8359C19.1402 27.4029 19.472 27.7348 20.0391 28.0078C20.6243 28.1012 21.07 28.0757 21.6064 27.8174C22.0264 27.4374 22.3354 27.133 22.4277 26.5549C22.4577 25.8888 22.3753 25.4708 21.9141 24.9609C21.4042 24.4996 20.9862 24.4173 20.3201 24.4473C19.742 24.5396 19.4376 24.8485 19.0576 25.2685ZM40.6201 24.6826C40.3726 25.0443 40.358 25.2338 40.4297 25.6641C40.6055 25.957 40.6055 25.957 40.8984 26.1328C41.3287 26.2045 41.5181 26.1899 41.8799 25.9424C42.1274 25.5806 42.142 25.3912 42.0703 24.9609C41.8945 24.668 41.8945 24.668 41.6016 24.4922C41.1713 24.4205 40.9818 24.4351 40.6201 24.6826ZM49.9951 24.6826C49.7476 25.0443 49.733 25.2338 49.8047 25.6641C49.9805 25.957 49.9805 25.957 50.2734 26.1328C50.7037 26.2045 50.8931 26.1899 51.2549 25.9424C51.5024 25.5806 51.517 25.3912 51.4453 24.9609C51.2695 24.668 51.2695 24.668 50.9766 24.4922C50.5463 24.4205 50.3568 24.4351 49.9951 24.6826ZM39.6094 28.4766C39.2543 29.169 39.318 29.9209 39.3091 30.6811C39.3033 30.8271 39.2974 30.9731 39.2914 31.1236C39.2546 31.8995 39.2546 31.8995 39.5584 32.5803C39.6323 32.6465 39.7062 32.7127 39.7824 32.7809C40.2644 33.2389 40.2801 33.6613 40.301 34.2956C40.3092 34.6803 40.3079 35.0645 40.3052 35.4492C40.3067 35.6482 40.3086 35.8472 40.3109 36.0461C40.3163 36.531 40.3142 37.0149 40.3125 37.5C40.9312 37.5 41.55 37.5 42.1875 37.5C42.1864 37.2063 42.1854 36.9127 42.1843 36.6101C42.186 36.3231 42.1892 36.0361 42.1925 35.749C42.194 35.5508 42.1941 35.3526 42.1927 35.1544C42.1823 33.4684 42.1823 33.4684 42.492 32.9947C42.6396 32.8542 42.7893 32.7158 42.9411 32.5798C43.3478 32.0578 43.2211 31.3179 43.1982 30.6885C43.1971 30.4689 43.1971 30.4689 43.1959 30.2449C43.1827 29.5163 43.1549 28.9976 42.7734 28.3594C42.3035 28.0687 41.7956 28.0859 41.2573 28.0884C41.1764 28.0865 41.0955 28.0846 41.0122 28.0826C40.4583 28.0821 40.0681 28.1627 39.6094 28.4766ZM48.9844 28.4766C48.6293 29.169 48.693 29.9209 48.6841 30.6811C48.6783 30.8271 48.6724 30.9731 48.6664 31.1236C48.6296 31.8995 48.6296 31.8995 48.9334 32.5803C49.0073 32.6465 49.0812 32.7127 49.1574 32.7809C49.6394 33.2389 49.6551 33.6613 49.676 34.2956C49.6842 34.6803 49.6829 35.0645 49.6802 35.4492C49.6817 35.6482 49.6836 35.8472 49.6859 36.0461C49.6913 36.531 49.6892 37.0149 49.6875 37.5C50.3062 37.5 50.925 37.5 51.5625 37.5C51.5614 37.2063 51.5604 36.9127 51.5593 36.6101C51.561 36.3231 51.5642 36.0361 51.5675 35.749C51.569 35.5508 51.5691 35.3526 51.5677 35.1544C51.5573 33.4684 51.5573 33.4684 51.867 32.9947C52.0146 32.8542 52.1643 32.7158 52.3161 32.5798C52.7228 32.0578 52.5961 31.3179 52.5732 30.6885C52.5721 30.4689 52.5721 30.4689 52.5709 30.2449C52.5577 29.5163 52.5299 28.9976 52.1484 28.3594C51.6785 28.0687 51.1706 28.0859 50.6323 28.0884C50.5514 28.0865 50.4705 28.0846 50.3872 28.0826C49.8333 28.0821 49.4431 28.1627 48.9844 28.4766ZM4.61379 30.8954C3.82845 31.7659 3.73047 32.6283 3.73855 33.7784C3.73871 33.8684 3.73888 33.9585 3.73905 34.0512C3.7397 34.3366 3.74117 34.6219 3.74267 34.9072C3.74326 35.1016 3.74379 35.296 3.74427 35.4904C3.74556 35.965 3.74758 36.4395 3.74999 36.9141C3.9256 36.9988 3.9256 36.9988 4.10476 37.0853C4.25752 37.16 4.41026 37.2348 4.56298 37.3096C4.67888 37.3653 4.67888 37.3653 4.79713 37.4222C5.37734 37.7078 5.37734 37.7078 5.5078 37.9687C5.52186 38.1925 5.52858 38.4167 5.53187 38.6408C5.5342 38.7815 5.53654 38.9223 5.53895 39.0673C5.54091 39.2199 5.54287 39.3725 5.54488 39.5297C5.54729 39.687 5.54975 39.8443 5.55226 40.0016C5.55873 40.4158 5.56452 40.83 5.57017 41.2443C5.57606 41.6669 5.58258 42.0894 5.58906 42.512C5.60172 43.3414 5.61333 44.1707 5.62499 45C6.86249 45 8.09999 45 9.37499 45C9.37937 44.4965 9.38375 43.993 9.38827 43.4743C9.39273 43.073 9.39755 42.6717 9.40259 42.2704C9.40783 41.8467 9.41245 41.423 9.41559 40.9993C9.41864 40.5913 9.42337 40.1833 9.42927 39.7752C9.43218 39.5437 9.43334 39.3122 9.43448 39.0806C9.4368 38.9399 9.43912 38.7991 9.44151 38.6541C9.44281 38.53 9.44411 38.4058 9.44545 38.2779C9.4988 37.9249 9.56193 37.8274 9.84374 37.6172C10.082 37.4861 10.3241 37.3621 10.5688 37.2436C10.6962 37.1816 10.8235 37.1195 10.9547 37.0555C11.0522 37.0088 11.1496 36.9621 11.25 36.9141C11.2558 36.3492 11.2601 35.7844 11.2629 35.2196C11.264 35.0279 11.2656 34.8362 11.2677 34.6444C11.3396 32.7356 11.3396 32.7356 10.5469 31.0547C9.57358 30.0883 8.60765 29.9745 7.2714 29.9788C6.21128 29.993 5.3888 30.1148 4.61379 30.8954ZM17.7388 30.8954C16.9534 31.7659 16.8555 32.6283 16.8635 33.7784C16.8637 33.8684 16.8639 33.9585 16.8641 34.0512C16.8647 34.3366 16.8662 34.6219 16.8677 34.9072C16.8683 35.1016 16.8688 35.296 16.8693 35.4904C16.8706 35.965 16.8726 36.4395 16.875 36.9141C17.0506 36.9988 17.0506 36.9988 17.2298 37.0853C17.3825 37.16 17.5353 37.2348 17.688 37.3096C17.8039 37.3653 17.8039 37.3653 17.9221 37.4222C18.5023 37.7078 18.5023 37.7078 18.6328 37.9687C18.6469 38.1925 18.6536 38.4167 18.6569 38.6408C18.6592 38.7815 18.6615 38.9223 18.6639 39.0673C18.6659 39.2199 18.6679 39.3725 18.6699 39.5297C18.6723 39.687 18.6748 39.8443 18.6773 40.0016C18.6837 40.4158 18.6895 40.83 18.6952 41.2443C18.7011 41.6669 18.7076 42.0894 18.7141 42.512C18.7267 43.3414 18.7383 44.1707 18.75 45C19.9875 45 21.225 45 22.5 45C22.5044 44.4965 22.5088 43.993 22.5133 43.4743C22.5177 43.073 22.5225 42.6717 22.5276 42.2704C22.5328 41.8467 22.5375 41.423 22.5406 40.9993C22.5436 40.5913 22.5484 40.1833 22.5543 39.7752C22.5572 39.5437 22.5583 39.3122 22.5595 39.0806C22.5618 38.9399 22.5641 38.7991 22.5665 38.6541C22.5678 38.53 22.5691 38.4058 22.5705 38.2779C22.6238 37.9249 22.6869 37.8274 22.9687 37.6172C23.207 37.4861 23.4491 37.3621 23.6938 37.2436C23.8212 37.1816 23.9485 37.1195 24.0797 37.0555C24.1772 37.0088 24.2746 36.9621 24.375 36.9141C24.3808 36.3492 24.3851 35.7844 24.3879 35.2196C24.389 35.0279 24.3906 34.8362 24.3927 34.6444C24.4646 32.7356 24.4646 32.7356 23.6719 31.0547C22.6986 30.0883 21.7327 29.9745 20.3964 29.9788C19.3363 29.993 18.5138 30.1148 17.7388 30.8954ZM37.5 39.375C37.5 41.2312 37.5 43.0875 37.5 45C39.975 45 42.45 45 45 45C45 43.1437 45 41.2875 45 39.375C42.525 39.375 40.05 39.375 37.5 39.375ZM46.875 39.375C46.875 41.2312 46.875 43.0875 46.875 45C49.35 45 51.825 45 54.375 45C54.375 43.1437 54.375 41.2875 54.375 39.375C51.9 39.375 49.425 39.375 46.875 39.375ZM29.8828 48.0469C29.8394 48.1226 29.7959 48.1983 29.7512 48.2763C28.892 49.7733 28.0263 51.2658 27.1435 52.749C26.6233 53.6237 26.1051 54.4991 25.6055 55.3857C25.5624 55.462 25.5192 55.5383 25.4748 55.617C25.2789 55.9161 25.2789 55.9161 25.1953 56.25C28.3664 56.25 31.5375 56.25 34.8047 56.25C34.2702 55.1661 34.2702 55.1661 33.6845 54.1214C33.6111 53.9987 33.5378 53.876 33.4621 53.7495C33.3855 53.6224 33.3089 53.4952 33.23 53.3642C33.0646 53.0879 32.8996 52.8114 32.7347 52.5348C32.672 52.4297 32.672 52.4297 32.608 52.3226C32.0721 51.423 31.5511 50.515 31.0295 49.6071C30.9609 49.4877 30.8923 49.3683 30.8217 49.2453C30.7618 49.1408 30.7019 49.0364 30.6403 48.9288C30.5837 48.8311 30.5271 48.7334 30.4687 48.6328C30.4083 48.5235 30.3478 48.4142 30.2856 48.3016C30.23 48.2175 30.1744 48.1335 30.1172 48.0469C30.0398 48.0469 29.9625 48.0469 29.8828 48.0469Z" fill="currentColor"/>
<path d="M26.25 12.1875C28.725 12.1875 31.2 12.1875 33.75 12.1875C33.75 12.8063 33.75 13.425 33.75 14.0625C31.275 14.0625 28.8 14.0625 26.25 14.0625C26.25 13.4437 26.25 12.825 26.25 12.1875Z" fill="currentColor"/>
<path d="M26.25 8.4375C28.725 8.4375 31.2 8.4375 33.75 8.4375C33.75 9.05625 33.75 9.675 33.75 10.3125C31.275 10.3125 28.8 10.3125 26.25 10.3125C26.25 9.69375 26.25 9.075 26.25 8.4375Z" fill="currentColor"/>
<path d="M34.6779 17.1199C35.0262 17.2722 35.187 17.5003 35.4199 17.7979C35.5027 17.9015 35.5855 18.0051 35.6708 18.1119C35.8594 18.3984 35.8594 18.3984 35.8594 18.75C35.598 18.9555 35.598 18.9555 35.2515 19.1675C35.1386 19.2377 35.0258 19.308 34.9095 19.3803C34.5703 19.5703 34.5703 19.5703 33.9844 19.8047C33.7137 19.2246 33.443 18.6445 33.1641 18.0469C34.3424 17.1042 34.3424 17.1042 34.6779 17.1199Z" fill="currentColor"/>
<path d="M36.6797 14.4141C37.3459 14.6069 37.9414 14.9168 38.5547 15.2344C38.4454 15.4593 38.3354 15.6838 38.2251 15.9082C38.1639 16.0333 38.1027 16.1584 38.0397 16.2872C37.8795 16.5882 37.7136 16.8451 37.5 17.1094C37.0369 17.0412 36.771 16.8104 36.416 16.5161C36.3115 16.4302 36.2069 16.3442 36.0992 16.2556C36.0201 16.1893 35.9409 16.123 35.8594 16.0547C35.9366 15.6363 36.1128 15.3308 36.3354 14.9707C36.3997 14.8662 36.4639 14.7616 36.53 14.6539C36.6041 14.5352 36.6041 14.5352 36.6797 14.4141Z" fill="currentColor"/>
<path d="M25.9039 2.80472C26.2767 3.00827 26.3686 3.37904 26.5137 3.75732C26.62 4.02561 26.7264 4.2939 26.8359 4.57031C26.3332 4.87969 25.8305 5.18906 25.3125 5.50781C24.909 5.10432 24.6337 4.81802 24.3384 4.35791C24.2784 4.26531 24.2184 4.17271 24.1566 4.0773C24.1127 4.00796 24.0687 3.93863 24.0234 3.86719C24.2087 3.73496 24.3943 3.60322 24.5801 3.47168C24.6834 3.39826 24.7867 3.32485 24.8932 3.24921C25.5392 2.81655 25.5392 2.81655 25.9039 2.80472Z" fill="currentColor"/>
<path d="M24.1438 15.9352C24.4671 16.1023 24.6805 16.3271 24.9316 16.5894C25.0253 16.6862 25.119 16.783 25.2155 16.8828C25.2862 16.9576 25.3568 17.0323 25.4297 17.1094C25.0468 17.6237 24.6622 18.1351 24.2578 18.6328C23.5611 18.3232 23.0585 17.8367 22.6172 17.2266C22.762 16.7921 22.9458 16.664 23.2983 16.377C23.4006 16.2918 23.5029 16.2066 23.6082 16.1188C23.9062 15.9375 23.9062 15.9375 24.1438 15.9352Z" fill="currentColor"/>
<path d="M38.5107 11.1255C38.6349 11.1263 38.6349 11.1263 38.7616 11.1271C38.9661 11.1285 39.1705 11.1306 39.375 11.1328C39.3782 11.394 39.3804 11.6553 39.3823 11.9165C39.3837 12.062 39.385 12.2074 39.3864 12.3573C39.3767 12.7104 39.3408 13.0175 39.2578 13.3594C38.5719 13.299 37.9301 13.189 37.2656 13.0078C37.2789 12.7172 37.2938 12.4267 37.3096 12.1362C37.3132 12.0534 37.3168 11.9705 37.3206 11.8851C37.3328 11.6728 37.3569 11.4611 37.3828 11.25C37.742 11.0704 38.1173 11.1208 38.5107 11.1255Z" fill="currentColor"/>
<path d="M38.5547 7.14844C38.6536 7.38964 38.7509 7.63146 38.8477 7.87354C38.902 8.00813 38.9564 8.14273 39.0125 8.2814C39.1299 8.63905 39.1686 8.88646 39.1406 9.25781C38.8968 9.32017 38.6526 9.3809 38.4082 9.44092C38.2722 9.47491 38.1363 9.5089 37.9962 9.54391C37.4192 9.64357 37.4192 9.64357 37.1484 9.49219C37.0001 9.18137 37.0001 9.18137 36.8848 8.79639C36.8455 8.66965 36.8062 8.5429 36.7657 8.41232C36.6797 8.08594 36.6797 8.08594 36.6797 7.85156C36.9259 7.73356 37.1726 7.61656 37.4194 7.5C37.5567 7.43474 37.6941 7.36948 37.8355 7.30225C38.2031 7.14844 38.2031 7.14844 38.5547 7.14844Z" fill="currentColor"/>
<path d="M22.5 5.39062C22.9631 5.4588 23.229 5.68964 23.584 5.98389C23.6885 6.06984 23.7931 6.1558 23.9008 6.24435C23.9799 6.31067 24.0591 6.37699 24.1406 6.44531C24.0634 6.86372 23.8872 7.16922 23.6646 7.5293C23.6003 7.63383 23.5361 7.73837 23.47 7.84607C23.4206 7.92523 23.3712 8.00438 23.3203 8.08594C22.6541 7.89309 22.0586 7.58316 21.4453 7.26562C21.5546 7.04073 21.6646 6.81618 21.7749 6.5918C21.8361 6.46672 21.8973 6.34164 21.9603 6.21277C22.1205 5.91184 22.2864 5.65492 22.5 5.39062Z" fill="currentColor"/>
<path d="M26.7188 17.9297C27.2215 18.0844 27.7242 18.2391 28.2422 18.3984C28.357 18.9725 28.3398 19.1821 28.1909 19.7241C28.1404 19.912 28.1404 19.912 28.0888 20.1036C28.0621 20.1983 28.0354 20.293 28.0078 20.3906C27.2331 20.3332 26.6074 20.1171 25.8984 19.8047C26.0016 19.0904 26.3666 18.5517 26.7188 17.9297Z" fill="currentColor"/>
<path d="M35.7422 3.86719C36.4453 4.17968 36.9244 4.671 37.3828 5.27344C37.3828 5.35078 37.3828 5.42812 37.3828 5.50781C37.152 5.69807 36.9219 5.87527 36.6797 6.0498C36.6126 6.09905 36.5455 6.1483 36.4764 6.19904C36.3103 6.32087 36.1435 6.44177 35.9766 6.5625C35.572 6.38939 35.3145 6.15962 35.0098 5.84473C34.927 5.75983 34.8442 5.67493 34.7589 5.58746C34.6967 5.52251 34.6344 5.45755 34.5703 5.39062C35.2911 4.26627 35.2911 4.26627 35.7422 3.86719Z" fill="currentColor"/>
<path d="M31.9922 1.99219C32.256 2.06485 32.5197 2.13823 32.7832 2.21191C32.93 2.2527 33.0769 2.29349 33.2281 2.33551C33.5449 2.43368 33.8141 2.53416 34.1016 2.69531C33.9087 3.36153 33.5988 3.95705 33.2812 4.57031C33.0297 4.49508 32.7782 4.41929 32.5269 4.34326C32.3868 4.30112 32.2468 4.25897 32.1025 4.21555C31.7578 4.10156 31.7578 4.10156 31.6406 3.98438C31.6466 3.74542 31.6466 3.74542 31.6772 3.44238C31.6865 3.34419 31.6957 3.246 31.7052 3.14484C31.7679 2.74898 31.8763 2.37548 31.9922 1.99219Z" fill="currentColor"/>
<path d="M20.7422 9.14062C21.4281 9.20096 22.0699 9.31097 22.7344 9.49219C22.6957 10.0723 22.657 10.6523 22.6172 11.25C22.1677 11.3624 21.8176 11.3791 21.3574 11.3745C21.2203 11.3735 21.0831 11.3724 20.9418 11.3713C20.8372 11.3699 20.7327 11.3686 20.625 11.3672C20.6218 11.106 20.6196 10.8447 20.6177 10.5835C20.6156 10.3653 20.6156 10.3653 20.6136 10.1427C20.6233 9.78957 20.6592 9.48249 20.7422 9.14062Z" fill="currentColor"/>
<path d="M22.8516 13.0078C22.9999 13.3186 22.9999 13.3186 23.1152 13.7036C23.1545 13.8304 23.1938 13.9571 23.2342 14.0877C23.3203 14.4141 23.3203 14.4141 23.3203 14.6484C23.0741 14.7664 22.8274 14.8834 22.5806 15C22.4432 15.0653 22.3059 15.1305 22.1645 15.1978C21.7969 15.3516 21.7969 15.3516 21.4453 15.3516C21.3464 15.1104 21.2491 14.8685 21.1523 14.6265C21.098 14.4919 21.0436 14.3573 20.9875 14.2186C20.8701 13.861 20.8314 13.6135 20.8594 13.2422C21.1032 13.1798 21.3474 13.1191 21.5918 13.0591C21.7277 13.0251 21.8637 12.9911 22.0038 12.9561C22.5808 12.8564 22.5808 12.8564 22.8516 13.0078Z" fill="currentColor"/>
<path d="M29.2822 1.86036C29.4848 1.86353 29.4848 1.86353 29.6915 1.86676C29.7933 1.86948 29.8951 1.8722 30 1.875C30.0031 2.18507 30.0055 2.49511 30.0073 2.80518C30.0083 2.89363 30.0093 2.98207 30.0103 3.0732C30.0113 3.29883 30.0061 3.52446 30 3.75C29.7725 3.97745 29.3586 3.91397 29.0552 3.93311C28.7869 3.95003 28.5186 3.96695 28.2422 3.98438C28.0875 3.36563 27.9328 2.74688 27.7734 2.10938C28.3721 1.90981 28.679 1.84804 29.2822 1.86036Z" fill="currentColor"/>
<path d="M31.7578 18.5156C31.8173 18.7376 31.8757 18.9598 31.9336 19.1821C31.9662 19.3058 31.9988 19.4296 32.0325 19.557C32.1022 19.8881 32.1243 20.1713 32.1094 20.5078C31.6409 20.6199 31.2061 20.6372 30.7251 20.6323C30.589 20.6313 30.4529 20.6302 30.3126 20.6291C30.2095 20.6278 30.1063 20.6264 30 20.625C29.9968 20.3149 29.9945 20.0049 29.9927 19.6948C29.9917 19.6064 29.9907 19.5179 29.9897 19.4268C29.9887 19.2012 29.9939 18.9755 30 18.75C30.1905 18.5594 30.4188 18.5911 30.6811 18.5669C30.7834 18.5571 30.8857 18.5473 30.991 18.5371C31.2461 18.5187 31.5021 18.5156 31.7578 18.5156Z" fill="currentColor"/>
</svg>
