<svg width="60" height="60" viewBox="0 0 60 60" fill="none" xmlns="http://www.w3.org/2000/svg">
<g clip-path="url(#clip0_81_234)">
<path d="M34.7278 0.0984202C34.9727 0.242728 35.1769 0.398535 35.3906 0.585939C35.4727 0.656787 35.5547 0.727635 35.6392 0.80063C36.1487 1.27457 36.6333 1.76798 36.7969 2.46094C36.7814 2.72488 36.7614 2.98858 36.7383 3.25195C36.7147 3.79763 36.7583 4.10732 37.1082 4.51996C37.4513 4.87606 37.8196 5.19616 38.2031 5.50781C38.33 5.45086 38.4569 5.39391 38.5877 5.33524C39.0256 5.13871 39.3598 5.09575 39.8438 5.15625C40.5763 5.50461 41.0842 5.99925 41.6455 6.57715C41.7303 6.6625 41.815 6.74785 41.9023 6.83579C42.6426 7.58721 42.6426 7.58721 42.6929 8.12988C42.6563 8.55469 42.6563 8.55469 42.4585 8.83301C42.151 9.04913 41.9778 9.13145 41.6016 9.14063C41.0402 8.86975 40.6457 8.44621 40.2173 8.00537C40.1473 7.9343 40.0773 7.86322 40.0051 7.78999C39.8336 7.61574 39.6628 7.44075 39.4922 7.26563C38.8096 7.83239 38.1826 8.44212 37.5568 9.07053C37.4481 9.17922 37.3394 9.28791 37.2274 9.39989C36.9316 9.69569 36.6361 9.99185 36.3407 10.2881C36.0311 10.5984 35.7211 10.9085 35.4112 11.2185C34.8254 11.8047 34.2399 12.3912 33.6544 12.9778C32.9875 13.646 32.3203 14.3139 31.653 14.9817C30.2813 16.3546 28.9101 17.728 27.5391 19.1016C27.718 19.5238 27.9678 19.7936 28.291 20.1161C28.3998 20.2252 28.5086 20.3343 28.6207 20.4467C28.7416 20.5668 28.8625 20.6868 28.9834 20.8068C29.1105 20.9339 29.2375 21.0609 29.3645 21.1881C29.7092 21.5328 30.0546 21.8769 30.4002 22.2208C30.7613 22.5805 31.1217 22.9407 31.4822 23.3009C32.1648 23.9829 32.8481 24.6642 33.5316 25.3453C34.3097 26.1208 35.0871 26.897 35.8645 27.6732C37.4636 29.2699 39.0636 30.8657 40.6641 32.4609C41.0636 32.2882 41.3233 32.0651 41.6296 31.7579C41.7279 31.66 41.8262 31.5621 41.9274 31.4611C42.0876 31.2997 42.0876 31.2997 42.251 31.135C42.3653 31.0206 42.4797 30.9063 42.5941 30.792C42.9043 30.4819 43.2137 30.1711 43.523 29.8601C43.8465 29.5352 44.1707 29.2109 44.4948 28.8865C45.1082 28.2723 45.7211 27.6575 46.3337 27.0426C47.0313 26.3424 47.7295 25.6429 48.4278 24.9434C49.8641 23.5047 51.2995 22.0651 52.7344 20.625C52.2481 20.0435 51.7411 19.5022 51.1984 18.9734C51.0326 18.8107 50.8667 18.6479 50.7009 18.4851C50.6141 18.4001 50.5272 18.315 50.4377 18.2274C49.975 17.7737 49.5144 17.3179 49.0535 16.8624C48.4684 16.2843 47.8826 15.7069 47.2943 15.132C46.8173 14.6658 46.3426 14.1973 45.8694 13.7273C45.6891 13.5489 45.5079 13.3714 45.3258 13.1948C45.0717 12.948 44.8206 12.6984 44.57 12.448C44.4944 12.376 44.4188 12.3039 44.3409 12.2297C43.9818 11.8646 43.783 11.6225 43.7703 11.0982C43.8281 10.6641 43.8281 10.6641 44.0112 10.3711C44.4265 10.1155 44.6357 10.107 45.1172 10.1953C45.3344 10.3525 45.3344 10.3525 45.5587 10.557C45.6408 10.6316 45.7228 10.7062 45.8074 10.783C46.1874 11.1404 46.5609 11.5035 46.9301 11.8721C47.012 11.9534 47.0938 12.0347 47.1782 12.1185C47.4456 12.3842 47.7127 12.6504 47.9796 12.9167C48.0714 13.0082 48.1632 13.0996 48.2577 13.1939C48.7425 13.6768 49.2269 14.1602 49.711 14.6438C50.2104 15.1425 50.7108 15.6401 51.2116 16.1375C51.5975 16.5213 51.9826 16.9058 52.3676 17.2906C52.5518 17.4744 52.7363 17.658 52.9211 17.8413C53.1791 18.0973 53.436 18.3544 53.6926 18.6118C53.7688 18.6869 53.8449 18.7619 53.9234 18.8393C54.4348 19.3555 54.8062 19.812 54.8877 20.5591C54.8367 21.0435 54.6912 21.3551 54.4922 21.7969C55.2485 22.7783 55.2485 22.7783 56.3242 23.28C56.6049 23.2679 56.8855 23.25 57.1655 23.226C57.8829 23.1821 58.259 23.4808 58.781 23.9392C59.9378 25.0444 59.9378 25.0444 60.0467 25.9241C60.0458 26.051 60.0449 26.1779 60.044 26.3086C60.0449 26.4355 60.0458 26.5624 60.0467 26.6931C59.9631 27.3688 59.6386 27.8272 59.166 28.3005C59.0679 28.3996 58.9699 28.4986 58.8688 28.6007C58.7616 28.7072 58.6544 28.8137 58.5439 28.9234C58.4295 29.0383 58.3151 29.1533 58.2009 29.2684C57.8913 29.5796 57.5806 29.8897 57.2696 30.1995C56.9438 30.5244 56.6188 30.8502 56.2937 31.1759C55.7477 31.7225 55.2009 32.2685 54.6538 32.814C54.0218 33.444 53.3912 34.0752 52.7612 34.7071C52.2196 35.2504 51.6772 35.793 51.1343 36.335C50.8103 36.6584 50.4866 36.982 50.1636 37.3062C49.8597 37.6111 49.555 37.9151 49.2497 38.2184C49.0849 38.3825 48.9209 38.5475 48.757 38.7126C48.6579 38.8106 48.5588 38.9087 48.4568 39.0098C48.3715 39.0949 48.2861 39.1801 48.1982 39.2679C47.5499 39.8094 46.9875 39.9089 46.1673 39.8836C45.194 39.7719 44.5583 39.166 43.9453 38.4375C43.6297 37.9791 43.3292 37.5185 43.3974 36.9475C43.4848 36.2095 43.4848 36.2095 43.2219 35.5336C42.8404 35.0886 42.4042 34.7085 41.9531 34.3359C41.7623 34.4209 41.7623 34.4209 41.5677 34.5076C41.1224 34.7059 40.8054 34.764 40.3125 34.6875C39.5038 34.2581 38.8671 33.6413 38.232 32.9929C38.1398 32.9002 38.0477 32.8076 37.9527 32.7121C37.6618 32.4193 37.3722 32.1252 37.0825 31.8311C36.8842 31.6309 36.6857 31.4309 36.4872 31.2309C36.0036 30.7434 35.5209 30.2549 35.0391 29.7656C34.4059 30.3002 34.4059 30.3002 33.8054 30.8707C33.7063 30.9704 33.7063 30.9704 33.6051 31.0721C33.5393 31.1389 33.4735 31.2056 33.4058 31.2744C33.3368 31.3439 33.2678 31.4134 33.1968 31.485C33.0294 31.6538 32.8623 31.8229 32.6953 31.9922C32.7285 32.055 32.7616 32.1179 32.7958 32.1826C32.8388 32.2658 32.8818 32.3491 32.926 32.4348C32.9689 32.517 33.0117 32.5992 33.0558 32.6838C33.223 33.0636 33.2234 33.342 33.1641 33.75C32.8364 34.4158 32.4224 34.9007 31.897 35.4199C31.8277 35.4915 31.7585 35.5631 31.6871 35.6369C31.2344 36.0891 30.8505 36.3753 30.2344 36.5625C29.935 36.53 29.935 36.53 29.6631 36.4526C29.3609 36.399 29.3609 36.399 29.0625 36.4453C28.6354 36.7725 28.3366 37.1947 28.0078 37.6172C27.7926 37.8607 27.5707 38.0977 27.3486 38.335C26.9313 38.7879 26.5215 39.2465 26.1182 39.7119C25.779 40.0963 25.4306 40.4722 25.0834 40.8493C24.7866 41.172 24.4933 41.497 24.2066 41.8286C23.7819 42.3188 23.3399 42.7925 22.899 43.268C22.518 43.6795 22.1449 44.0965 21.7781 44.5207C21.4407 44.904 21.0933 45.2783 20.7474 45.654C20.4507 45.9767 20.1574 46.3017 19.8706 46.6333C19.4459 47.1235 19.004 47.5972 18.5631 48.0727C18.1821 48.4842 17.809 48.9012 17.4422 49.3254C17.1602 49.6457 16.8711 49.9595 16.582 50.2734C16.2259 50.6602 15.8717 51.048 15.5274 51.4453C15.1332 51.8998 14.7266 52.3424 14.3194 52.7851C13.7997 53.3503 13.2861 53.9207 12.7734 54.4922C12.5977 54.6875 12.4219 54.8828 12.2461 55.0781C12.1591 55.1748 12.0721 55.2715 11.9824 55.3711C11.1914 56.25 11.1914 56.25 10.9277 56.5425C10.7514 56.7388 10.5756 56.9356 10.4004 57.133C10.1389 57.4267 9.87436 57.7173 9.60938 58.0078C9.52917 58.1 9.44896 58.1921 9.36631 58.287C8.57136 59.154 7.4127 59.9147 6.21003 60.0207C4.356 60.0744 2.96286 59.8765 1.52345 58.5938C0.28578 57.2756 -0.0738429 55.8714 -0.0366127 54.1031C-0.00415478 53.4255 0.150267 52.8653 0.468758 52.2656C0.51166 52.1818 0.554562 52.0979 0.598763 52.0116C1.29695 50.8285 2.46963 49.8386 3.50922 48.9574C3.83054 48.6806 4.14148 48.3929 4.45313 48.1055C4.83985 47.7493 5.22768 47.3951 5.62501 47.0508C6.07948 46.6567 6.52211 46.25 6.96483 45.8428C7.52999 45.3232 8.10041 44.8095 8.67188 44.2969C8.86723 44.1211 9.06254 43.9453 9.25782 43.7695C10.0391 43.0664 10.8203 42.3633 11.6016 41.6602C11.6986 41.5728 11.7955 41.4855 11.8955 41.3956C12.0876 41.2227 12.2799 41.05 12.4722 40.8774C13.0102 40.3944 13.5451 39.9084 14.0772 39.4189C14.5305 39.002 14.9887 38.5918 15.4541 38.1885C15.7756 37.9048 16.0909 37.6146 16.4063 37.3242C17.377 36.4319 17.377 36.4319 17.813 36.0594C17.9898 35.9082 18.1635 35.7535 18.3357 35.5971C19.105 34.9273 19.105 34.9273 19.6802 34.8999C20.2147 35.1072 20.2147 35.1072 20.3906 35.3906C20.5094 35.7808 20.5555 35.9933 20.3783 36.3666C20.1028 36.7551 19.7852 37.0521 19.4312 37.3682C19.3626 37.4304 19.294 37.4926 19.2234 37.5567C18.7997 37.9401 18.3713 38.3177 17.9393 38.6916C17.5623 39.0233 17.1938 39.3642 16.8242 39.7041C16.2591 40.2237 15.6887 40.7373 15.1172 41.25C14.9219 41.4257 14.7265 41.6015 14.5313 41.7773C14.1406 42.1289 13.75 42.4805 13.3594 42.832C13.2624 42.9193 13.1654 43.0067 13.0655 43.0966C12.8734 43.2695 12.6811 43.4422 12.4887 43.6148C11.9508 44.0978 11.4159 44.5838 10.8838 45.0732C10.4304 45.4901 9.97227 45.9003 9.50684 46.3037C9.12246 46.6429 8.74657 46.9913 8.3695 47.3385C8.04672 47.6352 7.72179 47.9286 7.39014 48.2153C6.9692 48.58 6.56069 48.9573 6.15235 49.3359C5.74401 49.7146 5.33551 50.0918 4.91456 50.4565C2.9402 52.0061 2.9402 52.0061 1.94688 54.1823C1.89763 55.2558 2.0572 56.0752 2.69532 56.9531C2.98293 57.246 3.27615 57.4554 3.63282 57.6562C3.75125 57.7288 3.86969 57.8013 3.99171 57.876C4.84532 58.201 5.98656 58.1637 6.81886 57.8027C7.83426 57.2087 8.63874 56.2133 9.39378 55.3271C9.67387 55.0036 9.96386 54.6895 10.2539 54.375C10.6078 53.9908 10.9596 53.6056 11.3013 53.2104C11.726 52.7203 12.1679 52.2466 12.6088 51.7711C12.9898 51.3595 13.3629 50.9426 13.7297 50.5183C14.0672 50.135 14.4145 49.7607 14.7604 49.3851C15.0571 49.0623 15.3504 48.7374 15.6372 48.4058C16.0619 47.9156 16.5038 47.4419 16.9448 46.9664C17.3257 46.5548 17.6988 46.1379 18.0657 45.7137C18.4031 45.3303 18.7504 44.9561 19.0964 44.5804C19.3931 44.2576 19.6864 43.9327 19.9732 43.6011C20.3978 43.1109 20.8398 42.6372 21.2807 42.1617C21.6617 41.7501 22.0348 41.3332 22.4016 40.909C22.6836 40.5886 22.9726 40.2749 23.2617 39.9609C23.6178 39.5742 23.9721 39.1864 24.3164 38.7891C24.6564 38.3971 25.0053 38.0138 25.3565 37.6318C25.7705 37.1814 26.1838 36.7305 26.5942 36.2769C26.6751 36.1876 26.7559 36.0983 26.8391 36.0063C27.0814 35.7295 27.3114 35.4451 27.5391 35.1562C27.3617 34.7382 27.1166 34.4722 26.7947 34.1547C26.695 34.0557 26.5953 33.9568 26.4926 33.8548C26.3884 33.7526 26.2842 33.6503 26.1768 33.5449C26.0716 33.4408 25.9665 33.3368 25.8582 33.2295C25.5987 32.9728 25.3386 32.7166 25.0781 32.4609C24.7165 32.6345 24.4459 32.8206 24.148 33.0908C24.0659 33.1632 23.9839 33.2355 23.8994 33.3101C23.7224 33.47 23.5497 33.6347 23.3789 33.8013C22.9361 34.078 22.6667 34.0502 22.1484 33.9844C21.8555 33.8013 21.8555 33.8013 21.6797 33.5156C21.6138 33.1128 21.6138 33.1128 21.6797 32.6953C21.9141 32.4097 21.9141 32.4097 22.2656 32.1094C22.4279 31.9494 22.5889 31.7881 22.749 31.626C23.0176 31.3574 23.2861 31.0889 23.5547 30.8203C23.516 30.7043 23.4774 30.5883 23.4375 30.4688C23.3724 29.7913 23.5237 29.3739 23.9063 28.8281C24.1811 28.5063 24.4761 28.2091 24.7778 27.9126C24.8547 27.8344 24.9315 27.7563 25.0106 27.6757C25.5309 27.1586 25.9036 26.8674 26.6528 26.7993C27.1071 26.8392 27.377 26.9713 27.7734 27.1875C28.1305 27.2249 28.1305 27.2249 28.3586 26.9939C28.4451 26.9055 28.5316 26.8171 28.6208 26.7261C28.7148 26.6309 28.8088 26.5357 28.9057 26.4377C29.0522 26.2868 29.0522 26.2868 29.2017 26.1328C29.3007 26.0322 29.3997 25.9316 29.5017 25.8279C29.7468 25.5788 29.9909 25.3288 30.2344 25.0781C29.7364 24.4819 29.214 23.9291 28.6588 23.3862C28.4923 23.2218 28.3258 23.0573 28.1593 22.8928C27.9 22.6371 27.6404 22.3816 27.3802 22.1268C27.1269 21.8785 26.8747 21.629 26.6226 21.3794C26.5065 21.2666 26.5065 21.2666 26.3881 21.1515C25.835 20.6014 25.3614 20.0783 25.2612 19.2773C25.3206 18.8025 25.4689 18.4817 25.6641 18.0469C24.9108 17.0782 24.9108 17.0782 23.8541 16.5596C23.594 16.5696 23.3341 16.5867 23.075 16.6113C22.3882 16.6704 21.944 16.3321 21.438 15.9155C20.8286 15.3571 20.1968 14.7207 20.1325 13.8625C20.1297 13.6823 20.1297 13.6823 20.127 13.4985C20.1224 13.3198 20.1224 13.3198 20.1178 13.1374C20.189 12.4639 20.5272 12.007 20.9955 11.538C21.1443 11.3877 21.1443 11.3877 21.2962 11.2343C21.4589 11.0726 21.4589 11.0726 21.6249 10.9077C21.7407 10.7914 21.8564 10.6751 21.9721 10.5587C22.2853 10.2439 22.5996 9.93018 22.9142 9.61672C23.2437 9.28813 23.5723 8.95869 23.901 8.62938C24.4531 8.07672 25.0058 7.52479 25.559 6.97329C26.1983 6.33596 26.8362 5.69738 27.4735 5.05813C28.0213 4.5088 28.5697 3.96016 29.1187 3.41209C29.4463 3.08497 29.7738 2.75761 30.1006 2.42963C30.4078 2.12142 30.7158 1.81408 31.0246 1.50738C31.1915 1.34112 31.3576 1.174 31.5236 1.00685C31.6735 0.858507 31.6735 0.858507 31.8263 0.707167C31.9126 0.621014 31.9989 0.534861 32.0878 0.446097C32.7974 -0.140834 33.8742 -0.207433 34.7278 0.0984202ZM32.8957 2.30181C32.7507 2.44376 32.7507 2.44376 32.6029 2.58857C32.4985 2.69375 32.3941 2.79894 32.2866 2.90732C32.1744 3.01829 32.0622 3.12913 31.9498 3.23986C31.6451 3.54092 31.3422 3.84383 31.0398 4.14721C30.7873 4.40025 30.5338 4.65239 30.2804 4.90455C29.6827 5.49935 29.0865 6.09567 28.4912 6.69296C27.8769 7.30939 27.26 7.92319 26.6417 8.53576C26.1112 9.06165 25.5822 9.58912 25.0546 10.1179C24.7393 10.4337 24.4235 10.749 24.1061 11.0627C23.8078 11.3577 23.5116 11.6546 23.2168 11.9532C23.0564 12.1146 22.894 12.274 22.7315 12.4333C22.6369 12.5299 22.5423 12.6266 22.4448 12.7261C22.3616 12.8093 22.2784 12.8924 22.1927 12.9781C21.9964 13.2431 21.9964 13.2431 22.0515 13.6102C22.1641 13.9993 22.2888 14.147 22.5952 14.4067C22.716 14.5135 22.716 14.5135 22.8392 14.6223C23.0704 14.7888 23.0704 14.7888 23.3052 14.7436C23.6269 14.6209 23.7991 14.4494 24.0434 14.2067C24.1881 14.0643 24.1881 14.0643 24.3357 13.919C24.4405 13.814 24.5453 13.7091 24.6532 13.601C24.7654 13.4898 24.8777 13.3788 24.99 13.2678C25.2947 12.9662 25.5982 12.6635 25.9014 12.3605C26.1546 12.1077 26.4081 11.8554 26.6617 11.6031C27.2597 11.008 27.8567 10.4119 28.4531 9.8152C29.0688 9.19924 29.6865 8.58526 30.3051 7.97219C30.836 7.44596 31.3654 6.9184 31.8938 6.38976C32.2096 6.07394 32.5258 5.75869 32.8434 5.44478C33.1419 5.14968 33.4387 4.85295 33.7342 4.55487C33.8951 4.39347 34.0577 4.23383 34.2203 4.07423C34.3151 3.97795 34.4099 3.88167 34.5076 3.78247C34.5909 3.69933 34.6742 3.6162 34.7601 3.53055C34.9536 3.28728 34.9536 3.28728 34.8998 2.97175C34.7901 2.65304 34.6617 2.48587 34.4238 2.24854C34.3556 2.17769 34.2873 2.10684 34.2169 2.03385C33.6829 1.66905 33.313 1.88708 32.8957 2.30181ZM35.3906 5.50781C32.1809 8.71758 28.9711 11.9273 25.6641 15.2344C26.3477 16.0742 26.3477 16.0742 27.1875 16.7578C30.3973 13.548 33.607 10.3383 36.9141 7.03125C36.2305 6.19141 36.2305 6.19141 35.3906 5.50781ZM52.9688 23.0859C49.759 26.2957 46.5492 29.5055 43.2422 32.8125C43.9258 33.6523 43.9258 33.6523 44.7656 34.3359C47.9754 31.1262 51.1852 27.9164 54.4922 24.6094C53.8086 23.7695 53.8086 23.7695 52.9688 23.0859ZM56.467 25.2414C56.3827 25.3255 56.2984 25.4095 56.2115 25.4961C56.1139 25.5917 56.0163 25.6873 55.9157 25.7859C55.7575 25.9462 55.7575 25.9462 55.5961 26.1098C55.4829 26.2221 55.3694 26.3343 55.2559 26.4463C54.9477 26.7512 54.6419 27.0583 54.3365 27.366C54.0168 27.6874 53.6955 28.0071 53.3744 28.327C52.8355 28.8647 52.2981 29.4038 51.7615 29.9438C51.1407 30.5683 50.5174 31.1904 49.8928 31.8111C49.357 32.3438 48.8225 32.8778 48.2892 33.4129C47.9705 33.7327 47.6513 34.052 47.3309 34.3701C47.0298 34.6692 46.7304 34.97 46.4324 35.2721C46.2701 35.4357 46.1061 35.5976 45.9421 35.7595C45.7987 35.9059 45.7987 35.9059 45.6523 36.0553C45.5263 36.1817 45.5263 36.1817 45.3977 36.3107C45.203 36.556 45.203 36.556 45.2546 36.8721C45.3737 37.2116 45.5214 37.3664 45.791 37.6025C45.8702 37.6747 45.9493 37.747 46.0309 37.8214C46.28 37.9957 46.28 37.9957 46.5671 37.9467C46.9358 37.8328 47.0999 37.6859 47.3726 37.4143C47.468 37.3203 47.5635 37.2264 47.6618 37.1296C47.7649 37.0257 47.868 36.9218 47.9742 36.8148C48.139 36.6516 48.139 36.6516 48.307 36.4851C48.6078 36.187 48.9071 35.8873 49.2061 35.5873C49.4559 35.3369 49.7063 35.0873 49.9568 34.8377C50.5475 34.249 51.137 33.6591 51.7257 33.0684C52.3333 32.4588 52.9428 31.8512 53.5532 31.2446C54.0773 30.7236 54.6002 30.2016 55.1222 29.6786C55.434 29.3662 55.7462 29.0543 56.0595 28.7434C56.4085 28.3969 56.7551 28.0481 57.1016 27.6989C57.2059 27.596 57.3101 27.4931 57.4176 27.3871C57.5114 27.2918 57.6052 27.1965 57.7019 27.0983C57.7841 27.0161 57.8663 26.9338 57.951 26.849C58.1649 26.5449 58.173 26.3801 58.125 26.0156C57.9719 25.7746 57.9719 25.7746 57.7515 25.5762C57.6821 25.5067 57.6128 25.4372 57.5414 25.3656C57.1674 25.0965 56.8717 24.9789 56.467 25.2414ZM31.4122 26.5823C31.2658 26.7296 31.2658 26.7296 31.1165 26.8799C31.0111 26.9856 30.9058 27.0914 30.7972 27.2003C30.6853 27.3132 30.5734 27.4261 30.4614 27.5391C30.3491 27.652 30.2367 27.7649 30.1243 27.8778C29.8482 28.1553 29.5724 28.433 29.2969 28.7109C29.7222 29.2182 30.1582 29.7031 30.6299 30.1685C30.7323 30.2698 30.8347 30.3712 30.9403 30.4756C31.0549 30.5882 31.0549 30.5882 31.1719 30.7031C31.7656 30.2065 32.3204 29.6866 32.8638 29.1357C32.9383 29.0607 33.0129 28.9856 33.0897 28.9082C33.271 28.7256 33.452 28.5426 33.6328 28.3594C33.2085 27.8542 32.7747 27.368 32.3071 26.9019C32.2061 26.8005 32.105 26.6991 32.0009 26.5947C31.7043 26.2924 31.7043 26.2924 31.4122 26.5823ZM26.3338 29.0845C26.2264 29.1932 26.119 29.302 26.0083 29.4141C25.8467 29.5772 25.8467 29.5772 25.6819 29.7437C25.5987 29.8282 25.5155 29.9128 25.4297 30C25.9343 30.6033 26.4637 31.1669 27.0218 31.7207C27.104 31.8028 27.1863 31.8849 27.271 31.9694C27.531 32.2288 27.7914 32.4877 28.0518 32.7466C28.2293 32.9235 28.4067 33.1004 28.5841 33.2774C29.0167 33.7087 29.4496 34.1396 29.8828 34.5703C30.3675 34.1741 30.7984 33.7892 31.1719 33.2812C30.5402 32.6466 29.9082 32.0125 29.2757 31.3787C29.0604 31.1628 28.8453 30.9468 28.6302 30.7307C28.3218 30.4209 28.0131 30.1116 27.7043 29.8022C27.6075 29.7048 27.5107 29.6074 27.411 29.5071C27.3218 29.4179 27.2327 29.3288 27.1408 29.2369C27.0226 29.1182 27.0226 29.1182 26.9019 28.9972C26.6115 28.7291 26.6389 28.7924 26.3338 29.0845Z" fill="currentColor"/>
<path d="M34.3094 44.8515C34.3863 44.8509 34.4632 44.8504 34.5424 44.8499C34.7985 44.8484 35.0546 44.8486 35.3107 44.8488C35.4949 44.8481 35.6792 44.8473 35.8635 44.8464C36.363 44.8443 36.8625 44.8438 37.362 44.8436C37.6744 44.8434 37.9868 44.8429 38.2992 44.8423C39.3901 44.8402 40.4809 44.8392 41.5717 44.8394C42.587 44.8395 43.6022 44.8371 44.6175 44.8333C45.4904 44.8303 46.3633 44.829 47.2363 44.8292C47.7571 44.8292 48.2779 44.8286 48.7987 44.8261C49.2888 44.8238 49.7788 44.8238 50.2689 44.8255C50.4482 44.8258 50.6274 44.8252 50.8067 44.8238C52.8584 44.8086 52.8584 44.8086 53.6562 45.5566C54.2969 46.2447 54.4258 46.8844 54.4144 47.8093C54.357 48.3262 54.1771 48.6614 53.9063 49.1016C54.0354 49.1455 54.0354 49.1455 54.1672 49.1904C55.2083 49.6567 55.9192 50.7895 56.3672 51.7969C56.6717 52.6804 56.8663 53.553 56.8359 54.4922C56.9882 54.4994 57.1405 54.5067 57.2974 54.5142C58.2237 54.6205 58.9045 55.0729 59.4974 55.7767C59.9959 56.5653 60.0611 57.2205 60.0586 58.1396C60.0619 58.254 60.0653 58.3684 60.0687 58.4862C60.069 58.5969 60.0693 58.7076 60.0696 58.8217C60.0704 58.9214 60.0713 59.0212 60.0721 59.1239C59.9607 59.5722 59.7835 59.7215 59.4141 60C58.9759 60.0882 58.5431 60.079 58.0974 60.0744C57.8956 60.0758 57.8956 60.0758 57.6897 60.0772C57.3166 60.0791 56.9437 60.0784 56.5707 60.0766C56.1682 60.0753 55.7658 60.0773 55.3633 60.0789C54.5751 60.0815 53.7869 60.081 52.9987 60.0793C52.3581 60.0779 51.7176 60.0778 51.077 60.0784C50.9403 60.0785 50.9403 60.0785 50.8008 60.0787C50.6157 60.0789 50.4305 60.0791 50.2454 60.0793C48.5089 60.0809 46.7725 60.079 45.036 60.0759C43.5458 60.0732 42.0557 60.0737 40.5655 60.0764C38.8353 60.0795 37.1051 60.0808 35.3749 60.079C35.1904 60.0788 35.0059 60.0786 34.8214 60.0784C34.7307 60.0783 34.6399 60.0782 34.5464 60.0781C33.9065 60.0776 33.2667 60.0785 32.6269 60.0799C31.8472 60.0815 31.0675 60.0811 30.2878 60.0779C29.89 60.0764 29.4922 60.0758 29.0943 60.0777C28.6632 60.0793 28.2322 60.0773 27.801 60.0744C27.612 60.0764 27.612 60.0764 27.4192 60.0784C26.5741 60.0672 26.5741 60.0672 26.1164 59.7244C25.5782 58.9583 25.7062 57.8606 25.827 56.9655C26.0421 56.0902 26.5733 55.4323 27.3029 54.9124C27.8648 54.6 28.4262 54.5216 29.0625 54.4922C29.0553 54.3472 29.048 54.2021 29.0405 54.0527C29.0456 52.4456 29.7036 51.1034 30.786 49.9539C31.1341 49.6088 31.4938 49.2926 31.875 48.9844C31.817 48.8804 31.759 48.7765 31.6992 48.6694C31.3984 47.9578 31.359 47.0799 31.6306 46.3545C32.2452 45.3096 33.1007 44.8549 34.3094 44.8515ZM33.5307 46.914C33.3271 47.2148 33.3609 47.4598 33.3984 47.8125C33.722 48.1361 33.9082 48.0766 34.3616 48.0774C34.4749 48.0781 34.4749 48.0781 34.5905 48.0788C34.8449 48.08 35.0992 48.0795 35.3535 48.0791C35.5354 48.0796 35.7173 48.0802 35.8992 48.0809C36.3941 48.0825 36.889 48.0825 37.3839 48.0822C37.7965 48.0821 38.2092 48.0827 38.6219 48.0832C39.5952 48.0845 40.5686 48.0846 41.5419 48.0839C42.5471 48.0832 43.5522 48.0846 44.5574 48.0871C45.4195 48.0892 46.2815 48.0899 47.1436 48.0895C47.6589 48.0893 48.1741 48.0896 48.6894 48.0912C49.1739 48.0927 49.6584 48.0925 50.1429 48.0909C50.3209 48.0906 50.499 48.091 50.677 48.0919C50.9197 48.0932 51.1622 48.0922 51.4048 48.0907C51.5407 48.0907 51.6766 48.0908 51.8167 48.0908C52.1483 48.0739 52.1483 48.0739 52.3675 47.8867C52.5597 47.6091 52.5576 47.4387 52.5 47.1094C52.2318 46.8405 52.0683 46.7626 51.6891 46.7136C51.5551 46.7134 51.4212 46.7133 51.2832 46.7132C51.1293 46.7122 50.9753 46.7112 50.8167 46.7102C50.6463 46.7109 50.4759 46.7116 50.3055 46.7123C50.1259 46.7118 49.9462 46.7112 49.7666 46.7105C49.279 46.7089 48.7914 46.7095 48.3038 46.7106C47.7938 46.7115 47.2838 46.7107 46.7737 46.7101C45.9174 46.7095 45.061 46.7103 44.2046 46.712C43.214 46.7139 42.2233 46.7133 41.2327 46.7113C40.3825 46.7097 39.5324 46.7095 38.6823 46.7104C38.1743 46.711 37.6664 46.7111 37.1585 46.7099C36.6811 46.7089 36.2037 46.7096 35.7263 46.7116C35.5509 46.7121 35.3755 46.7119 35.2001 46.7112C34.9611 46.7102 34.7221 46.7116 34.4832 46.7132C34.3493 46.7133 34.2154 46.7134 34.0775 46.7136C33.7504 46.7319 33.7504 46.7319 33.5307 46.914ZM31.9716 51.4005C31.2331 52.3651 30.9299 53.2952 30.9375 54.4922C31.0816 54.4926 31.0816 54.4926 31.2287 54.493C33.5662 54.5 35.9037 54.5088 38.2412 54.5198C39.3716 54.5251 40.502 54.5297 41.6324 54.5328C42.6176 54.5355 43.6028 54.5394 44.588 54.5448C45.1097 54.5476 45.6314 54.5498 46.1531 54.5505C46.6442 54.5512 47.1352 54.5536 47.6262 54.5571C47.8064 54.5582 47.9867 54.5586 48.1669 54.5584C48.413 54.5582 48.6591 54.5602 48.9052 54.5627C49.043 54.5632 49.1807 54.5637 49.3226 54.5643C49.7264 54.6142 49.9502 54.7175 50.2734 54.9609C50.343 55.188 50.343 55.188 50.332 55.4297C50.3308 55.5094 50.3296 55.5892 50.3284 55.6714C50.2547 55.9758 50.1761 56.0641 49.9219 56.25C49.5512 56.2941 49.5512 56.2941 49.0835 56.2944C48.9976 56.2949 48.9117 56.2954 48.8231 56.296C48.5343 56.2973 48.2456 56.2962 47.9568 56.2951C47.7501 56.2956 47.5433 56.2962 47.3366 56.297C46.891 56.2984 46.4454 56.2987 45.9997 56.2981C45.2951 56.2973 44.5904 56.2992 43.8858 56.3015C42.3895 56.3059 40.8933 56.3074 39.397 56.3086C37.783 56.3099 36.1689 56.3117 34.5549 56.3169C33.8545 56.319 33.1541 56.3195 32.4536 56.3186C32.0176 56.3185 31.5816 56.3197 31.1456 56.3214C30.9435 56.3219 30.7414 56.3217 30.5394 56.3209C30.2632 56.32 29.9872 56.3211 29.7111 56.3228C29.4795 56.323 29.4795 56.323 29.2431 56.3231C28.6254 56.3887 28.2517 56.572 27.8467 57.041C27.5951 57.4732 27.5951 57.4732 27.6563 58.2422C37.7109 58.2422 47.7656 58.2422 58.125 58.2422C58.2126 57.2738 58.2126 57.2738 57.9273 56.8433C57.3955 56.369 56.8688 56.3332 56.1795 56.331C56.0068 56.3281 55.8341 56.3251 55.6613 56.3221C55.3908 56.3187 55.1203 56.3159 54.8497 56.3137C54.5874 56.3112 54.3251 56.3066 54.0628 56.3017C53.9414 56.3017 53.9414 56.3017 53.8175 56.3017C53.4786 56.2947 53.2557 56.2883 52.9771 56.0852C52.8218 55.8541 52.7972 55.7071 52.793 55.4297C52.7875 55.31 52.7875 55.31 52.782 55.188C52.8516 54.9609 52.8516 54.9609 53.0983 54.7609C53.4922 54.5849 53.806 54.5505 54.2358 54.5288C54.44 54.5173 54.44 54.5173 54.6483 54.5055C54.7515 54.5011 54.8546 54.4967 54.9609 54.4922C54.9122 53.1878 54.5633 52.1814 53.6719 51.2109C52.3518 49.9888 51.0643 49.9042 49.3326 49.9049C49.1801 49.9045 49.0275 49.9041 48.8703 49.9037C48.4536 49.9026 48.0369 49.9024 47.6202 49.9023C47.3593 49.9022 47.0985 49.9019 46.8376 49.9016C45.926 49.9005 45.0143 49.9001 44.1027 49.9002C43.2554 49.9002 42.4081 49.899 41.5607 49.8971C40.8312 49.8956 40.1017 49.895 39.3722 49.8951C38.9374 49.8951 38.5026 49.8948 38.0678 49.8935C37.5823 49.8922 37.0968 49.8927 36.6113 49.8934C36.4689 49.8928 36.3265 49.8921 36.1797 49.8914C34.5541 49.8974 33.1244 50.1705 31.9716 51.4005Z" fill="black"/>
</g>
<defs>
<clipPath id="clip0_81_234">
<rect width="60" height="60" fill="white"/>
</clipPath>
</defs>
</svg>
