<svg width="60" height="60" viewBox="0 0 60 60" fill="none" xmlns="http://www.w3.org/2000/svg">
<path d="M10.5075 20.7901C11.0439 16.9439 7.93124 8.69011 7.57443 7.76152C7.51281 7.60113 7.42879 7.46204 7.328 7.35353C7.22721 7.24502 7.11195 7.16959 6.98992 7.13226C6.86789 7.09493 6.74188 7.09657 6.62031 7.13706C6.49874 7.17755 6.38439 7.25596 6.2849 7.36707C5.70909 8.01041 0.643052 13.7621 0.106624 17.6083C-0.475384 21.7817 1.384 25.8906 4.2515 26.7678C4.61124 26.8782 4.97766 26.9338 5.34504 26.934C7.80081 26.934 9.99993 24.4289 10.5075 20.7901ZM4.40438 20.0083C4.0179 22.7795 7.53598 24.8279 5.61431 24.2398C5.61431 22.1557 4.21959 21.7318 4.60608 18.9602C4.87172 17.0551 5.61431 16.3846 6.53839 10.3704C4.2515 18.4902 4.67003 18.103 4.40438 20.0083ZM60 39.2991C59.9999 39.2759 60 39.2529 59.999 39.2299C59.9982 39.2098 59.9964 39.1901 59.995 39.17C59.9933 39.1483 59.992 39.1267 59.9897 39.1051C59.9874 39.0826 59.9839 39.0606 59.9806 39.0383C59.9778 39.0192 59.9754 39.0002 59.9722 38.9811C59.9677 38.9567 59.9622 38.9327 59.9569 38.9083C59.9531 38.8917 59.9501 38.8749 59.9459 38.8584C59.9398 38.8342 59.9324 38.8107 59.9254 38.7871C59.921 38.7724 59.9175 38.7573 59.9127 38.7428L59.9103 38.7364C59.9045 38.7189 59.8975 38.7018 59.8911 38.6845C59.8829 38.6621 59.8747 38.6395 59.8656 38.618L59.8638 38.6135L52.424 21.2886L52.685 20.9723C53.1065 20.4648 53.392 19.7514 53.4904 18.9602C53.5887 18.169 53.4933 17.3518 53.2215 16.6553L51.6558 12.618C51.3855 11.9149 50.9539 11.3786 50.4394 11.1068C49.9249 10.8349 49.3616 10.8454 48.8519 11.1364L48.2188 11.4933L43.172 4.81775C42.9311 4.49969 42.6376 4.282 42.3213 4.18691C42.0051 4.09182 41.6774 4.12275 41.3719 4.27652L38.2707 5.8417C38.2566 5.84869 38.2414 5.84875 38.2273 5.84187L34.5202 4.01274C34.0988 3.80349 33.6401 3.83049 33.2312 4.08863C32.8223 4.34677 32.4916 4.81812 32.3017 5.41332L24.8899 0.85054C24.7189 0.745346 24.5365 0.686713 24.3514 0.677459L9.98673 0.000882748C9.86925 -0.00557732 9.75211 0.0234732 9.64247 0.0862616C9.53282 0.14905 9.43296 0.24426 9.34897 0.366085C9.26464 0.487103 9.19759 0.631982 9.15179 0.792121C9.106 0.952261 9.0824 1.1244 9.08239 1.2983V7.03458C9.08237 7.37556 9.17293 7.70286 9.33452 7.94576C9.4961 8.18866 9.71573 8.32764 9.94594 8.33269L22.1578 8.60201L30.0191 12.8898C29.8499 13.4819 29.8289 14.144 29.9598 14.757C30.0906 15.37 30.3648 15.8939 30.7331 16.2344L32.1265 17.5149C32.137 17.5244 32.1455 17.5381 32.1511 17.5544C32.1566 17.5707 32.1591 17.5889 32.1581 17.6071L31.8738 22.7627C31.8426 23.3434 31.9384 23.9236 32.1471 24.4174L35.0195 31.1797L41.6546 47.7285C42.1181 48.8852 42.8522 49.7497 43.7176 50.1579C44.5829 50.5662 45.5194 50.4897 46.3492 49.9431C46.3583 49.9372 46.3673 49.931 46.3763 49.9246L46.5134 49.8259C46.5935 49.7883 46.6695 49.7337 46.739 49.6638L48.7725 48.2007L53.381 59.387C53.503 59.6779 53.6977 59.8855 53.9227 59.9648C54.1477 60.044 54.3847 59.9884 54.5821 59.81C54.7795 59.6316 54.9213 59.3449 54.9766 59.0124C55.0319 58.6799 54.9962 58.3284 54.8774 58.0347L50.3565 47.0613L53.6025 44.7259L58.0006 55.4018C58.0603 55.5481 58.1389 55.6756 58.2319 55.7768C58.3249 55.878 58.4305 55.9511 58.5427 55.9917C58.6548 56.0323 58.7713 56.0397 58.8853 56.0135C58.9994 55.9873 59.1089 55.9279 59.2074 55.8389C59.306 55.7499 59.3917 55.6329 59.4596 55.4946C59.5275 55.3564 59.5763 55.1997 59.6033 55.0334C59.6302 54.8671 59.6347 54.6947 59.6164 54.5258C59.5982 54.357 59.5577 54.1952 59.4971 54.0496L55.1864 43.5863L59.507 40.4778L59.5114 40.4743C59.5234 40.4657 59.5351 40.4553 59.5469 40.4456C59.5618 40.4333 59.577 40.4214 59.5914 40.408L59.5944 40.4056C59.6009 40.3995 59.6066 40.3924 59.6129 40.3862C59.6304 40.3686 59.648 40.3511 59.6646 40.3319C59.6716 40.3237 59.678 40.3147 59.6849 40.3064C59.7003 40.2874 59.7158 40.2682 59.7302 40.2476C59.7382 40.2365 59.7454 40.2244 59.753 40.2128C59.7652 40.1941 59.7776 40.1756 59.7888 40.156C59.7974 40.1413 59.8052 40.1256 59.8133 40.1103C59.8226 40.0928 59.832 40.0757 59.8407 40.0574C59.8492 40.0395 59.8567 40.021 59.8645 40.0025C59.8717 39.9857 59.8791 39.9693 59.8857 39.952C59.8933 39.9324 59.8998 39.9122 59.9067 39.8919C59.9126 39.8748 59.9185 39.858 59.9238 39.8405C59.9299 39.8202 59.935 39.7996 59.9404 39.7792C59.9452 39.7607 59.9503 39.7425 59.9545 39.7238C59.9591 39.7041 59.9627 39.684 59.9664 39.6638C59.9703 39.6437 59.9744 39.6236 59.9777 39.6032C59.9806 39.5842 59.9827 39.5648 59.9851 39.5456C59.9878 39.5238 59.9907 39.5019 59.9927 39.48C59.9945 39.4614 59.9952 39.4429 59.9962 39.4242C59.9976 39.4012 59.9993 39.3784 59.9997 39.355C60.0003 39.3365 60 39.3178 60 39.2991ZM30.7416 10.517L22.7287 6.14667C22.5664 6.05825 22.3952 6.01103 22.2223 6.00699L10.8354 5.75568V2.63865L24.2534 3.2704L31.5776 7.77918L30.7416 10.517ZM43.162 46.4031L37.4934 32.2649L41.8307 32.1946C42.3058 32.1831 42.7678 32.4259 43.1317 32.8785C43.4956 33.3311 43.737 33.963 43.8114 34.6581L45.2653 47.7512C44.8635 47.8827 44.4439 47.8231 44.0663 47.5811C43.6887 47.3391 43.3723 46.9268 43.162 46.4031ZM46.9192 46.6476L45.5412 34.2368C45.4015 32.9391 44.953 31.7583 44.2768 30.9076C43.6005 30.0569 42.7411 29.5924 41.8539 29.5982L41.8115 29.5984L40.2113 29.6243L44.4651 26.8256C44.9028 26.5376 45.3966 26.4975 45.853 26.7128C46.3093 26.9282 46.6965 27.384 46.941 27.9939L52.7261 42.4701L46.9192 46.6476ZM54.3082 41.3318L48.4492 26.6705C47.9856 25.5134 47.2515 24.6485 46.3859 24.2398C45.5204 23.831 44.5836 23.9068 43.7533 24.4528L36.3216 29.3424L36.2406 29.1402C36.2099 29.0636 36.174 28.9919 36.1334 28.9261L33.6312 23.0355C33.6235 23.0172 33.6199 22.9958 33.6211 22.9744L33.9054 17.8183C33.9334 17.3239 33.8684 16.8276 33.7175 16.3846C33.5667 15.9416 33.3359 15.5691 33.0508 15.3086L31.6573 14.0283C31.6435 14.0156 31.6334 13.996 31.6286 13.973C31.6239 13.9501 31.625 13.9254 31.6316 13.9035L33.8832 6.52935C33.8901 6.50683 33.9024 6.4889 33.9177 6.479C33.933 6.4691 33.9503 6.46792 33.9661 6.4757L37.673 8.30517C38.0508 8.48998 38.4589 8.48792 38.8358 8.29929L41.9373 6.73411C41.9486 6.72835 41.9608 6.72715 41.9725 6.73065C41.9843 6.73415 41.9952 6.74221 42.0041 6.75401L47.4486 13.9554C47.5684 14.1139 47.7154 14.2206 47.8733 14.2638C48.0313 14.307 48.1943 14.285 48.3444 14.2003L49.4757 13.5625C49.5956 13.4939 49.7282 13.4913 49.8493 13.5553C49.9705 13.6193 50.072 13.7455 50.1355 13.9111L51.7014 17.9486C51.7652 18.1123 51.7876 18.3043 51.7644 18.4902C51.7413 18.6761 51.6742 18.8437 51.5751 18.9629L50.7119 20.0083C50.546 20.2093 50.4355 20.4935 50.4015 20.807C50.3675 21.1206 50.4122 21.4417 50.5273 21.7097L57.8572 38.7786L54.3082 41.3318ZM11.0133 27.6076C10.8913 27.5702 10.7653 27.5719 10.6437 27.6124C10.5221 27.6529 10.4078 27.7313 10.3083 27.8425C9.59603 28.638 6.0223 32.7545 5.61431 35.6808C5.15513 38.9728 6.62008 42.2134 8.87998 42.9046C9.16322 42.9914 9.4517 43.0353 9.74095 43.0354C10.6921 43.0427 11.6159 42.5647 12.3571 41.682C13.0983 40.7992 13.6117 39.5655 13.811 38.1881C14.2191 35.2618 12.0392 29.3851 11.5979 28.2369C11.5363 28.0765 11.4522 27.9374 11.3514 27.8288C11.2506 27.7203 11.1354 27.6449 11.0133 27.6076ZM8 36.5455C7.73623 38.4355 11.055 37.8064 9.74095 37.405C8.42781 37.0031 10.2983 38.9811 10.5617 37.0909C10.6706 36.3103 11.0133 36 9.74095 33.8182C10.9618 37.3018 8.10916 35.7633 8 36.5455Z" fill="currentColor"/>
</svg>
