<svg width="40" height="40" viewBox="0 0 40 40" fill="none" xmlns="http://www.w3.org/2000/svg">
<g clip-path="url(#clip0_4317_251526)">
<path fill-rule="evenodd" clip-rule="evenodd" d="M28.1285 0.169514C28.631 0.461809 28.8657 1.06199 28.6948 1.61765L24.1925 16.25H32.5C32.9987 16.25 33.4497 16.5465 33.6475 17.0042C33.8453 17.462 33.7521 17.9936 33.4103 18.3567L13.4103 39.6067C13.0118 40.0301 12.3741 40.1229 11.8716 39.8306C11.369 39.5383 11.1343 38.9381 11.3053 38.3824L15.8076 23.75H7.50003C7.00133 23.75 6.55036 23.4536 6.35256 22.9958C6.15476 22.538 6.24799 22.0065 6.58978 21.6433L26.5898 0.393333C26.9882 -0.0300184 27.6259 -0.12278 28.1285 0.169514ZM10.3931 21.25H17.5C17.8967 21.25 18.2698 21.4383 18.5055 21.7574C18.7412 22.0765 18.8114 22.4885 18.6948 22.8676L15.2769 33.9758L29.607 18.75H22.5C22.1033 18.75 21.7302 18.5618 21.4945 18.2427C21.2589 17.9236 21.1886 17.5116 21.3053 17.1324L24.7232 6.02426L10.3931 21.25Z" />
</g>
<defs>
<clipPath id="clip0_4317_251526">
<rect width="40" height="40" fill="white"/>
</clipPath>
</defs>
</svg>
