<svg width="60" height="60" viewBox="0 0 60 60" fill="none" xmlns="http://www.w3.org/2000/svg">
<g clip-path="url(#clip0_87_2)">
<path d="M17.6953 4.21875C18.5293 4.79249 19.2259 5.61248 19.9422 6.32586C20.0715 6.45417 20.2007 6.58246 20.33 6.71073C20.7509 7.12857 21.1711 7.54702 21.5913 7.96554C21.7366 8.11016 21.8818 8.25478 22.0271 8.3994C22.6308 9.00063 23.2344 9.60203 23.8376 10.2039C24.7001 11.0644 25.5635 11.924 26.4284 12.7822C27.0379 13.3872 27.6463 13.9933 28.2539 14.6002C28.6163 14.9622 28.9792 15.3238 29.3434 15.6841C29.6853 16.0225 30.0257 16.3622 30.3652 16.703C30.4899 16.8278 30.6151 16.952 30.7409 17.0757C30.9126 17.2447 31.0823 17.4155 31.2518 17.5868C31.3472 17.6818 31.4427 17.7769 31.541 17.8749C31.7963 18.2155 31.852 18.445 31.875 18.8672C31.6641 19.3557 31.5464 19.4417 31.0547 19.6875C29.8945 19.6875 28.7344 19.6875 27.5391 19.6875C27.5391 24.4828 27.5391 29.2781 27.5391 34.2187C28.1771 34.3928 28.1771 34.3928 28.8281 34.5703C29.0414 34.6418 29.2537 34.7163 29.4635 34.7974C29.5667 34.8369 29.6698 34.8765 29.7762 34.9173C29.879 34.9575 29.9819 34.9977 30.0879 35.0391C30.1926 35.0792 30.2973 35.1194 30.4051 35.1608C30.9787 35.3822 31.545 35.6157 32.1094 35.8594C32.1069 35.7482 32.1045 35.6371 32.1019 35.5226C32.0939 35.1094 32.0881 34.6962 32.0836 34.2829C32.0813 34.1043 32.0781 33.9256 32.074 33.7469C32.0683 33.4897 32.0657 33.2327 32.0636 32.9755C32.0611 32.8208 32.0587 32.6662 32.0562 32.5068C32.1094 32.1094 32.1094 32.1094 32.2929 31.8539C32.6718 31.5706 32.9905 31.5753 33.4455 31.5811C33.5331 31.5804 33.6208 31.5796 33.7111 31.5789C34.0049 31.577 34.2987 31.5785 34.5925 31.58C34.8031 31.5793 35.0137 31.5785 35.2243 31.5775C35.7964 31.5753 36.3685 31.5762 36.9406 31.5777C37.539 31.5788 38.1373 31.5777 38.7356 31.577C39.7405 31.5762 40.7453 31.5773 41.7502 31.5795C42.9124 31.5821 44.0747 31.5812 45.2369 31.5787C46.2343 31.5765 47.2316 31.5762 48.2289 31.5775C48.8248 31.5782 49.4207 31.5783 50.0166 31.5767C50.5768 31.5754 51.137 31.5763 51.6972 31.579C51.903 31.5796 52.1087 31.5795 52.3145 31.5784C52.5951 31.5772 52.8755 31.5788 53.1561 31.5811C53.2378 31.5801 53.3196 31.579 53.4038 31.5779C53.7912 31.5842 53.9942 31.6187 54.3079 31.8535C54.5809 32.2326 54.5641 32.4742 54.4922 32.9297C54.1898 33.3159 54.0169 33.495 53.5288 33.5861C53.3153 33.5841 53.3153 33.5841 53.0975 33.5821C53.0172 33.5822 52.937 33.5823 52.8544 33.5824C52.5962 33.5819 52.3383 33.5775 52.0802 33.5728C51.9203 33.572 51.7603 33.5714 51.6003 33.5711C51.0091 33.568 50.4179 33.5598 49.8267 33.5522C48.5046 33.5402 47.1825 33.5281 45.8203 33.5156C45.8203 36.2613 45.8203 39.007 45.8203 41.8359C46.207 41.8746 46.5937 41.9133 46.9922 41.9531C46.9938 41.7811 46.9938 41.7811 46.9955 41.6056C47.0002 41.1792 47.0079 40.7529 47.0165 40.3266C47.0198 40.1423 47.0223 39.9579 47.0239 39.7735C47.0265 39.5082 47.0319 39.243 47.038 38.9777C47.0381 38.8955 47.0382 38.8133 47.0384 38.7287C47.05 38.3388 47.0797 38.1238 47.3231 37.8131C47.682 37.5373 48.0485 37.2958 48.4351 37.0605C48.5099 37.0124 48.5848 36.9642 48.6619 36.9145C49.1764 36.6007 49.5383 36.4977 50.1562 36.5625C50.4346 36.687 50.4346 36.687 50.625 36.9141C50.7468 37.3527 50.7996 37.6118 50.6039 38.0296C50.364 38.3566 50.1482 38.5085 49.7974 38.7085C49.6945 38.7685 49.5916 38.8284 49.4856 38.8902C49.2187 39.0234 49.2187 39.0234 48.9844 39.0234C48.9844 40.1062 48.9844 41.1891 48.9844 42.3047C49.3708 42.3544 49.7572 42.4041 50.1553 42.4553C51.4897 42.6288 52.8227 42.811 54.154 43.0075C54.3929 43.0424 54.6319 43.0766 54.871 43.11C55.2239 43.1595 55.5763 43.2113 55.9286 43.2637C56.0351 43.2781 56.1415 43.2925 56.2512 43.3074C56.8343 43.3971 57.2474 43.4852 57.6562 43.9453C57.7603 44.3365 57.7856 44.6959 57.7756 45.0992C57.7733 45.2088 57.771 45.3183 57.7687 45.4312C57.7645 45.6068 57.7645 45.6068 57.7602 45.786C57.7564 46.0361 57.7528 46.2863 57.7494 46.5365C57.7436 46.9292 57.7368 47.3218 57.7268 47.7145C57.7176 48.0946 57.7129 48.4746 57.7089 48.8548C57.7049 48.9712 57.7009 49.0876 57.6968 49.2074C57.6939 49.9421 57.8207 50.3465 58.3087 50.9021C58.525 51.149 58.6353 51.4023 58.7476 51.709C58.7834 51.8038 58.8192 51.8987 58.856 51.9965C59.305 53.3501 59.1706 54.8798 58.5901 56.1662C57.9019 57.5216 56.8593 58.4311 55.432 58.9568C53.7993 59.4205 52.2809 59.2093 50.7715 58.4546C49.4895 57.675 48.7221 56.4938 48.2918 55.079C48.1267 54.3074 48.197 53.8109 48.2812 52.9687C45.5355 52.9687 42.7898 52.9687 39.9609 52.9687C39.9223 53.2395 39.8836 53.5102 39.8437 53.7891C39.0703 55.7227 37.6134 57.0416 35.7275 57.8687C33.8896 58.6314 31.7826 58.5819 29.951 57.8471C27.9238 56.9253 26.5576 55.3051 25.7762 53.2301C25.2163 51.3506 25.4716 49.3048 26.2793 47.5415C27.2722 45.7162 28.8725 44.4119 30.8455 43.7984C31.2299 43.6954 31.5962 43.6297 31.9922 43.5937C31.9922 43.091 31.9922 42.5883 31.9922 42.0703C31.6412 42.0818 31.2903 42.0932 30.9393 42.1046C30.5434 42.0662 30.3919 42.0024 30.1172 41.7187C29.9855 41.4055 29.9659 41.1182 30 40.7812C30.1978 40.4297 30.1978 40.4297 30.5859 40.1953C31.066 40.1473 31.5074 40.1687 31.9922 40.1953C31.9922 39.4219 31.9922 38.6484 31.9922 37.8516C31.6441 37.7355 31.2961 37.6195 30.9375 37.5C30.7145 37.4162 30.4922 37.3306 30.271 37.2423C25.934 35.5309 21.4959 34.3628 16.875 33.728C16.7447 33.7099 16.6143 33.6917 16.48 33.673C13.9897 33.3485 11.5006 33.2424 8.99088 33.2507C8.53952 33.252 8.08822 33.2507 7.63687 33.2492C6.01419 33.2484 4.41391 33.3065 2.79882 33.4654C1.5033 33.5858 1.5033 33.5858 1.06201 33.2666C0.820312 32.9297 0.820312 32.9297 0.754395 32.5708C0.838627 32.1309 0.918427 32.0109 1.28906 31.7578C2.06923 31.513 2.88814 31.4555 3.69873 31.3916C3.8124 31.3815 3.92608 31.3714 4.0432 31.3609C5.04827 31.2785 6.01289 31.2891 7.03125 31.2891C7.03125 27.4605 7.03125 23.632 7.03125 19.6875C5.87109 19.6875 4.71094 19.6875 3.51562 19.6875C2.92969 19.3359 2.92969 19.3359 2.8125 19.1016C2.74982 18.7098 2.71999 18.4158 2.95254 18.0775C3.58796 17.3809 4.24901 16.711 4.9163 16.0451C5.04421 15.917 5.17211 15.7889 5.29998 15.6608C5.64469 15.3156 5.98976 14.9707 6.33492 14.6259C6.69674 14.2644 7.05828 13.9026 7.41985 13.5408C8.02614 12.9343 8.63268 12.328 9.23936 11.7219C9.94114 11.0208 10.6425 10.3192 11.3436 9.61743C11.9463 9.01419 12.5493 8.41118 13.1524 7.80836C13.5124 7.44859 13.8722 7.08873 14.2319 6.72867C14.5694 6.39088 14.9071 6.05337 15.2451 5.71609C15.3692 5.59209 15.4933 5.46798 15.6172 5.34377C15.7859 5.17476 15.955 5.00614 16.1241 4.83755C16.2661 4.69565 16.2661 4.69565 16.4109 4.55088C16.8263 4.16218 17.1327 4.14615 17.6953 4.21875ZM16.7854 6.87162C16.6431 7.01335 16.6431 7.01335 16.498 7.15795C16.3933 7.26296 16.2885 7.36797 16.1805 7.47617C16.0697 7.58684 15.9589 7.69748 15.848 7.8081C15.546 8.10951 15.2445 8.41129 14.943 8.71315C14.6282 9.02827 14.3131 9.3431 13.998 9.65797C13.4689 10.1869 12.94 10.7161 12.4112 11.2454C11.7989 11.8583 11.1863 12.4708 10.5734 13.083C10.0482 13.6077 9.52319 14.1326 8.99842 14.6577C8.68454 14.9717 8.37059 15.2857 8.05643 15.5995C7.76117 15.8944 7.46619 16.1896 7.17143 16.485C7.01089 16.6458 6.85005 16.8063 6.6892 16.9668C6.59471 17.0616 6.50022 17.1564 6.40287 17.2541C6.27865 17.3784 6.27865 17.3784 6.15193 17.5052C5.96332 17.6666 5.96332 17.6666 5.97656 17.8125C13.4402 17.8125 20.9039 17.8125 28.5937 17.8125C28.0149 17.1349 28.0149 17.1349 27.4065 16.4931C27.3169 16.4033 27.2274 16.3134 27.1351 16.2208C27.0392 16.1251 26.9433 16.0295 26.8445 15.9309C26.7417 15.8279 26.6389 15.7249 26.533 15.6188C26.2534 15.3387 25.9735 15.0589 25.6935 14.7793C25.3999 14.4861 25.1067 14.1925 24.8134 13.8991C24.3218 13.4072 23.8299 12.9156 23.3379 12.4242C22.7685 11.8554 22.1996 11.2863 21.6308 10.7169C21.142 10.2275 20.6529 9.73837 20.1636 9.24941C19.8716 8.95755 19.5796 8.66562 19.2879 8.37348C18.9636 8.0488 18.6389 7.72461 18.3141 7.40046C18.217 7.30313 18.1199 7.2058 18.0198 7.10552C17.9319 7.01796 17.8441 6.9304 17.7535 6.84019C17.6768 6.76348 17.6 6.68677 17.5209 6.60773C17.1801 6.29527 17.0711 6.58603 16.7854 6.87162ZM9.02344 19.6875C9.02344 23.516 9.02344 27.3445 9.02344 31.2891C11.2512 31.3912 11.2512 31.3912 13.4766 31.4062C13.477 31.3336 13.4774 31.261 13.4779 31.1862C13.4827 30.4315 13.4909 29.6768 13.5009 28.9222C13.5042 28.6404 13.5067 28.3586 13.5083 28.0768C13.5108 27.6721 13.5163 27.2676 13.5223 26.8629C13.5226 26.6734 13.5226 26.6734 13.5228 26.4801C13.5251 26.3628 13.5274 26.2455 13.5298 26.1247C13.5313 25.9697 13.5313 25.9697 13.5329 25.8116C13.5937 25.5469 13.5937 25.5469 13.7917 25.3381C14.1197 25.1652 14.3387 25.1493 14.7088 25.1461C14.8383 25.1442 14.9678 25.1424 15.1011 25.1405C15.2404 25.1404 15.3797 25.1404 15.5232 25.1404C15.7386 25.139 15.7386 25.139 15.9584 25.1377C16.2621 25.1364 16.5658 25.1361 16.8695 25.1366C17.3343 25.1367 17.7989 25.1318 18.2636 25.1266C18.5587 25.126 18.8537 25.1257 19.1487 25.1257C19.3573 25.1228 19.3573 25.1228 19.5701 25.1199C20.1216 25.1245 20.5132 25.1363 21.0051 25.3961C21.3371 26.0173 21.296 26.6317 21.2938 27.3253C21.2956 27.4753 21.2973 27.6254 21.2992 27.7799C21.3038 28.1774 21.305 28.5748 21.3055 28.9723C21.3066 29.3784 21.3109 29.7845 21.3151 30.1907C21.3229 30.9865 21.3254 31.7822 21.3281 32.5781C22.759 32.9262 24.1898 33.2742 25.6641 33.6328C25.6641 29.0309 25.6641 24.4289 25.6641 19.6875C20.1727 19.6875 14.6812 19.6875 9.02344 19.6875ZM15.3516 26.8359C15.3516 28.3828 15.3516 29.9297 15.3516 31.5234C16.1499 31.6831 16.936 31.8291 17.7393 31.9482C17.8418 31.964 17.9444 31.9797 18.0501 31.9958C18.149 32.0107 18.248 32.0255 18.3499 32.0407C18.4823 32.0606 18.4823 32.0606 18.6174 32.0808C18.9029 32.1182 18.9029 32.1182 19.3359 32.1094C19.3359 30.3691 19.3359 28.6289 19.3359 26.8359C18.0211 26.8359 16.7062 26.8359 15.3516 26.8359ZM33.8672 33.5156C33.8648 34.6347 33.8624 35.7538 33.8599 36.9067C33.8588 37.2605 33.8577 37.6143 33.8566 37.9788C33.8563 38.2573 33.856 38.5358 33.8557 38.8142C33.8551 38.9604 33.8545 39.1066 33.8539 39.2571C33.8539 39.3951 33.8539 39.5331 33.8539 39.6753C33.8536 39.7957 33.8534 39.9162 33.8531 40.0404C33.8365 40.308 33.8365 40.308 33.9844 40.4297C34.1839 40.4664 34.3836 40.5025 34.5839 40.5351C37.1848 40.9624 39.3637 42.2373 41.1328 44.1797C41.1715 44.257 41.2102 44.3344 41.25 44.4141C42.1395 44.4141 43.0289 44.4141 43.9453 44.4141C43.9453 40.8176 43.9453 37.2211 43.9453 33.5156C40.6195 33.5156 37.2937 33.5156 33.8672 33.5156ZM33.8672 42.1875C33.8672 42.6516 33.8672 43.1156 33.8672 43.5937C33.9862 43.6271 34.1053 43.6605 34.2279 43.6949C36.3233 44.2956 38.0612 45.1811 39.2432 47.0874C39.9331 48.3601 40.1632 49.6733 40.3125 51.0937C40.7766 51.0937 41.2406 51.0937 41.7187 51.0937C41.8269 48.9035 41.033 46.7862 39.5988 45.1282C39.525 45.0472 39.4511 44.9662 39.375 44.8828C39.2841 44.7759 39.2841 44.7759 39.1914 44.6667C37.9903 43.3421 36.1806 42.5268 34.4531 42.1875C34.2598 42.1875 34.0664 42.1875 33.8672 42.1875ZM45.9375 43.7109C45.9268 43.9205 45.9268 43.9205 45.916 44.1344C45.9061 44.3179 45.8962 44.5015 45.8862 44.6851C45.8816 44.7771 45.877 44.8692 45.8723 44.9641C45.8674 45.0528 45.8624 45.1416 45.8574 45.233C45.8531 45.3146 45.8488 45.3962 45.8444 45.4803C45.8203 45.7031 45.8203 45.7031 45.7031 46.0547C44.6977 46.0934 43.6922 46.132 42.6562 46.1719C42.8892 46.8766 42.8892 46.8766 43.1364 47.5763C43.4224 48.3958 43.5354 49.1713 43.6079 50.0336C43.6181 50.1471 43.6282 50.2607 43.6387 50.3776C43.6634 50.6553 43.6875 50.9331 43.7109 51.2109C44.449 51.2348 45.187 51.2511 45.9254 51.2624C46.1764 51.2671 46.4274 51.2735 46.6783 51.2817C47.0396 51.2931 47.4006 51.2984 47.7621 51.3025C47.8739 51.3073 47.9856 51.3122 48.1007 51.3172C48.7064 51.3213 48.7064 51.3213 49.2035 51.0109C49.3823 50.7725 49.5338 50.5285 49.6875 50.2734C50.4531 49.3389 51.6357 48.643 52.8516 48.5156C53.9281 48.4593 54.8213 48.5542 55.8984 48.75C55.8984 47.6285 55.8984 46.507 55.8984 45.3516C55.2694 45.1943 54.6636 45.0583 54.0262 44.9615C53.938 44.9477 53.8499 44.934 53.7591 44.9198C53.4713 44.875 53.1834 44.8309 52.8955 44.7867C52.6945 44.7555 52.4936 44.7243 52.2926 44.6931C51.7663 44.6114 51.24 44.5303 50.7136 44.4492C50.1755 44.3662 49.6374 44.2828 49.0993 44.1994C48.0454 44.0361 46.9915 43.8733 45.9375 43.7109ZM28.7801 47.336C27.7061 48.7319 27.2518 50.1572 27.4219 51.9141C27.7186 53.4489 28.483 54.7553 29.7656 55.6641C31.1946 56.5207 32.5771 56.8286 34.2187 56.4697C35.7922 56.0365 36.9641 55.139 37.7834 53.7396C38.5182 52.3517 38.6267 50.9666 38.2082 49.4517C37.702 48.0014 36.8335 46.9373 35.5078 46.1719C33.2222 45.1577 30.5393 45.4133 28.7801 47.336ZM50.8228 51.6504C50.2997 52.3972 50.009 53.3458 50.1562 54.2578C50.4317 55.3743 50.9541 56.1813 51.9141 56.8213C52.7401 57.2922 53.6049 57.4525 54.5348 57.242C55.6741 56.8916 56.4554 56.1938 57.0557 55.1733C57.4576 54.1684 57.3881 53.2199 56.9911 52.224C56.497 51.2372 55.6861 50.6186 54.668 50.2368C53.127 49.9341 51.8149 50.4437 50.8228 51.6504Z" fill="currentColor"/>
<path d="M8.78906 37.1484C9.41054 37.6572 9.82604 38.4573 10.2393 39.1333C10.3056 39.2414 10.3719 39.3495 10.4402 39.4608C12.7467 43.2652 12.7467 43.2652 12.3528 45.2271C12.0178 46.4372 11.2602 47.2979 10.1976 47.9485C9.96094 48.0469 9.96094 48.0469 9.25781 48.1641C9.25781 49.0535 9.25781 49.943 9.25781 50.8594C10.3258 50.4146 10.3258 50.4146 10.5176 49.7314C10.5405 49.6408 10.5635 49.5502 10.5872 49.4568C10.6641 49.2188 10.6641 49.2188 10.9277 48.9697C11.3592 48.8324 11.6357 48.8637 12.0703 48.9844C12.3401 49.1933 12.405 49.3477 12.4585 49.6815C12.5025 50.4698 12.2916 51.1447 11.7929 51.7603C11.2621 52.2673 10.6044 52.5309 9.93668 52.8168C9.6018 52.9495 9.6018 52.9495 9.375 53.2031C9.34625 53.5133 9.33121 53.8125 9.32648 54.1232C9.32441 54.2036 9.32234 54.284 9.32021 54.3668C9.31282 54.6674 9.30741 54.968 9.30176 55.2686C9.28 56.2764 9.28 56.2764 9.25781 57.3047C11.9648 57.3047 14.6719 57.3047 17.4609 57.3047C17.4223 56.6859 17.3836 56.0672 17.3438 55.4297C16.9192 55.1113 16.5477 54.9174 16.0693 54.6973C15.2283 54.2908 14.7308 53.906 14.3628 53.042C14.2825 52.5246 14.2763 52.0699 14.4141 51.5625C14.6861 51.2172 14.8556 51.2143 15.293 51.1597C15.7031 51.2109 15.7031 51.2109 15.9741 51.3867C16.1713 51.6788 16.204 51.8128 16.2598 52.1484C16.3323 52.3805 16.3323 52.3805 16.4062 52.6172C16.8703 52.8492 16.8703 52.8492 17.3438 53.0859C17.3824 51.4617 17.4211 49.8375 17.4609 48.1641C17.1129 48.1061 17.1129 48.1061 16.7578 48.0469C15.6004 47.4223 14.8588 46.5786 14.4141 45.3516C13.9338 43.7108 14.8008 42.0856 15.5673 40.6723C17.0449 38.0332 17.0449 38.0332 17.9297 37.1484C18.5895 37.0825 18.5895 37.0825 18.8672 37.1484C19.3773 37.5743 19.7166 38.0943 20.0684 38.6499C20.124 38.737 20.1796 38.8241 20.2369 38.9139C22.9277 43.1696 22.9277 43.1696 22.4281 45.5814C22.0389 46.6684 21.1966 47.5544 20.1562 48.0469C19.8082 48.1629 19.8082 48.1629 19.4531 48.2813C19.4145 49.132 19.3758 49.9828 19.3359 50.8594C20.1136 50.5885 20.1136 50.5885 20.6433 50.0121C20.6938 49.8277 20.7415 49.6426 20.7861 49.4568C20.8594 49.2188 20.8594 49.2188 21.1304 48.9697C21.5254 48.8411 21.7525 48.8639 22.1484 48.9844C22.4315 49.1898 22.4933 49.2954 22.5508 49.6449C22.5518 50.4125 22.538 51.07 22.0312 51.6797C21.3943 52.2345 20.6141 52.5733 19.8523 52.9225C19.5341 53.0654 19.5341 53.0654 19.4531 53.4375C19.4352 53.7317 19.423 54.0233 19.416 54.3178C19.4124 54.4458 19.4124 54.4458 19.4087 54.5764C19.401 54.8486 19.3941 55.1208 19.3872 55.3931C19.3821 55.5778 19.377 55.7625 19.3719 55.9472C19.3593 56.3997 19.3475 56.8522 19.3359 57.3047C19.4112 57.3036 19.4865 57.3026 19.5641 57.3015C20.3473 57.2912 21.1305 57.2841 21.9137 57.2789C22.2061 57.2766 22.4984 57.2734 22.7908 57.2693C23.2108 57.2636 23.6308 57.261 24.0509 57.2589C24.1818 57.2565 24.3127 57.2541 24.4475 57.2516C24.5695 57.2515 24.6914 57.2515 24.8171 57.2515C24.9243 57.2504 25.0315 57.2494 25.142 57.2483C25.5196 57.3223 25.6588 57.4794 25.8984 57.7734C25.9648 58.0078 25.9648 58.0078 25.9644 58.2422C25.9669 58.3195 25.9695 58.3969 25.9721 58.4766C25.8539 58.8527 25.6406 58.9697 25.3125 59.1797C24.9727 59.2251 24.6777 59.2436 24.3384 59.24C24.2407 59.2408 24.143 59.2416 24.0423 59.2425C23.7151 59.2446 23.388 59.2434 23.0608 59.2422C22.8261 59.243 22.5914 59.2441 22.3568 59.2453C21.7195 59.2479 21.0823 59.2476 20.445 59.2465C19.9132 59.2459 19.3814 59.2468 18.8496 59.2476C17.5953 59.2496 16.341 59.2492 15.0866 59.2472C13.792 59.2453 12.4973 59.2471 11.2027 59.2509C10.0915 59.254 8.9803 59.2549 7.86912 59.2539C7.20528 59.2533 6.54147 59.2536 5.87763 59.256C5.25355 59.2581 4.62954 59.2574 4.00546 59.2545C3.7763 59.254 3.54713 59.2544 3.31797 59.2558C3.00535 59.2577 2.69295 59.256 2.38034 59.2533C2.28943 59.2547 2.19852 59.2561 2.10485 59.2575C1.63818 59.2494 1.42763 59.1965 1.05652 58.9041C0.820312 58.5938 0.820312 58.5938 0.754395 58.2422C0.841708 57.7765 0.92753 57.6184 1.28906 57.3047C1.74835 57.2205 2.20232 57.2367 2.66785 57.2475C2.80244 57.2483 2.93703 57.2491 3.07571 57.25C3.50563 57.2533 3.93537 57.2606 4.36523 57.2681C4.65667 57.271 4.94812 57.2737 5.23956 57.2761C5.95404 57.2825 6.66841 57.2923 7.38281 57.3047C7.3986 56.2448 7.3986 56.2448 7.0166 55.2937C6.51015 54.9696 5.98247 54.7303 5.43457 54.4853C4.81856 54.131 4.41903 53.6653 4.21875 52.9688C4.14931 52.3995 4.10874 51.8689 4.40186 51.3647C4.79732 51.1518 5.065 51.1556 5.50781 51.2109C5.8327 51.3935 5.95438 51.4961 6.07361 51.8532C6.08992 51.9579 6.10624 52.0626 6.12305 52.1704C6.14057 52.276 6.15809 52.3816 6.17615 52.4904C6.18763 52.5709 6.19911 52.6514 6.21094 52.7344C6.55898 52.8504 6.90703 52.9664 7.26562 53.0859C7.3043 51.4617 7.34297 49.8375 7.38281 48.1641C7.03477 48.1061 7.03477 48.1061 6.67969 48.0469C6.08243 47.7661 5.5965 47.3642 5.15625 46.875C5.07649 46.7904 4.99673 46.7058 4.91455 46.6187C4.23558 45.6331 4.07817 44.66 4.21875 43.4766C4.7114 41.283 6.22001 38.993 7.61719 37.2656C8.00145 37.0735 8.37671 37.0562 8.78906 37.1484ZM8.20312 39.7266C6.60719 42.0821 6.60719 42.0821 6.09375 44.7656C6.29533 45.3173 6.59079 45.6693 7.03125 46.0547C7.14727 46.0934 7.26328 46.132 7.38281 46.1719C7.38583 46.0491 7.38885 45.9262 7.39197 45.7997C7.39856 45.6381 7.40528 45.4765 7.41211 45.3149C7.41377 45.234 7.41543 45.1532 7.41714 45.0698C7.4354 44.692 7.45187 44.4674 7.70966 44.1815C8.15712 43.976 8.4308 44.0647 8.90625 44.1797C9.1882 44.5633 9.18605 44.9758 9.21387 45.4395C9.22263 45.5766 9.23139 45.7138 9.24042 45.8551C9.24616 45.9596 9.2519 46.0642 9.25781 46.1719C9.83891 45.8386 10.1743 45.524 10.4663 44.9121C10.662 43.9869 10.3628 43.208 9.95361 42.3853C9.90685 42.289 9.86009 42.1927 9.81191 42.0935C9.20309 40.7288 9.20309 40.7288 8.20312 39.7266ZM18.3984 39.7266C17.8566 40.4421 17.4345 41.2323 17.0215 42.0264C16.9651 42.1321 16.9088 42.2379 16.8507 42.3468C16.4048 43.1988 16.0448 43.9058 16.2891 44.8828C16.5297 45.4487 16.8276 45.8231 17.3438 46.1719C17.3824 46.1719 17.4211 46.1719 17.4609 46.1719C17.4667 46.0673 17.4724 45.9628 17.4783 45.8551C17.4871 45.7179 17.4959 45.5808 17.5049 45.4395C17.513 45.3035 17.5212 45.1675 17.5296 45.0275C17.5743 44.6783 17.6052 44.4617 17.8125 44.1797C18.5937 43.9907 18.5937 43.9907 19.0091 44.1815C19.317 44.523 19.2976 44.8761 19.3066 45.3149C19.3101 45.3972 19.3136 45.4794 19.3172 45.5642C19.3254 45.7667 19.331 45.9693 19.3359 46.1719C19.9351 45.9759 20.1627 45.708 20.4868 45.1817C20.7736 44.5616 20.723 44.0285 20.5247 43.3859C20.0292 42.1241 19.3674 40.7849 18.5156 39.7266C18.477 39.7266 18.4383 39.7266 18.3984 39.7266Z" fill="black"/>
<path d="M51.7969 7.96875C53.0317 9.25395 53.653 10.7598 53.6719 12.5391C53.5452 14.3584 52.9361 15.8046 51.6064 17.0801C50.2395 18.1968 48.6199 18.6523 46.875 18.5156C45.1689 18.2728 43.7627 17.4921 42.6778 16.1412C41.6765 14.7033 41.2695 13.1091 41.5388 11.3663C41.9132 9.66956 42.7688 8.26265 44.2163 7.28027C46.6829 5.8196 49.6412 6.09707 51.7969 7.96875ZM44.2209 9.84329C43.4943 10.8375 43.2488 11.929 43.3882 13.1415C43.5985 14.3817 44.3439 15.3347 45.3516 16.0547C45.9108 16.3731 46.4644 16.5857 47.1094 16.6406C47.2471 16.6527 47.3849 16.6648 47.5269 16.6772C48.7012 16.6547 49.809 16.189 50.625 15.3516C50.8984 15.0174 51.121 14.6753 51.3281 14.2969C51.368 14.2277 51.4079 14.1585 51.449 14.0872C51.8856 13.1694 51.8369 11.7986 51.5112 10.8545C50.9788 9.73892 50.0351 8.87914 48.8951 8.42605C47.1545 7.94105 45.3704 8.45131 44.2209 9.84329Z" fill="black"/>
<path d="M34.6875 48.3984C35.3913 48.9057 35.7665 49.5552 35.9766 50.3906C36.0943 51.2628 35.9587 52.1055 35.4739 52.8488C34.9913 53.4554 34.4053 53.8734 33.6328 54.0234C32.6057 54.1209 31.7893 54.0501 30.9375 53.4375C30.3247 52.8909 29.9258 52.2632 29.8499 51.4394C29.8216 50.4192 29.9234 49.5854 30.634 48.7949C31.8178 47.7652 33.329 47.629 34.6875 48.3984ZM31.9922 50.1563C31.684 50.5485 31.707 50.9628 31.7578 51.4453C31.9682 51.768 32.1155 51.9757 32.4609 52.1484C33.0434 52.1924 33.4045 52.167 33.8672 51.7969C34.1166 51.4908 34.1151 51.2393 34.0869 50.8594C34.0337 50.5344 33.9811 50.3856 33.7939 50.105C33.1571 49.686 32.6103 49.7394 31.9922 50.1563Z" fill="black"/>
<path d="M41.8359 17.5781C42.2123 17.8563 42.3886 18.0392 42.5098 18.4936C42.3739 19.071 42.012 19.3913 41.6016 19.8047C41.5088 19.9005 41.4161 19.9962 41.3205 20.0949C40.4772 20.9546 40.4772 20.9546 39.9829 21.0205C39.6094 20.9766 39.6094 20.9766 39.2725 20.7275C39.0234 20.3906 39.0234 20.3906 38.9355 20.061C39.0714 19.4837 39.4334 19.1634 39.8438 18.75C39.9829 18.6063 39.9829 18.6063 40.1248 18.4598C41.0772 17.4889 41.0772 17.4889 41.8359 17.5781Z" fill="black"/>
<path d="M57.1875 11.4185C57.3774 11.4143 57.3774 11.4143 57.5711 11.41C58.4942 11.4117 58.4942 11.4117 58.9705 11.7595C59.2287 12.1432 59.2648 12.3198 59.1797 12.7734C58.9847 13.0838 58.9847 13.0838 58.7109 13.3594C58.3855 13.4333 58.3855 13.4333 58.0151 13.4331C57.8144 13.4334 57.8144 13.4334 57.6096 13.4338C57.4703 13.431 57.331 13.4282 57.1875 13.4253C56.9786 13.4272 56.9786 13.4272 56.7654 13.4292C55.7388 13.4205 55.7388 13.4205 55.3903 13.1355C55.1793 12.8705 55.1287 12.7557 55.1294 12.4219C55.1268 12.3445 55.1243 12.2672 55.1216 12.1875C55.4086 11.2747 56.413 11.4106 57.1875 11.4185Z" fill="black"/>
<path d="M37.9688 11.4185C38.1586 11.4143 38.1586 11.4143 38.3524 11.41C39.2755 11.4117 39.2755 11.4117 39.7517 11.7595C40.01 12.1432 40.046 12.3198 39.9609 12.7734C39.7659 13.0838 39.7659 13.0838 39.4922 13.3594C39.1667 13.4333 39.1667 13.4333 38.7964 13.4331C38.5956 13.4334 38.5956 13.4334 38.3908 13.4338C38.2515 13.431 38.1122 13.4282 37.9688 13.4253C37.7598 13.4272 37.7598 13.4272 37.5467 13.4292C36.52 13.4205 36.52 13.4205 36.1716 13.1355C35.9606 12.8705 35.91 12.7557 35.9106 12.4219C35.9081 12.3445 35.9055 12.2672 35.9029 12.1875C36.1899 11.2747 37.1943 11.4106 37.9688 11.4185Z" fill="black"/>
<path d="M47.71 20.0317C47.7876 20.0425 47.8653 20.0532 47.9453 20.0642C48.2481 20.1916 48.3441 20.3463 48.5156 20.625C48.5883 21.0886 48.5699 21.5552 48.5669 22.0239C48.5704 22.2146 48.5704 22.2146 48.574 22.4091C48.5734 23.3328 48.5734 23.3328 48.3073 23.8147C48.0334 24.0343 47.924 24.1008 47.5781 24.0894C47.5008 24.0895 47.4234 24.0897 47.3438 24.0898C47.0035 23.9935 46.864 23.8259 46.6406 23.5547C46.5445 23.0735 46.57 22.5869 46.5747 22.0972C46.5719 21.9645 46.5691 21.8318 46.5662 21.695C46.5679 20.7297 46.5679 20.7297 46.9075 20.2405C47.2285 20.0378 47.3434 19.9678 47.71 20.0317Z" fill="black"/>
<path d="M55.6641 3.98437C55.9678 4.18338 56.0114 4.32211 56.1182 4.67285C56.1385 5.18039 55.9486 5.43799 55.6131 5.81285C55.4161 6.01743 55.2152 6.21729 55.0122 6.41601C54.9431 6.48505 54.874 6.55409 54.8028 6.62521C54.1694 7.25211 54.1694 7.25211 53.6279 7.30224C53.2031 7.26562 53.2031 7.26562 52.9175 7.08252C52.6522 6.66861 52.6455 6.46155 52.7344 5.97656C52.9669 5.62268 53.255 5.3366 53.5547 5.03906C53.6461 4.94344 53.7375 4.84782 53.8316 4.7493C54.7851 3.76463 54.7851 3.76463 55.6641 3.98437Z" fill="black"/>
<path d="M53.7085 17.5488C54.2973 17.7484 54.6418 18.0836 55.0781 18.5156C55.1552 18.5883 55.2322 18.6609 55.3116 18.7358C55.6602 19.0707 55.9489 19.3499 56.1328 19.8047C56.1234 20.2571 56.0658 20.4503 55.7666 20.7935C55.3037 21.045 55.1169 21.0011 54.6094 20.8594C54.2422 20.5971 53.9349 20.2884 53.6206 19.9658C53.5349 19.8838 53.4492 19.8018 53.3608 19.7173C52.9641 19.3179 52.7529 19.1022 52.6639 18.5349C52.7834 17.9063 53.062 17.5976 53.7085 17.5488Z" fill="black"/>
<path d="M47.9297 0.820315C48.2405 1.02951 48.2405 1.02951 48.5156 1.40625C48.6004 1.87638 48.5921 2.3361 48.5815 2.8125C48.5828 2.93909 48.5841 3.06568 48.5854 3.19611C48.5804 3.74302 48.5752 4.11359 48.3023 4.59503C48.0469 4.80469 48.0469 4.80469 47.644 4.87793C47.096 4.78179 46.9647 4.67295 46.6406 4.21875C46.553 3.7268 46.5589 3.24505 46.5674 2.74659C46.5651 2.61342 46.5629 2.48026 46.5605 2.34307C46.5662 1.37583 46.5662 1.37583 46.9162 0.967715C47.301 0.78495 47.509 0.741443 47.9297 0.820315Z" fill="black"/>
<path d="M40.6641 4.10156C40.9592 4.32444 41.2089 4.58007 41.4624 4.84863C41.5294 4.91631 41.5964 4.98398 41.6654 5.05371C41.9837 5.38136 42.2486 5.66464 42.4219 6.09375C42.3968 6.8083 42.3968 6.8083 42.1069 7.14111C41.7276 7.31541 41.5487 7.3456 41.1328 7.26563C40.784 7.02892 40.4951 6.74026 40.1953 6.44531C40.0995 6.35936 40.0038 6.2734 39.9051 6.18485C39.4765 5.7882 39.1819 5.50857 38.9868 4.95117C39.0318 4.48316 39.1531 4.30461 39.4922 3.98438C39.9423 3.83432 40.2454 3.90621 40.6641 4.10156Z" fill="black"/>
<path d="M54.2578 52.8516C54.5788 53.0379 54.6035 53.1837 54.7119 53.54C54.7298 53.9882 54.6667 54.1535 54.375 54.4922C53.9799 54.6897 53.7788 54.7557 53.3496 54.6387C53.0859 54.4922 53.0859 54.4922 52.8516 54.2578C52.7734 53.4505 52.7734 53.4505 53.0273 53.0273C53.4676 52.7632 53.7476 52.7949 54.2578 52.8516Z" fill="black"/>
</g>
<defs>
<clipPath id="clip0_87_2">
<rect width="60" height="60" fill="white"/>
</clipPath>
</defs>
</svg>
