<svg width="40" height="40" viewBox="0 0 40 40" fill="none" xmlns="http://www.w3.org/2000/svg">
<path fill-rule="evenodd" clip-rule="evenodd" d="M34.0388 29.5225L25.0001 17.0938V5H27.5001V2.5H12.5001V5H15.0001V17.0938L5.96131 29.5225C4.8496 31.0504 4.68948 33.0729 5.54693 34.7567C6.40438 36.4404 8.13429 37.5005 10.0238 37.5H29.9751C31.8646 37.5005 33.5945 36.4404 34.4519 34.7567C35.3094 33.0729 35.1493 31.0504 34.0376 29.5225H34.0388ZM17.4999 17.9062V5H22.4999V17.9062L25.8412 22.5H14.1587L17.4999 17.9062ZM29.9762 35H10.025C9.07634 34.999 8.20831 34.4663 7.77775 33.621C7.34719 32.7757 7.42675 31.7604 7.98373 30.9925L12.3412 25H27.6587L32.0175 30.9925C32.5745 31.7604 32.654 32.7757 32.2234 33.621C31.7929 34.4663 30.9249 34.999 29.9762 35Z" />
</svg>
