<svg width="60" height="60" viewBox="0 0 60 60" fill="currentColor" xmlns="http://www.w3.org/2000/svg">
<g clip-path="url(#clip0_88_17)">
<mask id="path-1-outside-1_88_17" maskUnits="userSpaceOnUse" x="4.60872" y="13.4582" width="50" height="47" fill="currentColor">
<rect fill="white" x="4.60872" y="13.4582" width="50" height="47"/>
<path d="M30.3516 14.5313C30.739 14.7648 31.0691 15.0512 31.4063 15.3516C31.4951 15.428 31.5839 15.5044 31.6754 15.5832C33.0684 16.8657 33.7274 18.5112 33.9111 20.3655C33.9822 22.4783 33.262 24.1862 31.9496 25.816C31.6406 26.1328 31.6406 26.1328 31.3736 26.3004C30.7826 26.6761 30.7826 26.6761 30.5011 27.2931C30.4822 27.69 30.4936 28.0728 30.52 28.4692C30.5248 28.6053 30.5295 28.7413 30.5344 28.8815C30.5468 29.2158 30.5641 29.549 30.5859 29.8828C30.6757 29.7623 30.6757 29.7623 30.7674 29.6394C31.9753 28.0374 33.6208 27.0099 35.625 26.7188C37.1546 26.6071 38.6122 26.761 39.9609 27.5391C40.2173 27.7955 40.1216 28.385 40.1232 28.7373C40.0934 30.2092 39.5577 31.5284 38.6719 32.6953C38.6048 32.7864 38.5377 32.8775 38.4686 32.9713C37.5135 34.1571 36.1506 34.9071 34.6875 35.2734C34.5997 35.2958 34.512 35.3182 34.4215 35.3412C33.9581 35.4128 33.5005 35.417 33.0322 35.4199C32.8931 35.4235 32.8931 35.4235 32.7512 35.4272C31.9328 35.4325 31.4308 35.2695 30.5859 35.0391C30.5859 36.7406 30.5859 38.4422 30.5859 40.1953C30.8953 39.7699 31.2047 39.3445 31.5234 38.9063C33.1019 37.3038 35.0872 36.4757 37.3315 36.416C38.5423 36.4263 40.3425 36.5925 41.25 37.5C41.4832 39.4747 40.8272 41.5002 39.6272 43.0554C38.2572 44.7064 36.4839 45.7797 34.3359 46.0547C34.0265 46.0744 33.7226 46.087 33.4131 46.0913C33.337 46.0947 33.2608 46.0981 33.1824 46.1016C32.2024 46.1135 31.4855 45.8401 30.4688 45.5859C30.4688 46.8621 30.4688 48.1383 30.4688 49.4531C34.0434 49.0033 36.9625 48.0048 39.6094 45.4688C39.6984 45.3872 39.7873 45.3056 39.879 45.2216C42.3618 42.8717 43.6624 39.3795 43.7581 36.0087C43.8026 32.0967 42.3177 28.585 39.6387 25.7593C38.5403 24.7009 37.2892 23.8742 35.9335 23.1857C35.625 22.9688 35.625 22.9688 35.5271 22.6879C35.5078 22.3828 35.5078 22.3828 35.6292 22.1738C35.7275 22.074 35.7275 22.074 35.8278 21.9722C36.153 21.6306 36.4647 21.2846 36.7665 20.922C38.7391 18.5867 41.6109 16.5876 44.7488 16.2534C45.1718 16.3134 45.4412 16.6051 45.7471 16.8823C45.8176 16.9447 45.8882 17.0071 45.9609 17.0713C46.8082 17.8299 47.6157 18.6284 48.3984 19.4531C48.5051 19.5651 48.6117 19.677 48.7216 19.7923C48.8517 19.9398 48.8517 19.9398 48.9844 20.0903C49.0569 20.1724 49.1294 20.2544 49.2041 20.3389C49.4205 20.8086 49.2975 21.3093 49.1478 21.7905C49.0605 22.0213 48.9668 22.2483 48.8699 22.4753C48.8003 22.6453 48.7307 22.8152 48.6612 22.9852C48.5517 23.249 48.4416 23.5126 48.3309 23.7759C48.2235 24.0327 48.1181 24.2903 48.013 24.548C47.9794 24.6261 47.9459 24.7041 47.9113 24.7845C47.7092 25.2831 47.668 25.614 47.8125 26.1328C47.9267 26.3759 48.0496 26.615 48.1787 26.8506C48.5511 27.5563 48.8331 28.2797 49.0942 29.0332C49.1301 29.1366 49.166 29.2399 49.203 29.3464C49.4531 30.0826 49.4531 30.0826 49.4531 30.3516C49.5898 30.3937 49.7265 30.4359 49.8674 30.4793C50.622 30.731 51.3479 31.0504 52.0765 31.3677C52.3189 31.4731 52.5618 31.5774 52.8046 31.6816C52.9593 31.7486 53.114 31.8157 53.2686 31.8828C53.4079 31.9431 53.5473 32.0035 53.6908 32.0657C54.0234 32.2266 54.0234 32.2266 54.2578 32.4609C54.3714 33.1193 54.3923 33.7644 54.3906 34.4312C54.3907 34.5741 54.3907 34.5741 54.3909 34.7199C54.391 34.92 54.3908 35.1201 54.3903 35.3202C54.3897 35.6242 54.3903 35.9281 54.391 36.232C54.3909 36.4276 54.3908 36.6232 54.3906 36.8189C54.3908 36.9085 54.391 36.9981 54.3913 37.0904C54.3847 38.6338 54.3847 38.6338 54.1027 38.9789C53.7728 39.2505 53.3776 39.3947 52.9871 39.5595C52.8974 39.598 52.8076 39.6365 52.7152 39.6762C52.5259 39.7573 52.3364 39.8379 52.1467 39.9182C51.8561 40.0412 51.5662 40.1659 51.2764 40.2908C51.0923 40.3694 50.9081 40.4479 50.7239 40.5263C50.6371 40.5636 50.5503 40.601 50.4609 40.6395C50.1069 40.7884 49.8412 40.8984 49.4531 40.8984C49.44 40.9714 49.4268 41.0444 49.4133 41.1195C49.1158 42.5137 48.5322 43.908 47.8308 45.1474C47.6099 45.6713 47.7763 46.0733 47.9675 46.5937C48.0315 46.7486 48.0961 46.9032 48.1613 47.0577C48.231 47.2278 48.3005 47.398 48.3701 47.5683C48.4793 47.8337 48.5892 48.0989 48.7003 48.3636C48.808 48.6209 48.9133 48.8792 49.0183 49.1377C49.0518 49.2159 49.0854 49.294 49.1199 49.3745C49.337 49.9155 49.3669 50.2959 49.2188 50.8594C49.0641 51.1046 49.0641 51.1046 48.869 51.3034C48.798 51.3774 48.727 51.4514 48.6539 51.5277C48.5792 51.602 48.5046 51.6764 48.4277 51.7529C48.3185 51.8658 48.3185 51.8658 48.2071 51.9809C47.9992 52.1949 47.7893 52.4065 47.5781 52.6172C47.4743 52.721 47.3706 52.8247 47.2636 52.9317C47.1741 53.0213 47.0845 53.1108 46.9922 53.2031C46.908 53.29 46.8239 53.3768 46.7372 53.4663C45.3093 54.9308 45.3093 54.9308 44.6927 54.9909C44.1924 54.953 43.809 54.7948 43.3516 54.5979C43.1696 54.5226 42.9877 54.4473 42.8057 54.372C42.5214 54.2526 42.2373 54.1327 41.9533 54.0124C41.6777 53.8963 41.4014 53.7819 41.125 53.6678C41.0405 53.6313 40.9561 53.5948 40.869 53.5572C40.4016 53.3647 40.0932 53.2666 39.6094 53.4375C39.3029 53.5765 39.0022 53.7198 38.7012 53.8696C37.9864 54.216 37.268 54.5216 36.5186 54.7852C36.4343 54.815 36.35 54.8449 36.2632 54.8757C35.9187 54.9937 35.6402 55.0781 35.2734 55.0781C35.2082 55.2873 35.2082 55.2873 35.1416 55.5006C34.9041 56.2124 34.6101 56.8998 34.3139 57.5885C34.2182 57.8114 34.1237 58.0346 34.0292 58.258C33.9685 58.3998 33.9078 58.5415 33.8452 58.6876C33.7904 58.8159 33.7355 58.9442 33.679 59.0764C33.3951 59.6632 33.3951 59.6632 33.1641 59.8828C32.5409 60.0313 31.9048 60.0171 31.2671 60.0156C31.1157 60.0157 31.1157 60.0157 30.9612 60.0159C30.7489 60.016 30.5365 60.0158 30.3242 60.0153C30.001 60.0147 29.6778 60.0153 29.3546 60.016C29.1473 60.0159 28.9401 60.0158 28.7329 60.0156C28.5893 60.0159 28.5893 60.0159 28.4428 60.0163C27.8985 60.0141 27.3698 60.0012 26.8359 59.8828C26.233 59.1458 25.9155 58.2105 25.5549 57.3354C25.4507 57.0827 25.3452 56.8307 25.2395 56.5787C25.1727 56.4182 25.1059 56.2577 25.0392 56.0971C25.0077 56.0218 24.9762 55.9465 24.9438 55.8689C24.7266 55.3397 24.7266 55.3397 24.7266 55.0781C24.5766 55.0487 24.4266 55.0192 24.272 54.9889C23.6567 54.8518 23.0893 54.6362 22.5073 54.397C22.4045 54.3556 22.3017 54.3142 22.1958 54.2716C21.575 54.0186 20.976 53.7475 20.3989 53.4041C19.7894 53.1937 19.1492 53.5416 18.5889 53.7822C18.4235 53.8513 18.2581 53.9203 18.0927 53.9893C17.8348 54.0979 17.5772 54.207 17.3197 54.3165C17.0694 54.4227 16.8184 54.5273 16.5674 54.6318C16.4912 54.6648 16.415 54.6977 16.3365 54.7317C15.8734 54.9234 15.5005 55.0132 15 54.9609C14.6782 54.7591 14.6782 54.7591 14.3628 54.4849C14.2515 54.3886 14.1401 54.2924 14.0254 54.1933C13.6337 53.8358 13.2567 53.4695 12.8906 53.0859C12.7964 52.9917 12.7021 52.8974 12.605 52.8003C12.5059 52.7012 12.4068 52.6021 12.3047 52.5C12.2322 52.4302 12.1597 52.3604 12.085 52.2885C11.6908 51.9048 11.3048 51.5141 10.9497 51.0938C10.8625 50.9922 10.8625 50.9922 10.7735 50.8887C10.5518 50.3544 10.752 49.7706 10.9363 49.248C10.9998 49.0983 11.0644 48.9491 11.1301 48.8004C11.1997 48.6357 11.2693 48.4711 11.3388 48.3064C11.4483 48.0511 11.5584 47.796 11.6691 47.5412C11.7766 47.2926 11.8819 47.0431 11.987 46.7935C12.0206 46.7181 12.0541 46.6426 12.0887 46.5649C12.3322 45.983 12.3236 45.5879 12.0993 45.0052C12.048 44.9056 12.048 44.9056 11.9957 44.8041C11.9573 44.7272 11.919 44.6503 11.8794 44.5711C11.8385 44.4903 11.7976 44.4095 11.7554 44.3262C11.3957 43.5918 11.0952 42.8545 10.8398 42.0776C10.81 41.9868 10.7801 41.896 10.7494 41.8024C10.5469 41.1691 10.5469 41.1691 10.5469 40.8984C10.4686 40.8865 10.3903 40.8745 10.3096 40.8622C9.87579 40.7615 9.47859 40.5968 9.07013 40.4233C8.98596 40.3879 8.90178 40.3524 8.81506 40.316C8.63786 40.2412 8.46077 40.1661 8.28381 40.0908C8.0132 39.9758 7.74199 39.8624 7.4707 39.749C7.29824 39.676 7.12582 39.6029 6.95343 39.5297C6.87249 39.496 6.79156 39.4623 6.70817 39.4276C5.92937 39.093 5.92937 39.093 5.74219 38.7891C5.61962 38.1328 5.60767 37.485 5.60944 36.8189C5.60927 36.6759 5.60927 36.6759 5.6091 36.5301C5.60902 36.33 5.60923 36.1299 5.60972 35.9298C5.61035 35.6258 5.60973 35.3219 5.60898 35.018C5.60906 34.8224 5.60921 34.6268 5.60944 34.4312C5.6092 34.3415 5.60896 34.2519 5.60872 34.1596C5.61119 33.5837 5.64187 33.0288 5.74219 32.4609C5.99008 32.225 6.14135 32.1308 6.44531 31.9922C6.55296 31.9426 6.66062 31.8931 6.77153 31.842C7.16103 31.669 7.55321 31.5039 7.94678 31.3403C8.08009 31.2839 8.2134 31.2275 8.35076 31.1694C9.01094 30.8924 9.658 30.6338 10.3526 30.4569C10.5717 30.3632 10.5717 30.3632 10.6619 30.1024C10.7129 29.8996 10.7567 29.6949 10.7968 29.4896C10.9315 28.9234 11.142 28.4 11.3599 27.8613C11.419 27.7117 11.419 27.7117 11.4794 27.559C11.6606 27.1096 11.8434 26.6954 12.1074 26.2885C12.3542 25.8005 12.2982 25.6079 12.1875 25.0781C12.08 24.77 11.968 24.4732 11.8428 24.1727C11.8092 24.0894 11.7755 24.0061 11.7408 23.9203C11.5981 23.5671 11.4533 23.2147 11.3085 22.8623C11.2026 22.6036 11.0979 22.3445 10.9932 22.0853C10.9602 22.0063 10.9273 21.9273 10.8933 21.8459C10.7241 21.4261 10.6015 21.0785 10.6641 20.625C10.853 20.3527 11.0364 20.1217 11.2573 19.8779C11.3509 19.7721 11.3509 19.7721 11.4463 19.6641C12.2048 18.817 13.0025 18.0081 13.8281 17.2266C13.8872 17.1705 13.9462 17.1144 14.007 17.0566C14.6509 16.4566 14.6509 16.4566 15 16.2891C17.9683 16.5521 20.7072 18.2001 22.7271 20.2881C22.8527 20.4174 22.8527 20.4174 22.9809 20.5492C23.218 20.7966 23.4513 21.0468 23.6824 21.2997C23.7515 21.3748 23.8206 21.4498 23.8918 21.5271C24.2687 21.9578 24.4618 22.2581 24.4922 22.8516C23.9295 23.2394 23.3625 23.5985 22.7637 23.9282C21.9246 24.412 21.2235 25.0172 20.5078 25.6641C20.3775 25.7796 20.3775 25.7796 20.2446 25.8975C17.8431 28.1492 16.3824 31.6466 16.2556 34.9004C16.1671 38.8609 17.4159 42.3994 20.1598 45.2846C22.7271 47.9085 25.9414 49.0941 29.5313 49.4531C29.5313 48.177 29.5313 46.9008 29.5313 45.5859C28.6031 45.818 28.6031 45.818 27.6563 46.0547C25.6951 46.2755 23.5498 45.8211 21.9542 44.6193C20.1526 43.1502 18.984 41.229 18.7233 38.9026C18.6865 38.4294 18.6612 37.967 18.75 37.5C19.6403 36.5874 21.393 36.4396 22.5952 36.4087C24.4863 36.4418 26.1724 37.0407 27.6563 38.2031C27.7395 38.267 27.8227 38.3309 27.9085 38.3968C28.5788 38.9436 28.8861 39.441 29.4141 40.1953C29.4527 38.4938 29.4914 36.7922 29.5313 35.0391C29.0672 35.1551 28.6031 35.2711 28.125 35.3906C27.7431 35.4216 27.3913 35.4416 27.0117 35.4346C26.9161 35.4334 26.8205 35.4322 26.7219 35.431C24.8751 35.3838 23.2569 34.6687 21.9141 33.3984C20.6302 32.0412 19.9086 30.3983 19.8706 28.5352C19.8667 28.413 19.8667 28.413 19.8627 28.2883C19.8643 27.9284 19.8701 27.7135 20.1164 27.4411C20.4323 27.2839 20.7432 27.1642 21.0791 27.0557C21.1972 27.0167 21.3154 26.9777 21.4371 26.9376C23.4754 26.3618 25.3973 26.7769 27.2209 27.7528C28.193 28.3022 28.7416 28.9862 29.4141 29.8828C29.4527 28.8773 29.4914 27.8719 29.5313 26.8359C29.3379 26.7586 29.1445 26.6813 28.9453 26.6016C27.5231 25.6621 26.6026 23.9031 26.2134 22.2876C25.9002 20.381 26.1832 18.3643 27.3047 16.7578C29.2242 14.3434 29.2242 14.3434 30.3516 14.5313ZM28.7109 16.7578C27.583 17.9949 27.1247 19.5258 27.1591 21.1729C27.2882 22.9447 28.1057 24.324 29.3495 25.5414C29.6952 25.829 29.6952 25.829 30.1172 25.8984C30.4753 25.6806 30.7586 25.3731 31.0547 25.0781C31.1267 25.0088 31.1988 24.9395 31.273 24.868C32.329 23.7699 32.8048 22.3183 32.8491 20.8228C32.8117 18.9338 32.0414 17.4776 30.7031 16.1719C29.7938 15.3885 29.469 16.0126 28.7109 16.7578ZM13.4628 19.0932C13.2064 19.3498 12.9531 19.6093 12.7016 19.8708C12.5636 20.0136 12.4232 20.1541 12.2823 20.294C12.0618 20.514 12.0618 20.514 11.8359 20.8594C11.874 21.43 12.0819 21.927 12.3019 22.4483C12.3716 22.6185 12.4412 22.7887 12.5107 22.9589C12.62 23.2244 12.7298 23.4895 12.841 23.7542C12.9487 24.0116 13.0539 24.2698 13.1589 24.5284C13.2092 24.6456 13.2092 24.6456 13.2606 24.7652C13.4782 25.3075 13.494 25.6839 13.3594 26.25C13.2236 26.5505 13.0843 26.8331 12.9272 27.1216C12.5132 27.9141 12.1795 28.713 11.8739 29.5528C11.8471 29.6245 11.8203 29.6963 11.7927 29.7703C11.7118 30.0028 11.7118 30.0028 11.6744 30.2641C11.5761 30.7402 11.4755 30.9808 11.0654 31.2607C10.6666 31.4562 10.2645 31.6248 9.85108 31.7871C9.71353 31.8445 9.57599 31.9019 9.43428 31.9611C8.8893 32.1876 8.34273 32.4082 7.79062 32.6168C7.66315 32.6663 7.53567 32.7158 7.40433 32.7667C7.29004 32.8096 7.17575 32.8525 7.058 32.8966C6.7881 33.0197 6.7881 33.0197 6.70155 33.2395C6.66923 33.6478 6.66061 34.0544 6.66001 34.4637C6.65962 34.5552 6.65923 34.6468 6.65882 34.7412C6.65823 34.9345 6.65796 35.1279 6.65797 35.3212C6.65772 35.6162 6.65559 35.9112 6.65337 36.2061C6.65302 36.3944 6.65279 36.5826 6.65268 36.7708C6.65142 36.9025 6.65142 36.9025 6.65013 37.0368C6.64637 37.7174 6.64637 37.7174 6.91406 38.3203C7.24115 38.4749 7.54054 38.5911 7.88223 38.7012C8.08064 38.7712 8.2788 38.8419 8.47675 38.9132C8.57959 38.95 8.68242 38.9869 8.78836 39.0249C11.3493 39.9642 11.3493 39.9642 11.8034 40.779C11.9871 41.2825 12.0575 41.7988 12.1238 42.3289C12.243 42.9415 12.5377 43.4798 12.8174 44.0332C12.8694 44.14 12.9214 44.2469 12.975 44.3569C13.1802 44.8262 13.1802 44.8262 13.4766 45.2344C13.5399 45.8669 13.3569 46.319 13.1136 46.8869C13.0769 46.9758 13.0402 47.0648 13.0024 47.1564C12.8461 47.535 12.687 47.9125 12.528 48.29C12.4121 48.5665 12.2977 48.8436 12.1834 49.1208C12.1469 49.2059 12.1104 49.291 12.0728 49.3786C11.896 49.8082 11.7933 50.0672 11.9531 50.5078C12.2014 50.8252 12.2014 50.8252 12.5171 51.1523C12.5739 51.213 12.6307 51.2736 12.6893 51.3361C13.1162 51.7889 13.551 52.234 13.9893 52.6758C14.0463 52.7334 14.1034 52.791 14.1622 52.8504C14.322 53.0094 14.4851 53.165 14.6484 53.3203C14.7442 53.4134 14.84 53.5064 14.9387 53.6023C15.2207 53.8218 15.2207 53.8218 15.5488 53.7639C15.995 53.6583 16.4061 53.5001 16.8274 53.3231C16.9981 53.2534 17.1689 53.1838 17.3396 53.1143C17.6061 53.0049 17.8723 52.895 18.138 52.784C18.3964 52.6765 18.6555 52.5712 18.9148 52.4661C18.9936 52.4326 19.0723 52.399 19.1534 52.3644C19.7801 52.113 20.1832 52.1317 20.7997 52.3861C20.8948 52.435 20.9899 52.4839 21.0878 52.5343C21.1971 52.5889 21.3064 52.6436 21.419 52.6998C21.6409 52.8128 21.8624 52.9262 22.0837 53.0404C22.6351 53.3148 23.1481 53.5518 23.7527 53.6771C25.331 54.0231 25.331 54.0231 25.7779 54.714C26.0719 55.2701 26.2794 55.8544 26.4844 56.4478C26.5979 56.7494 26.7137 57.05 26.8299 57.3506C26.9007 57.5366 26.9696 57.7233 27.0361 57.9109C27.1888 58.3365 27.31 58.6508 27.6563 58.9453C27.8903 59.0059 27.8903 59.0059 28.1506 59.0094C28.2492 59.0142 28.3478 59.019 28.4494 59.0239C28.555 59.027 28.6607 59.0301 28.7695 59.0332C28.8781 59.0372 28.9866 59.0411 29.0984 59.0452C29.8538 59.0676 30.6072 59.0641 31.3623 59.0332C31.4559 59.0301 31.5495 59.0271 31.6459 59.0239C32.1244 59.0079 32.1244 59.0079 32.5363 58.792C32.8048 58.4573 32.9059 58.0458 33.0409 57.6439C34.2283 54.3272 34.2283 54.3272 35.2373 53.8037C35.8204 53.5946 36.419 53.4943 37.0296 53.3985C37.7341 53.2426 38.3421 52.8604 38.964 52.5063C39.0527 52.4582 39.1413 52.41 39.2326 52.3604C39.3086 52.3166 39.3846 52.2729 39.4629 52.2278C40.1423 52.0232 40.8072 52.3446 41.4267 52.6144C41.5922 52.6841 41.7578 52.7536 41.9234 52.8232C42.181 52.9327 42.4384 53.0428 42.6956 53.1535C42.9459 53.2608 43.197 53.3662 43.4482 53.4714C43.5246 53.5049 43.601 53.5385 43.6798 53.5731C44.1266 53.7591 44.4212 53.8385 44.8828 53.6719C45.2113 53.4263 45.2113 53.4263 45.5347 53.1079C45.6249 53.0227 45.6249 53.0227 45.7169 52.9357C45.9091 52.7529 46.0993 52.5682 46.2891 52.3828C46.3532 52.3204 46.4174 52.258 46.4836 52.1937C46.6734 52.0085 46.8624 51.8224 47.0508 51.6357C47.1084 51.5787 47.1661 51.5216 47.2254 51.4628C47.3844 51.303 47.54 51.1399 47.6953 50.9766C47.7884 50.8808 47.8814 50.785 47.9773 50.6863C48.1969 50.4041 48.1969 50.4041 48.1387 50.0746C48.0348 49.6366 47.8792 49.2354 47.7022 48.8232C47.6331 48.6579 47.5641 48.4924 47.495 48.327C47.3864 48.0692 47.2774 47.8115 47.1679 47.5541C47.0617 47.3038 46.9571 47.0528 46.8526 46.8018C46.8196 46.7256 46.7867 46.6494 46.7527 46.5709C46.5301 46.0331 46.4027 45.5627 46.6091 45.0014C46.6488 44.9336 46.6885 44.8657 46.7294 44.7958C46.7734 44.7178 46.8175 44.6398 46.8628 44.5594C46.9341 44.4367 46.9341 44.4367 47.0068 44.3115C47.4569 43.501 47.8144 42.6926 48.1302 41.8217C48.1572 41.7498 48.1842 41.6779 48.212 41.6038C48.2918 41.363 48.2918 41.363 48.2999 41.0855C48.3465 40.7069 48.4095 40.509 48.6328 40.1953C49.3061 39.7458 50.1118 39.4988 50.8667 39.2212C51.1803 39.103 51.4932 38.9836 51.8053 38.8617C51.9991 38.7863 52.1938 38.7131 52.3895 38.6425C52.9012 38.4516 52.9012 38.4516 53.263 38.0609C53.3388 37.6291 53.3515 37.2076 53.3473 36.7708C53.3473 36.6791 53.3472 36.5874 53.3472 36.4929C53.3468 36.2998 53.3459 36.1066 53.3444 35.9135C53.3423 35.6183 53.342 35.3231 53.3421 35.0278C53.3415 34.8398 53.3408 34.6517 53.34 34.4637C53.3398 34.3316 53.3398 34.3316 53.3396 34.1969C53.341 33.61 53.341 33.61 53.2031 33.0469C52.8758 32.8955 52.565 32.7751 52.2249 32.6601C48.693 31.3675 48.693 31.3675 48.154 30.3941C47.9427 29.839 47.8403 29.2712 47.7571 28.6846C47.6562 28.1532 47.4258 27.6962 47.1826 27.2168C47.1432 27.1351 47.1038 27.0535 47.0632 26.9694C46.9005 26.6351 46.73 26.3254 46.5234 26.0156C46.5575 25.3472 46.7205 24.7992 46.9894 24.1869C47.059 24.0217 47.1286 23.8565 47.1982 23.6913C47.3078 23.435 47.418 23.1789 47.5285 22.923C47.6357 22.6734 47.7411 22.4231 47.8464 22.1727C47.8799 22.0966 47.9135 22.0206 47.9481 21.9422C48.1346 21.4964 48.2192 21.2016 48.0469 20.7422C47.9 20.5214 47.9 20.5214 47.7054 20.3293C47.6354 20.2556 47.5655 20.1819 47.4934 20.1059C47.4199 20.0307 47.3463 19.9554 47.2705 19.8779C47.1997 19.8036 47.1288 19.7293 47.0558 19.6527C46.5736 19.1489 46.0814 18.6549 45.5859 18.1641C45.4652 18.0422 45.4652 18.0422 45.342 17.9178C45.1165 17.7193 44.9229 17.5849 44.6484 17.4609C44.3875 17.4866 44.3875 17.4866 44.1225 17.5905C44.0193 17.6256 43.9161 17.6608 43.8098 17.697C43.6999 17.7351 43.5899 17.7732 43.4766 17.8125C43.3648 17.8449 43.2531 17.8772 43.138 17.9106C40.4408 18.6974 38.859 20.3383 37.0313 22.3828C37.3207 22.683 37.6106 22.8851 37.9688 23.1006C41.5981 25.3851 43.6652 28.8755 44.626 32.9832C45.3066 36.7896 44.4743 40.8595 42.2756 44.0397C41.9505 44.4914 41.605 44.9231 41.25 45.3516C41.1326 45.4959 41.1326 45.4959 41.0129 45.6432C38.7441 48.324 35.2116 49.9872 31.7578 50.3906C27.1631 50.683 23.2705 49.4905 19.7827 46.4795C17.7207 44.572 16.2548 41.9784 15.5859 39.2578C15.5336 39.0453 15.5336 39.0453 15.4802 38.8284C14.6574 35.1045 15.3893 31.0169 17.3714 27.7705C17.9759 26.8385 18.6861 25.9976 19.4531 25.1953C19.5246 25.1165 19.596 25.0376 19.6696 24.9564C20.6064 23.958 21.8005 23.2009 22.9688 22.5C22.8088 22.3128 22.6487 22.1257 22.4878 21.9393C22.3342 21.7598 22.1824 21.5789 22.032 21.3967C20.2348 19.2564 18.2396 18.2646 15.5859 17.4609C14.8661 17.4609 13.9715 18.593 13.4628 19.0932ZM20.9766 28.2422C20.8492 29.8407 21.5117 31.0826 22.4048 32.3584C23.3087 33.3746 24.6681 34.1374 26.0156 34.3359C27.1853 34.4019 28.3401 34.4042 29.4141 33.8672C29.5245 32.481 29.0677 31.2261 28.2422 30.1172C27.0539 28.7315 25.6774 27.9111 23.8376 27.7327C22.8713 27.7082 21.854 27.8035 20.9766 28.2422ZM31.9849 29.8096C31.22 30.8458 30.5613 31.9924 30.5786 33.3105C30.5797 33.4151 30.5807 33.5196 30.5818 33.6273C30.5832 33.7065 30.5845 33.7856 30.5859 33.8672C30.7285 33.9228 30.8711 33.9784 31.0181 34.0356C31.0983 34.0669 31.1785 34.0982 31.2611 34.1304C32.6358 34.5934 34.1941 34.4282 35.5078 33.8672C37.2251 32.9978 38.2943 31.7162 38.9063 29.8828C39.0021 29.4917 39.0368 29.1351 39.0308 28.7329C39.0297 28.6403 39.0286 28.5477 39.0276 28.4523C39.0262 28.383 39.0248 28.3136 39.0234 28.2422C38.86 28.1856 38.6964 28.1295 38.5327 28.0737C38.4416 28.0425 38.3505 28.0112 38.2567 27.979C36.0337 27.2969 33.5083 28.0553 31.9849 29.8096ZM19.8047 38.0859C19.677 39.6498 20.3075 41.2228 21.2631 42.4333C22.4255 43.8018 23.9729 44.7737 25.7813 45C27.04 45.0742 28.2828 45.0234 29.4141 44.4141C29.5412 42.6524 28.8788 41.1305 27.8027 39.7559C26.5765 38.4222 24.8103 37.6164 23.0214 37.4767C21.9728 37.4355 20.7559 37.6103 19.8047 38.0859ZM33.0469 39.0234C32.9513 39.0944 32.8556 39.1654 32.7571 39.2386C31.6642 40.1744 30.7693 41.679 30.5859 43.125C30.5693 43.5556 30.5717 43.9835 30.5859 44.4141C30.7884 44.4903 30.9911 44.5658 31.1938 44.6411C31.3067 44.6833 31.4195 44.7254 31.5358 44.7688C33.1808 45.3216 34.905 45.0004 36.4453 44.2969C38.1718 43.3888 39.3592 41.9407 39.9609 40.0781C40.1581 39.4021 40.2209 38.7889 40.1953 38.0859C39.9758 38.0096 39.756 37.9341 39.5361 37.8589C39.3526 37.7957 39.3526 37.7957 39.1653 37.7312C37.0099 37.0782 34.809 37.701 33.0469 39.0234Z"/>
</mask>
<path d="M30.3516 14.5313C30.739 14.7648 31.0691 15.0512 31.4063 15.3516C31.4951 15.428 31.5839 15.5044 31.6754 15.5832C33.0684 16.8657 33.7274 18.5112 33.9111 20.3655C33.9822 22.4783 33.262 24.1862 31.9496 25.816C31.6406 26.1328 31.6406 26.1328 31.3736 26.3004C30.7826 26.6761 30.7826 26.6761 30.5011 27.2931C30.4822 27.69 30.4936 28.0728 30.52 28.4692C30.5248 28.6053 30.5295 28.7413 30.5344 28.8815C30.5468 29.2158 30.5641 29.549 30.5859 29.8828C30.6757 29.7623 30.6757 29.7623 30.7674 29.6394C31.9753 28.0374 33.6208 27.0099 35.625 26.7188C37.1546 26.6071 38.6122 26.761 39.9609 27.5391C40.2173 27.7955 40.1216 28.385 40.1232 28.7373C40.0934 30.2092 39.5577 31.5284 38.6719 32.6953C38.6048 32.7864 38.5377 32.8775 38.4686 32.9713C37.5135 34.1571 36.1506 34.9071 34.6875 35.2734C34.5997 35.2958 34.512 35.3182 34.4215 35.3412C33.9581 35.4128 33.5005 35.417 33.0322 35.4199C32.8931 35.4235 32.8931 35.4235 32.7512 35.4272C31.9328 35.4325 31.4308 35.2695 30.5859 35.0391C30.5859 36.7406 30.5859 38.4422 30.5859 40.1953C30.8953 39.7699 31.2047 39.3445 31.5234 38.9063C33.1019 37.3038 35.0872 36.4757 37.3315 36.416C38.5423 36.4263 40.3425 36.5925 41.25 37.5C41.4832 39.4747 40.8272 41.5002 39.6272 43.0554C38.2572 44.7064 36.4839 45.7797 34.3359 46.0547C34.0265 46.0744 33.7226 46.087 33.4131 46.0913C33.337 46.0947 33.2608 46.0981 33.1824 46.1016C32.2024 46.1135 31.4855 45.8401 30.4688 45.5859C30.4688 46.8621 30.4688 48.1383 30.4688 49.4531C34.0434 49.0033 36.9625 48.0048 39.6094 45.4688C39.6984 45.3872 39.7873 45.3056 39.879 45.2216C42.3618 42.8717 43.6624 39.3795 43.7581 36.0087C43.8026 32.0967 42.3177 28.585 39.6387 25.7593C38.5403 24.7009 37.2892 23.8742 35.9335 23.1857C35.625 22.9688 35.625 22.9688 35.5271 22.6879C35.5078 22.3828 35.5078 22.3828 35.6292 22.1738C35.7275 22.074 35.7275 22.074 35.8278 21.9722C36.153 21.6306 36.4647 21.2846 36.7665 20.922C38.7391 18.5867 41.6109 16.5876 44.7488 16.2534C45.1718 16.3134 45.4412 16.6051 45.7471 16.8823C45.8176 16.9447 45.8882 17.0071 45.9609 17.0713C46.8082 17.8299 47.6157 18.6284 48.3984 19.4531C48.5051 19.5651 48.6117 19.677 48.7216 19.7923C48.8517 19.9398 48.8517 19.9398 48.9844 20.0903C49.0569 20.1724 49.1294 20.2544 49.2041 20.3389C49.4205 20.8086 49.2975 21.3093 49.1478 21.7905C49.0605 22.0213 48.9668 22.2483 48.8699 22.4753C48.8003 22.6453 48.7307 22.8152 48.6612 22.9852C48.5517 23.249 48.4416 23.5126 48.3309 23.7759C48.2235 24.0327 48.1181 24.2903 48.013 24.548C47.9794 24.6261 47.9459 24.7041 47.9113 24.7845C47.7092 25.2831 47.668 25.614 47.8125 26.1328C47.9267 26.3759 48.0496 26.615 48.1787 26.8506C48.5511 27.5563 48.8331 28.2797 49.0942 29.0332C49.1301 29.1366 49.166 29.2399 49.203 29.3464C49.4531 30.0826 49.4531 30.0826 49.4531 30.3516C49.5898 30.3937 49.7265 30.4359 49.8674 30.4793C50.622 30.731 51.3479 31.0504 52.0765 31.3677C52.3189 31.4731 52.5618 31.5774 52.8046 31.6816C52.9593 31.7486 53.114 31.8157 53.2686 31.8828C53.4079 31.9431 53.5473 32.0035 53.6908 32.0657C54.0234 32.2266 54.0234 32.2266 54.2578 32.4609C54.3714 33.1193 54.3923 33.7644 54.3906 34.4312C54.3907 34.5741 54.3907 34.5741 54.3909 34.7199C54.391 34.92 54.3908 35.1201 54.3903 35.3202C54.3897 35.6242 54.3903 35.9281 54.391 36.232C54.3909 36.4276 54.3908 36.6232 54.3906 36.8189C54.3908 36.9085 54.391 36.9981 54.3913 37.0904C54.3847 38.6338 54.3847 38.6338 54.1027 38.9789C53.7728 39.2505 53.3776 39.3947 52.9871 39.5595C52.8974 39.598 52.8076 39.6365 52.7152 39.6762C52.5259 39.7573 52.3364 39.8379 52.1467 39.9182C51.8561 40.0412 51.5662 40.1659 51.2764 40.2908C51.0923 40.3694 50.9081 40.4479 50.7239 40.5263C50.6371 40.5636 50.5503 40.601 50.4609 40.6395C50.1069 40.7884 49.8412 40.8984 49.4531 40.8984C49.44 40.9714 49.4268 41.0444 49.4133 41.1195C49.1158 42.5137 48.5322 43.908 47.8308 45.1474C47.6099 45.6713 47.7763 46.0733 47.9675 46.5937C48.0315 46.7486 48.0961 46.9032 48.1613 47.0577C48.231 47.2278 48.3005 47.398 48.3701 47.5683C48.4793 47.8337 48.5892 48.0989 48.7003 48.3636C48.808 48.6209 48.9133 48.8792 49.0183 49.1377C49.0518 49.2159 49.0854 49.294 49.1199 49.3745C49.337 49.9155 49.3669 50.2959 49.2188 50.8594C49.0641 51.1046 49.0641 51.1046 48.869 51.3034C48.798 51.3774 48.727 51.4514 48.6539 51.5277C48.5792 51.602 48.5046 51.6764 48.4277 51.7529C48.3185 51.8658 48.3185 51.8658 48.2071 51.9809C47.9992 52.1949 47.7893 52.4065 47.5781 52.6172C47.4743 52.721 47.3706 52.8247 47.2636 52.9317C47.1741 53.0213 47.0845 53.1108 46.9922 53.2031C46.908 53.29 46.8239 53.3768 46.7372 53.4663C45.3093 54.9308 45.3093 54.9308 44.6927 54.9909C44.1924 54.953 43.809 54.7948 43.3516 54.5979C43.1696 54.5226 42.9877 54.4473 42.8057 54.372C42.5214 54.2526 42.2373 54.1327 41.9533 54.0124C41.6777 53.8963 41.4014 53.7819 41.125 53.6678C41.0405 53.6313 40.9561 53.5948 40.869 53.5572C40.4016 53.3647 40.0932 53.2666 39.6094 53.4375C39.3029 53.5765 39.0022 53.7198 38.7012 53.8696C37.9864 54.216 37.268 54.5216 36.5186 54.7852C36.4343 54.815 36.35 54.8449 36.2632 54.8757C35.9187 54.9937 35.6402 55.0781 35.2734 55.0781C35.2082 55.2873 35.2082 55.2873 35.1416 55.5006C34.9041 56.2124 34.6101 56.8998 34.3139 57.5885C34.2182 57.8114 34.1237 58.0346 34.0292 58.258C33.9685 58.3998 33.9078 58.5415 33.8452 58.6876C33.7904 58.8159 33.7355 58.9442 33.679 59.0764C33.3951 59.6632 33.3951 59.6632 33.1641 59.8828C32.5409 60.0313 31.9048 60.0171 31.2671 60.0156C31.1157 60.0157 31.1157 60.0157 30.9612 60.0159C30.7489 60.016 30.5365 60.0158 30.3242 60.0153C30.001 60.0147 29.6778 60.0153 29.3546 60.016C29.1473 60.0159 28.9401 60.0158 28.7329 60.0156C28.5893 60.0159 28.5893 60.0159 28.4428 60.0163C27.8985 60.0141 27.3698 60.0012 26.8359 59.8828C26.233 59.1458 25.9155 58.2105 25.5549 57.3354C25.4507 57.0827 25.3452 56.8307 25.2395 56.5787C25.1727 56.4182 25.1059 56.2577 25.0392 56.0971C25.0077 56.0218 24.9762 55.9465 24.9438 55.8689C24.7266 55.3397 24.7266 55.3397 24.7266 55.0781C24.5766 55.0487 24.4266 55.0192 24.272 54.9889C23.6567 54.8518 23.0893 54.6362 22.5073 54.397C22.4045 54.3556 22.3017 54.3142 22.1958 54.2716C21.575 54.0186 20.976 53.7475 20.3989 53.4041C19.7894 53.1937 19.1492 53.5416 18.5889 53.7822C18.4235 53.8513 18.2581 53.9203 18.0927 53.9893C17.8348 54.0979 17.5772 54.207 17.3197 54.3165C17.0694 54.4227 16.8184 54.5273 16.5674 54.6318C16.4912 54.6648 16.415 54.6977 16.3365 54.7317C15.8734 54.9234 15.5005 55.0132 15 54.9609C14.6782 54.7591 14.6782 54.7591 14.3628 54.4849C14.2515 54.3886 14.1401 54.2924 14.0254 54.1933C13.6337 53.8358 13.2567 53.4695 12.8906 53.0859C12.7964 52.9917 12.7021 52.8974 12.605 52.8003C12.5059 52.7012 12.4068 52.6021 12.3047 52.5C12.2322 52.4302 12.1597 52.3604 12.085 52.2885C11.6908 51.9048 11.3048 51.5141 10.9497 51.0938C10.8625 50.9922 10.8625 50.9922 10.7735 50.8887C10.5518 50.3544 10.752 49.7706 10.9363 49.248C10.9998 49.0983 11.0644 48.9491 11.1301 48.8004C11.1997 48.6357 11.2693 48.4711 11.3388 48.3064C11.4483 48.0511 11.5584 47.796 11.6691 47.5412C11.7766 47.2926 11.8819 47.0431 11.987 46.7935C12.0206 46.7181 12.0541 46.6426 12.0887 46.5649C12.3322 45.983 12.3236 45.5879 12.0993 45.0052C12.048 44.9056 12.048 44.9056 11.9957 44.8041C11.9573 44.7272 11.919 44.6503 11.8794 44.5711C11.8385 44.4903 11.7976 44.4095 11.7554 44.3262C11.3957 43.5918 11.0952 42.8545 10.8398 42.0776C10.81 41.9868 10.7801 41.896 10.7494 41.8024C10.5469 41.1691 10.5469 41.1691 10.5469 40.8984C10.4686 40.8865 10.3903 40.8745 10.3096 40.8622C9.87579 40.7615 9.47859 40.5968 9.07013 40.4233C8.98596 40.3879 8.90178 40.3524 8.81506 40.316C8.63786 40.2412 8.46077 40.1661 8.28381 40.0908C8.0132 39.9758 7.74199 39.8624 7.4707 39.749C7.29824 39.676 7.12582 39.6029 6.95343 39.5297C6.87249 39.496 6.79156 39.4623 6.70817 39.4276C5.92937 39.093 5.92937 39.093 5.74219 38.7891C5.61962 38.1328 5.60767 37.485 5.60944 36.8189C5.60927 36.6759 5.60927 36.6759 5.6091 36.5301C5.60902 36.33 5.60923 36.1299 5.60972 35.9298C5.61035 35.6258 5.60973 35.3219 5.60898 35.018C5.60906 34.8224 5.60921 34.6268 5.60944 34.4312C5.6092 34.3415 5.60896 34.2519 5.60872 34.1596C5.61119 33.5837 5.64187 33.0288 5.74219 32.4609C5.99008 32.225 6.14135 32.1308 6.44531 31.9922C6.55296 31.9426 6.66062 31.8931 6.77153 31.842C7.16103 31.669 7.55321 31.5039 7.94678 31.3403C8.08009 31.2839 8.2134 31.2275 8.35076 31.1694C9.01094 30.8924 9.658 30.6338 10.3526 30.4569C10.5717 30.3632 10.5717 30.3632 10.6619 30.1024C10.7129 29.8996 10.7567 29.6949 10.7968 29.4896C10.9315 28.9234 11.142 28.4 11.3599 27.8613C11.419 27.7117 11.419 27.7117 11.4794 27.559C11.6606 27.1096 11.8434 26.6954 12.1074 26.2885C12.3542 25.8005 12.2982 25.6079 12.1875 25.0781C12.08 24.77 11.968 24.4732 11.8428 24.1727C11.8092 24.0894 11.7755 24.0061 11.7408 23.9203C11.5981 23.5671 11.4533 23.2147 11.3085 22.8623C11.2026 22.6036 11.0979 22.3445 10.9932 22.0853C10.9602 22.0063 10.9273 21.9273 10.8933 21.8459C10.7241 21.4261 10.6015 21.0785 10.6641 20.625C10.853 20.3527 11.0364 20.1217 11.2573 19.8779C11.3509 19.7721 11.3509 19.7721 11.4463 19.6641C12.2048 18.817 13.0025 18.0081 13.8281 17.2266C13.8872 17.1705 13.9462 17.1144 14.007 17.0566C14.6509 16.4566 14.6509 16.4566 15 16.2891C17.9683 16.5521 20.7072 18.2001 22.7271 20.2881C22.8527 20.4174 22.8527 20.4174 22.9809 20.5492C23.218 20.7966 23.4513 21.0468 23.6824 21.2997C23.7515 21.3748 23.8206 21.4498 23.8918 21.5271C24.2687 21.9578 24.4618 22.2581 24.4922 22.8516C23.9295 23.2394 23.3625 23.5985 22.7637 23.9282C21.9246 24.412 21.2235 25.0172 20.5078 25.6641C20.3775 25.7796 20.3775 25.7796 20.2446 25.8975C17.8431 28.1492 16.3824 31.6466 16.2556 34.9004C16.1671 38.8609 17.4159 42.3994 20.1598 45.2846C22.7271 47.9085 25.9414 49.0941 29.5313 49.4531C29.5313 48.177 29.5313 46.9008 29.5313 45.5859C28.6031 45.818 28.6031 45.818 27.6563 46.0547C25.6951 46.2755 23.5498 45.8211 21.9542 44.6193C20.1526 43.1502 18.984 41.229 18.7233 38.9026C18.6865 38.4294 18.6612 37.967 18.75 37.5C19.6403 36.5874 21.393 36.4396 22.5952 36.4087C24.4863 36.4418 26.1724 37.0407 27.6563 38.2031C27.7395 38.267 27.8227 38.3309 27.9085 38.3968C28.5788 38.9436 28.8861 39.441 29.4141 40.1953C29.4527 38.4938 29.4914 36.7922 29.5313 35.0391C29.0672 35.1551 28.6031 35.2711 28.125 35.3906C27.7431 35.4216 27.3913 35.4416 27.0117 35.4346C26.9161 35.4334 26.8205 35.4322 26.7219 35.431C24.8751 35.3838 23.2569 34.6687 21.9141 33.3984C20.6302 32.0412 19.9086 30.3983 19.8706 28.5352C19.8667 28.413 19.8667 28.413 19.8627 28.2883C19.8643 27.9284 19.8701 27.7135 20.1164 27.4411C20.4323 27.2839 20.7432 27.1642 21.0791 27.0557C21.1972 27.0167 21.3154 26.9777 21.4371 26.9376C23.4754 26.3618 25.3973 26.7769 27.2209 27.7528C28.193 28.3022 28.7416 28.9862 29.4141 29.8828C29.4527 28.8773 29.4914 27.8719 29.5313 26.8359C29.3379 26.7586 29.1445 26.6813 28.9453 26.6016C27.5231 25.6621 26.6026 23.9031 26.2134 22.2876C25.9002 20.381 26.1832 18.3643 27.3047 16.7578C29.2242 14.3434 29.2242 14.3434 30.3516 14.5313ZM28.7109 16.7578C27.583 17.9949 27.1247 19.5258 27.1591 21.1729C27.2882 22.9447 28.1057 24.324 29.3495 25.5414C29.6952 25.829 29.6952 25.829 30.1172 25.8984C30.4753 25.6806 30.7586 25.3731 31.0547 25.0781C31.1267 25.0088 31.1988 24.9395 31.273 24.868C32.329 23.7699 32.8048 22.3183 32.8491 20.8228C32.8117 18.9338 32.0414 17.4776 30.7031 16.1719C29.7938 15.3885 29.469 16.0126 28.7109 16.7578ZM13.4628 19.0932C13.2064 19.3498 12.9531 19.6093 12.7016 19.8708C12.5636 20.0136 12.4232 20.1541 12.2823 20.294C12.0618 20.514 12.0618 20.514 11.8359 20.8594C11.874 21.43 12.0819 21.927 12.3019 22.4483C12.3716 22.6185 12.4412 22.7887 12.5107 22.9589C12.62 23.2244 12.7298 23.4895 12.841 23.7542C12.9487 24.0116 13.0539 24.2698 13.1589 24.5284C13.2092 24.6456 13.2092 24.6456 13.2606 24.7652C13.4782 25.3075 13.494 25.6839 13.3594 26.25C13.2236 26.5505 13.0843 26.8331 12.9272 27.1216C12.5132 27.9141 12.1795 28.713 11.8739 29.5528C11.8471 29.6245 11.8203 29.6963 11.7927 29.7703C11.7118 30.0028 11.7118 30.0028 11.6744 30.2641C11.5761 30.7402 11.4755 30.9808 11.0654 31.2607C10.6666 31.4562 10.2645 31.6248 9.85108 31.7871C9.71353 31.8445 9.57599 31.9019 9.43428 31.9611C8.8893 32.1876 8.34273 32.4082 7.79062 32.6168C7.66315 32.6663 7.53567 32.7158 7.40433 32.7667C7.29004 32.8096 7.17575 32.8525 7.058 32.8966C6.7881 33.0197 6.7881 33.0197 6.70155 33.2395C6.66923 33.6478 6.66061 34.0544 6.66001 34.4637C6.65962 34.5552 6.65923 34.6468 6.65882 34.7412C6.65823 34.9345 6.65796 35.1279 6.65797 35.3212C6.65772 35.6162 6.65559 35.9112 6.65337 36.2061C6.65302 36.3944 6.65279 36.5826 6.65268 36.7708C6.65142 36.9025 6.65142 36.9025 6.65013 37.0368C6.64637 37.7174 6.64637 37.7174 6.91406 38.3203C7.24115 38.4749 7.54054 38.5911 7.88223 38.7012C8.08064 38.7712 8.2788 38.8419 8.47675 38.9132C8.57959 38.95 8.68242 38.9869 8.78836 39.0249C11.3493 39.9642 11.3493 39.9642 11.8034 40.779C11.9871 41.2825 12.0575 41.7988 12.1238 42.3289C12.243 42.9415 12.5377 43.4798 12.8174 44.0332C12.8694 44.14 12.9214 44.2469 12.975 44.3569C13.1802 44.8262 13.1802 44.8262 13.4766 45.2344C13.5399 45.8669 13.3569 46.319 13.1136 46.8869C13.0769 46.9758 13.0402 47.0648 13.0024 47.1564C12.8461 47.535 12.687 47.9125 12.528 48.29C12.4121 48.5665 12.2977 48.8436 12.1834 49.1208C12.1469 49.2059 12.1104 49.291 12.0728 49.3786C11.896 49.8082 11.7933 50.0672 11.9531 50.5078C12.2014 50.8252 12.2014 50.8252 12.5171 51.1523C12.5739 51.213 12.6307 51.2736 12.6893 51.3361C13.1162 51.7889 13.551 52.234 13.9893 52.6758C14.0463 52.7334 14.1034 52.791 14.1622 52.8504C14.322 53.0094 14.4851 53.165 14.6484 53.3203C14.7442 53.4134 14.84 53.5064 14.9387 53.6023C15.2207 53.8218 15.2207 53.8218 15.5488 53.7639C15.995 53.6583 16.4061 53.5001 16.8274 53.3231C16.9981 53.2534 17.1689 53.1838 17.3396 53.1143C17.6061 53.0049 17.8723 52.895 18.138 52.784C18.3964 52.6765 18.6555 52.5712 18.9148 52.4661C18.9936 52.4326 19.0723 52.399 19.1534 52.3644C19.7801 52.113 20.1832 52.1317 20.7997 52.3861C20.8948 52.435 20.9899 52.4839 21.0878 52.5343C21.1971 52.5889 21.3064 52.6436 21.419 52.6998C21.6409 52.8128 21.8624 52.9262 22.0837 53.0404C22.6351 53.3148 23.1481 53.5518 23.7527 53.6771C25.331 54.0231 25.331 54.0231 25.7779 54.714C26.0719 55.2701 26.2794 55.8544 26.4844 56.4478C26.5979 56.7494 26.7137 57.05 26.8299 57.3506C26.9007 57.5366 26.9696 57.7233 27.0361 57.9109C27.1888 58.3365 27.31 58.6508 27.6563 58.9453C27.8903 59.0059 27.8903 59.0059 28.1506 59.0094C28.2492 59.0142 28.3478 59.019 28.4494 59.0239C28.555 59.027 28.6607 59.0301 28.7695 59.0332C28.8781 59.0372 28.9866 59.0411 29.0984 59.0452C29.8538 59.0676 30.6072 59.0641 31.3623 59.0332C31.4559 59.0301 31.5495 59.0271 31.6459 59.0239C32.1244 59.0079 32.1244 59.0079 32.5363 58.792C32.8048 58.4573 32.9059 58.0458 33.0409 57.6439C34.2283 54.3272 34.2283 54.3272 35.2373 53.8037C35.8204 53.5946 36.419 53.4943 37.0296 53.3985C37.7341 53.2426 38.3421 52.8604 38.964 52.5063C39.0527 52.4582 39.1413 52.41 39.2326 52.3604C39.3086 52.3166 39.3846 52.2729 39.4629 52.2278C40.1423 52.0232 40.8072 52.3446 41.4267 52.6144C41.5922 52.6841 41.7578 52.7536 41.9234 52.8232C42.181 52.9327 42.4384 53.0428 42.6956 53.1535C42.9459 53.2608 43.197 53.3662 43.4482 53.4714C43.5246 53.5049 43.601 53.5385 43.6798 53.5731C44.1266 53.7591 44.4212 53.8385 44.8828 53.6719C45.2113 53.4263 45.2113 53.4263 45.5347 53.1079C45.6249 53.0227 45.6249 53.0227 45.7169 52.9357C45.9091 52.7529 46.0993 52.5682 46.2891 52.3828C46.3532 52.3204 46.4174 52.258 46.4836 52.1937C46.6734 52.0085 46.8624 51.8224 47.0508 51.6357C47.1084 51.5787 47.1661 51.5216 47.2254 51.4628C47.3844 51.303 47.54 51.1399 47.6953 50.9766C47.7884 50.8808 47.8814 50.785 47.9773 50.6863C48.1969 50.4041 48.1969 50.4041 48.1387 50.0746C48.0348 49.6366 47.8792 49.2354 47.7022 48.8232C47.6331 48.6579 47.5641 48.4924 47.495 48.327C47.3864 48.0692 47.2774 47.8115 47.1679 47.5541C47.0617 47.3038 46.9571 47.0528 46.8526 46.8018C46.8196 46.7256 46.7867 46.6494 46.7527 46.5709C46.5301 46.0331 46.4027 45.5627 46.6091 45.0014C46.6488 44.9336 46.6885 44.8657 46.7294 44.7958C46.7734 44.7178 46.8175 44.6398 46.8628 44.5594C46.9341 44.4367 46.9341 44.4367 47.0068 44.3115C47.4569 43.501 47.8144 42.6926 48.1302 41.8217C48.1572 41.7498 48.1842 41.6779 48.212 41.6038C48.2918 41.363 48.2918 41.363 48.2999 41.0855C48.3465 40.7069 48.4095 40.509 48.6328 40.1953C49.3061 39.7458 50.1118 39.4988 50.8667 39.2212C51.1803 39.103 51.4932 38.9836 51.8053 38.8617C51.9991 38.7863 52.1938 38.7131 52.3895 38.6425C52.9012 38.4516 52.9012 38.4516 53.263 38.0609C53.3388 37.6291 53.3515 37.2076 53.3473 36.7708C53.3473 36.6791 53.3472 36.5874 53.3472 36.4929C53.3468 36.2998 53.3459 36.1066 53.3444 35.9135C53.3423 35.6183 53.342 35.3231 53.3421 35.0278C53.3415 34.8398 53.3408 34.6517 53.34 34.4637C53.3398 34.3316 53.3398 34.3316 53.3396 34.1969C53.341 33.61 53.341 33.61 53.2031 33.0469C52.8758 32.8955 52.565 32.7751 52.2249 32.6601C48.693 31.3675 48.693 31.3675 48.154 30.3941C47.9427 29.839 47.8403 29.2712 47.7571 28.6846C47.6562 28.1532 47.4258 27.6962 47.1826 27.2168C47.1432 27.1351 47.1038 27.0535 47.0632 26.9694C46.9005 26.6351 46.73 26.3254 46.5234 26.0156C46.5575 25.3472 46.7205 24.7992 46.9894 24.1869C47.059 24.0217 47.1286 23.8565 47.1982 23.6913C47.3078 23.435 47.418 23.1789 47.5285 22.923C47.6357 22.6734 47.7411 22.4231 47.8464 22.1727C47.8799 22.0966 47.9135 22.0206 47.9481 21.9422C48.1346 21.4964 48.2192 21.2016 48.0469 20.7422C47.9 20.5214 47.9 20.5214 47.7054 20.3293C47.6354 20.2556 47.5655 20.1819 47.4934 20.1059C47.4199 20.0307 47.3463 19.9554 47.2705 19.8779C47.1997 19.8036 47.1288 19.7293 47.0558 19.6527C46.5736 19.1489 46.0814 18.6549 45.5859 18.1641C45.4652 18.0422 45.4652 18.0422 45.342 17.9178C45.1165 17.7193 44.9229 17.5849 44.6484 17.4609C44.3875 17.4866 44.3875 17.4866 44.1225 17.5905C44.0193 17.6256 43.9161 17.6608 43.8098 17.697C43.6999 17.7351 43.5899 17.7732 43.4766 17.8125C43.3648 17.8449 43.2531 17.8772 43.138 17.9106C40.4408 18.6974 38.859 20.3383 37.0313 22.3828C37.3207 22.683 37.6106 22.8851 37.9688 23.1006C41.5981 25.3851 43.6652 28.8755 44.626 32.9832C45.3066 36.7896 44.4743 40.8595 42.2756 44.0397C41.9505 44.4914 41.605 44.9231 41.25 45.3516C41.1326 45.4959 41.1326 45.4959 41.0129 45.6432C38.7441 48.324 35.2116 49.9872 31.7578 50.3906C27.1631 50.683 23.2705 49.4905 19.7827 46.4795C17.7207 44.572 16.2548 41.9784 15.5859 39.2578C15.5336 39.0453 15.5336 39.0453 15.4802 38.8284C14.6574 35.1045 15.3893 31.0169 17.3714 27.7705C17.9759 26.8385 18.6861 25.9976 19.4531 25.1953C19.5246 25.1165 19.596 25.0376 19.6696 24.9564C20.6064 23.958 21.8005 23.2009 22.9688 22.5C22.8088 22.3128 22.6487 22.1257 22.4878 21.9393C22.3342 21.7598 22.1824 21.5789 22.032 21.3967C20.2348 19.2564 18.2396 18.2646 15.5859 17.4609C14.8661 17.4609 13.9715 18.593 13.4628 19.0932ZM20.9766 28.2422C20.8492 29.8407 21.5117 31.0826 22.4048 32.3584C23.3087 33.3746 24.6681 34.1374 26.0156 34.3359C27.1853 34.4019 28.3401 34.4042 29.4141 33.8672C29.5245 32.481 29.0677 31.2261 28.2422 30.1172C27.0539 28.7315 25.6774 27.9111 23.8376 27.7327C22.8713 27.7082 21.854 27.8035 20.9766 28.2422ZM31.9849 29.8096C31.22 30.8458 30.5613 31.9924 30.5786 33.3105C30.5797 33.4151 30.5807 33.5196 30.5818 33.6273C30.5832 33.7065 30.5845 33.7856 30.5859 33.8672C30.7285 33.9228 30.8711 33.9784 31.0181 34.0356C31.0983 34.0669 31.1785 34.0982 31.2611 34.1304C32.6358 34.5934 34.1941 34.4282 35.5078 33.8672C37.2251 32.9978 38.2943 31.7162 38.9063 29.8828C39.0021 29.4917 39.0368 29.1351 39.0308 28.7329C39.0297 28.6403 39.0286 28.5477 39.0276 28.4523C39.0262 28.383 39.0248 28.3136 39.0234 28.2422C38.86 28.1856 38.6964 28.1295 38.5327 28.0737C38.4416 28.0425 38.3505 28.0112 38.2567 27.979C36.0337 27.2969 33.5083 28.0553 31.9849 29.8096ZM19.8047 38.0859C19.677 39.6498 20.3075 41.2228 21.2631 42.4333C22.4255 43.8018 23.9729 44.7737 25.7813 45C27.04 45.0742 28.2828 45.0234 29.4141 44.4141C29.5412 42.6524 28.8788 41.1305 27.8027 39.7559C26.5765 38.4222 24.8103 37.6164 23.0214 37.4767C21.9728 37.4355 20.7559 37.6103 19.8047 38.0859ZM33.0469 39.0234C32.9513 39.0944 32.8556 39.1654 32.7571 39.2386C31.6642 40.1744 30.7693 41.679 30.5859 43.125C30.5693 43.5556 30.5717 43.9835 30.5859 44.4141C30.7884 44.4903 30.9911 44.5658 31.1938 44.6411C31.3067 44.6833 31.4195 44.7254 31.5358 44.7688C33.1808 45.3216 34.905 45.0004 36.4453 44.2969C38.1718 43.3888 39.3592 41.9407 39.9609 40.0781C40.1581 39.4021 40.2209 38.7889 40.1953 38.0859C39.9758 38.0096 39.756 37.9341 39.5361 37.8589C39.3526 37.7957 39.3526 37.7957 39.1653 37.7312C37.0099 37.0782 34.809 37.701 33.0469 39.0234Z" fill="currentColor"/>
<path d="M30.3516 14.5313C30.739 14.7648 31.0691 15.0512 31.4063 15.3516C31.4951 15.428 31.5839 15.5044 31.6754 15.5832C33.0684 16.8657 33.7274 18.5112 33.9111 20.3655C33.9822 22.4783 33.262 24.1862 31.9496 25.816C31.6406 26.1328 31.6406 26.1328 31.3736 26.3004C30.7826 26.6761 30.7826 26.6761 30.5011 27.2931C30.4822 27.69 30.4936 28.0728 30.52 28.4692C30.5248 28.6053 30.5295 28.7413 30.5344 28.8815C30.5468 29.2158 30.5641 29.549 30.5859 29.8828C30.6757 29.7623 30.6757 29.7623 30.7674 29.6394C31.9753 28.0374 33.6208 27.0099 35.625 26.7188C37.1546 26.6071 38.6122 26.761 39.9609 27.5391C40.2173 27.7955 40.1216 28.385 40.1232 28.7373C40.0934 30.2092 39.5577 31.5284 38.6719 32.6953C38.6048 32.7864 38.5377 32.8775 38.4686 32.9713C37.5135 34.1571 36.1506 34.9071 34.6875 35.2734C34.5997 35.2958 34.512 35.3182 34.4215 35.3412C33.9581 35.4128 33.5005 35.417 33.0322 35.4199C32.8931 35.4235 32.8931 35.4235 32.7512 35.4272C31.9328 35.4325 31.4308 35.2695 30.5859 35.0391C30.5859 36.7406 30.5859 38.4422 30.5859 40.1953C30.8953 39.7699 31.2047 39.3445 31.5234 38.9063C33.1019 37.3038 35.0872 36.4757 37.3315 36.416C38.5423 36.4263 40.3425 36.5925 41.25 37.5C41.4832 39.4747 40.8272 41.5002 39.6272 43.0554C38.2572 44.7064 36.4839 45.7797 34.3359 46.0547C34.0265 46.0744 33.7226 46.087 33.4131 46.0913C33.337 46.0947 33.2608 46.0981 33.1824 46.1016C32.2024 46.1135 31.4855 45.8401 30.4688 45.5859C30.4688 46.8621 30.4688 48.1383 30.4688 49.4531C34.0434 49.0033 36.9625 48.0048 39.6094 45.4688C39.6984 45.3872 39.7873 45.3056 39.879 45.2216C42.3618 42.8717 43.6624 39.3795 43.7581 36.0087C43.8026 32.0967 42.3177 28.585 39.6387 25.7593C38.5403 24.7009 37.2892 23.8742 35.9335 23.1857C35.625 22.9688 35.625 22.9688 35.5271 22.6879C35.5078 22.3828 35.5078 22.3828 35.6292 22.1738C35.7275 22.074 35.7275 22.074 35.8278 21.9722C36.153 21.6306 36.4647 21.2846 36.7665 20.922C38.7391 18.5867 41.6109 16.5876 44.7488 16.2534C45.1718 16.3134 45.4412 16.6051 45.7471 16.8823C45.8176 16.9447 45.8882 17.0071 45.9609 17.0713C46.8082 17.8299 47.6157 18.6284 48.3984 19.4531C48.5051 19.5651 48.6117 19.677 48.7216 19.7923C48.8517 19.9398 48.8517 19.9398 48.9844 20.0903C49.0569 20.1724 49.1294 20.2544 49.2041 20.3389C49.4205 20.8086 49.2975 21.3093 49.1478 21.7905C49.0605 22.0213 48.9668 22.2483 48.8699 22.4753C48.8003 22.6453 48.7307 22.8152 48.6612 22.9852C48.5517 23.249 48.4416 23.5126 48.3309 23.7759C48.2235 24.0327 48.1181 24.2903 48.013 24.548C47.9794 24.6261 47.9459 24.7041 47.9113 24.7845C47.7092 25.2831 47.668 25.614 47.8125 26.1328C47.9267 26.3759 48.0496 26.615 48.1787 26.8506C48.5511 27.5563 48.8331 28.2797 49.0942 29.0332C49.1301 29.1366 49.166 29.2399 49.203 29.3464C49.4531 30.0826 49.4531 30.0826 49.4531 30.3516C49.5898 30.3937 49.7265 30.4359 49.8674 30.4793C50.622 30.731 51.3479 31.0504 52.0765 31.3677C52.3189 31.4731 52.5618 31.5774 52.8046 31.6816C52.9593 31.7486 53.114 31.8157 53.2686 31.8828C53.4079 31.9431 53.5473 32.0035 53.6908 32.0657C54.0234 32.2266 54.0234 32.2266 54.2578 32.4609C54.3714 33.1193 54.3923 33.7644 54.3906 34.4312C54.3907 34.5741 54.3907 34.5741 54.3909 34.7199C54.391 34.92 54.3908 35.1201 54.3903 35.3202C54.3897 35.6242 54.3903 35.9281 54.391 36.232C54.3909 36.4276 54.3908 36.6232 54.3906 36.8189C54.3908 36.9085 54.391 36.9981 54.3913 37.0904C54.3847 38.6338 54.3847 38.6338 54.1027 38.9789C53.7728 39.2505 53.3776 39.3947 52.9871 39.5595C52.8974 39.598 52.8076 39.6365 52.7152 39.6762C52.5259 39.7573 52.3364 39.8379 52.1467 39.9182C51.8561 40.0412 51.5662 40.1659 51.2764 40.2908C51.0923 40.3694 50.9081 40.4479 50.7239 40.5263C50.6371 40.5636 50.5503 40.601 50.4609 40.6395C50.1069 40.7884 49.8412 40.8984 49.4531 40.8984C49.44 40.9714 49.4268 41.0444 49.4133 41.1195C49.1158 42.5137 48.5322 43.908 47.8308 45.1474C47.6099 45.6713 47.7763 46.0733 47.9675 46.5937C48.0315 46.7486 48.0961 46.9032 48.1613 47.0577C48.231 47.2278 48.3005 47.398 48.3701 47.5683C48.4793 47.8337 48.5892 48.0989 48.7003 48.3636C48.808 48.6209 48.9133 48.8792 49.0183 49.1377C49.0518 49.2159 49.0854 49.294 49.1199 49.3745C49.337 49.9155 49.3669 50.2959 49.2188 50.8594C49.0641 51.1046 49.0641 51.1046 48.869 51.3034C48.798 51.3774 48.727 51.4514 48.6539 51.5277C48.5792 51.602 48.5046 51.6764 48.4277 51.7529C48.3185 51.8658 48.3185 51.8658 48.2071 51.9809C47.9992 52.1949 47.7893 52.4065 47.5781 52.6172C47.4743 52.721 47.3706 52.8247 47.2636 52.9317C47.1741 53.0213 47.0845 53.1108 46.9922 53.2031C46.908 53.29 46.8239 53.3768 46.7372 53.4663C45.3093 54.9308 45.3093 54.9308 44.6927 54.9909C44.1924 54.953 43.809 54.7948 43.3516 54.5979C43.1696 54.5226 42.9877 54.4473 42.8057 54.372C42.5214 54.2526 42.2373 54.1327 41.9533 54.0124C41.6777 53.8963 41.4014 53.7819 41.125 53.6678C41.0405 53.6313 40.9561 53.5948 40.869 53.5572C40.4016 53.3647 40.0932 53.2666 39.6094 53.4375C39.3029 53.5765 39.0022 53.7198 38.7012 53.8696C37.9864 54.216 37.268 54.5216 36.5186 54.7852C36.4343 54.815 36.35 54.8449 36.2632 54.8757C35.9187 54.9937 35.6402 55.0781 35.2734 55.0781C35.2082 55.2873 35.2082 55.2873 35.1416 55.5006C34.9041 56.2124 34.6101 56.8998 34.3139 57.5885C34.2182 57.8114 34.1237 58.0346 34.0292 58.258C33.9685 58.3998 33.9078 58.5415 33.8452 58.6876C33.7904 58.8159 33.7355 58.9442 33.679 59.0764C33.3951 59.6632 33.3951 59.6632 33.1641 59.8828C32.5409 60.0313 31.9048 60.0171 31.2671 60.0156C31.1157 60.0157 31.1157 60.0157 30.9612 60.0159C30.7489 60.016 30.5365 60.0158 30.3242 60.0153C30.001 60.0147 29.6778 60.0153 29.3546 60.016C29.1473 60.0159 28.9401 60.0158 28.7329 60.0156C28.5893 60.0159 28.5893 60.0159 28.4428 60.0163C27.8985 60.0141 27.3698 60.0012 26.8359 59.8828C26.233 59.1458 25.9155 58.2105 25.5549 57.3354C25.4507 57.0827 25.3452 56.8307 25.2395 56.5787C25.1727 56.4182 25.1059 56.2577 25.0392 56.0971C25.0077 56.0218 24.9762 55.9465 24.9438 55.8689C24.7266 55.3397 24.7266 55.3397 24.7266 55.0781C24.5766 55.0487 24.4266 55.0192 24.272 54.9889C23.6567 54.8518 23.0893 54.6362 22.5073 54.397C22.4045 54.3556 22.3017 54.3142 22.1958 54.2716C21.575 54.0186 20.976 53.7475 20.3989 53.4041C19.7894 53.1937 19.1492 53.5416 18.5889 53.7822C18.4235 53.8513 18.2581 53.9203 18.0927 53.9893C17.8348 54.0979 17.5772 54.207 17.3197 54.3165C17.0694 54.4227 16.8184 54.5273 16.5674 54.6318C16.4912 54.6648 16.415 54.6977 16.3365 54.7317C15.8734 54.9234 15.5005 55.0132 15 54.9609C14.6782 54.7591 14.6782 54.7591 14.3628 54.4849C14.2515 54.3886 14.1401 54.2924 14.0254 54.1933C13.6337 53.8358 13.2567 53.4695 12.8906 53.0859C12.7964 52.9917 12.7021 52.8974 12.605 52.8003C12.5059 52.7012 12.4068 52.6021 12.3047 52.5C12.2322 52.4302 12.1597 52.3604 12.085 52.2885C11.6908 51.9048 11.3048 51.5141 10.9497 51.0938C10.8625 50.9922 10.8625 50.9922 10.7735 50.8887C10.5518 50.3544 10.752 49.7706 10.9363 49.248C10.9998 49.0983 11.0644 48.9491 11.1301 48.8004C11.1997 48.6357 11.2693 48.4711 11.3388 48.3064C11.4483 48.0511 11.5584 47.796 11.6691 47.5412C11.7766 47.2926 11.8819 47.0431 11.987 46.7935C12.0206 46.7181 12.0541 46.6426 12.0887 46.5649C12.3322 45.983 12.3236 45.5879 12.0993 45.0052C12.048 44.9056 12.048 44.9056 11.9957 44.8041C11.9573 44.7272 11.919 44.6503 11.8794 44.5711C11.8385 44.4903 11.7976 44.4095 11.7554 44.3262C11.3957 43.5918 11.0952 42.8545 10.8398 42.0776C10.81 41.9868 10.7801 41.896 10.7494 41.8024C10.5469 41.1691 10.5469 41.1691 10.5469 40.8984C10.4686 40.8865 10.3903 40.8745 10.3096 40.8622C9.87579 40.7615 9.47859 40.5968 9.07013 40.4233C8.98596 40.3879 8.90178 40.3524 8.81506 40.316C8.63786 40.2412 8.46077 40.1661 8.28381 40.0908C8.0132 39.9758 7.74199 39.8624 7.4707 39.749C7.29824 39.676 7.12582 39.6029 6.95343 39.5297C6.87249 39.496 6.79156 39.4623 6.70817 39.4276C5.92937 39.093 5.92937 39.093 5.74219 38.7891C5.61962 38.1328 5.60767 37.485 5.60944 36.8189C5.60927 36.6759 5.60927 36.6759 5.6091 36.5301C5.60902 36.33 5.60923 36.1299 5.60972 35.9298C5.61035 35.6258 5.60973 35.3219 5.60898 35.018C5.60906 34.8224 5.60921 34.6268 5.60944 34.4312C5.6092 34.3415 5.60896 34.2519 5.60872 34.1596C5.61119 33.5837 5.64187 33.0288 5.74219 32.4609C5.99008 32.225 6.14135 32.1308 6.44531 31.9922C6.55296 31.9426 6.66062 31.8931 6.77153 31.842C7.16103 31.669 7.55321 31.5039 7.94678 31.3403C8.08009 31.2839 8.2134 31.2275 8.35076 31.1694C9.01094 30.8924 9.658 30.6338 10.3526 30.4569C10.5717 30.3632 10.5717 30.3632 10.6619 30.1024C10.7129 29.8996 10.7567 29.6949 10.7968 29.4896C10.9315 28.9234 11.142 28.4 11.3599 27.8613C11.419 27.7117 11.419 27.7117 11.4794 27.559C11.6606 27.1096 11.8434 26.6954 12.1074 26.2885C12.3542 25.8005 12.2982 25.6079 12.1875 25.0781C12.08 24.77 11.968 24.4732 11.8428 24.1727C11.8092 24.0894 11.7755 24.0061 11.7408 23.9203C11.5981 23.5671 11.4533 23.2147 11.3085 22.8623C11.2026 22.6036 11.0979 22.3445 10.9932 22.0853C10.9602 22.0063 10.9273 21.9273 10.8933 21.8459C10.7241 21.4261 10.6015 21.0785 10.6641 20.625C10.853 20.3527 11.0364 20.1217 11.2573 19.8779C11.3509 19.7721 11.3509 19.7721 11.4463 19.6641C12.2048 18.817 13.0025 18.0081 13.8281 17.2266C13.8872 17.1705 13.9462 17.1144 14.007 17.0566C14.6509 16.4566 14.6509 16.4566 15 16.2891C17.9683 16.5521 20.7072 18.2001 22.7271 20.2881C22.8527 20.4174 22.8527 20.4174 22.9809 20.5492C23.218 20.7966 23.4513 21.0468 23.6824 21.2997C23.7515 21.3748 23.8206 21.4498 23.8918 21.5271C24.2687 21.9578 24.4618 22.2581 24.4922 22.8516C23.9295 23.2394 23.3625 23.5985 22.7637 23.9282C21.9246 24.412 21.2235 25.0172 20.5078 25.6641C20.3775 25.7796 20.3775 25.7796 20.2446 25.8975C17.8431 28.1492 16.3824 31.6466 16.2556 34.9004C16.1671 38.8609 17.4159 42.3994 20.1598 45.2846C22.7271 47.9085 25.9414 49.0941 29.5313 49.4531C29.5313 48.177 29.5313 46.9008 29.5313 45.5859C28.6031 45.818 28.6031 45.818 27.6563 46.0547C25.6951 46.2755 23.5498 45.8211 21.9542 44.6193C20.1526 43.1502 18.984 41.229 18.7233 38.9026C18.6865 38.4294 18.6612 37.967 18.75 37.5C19.6403 36.5874 21.393 36.4396 22.5952 36.4087C24.4863 36.4418 26.1724 37.0407 27.6563 38.2031C27.7395 38.267 27.8227 38.3309 27.9085 38.3968C28.5788 38.9436 28.8861 39.441 29.4141 40.1953C29.4527 38.4938 29.4914 36.7922 29.5313 35.0391C29.0672 35.1551 28.6031 35.2711 28.125 35.3906C27.7431 35.4216 27.3913 35.4416 27.0117 35.4346C26.9161 35.4334 26.8205 35.4322 26.7219 35.431C24.8751 35.3838 23.2569 34.6687 21.9141 33.3984C20.6302 32.0412 19.9086 30.3983 19.8706 28.5352C19.8667 28.413 19.8667 28.413 19.8627 28.2883C19.8643 27.9284 19.8701 27.7135 20.1164 27.4411C20.4323 27.2839 20.7432 27.1642 21.0791 27.0557C21.1972 27.0167 21.3154 26.9777 21.4371 26.9376C23.4754 26.3618 25.3973 26.7769 27.2209 27.7528C28.193 28.3022 28.7416 28.9862 29.4141 29.8828C29.4527 28.8773 29.4914 27.8719 29.5313 26.8359C29.3379 26.7586 29.1445 26.6813 28.9453 26.6016C27.5231 25.6621 26.6026 23.9031 26.2134 22.2876C25.9002 20.381 26.1832 18.3643 27.3047 16.7578C29.2242 14.3434 29.2242 14.3434 30.3516 14.5313ZM28.7109 16.7578C27.583 17.9949 27.1247 19.5258 27.1591 21.1729C27.2882 22.9447 28.1057 24.324 29.3495 25.5414C29.6952 25.829 29.6952 25.829 30.1172 25.8984C30.4753 25.6806 30.7586 25.3731 31.0547 25.0781C31.1267 25.0088 31.1988 24.9395 31.273 24.868C32.329 23.7699 32.8048 22.3183 32.8491 20.8228C32.8117 18.9338 32.0414 17.4776 30.7031 16.1719C29.7938 15.3885 29.469 16.0126 28.7109 16.7578ZM13.4628 19.0932C13.2064 19.3498 12.9531 19.6093 12.7016 19.8708C12.5636 20.0136 12.4232 20.1541 12.2823 20.294C12.0618 20.514 12.0618 20.514 11.8359 20.8594C11.874 21.43 12.0819 21.927 12.3019 22.4483C12.3716 22.6185 12.4412 22.7887 12.5107 22.9589C12.62 23.2244 12.7298 23.4895 12.841 23.7542C12.9487 24.0116 13.0539 24.2698 13.1589 24.5284C13.2092 24.6456 13.2092 24.6456 13.2606 24.7652C13.4782 25.3075 13.494 25.6839 13.3594 26.25C13.2236 26.5505 13.0843 26.8331 12.9272 27.1216C12.5132 27.9141 12.1795 28.713 11.8739 29.5528C11.8471 29.6245 11.8203 29.6963 11.7927 29.7703C11.7118 30.0028 11.7118 30.0028 11.6744 30.2641C11.5761 30.7402 11.4755 30.9808 11.0654 31.2607C10.6666 31.4562 10.2645 31.6248 9.85108 31.7871C9.71353 31.8445 9.57599 31.9019 9.43428 31.9611C8.8893 32.1876 8.34273 32.4082 7.79062 32.6168C7.66315 32.6663 7.53567 32.7158 7.40433 32.7667C7.29004 32.8096 7.17575 32.8525 7.058 32.8966C6.7881 33.0197 6.7881 33.0197 6.70155 33.2395C6.66923 33.6478 6.66061 34.0544 6.66001 34.4637C6.65962 34.5552 6.65923 34.6468 6.65882 34.7412C6.65823 34.9345 6.65796 35.1279 6.65797 35.3212C6.65772 35.6162 6.65559 35.9112 6.65337 36.2061C6.65302 36.3944 6.65279 36.5826 6.65268 36.7708C6.65142 36.9025 6.65142 36.9025 6.65013 37.0368C6.64637 37.7174 6.64637 37.7174 6.91406 38.3203C7.24115 38.4749 7.54054 38.5911 7.88223 38.7012C8.08064 38.7712 8.2788 38.8419 8.47675 38.9132C8.57959 38.95 8.68242 38.9869 8.78836 39.0249C11.3493 39.9642 11.3493 39.9642 11.8034 40.779C11.9871 41.2825 12.0575 41.7988 12.1238 42.3289C12.243 42.9415 12.5377 43.4798 12.8174 44.0332C12.8694 44.14 12.9214 44.2469 12.975 44.3569C13.1802 44.8262 13.1802 44.8262 13.4766 45.2344C13.5399 45.8669 13.3569 46.319 13.1136 46.8869C13.0769 46.9758 13.0402 47.0648 13.0024 47.1564C12.8461 47.535 12.687 47.9125 12.528 48.29C12.4121 48.5665 12.2977 48.8436 12.1834 49.1208C12.1469 49.2059 12.1104 49.291 12.0728 49.3786C11.896 49.8082 11.7933 50.0672 11.9531 50.5078C12.2014 50.8252 12.2014 50.8252 12.5171 51.1523C12.5739 51.213 12.6307 51.2736 12.6893 51.3361C13.1162 51.7889 13.551 52.234 13.9893 52.6758C14.0463 52.7334 14.1034 52.791 14.1622 52.8504C14.322 53.0094 14.4851 53.165 14.6484 53.3203C14.7442 53.4134 14.84 53.5064 14.9387 53.6023C15.2207 53.8218 15.2207 53.8218 15.5488 53.7639C15.995 53.6583 16.4061 53.5001 16.8274 53.3231C16.9981 53.2534 17.1689 53.1838 17.3396 53.1143C17.6061 53.0049 17.8723 52.895 18.138 52.784C18.3964 52.6765 18.6555 52.5712 18.9148 52.4661C18.9936 52.4326 19.0723 52.399 19.1534 52.3644C19.7801 52.113 20.1832 52.1317 20.7997 52.3861C20.8948 52.435 20.9899 52.4839 21.0878 52.5343C21.1971 52.5889 21.3064 52.6436 21.419 52.6998C21.6409 52.8128 21.8624 52.9262 22.0837 53.0404C22.6351 53.3148 23.1481 53.5518 23.7527 53.6771C25.331 54.0231 25.331 54.0231 25.7779 54.714C26.0719 55.2701 26.2794 55.8544 26.4844 56.4478C26.5979 56.7494 26.7137 57.05 26.8299 57.3506C26.9007 57.5366 26.9696 57.7233 27.0361 57.9109C27.1888 58.3365 27.31 58.6508 27.6563 58.9453C27.8903 59.0059 27.8903 59.0059 28.1506 59.0094C28.2492 59.0142 28.3478 59.019 28.4494 59.0239C28.555 59.027 28.6607 59.0301 28.7695 59.0332C28.8781 59.0372 28.9866 59.0411 29.0984 59.0452C29.8538 59.0676 30.6072 59.0641 31.3623 59.0332C31.4559 59.0301 31.5495 59.0271 31.6459 59.0239C32.1244 59.0079 32.1244 59.0079 32.5363 58.792C32.8048 58.4573 32.9059 58.0458 33.0409 57.6439C34.2283 54.3272 34.2283 54.3272 35.2373 53.8037C35.8204 53.5946 36.419 53.4943 37.0296 53.3985C37.7341 53.2426 38.3421 52.8604 38.964 52.5063C39.0527 52.4582 39.1413 52.41 39.2326 52.3604C39.3086 52.3166 39.3846 52.2729 39.4629 52.2278C40.1423 52.0232 40.8072 52.3446 41.4267 52.6144C41.5922 52.6841 41.7578 52.7536 41.9234 52.8232C42.181 52.9327 42.4384 53.0428 42.6956 53.1535C42.9459 53.2608 43.197 53.3662 43.4482 53.4714C43.5246 53.5049 43.601 53.5385 43.6798 53.5731C44.1266 53.7591 44.4212 53.8385 44.8828 53.6719C45.2113 53.4263 45.2113 53.4263 45.5347 53.1079C45.6249 53.0227 45.6249 53.0227 45.7169 52.9357C45.9091 52.7529 46.0993 52.5682 46.2891 52.3828C46.3532 52.3204 46.4174 52.258 46.4836 52.1937C46.6734 52.0085 46.8624 51.8224 47.0508 51.6357C47.1084 51.5787 47.1661 51.5216 47.2254 51.4628C47.3844 51.303 47.54 51.1399 47.6953 50.9766C47.7884 50.8808 47.8814 50.785 47.9773 50.6863C48.1969 50.4041 48.1969 50.4041 48.1387 50.0746C48.0348 49.6366 47.8792 49.2354 47.7022 48.8232C47.6331 48.6579 47.5641 48.4924 47.495 48.327C47.3864 48.0692 47.2774 47.8115 47.1679 47.5541C47.0617 47.3038 46.9571 47.0528 46.8526 46.8018C46.8196 46.7256 46.7867 46.6494 46.7527 46.5709C46.5301 46.0331 46.4027 45.5627 46.6091 45.0014C46.6488 44.9336 46.6885 44.8657 46.7294 44.7958C46.7734 44.7178 46.8175 44.6398 46.8628 44.5594C46.9341 44.4367 46.9341 44.4367 47.0068 44.3115C47.4569 43.501 47.8144 42.6926 48.1302 41.8217C48.1572 41.7498 48.1842 41.6779 48.212 41.6038C48.2918 41.363 48.2918 41.363 48.2999 41.0855C48.3465 40.7069 48.4095 40.509 48.6328 40.1953C49.3061 39.7458 50.1118 39.4988 50.8667 39.2212C51.1803 39.103 51.4932 38.9836 51.8053 38.8617C51.9991 38.7863 52.1938 38.7131 52.3895 38.6425C52.9012 38.4516 52.9012 38.4516 53.263 38.0609C53.3388 37.6291 53.3515 37.2076 53.3473 36.7708C53.3473 36.6791 53.3472 36.5874 53.3472 36.4929C53.3468 36.2998 53.3459 36.1066 53.3444 35.9135C53.3423 35.6183 53.342 35.3231 53.3421 35.0278C53.3415 34.8398 53.3408 34.6517 53.34 34.4637C53.3398 34.3316 53.3398 34.3316 53.3396 34.1969C53.341 33.61 53.341 33.61 53.2031 33.0469C52.8758 32.8955 52.565 32.7751 52.2249 32.6601C48.693 31.3675 48.693 31.3675 48.154 30.3941C47.9427 29.839 47.8403 29.2712 47.7571 28.6846C47.6562 28.1532 47.4258 27.6962 47.1826 27.2168C47.1432 27.1351 47.1038 27.0535 47.0632 26.9694C46.9005 26.6351 46.73 26.3254 46.5234 26.0156C46.5575 25.3472 46.7205 24.7992 46.9894 24.1869C47.059 24.0217 47.1286 23.8565 47.1982 23.6913C47.3078 23.435 47.418 23.1789 47.5285 22.923C47.6357 22.6734 47.7411 22.4231 47.8464 22.1727C47.8799 22.0966 47.9135 22.0206 47.9481 21.9422C48.1346 21.4964 48.2192 21.2016 48.0469 20.7422C47.9 20.5214 47.9 20.5214 47.7054 20.3293C47.6354 20.2556 47.5655 20.1819 47.4934 20.1059C47.4199 20.0307 47.3463 19.9554 47.2705 19.8779C47.1997 19.8036 47.1288 19.7293 47.0558 19.6527C46.5736 19.1489 46.0814 18.6549 45.5859 18.1641C45.4652 18.0422 45.4652 18.0422 45.342 17.9178C45.1165 17.7193 44.9229 17.5849 44.6484 17.4609C44.3875 17.4866 44.3875 17.4866 44.1225 17.5905C44.0193 17.6256 43.9161 17.6608 43.8098 17.697C43.6999 17.7351 43.5899 17.7732 43.4766 17.8125C43.3648 17.8449 43.2531 17.8772 43.138 17.9106C40.4408 18.6974 38.859 20.3383 37.0313 22.3828C37.3207 22.683 37.6106 22.8851 37.9688 23.1006C41.5981 25.3851 43.6652 28.8755 44.626 32.9832C45.3066 36.7896 44.4743 40.8595 42.2756 44.0397C41.9505 44.4914 41.605 44.9231 41.25 45.3516C41.1326 45.4959 41.1326 45.4959 41.0129 45.6432C38.7441 48.324 35.2116 49.9872 31.7578 50.3906C27.1631 50.683 23.2705 49.4905 19.7827 46.4795C17.7207 44.572 16.2548 41.9784 15.5859 39.2578C15.5336 39.0453 15.5336 39.0453 15.4802 38.8284C14.6574 35.1045 15.3893 31.0169 17.3714 27.7705C17.9759 26.8385 18.6861 25.9976 19.4531 25.1953C19.5246 25.1165 19.596 25.0376 19.6696 24.9564C20.6064 23.958 21.8005 23.2009 22.9688 22.5C22.8088 22.3128 22.6487 22.1257 22.4878 21.9393C22.3342 21.7598 22.1824 21.5789 22.032 21.3967C20.2348 19.2564 18.2396 18.2646 15.5859 17.4609C14.8661 17.4609 13.9715 18.593 13.4628 19.0932ZM20.9766 28.2422C20.8492 29.8407 21.5117 31.0826 22.4048 32.3584C23.3087 33.3746 24.6681 34.1374 26.0156 34.3359C27.1853 34.4019 28.3401 34.4042 29.4141 33.8672C29.5245 32.481 29.0677 31.2261 28.2422 30.1172C27.0539 28.7315 25.6774 27.9111 23.8376 27.7327C22.8713 27.7082 21.854 27.8035 20.9766 28.2422ZM31.9849 29.8096C31.22 30.8458 30.5613 31.9924 30.5786 33.3105C30.5797 33.4151 30.5807 33.5196 30.5818 33.6273C30.5832 33.7065 30.5845 33.7856 30.5859 33.8672C30.7285 33.9228 30.8711 33.9784 31.0181 34.0356C31.0983 34.0669 31.1785 34.0982 31.2611 34.1304C32.6358 34.5934 34.1941 34.4282 35.5078 33.8672C37.2251 32.9978 38.2943 31.7162 38.9063 29.8828C39.0021 29.4917 39.0368 29.1351 39.0308 28.7329C39.0297 28.6403 39.0286 28.5477 39.0276 28.4523C39.0262 28.383 39.0248 28.3136 39.0234 28.2422C38.86 28.1856 38.6964 28.1295 38.5327 28.0737C38.4416 28.0425 38.3505 28.0112 38.2567 27.979C36.0337 27.2969 33.5083 28.0553 31.9849 29.8096ZM19.8047 38.0859C19.677 39.6498 20.3075 41.2228 21.2631 42.4333C22.4255 43.8018 23.9729 44.7737 25.7813 45C27.04 45.0742 28.2828 45.0234 29.4141 44.4141C29.5412 42.6524 28.8788 41.1305 27.8027 39.7559C26.5765 38.4222 24.8103 37.6164 23.0214 37.4767C21.9728 37.4355 20.7559 37.6103 19.8047 38.0859ZM33.0469 39.0234C32.9513 39.0944 32.8556 39.1654 32.7571 39.2386C31.6642 40.1744 30.7693 41.679 30.5859 43.125C30.5693 43.5556 30.5717 43.9835 30.5859 44.4141C30.7884 44.4903 30.9911 44.5658 31.1938 44.6411C31.3067 44.6833 31.4195 44.7254 31.5358 44.7688C33.1808 45.3216 34.905 45.0004 36.4453 44.2969C38.1718 43.3888 39.3592 41.9407 39.9609 40.0781C40.1581 39.4021 40.2209 38.7889 40.1953 38.0859C39.9758 38.0096 39.756 37.9341 39.5361 37.8589C39.3526 37.7957 39.3526 37.7957 39.1653 37.7312C37.0099 37.0782 34.809 37.701 33.0469 39.0234Z" stroke="black" stroke-width="0.4" mask="url(#path-1-outside-1_88_17)"/>
<mask id="path-2-outside-2_88_17" maskUnits="userSpaceOnUse" x="20.7969" y="-1.00732" width="18" height="17" fill="currentColor">
<rect fill="white" x="20.7969" y="-1.00732" width="18" height="17"/>
<path d="M30.0073 -0.00732422C30.1777 -0.00369873 30.1777 -0.00369873 30.3516 0C30.9729 1.16873 31.5872 2.34074 32.1826 3.52295C32.2339 3.62397 32.2852 3.72499 32.338 3.82908C32.3849 3.92277 32.4318 4.01647 32.4802 4.11301C32.5426 4.23719 32.5426 4.23719 32.6063 4.36389C32.6953 4.57031 32.6953 4.57031 32.6953 4.80469C32.8127 4.81253 32.8127 4.81253 32.9324 4.82054C33.9107 4.89334 34.8772 5.01756 35.847 5.16174C36.1119 5.20071 36.377 5.23752 36.6422 5.27435C36.8112 5.29925 36.9803 5.32427 37.1494 5.34943C37.3012 5.37139 37.453 5.39335 37.6095 5.41597C37.9688 5.50781 37.9688 5.50781 38.2031 5.85938C38.1709 6.33028 38.0302 6.55887 37.6973 6.88385C37.5773 7.00236 37.5773 7.00236 37.4549 7.12326C37.3286 7.24449 37.3286 7.24449 37.1997 7.36816C37.1187 7.44808 37.0376 7.52799 36.9541 7.61032C35.7112 8.82655 35.7112 8.82655 35.0555 9.29698C34.8386 9.46938 34.7026 9.59949 34.5703 9.84375C34.5157 11.0325 34.8597 12.2761 35.0812 13.437C35.1075 13.5813 35.1337 13.7256 35.1608 13.8744C35.1852 14.0035 35.2097 14.1326 35.2348 14.2657C35.2775 14.6885 35.2319 15.0518 35.1562 15.4688C34.7086 15.5912 34.4818 15.5926 34.0704 15.3781C33.9767 15.3302 33.883 15.2823 33.7864 15.2329C33.6874 15.1802 33.5884 15.1275 33.4863 15.0732C33.3835 15.0205 33.2807 14.9677 33.1748 14.9133C32.6632 14.6495 32.1571 14.377 31.6544 14.0968C31.5654 14.0479 31.4765 13.9989 31.3848 13.9485C31.2174 13.8557 31.051 13.7612 30.8857 13.6648C30.3657 13.376 30.1013 13.3289 29.5312 13.4766C29.2061 13.6176 28.897 13.7841 28.586 13.9536C28.404 14.0499 28.2221 14.1462 28.0401 14.2424C27.7556 14.3943 27.4714 14.5468 27.1876 14.7C26.9123 14.8481 26.6359 14.9942 26.3594 15.1401C26.2749 15.1865 26.1904 15.2328 26.1034 15.2806C25.7379 15.4724 25.4958 15.5917 25.0786 15.5552C24.9624 15.5124 24.9624 15.5124 24.8438 15.4688C24.7234 14.8437 24.7487 14.3222 24.8689 13.6958C24.8847 13.6076 24.9005 13.5194 24.9167 13.4285C24.9669 13.1489 25.0187 12.8696 25.0708 12.5903C25.1222 12.3106 25.1733 12.0308 25.2236 11.7509C25.2549 11.5774 25.2868 11.4041 25.3195 11.2308C25.4046 10.763 25.4705 10.3189 25.4297 9.84375C25.2204 9.57895 25.0309 9.37264 24.7852 9.14795C24.7207 9.08633 24.6562 9.02472 24.5897 8.96124C24.178 8.57066 23.7531 8.19571 23.3226 7.82593C23.0244 7.5629 22.7353 7.29226 22.4487 7.0166C22.3498 6.92204 22.2508 6.82747 22.1489 6.73004C21.8956 6.42297 21.8118 6.25498 21.7969 5.85938C22.0312 5.50781 22.0312 5.50781 22.4789 5.40336C22.672 5.37384 22.8654 5.34607 23.0589 5.31967C23.2124 5.29701 23.2124 5.29701 23.369 5.27389C23.5857 5.24217 23.8025 5.21118 24.0195 5.18088C24.3507 5.1346 24.6816 5.08625 25.0124 5.03746C25.2231 5.0069 25.4337 4.97645 25.6444 4.94614C25.7432 4.93186 25.8419 4.91758 25.9437 4.90287C26.401 4.83926 26.8416 4.78656 27.3047 4.80469C27.334 4.70798 27.3633 4.61127 27.3935 4.51163C27.5602 4.04205 27.7693 3.60959 27.9936 3.16544C28.0372 3.07827 28.0808 2.99111 28.1258 2.9013C28.2174 2.7183 28.3093 2.53542 28.4015 2.35265C28.5429 2.07186 28.6836 1.7907 28.8242 1.50948C28.9135 1.33146 29.0029 1.15347 29.0923 0.975494C29.1345 0.891152 29.1767 0.806809 29.2202 0.71991C29.583 0.00133552 29.583 0.0013355 30.0073 -0.00732422ZM29.8828 1.75781C29.8288 1.87108 29.8288 1.87108 29.7738 1.98664C29.6076 2.33522 29.4413 2.68372 29.2749 3.03223C29.2183 3.15096 29.1618 3.2697 29.1035 3.39203C28.9898 3.63003 28.8752 3.86757 28.7595 4.10462C28.6512 4.33233 28.5482 4.56264 28.4513 4.79545C28.1108 5.57965 28.1108 5.57965 27.6013 5.80399C27.4445 5.82539 27.2868 5.84113 27.1289 5.85205C27.0443 5.86237 26.9597 5.87269 26.8726 5.88332C26.6881 5.9057 26.5032 5.92594 26.3183 5.94429C25.8758 5.99148 25.4367 6.05884 24.9966 6.12445C24.5165 6.19572 24.0356 6.26205 23.5547 6.32812C23.6838 6.71556 23.7762 6.79712 24.0816 7.05139C24.1661 7.12337 24.2507 7.19535 24.3379 7.26952C24.4275 7.34558 24.5171 7.42164 24.6094 7.5C24.9701 7.81553 25.322 8.1388 25.6714 8.4668C25.7632 8.54731 25.8549 8.62783 25.9495 8.71078C26.5774 9.30945 26.5774 9.30945 26.6416 9.79434C26.6147 10.1327 26.5567 10.4497 26.4844 10.7812C26.446 11.0142 26.408 11.2472 26.3704 11.4803C26.3284 11.7137 26.2858 11.947 26.2427 12.1802C26.1994 12.4156 26.1565 12.651 26.114 12.8865C26.0952 12.9888 26.0763 13.091 26.0568 13.1964C26.0043 13.5067 26.0043 13.5067 26.0156 13.9453C26.5112 13.7929 26.9489 13.6032 27.4036 13.3548C27.5303 13.2868 27.657 13.2188 27.7876 13.1488C28.052 13.0058 28.316 12.862 28.5796 12.7176C28.7063 12.6499 28.833 12.5822 28.9636 12.5125C29.0782 12.4502 29.1928 12.3878 29.3108 12.3236C29.856 12.1038 30.1977 12.1235 30.7396 12.3489C30.879 12.4218 31.0175 12.4963 31.1554 12.572C31.2293 12.611 31.3032 12.6501 31.3793 12.6903C31.6136 12.8143 31.8469 12.9402 32.0801 13.0664C32.3151 13.1922 32.5504 13.3176 32.7859 13.4426C32.932 13.5202 33.0779 13.5984 33.2233 13.6773C33.5835 13.8816 33.5835 13.8816 33.9844 13.9453C33.8614 12.8705 33.7151 11.8059 33.5116 10.7431C33.3485 9.87108 33.3485 9.87108 33.3984 9.49219C33.5845 9.25349 33.7589 9.06042 33.9757 8.85361C34.0347 8.79517 34.0937 8.73673 34.1544 8.67652C34.343 8.49045 34.5335 8.30655 34.7241 8.12256C34.8511 7.99749 34.978 7.87229 35.1048 7.74696C36.024 6.84336 36.024 6.84336 36.4453 6.5625C36.4453 6.48516 36.4453 6.40781 36.4453 6.32812C36.3229 6.31099 36.2005 6.29385 36.0744 6.2762C35.6203 6.21254 35.1663 6.14845 34.7122 6.08422C34.5157 6.05649 34.3192 6.02887 34.1226 6.00137C33.8402 5.96182 33.5577 5.92186 33.2753 5.88181C33.1434 5.86349 33.1434 5.86349 33.0089 5.8448C32.6559 5.79439 32.3314 5.73806 31.9922 5.625C31.8054 5.31979 31.8054 5.31979 31.6072 4.91638C31.5718 4.84511 31.5365 4.77383 31.5001 4.7004C31.3871 4.47201 31.2758 4.24286 31.1646 4.01367C31.0892 3.86103 31.0137 3.70844 30.9382 3.55591C30.3487 2.36008 30.3487 2.36008 30.1172 1.75781C30.0398 1.75781 29.9625 1.75781 29.8828 1.75781Z"/>
</mask>
<path d="M30.0073 -0.00732422C30.1777 -0.00369873 30.1777 -0.00369873 30.3516 0C30.9729 1.16873 31.5872 2.34074 32.1826 3.52295C32.2339 3.62397 32.2852 3.72499 32.338 3.82908C32.3849 3.92277 32.4318 4.01647 32.4802 4.11301C32.5426 4.23719 32.5426 4.23719 32.6063 4.36389C32.6953 4.57031 32.6953 4.57031 32.6953 4.80469C32.8127 4.81253 32.8127 4.81253 32.9324 4.82054C33.9107 4.89334 34.8772 5.01756 35.847 5.16174C36.1119 5.20071 36.377 5.23752 36.6422 5.27435C36.8112 5.29925 36.9803 5.32427 37.1494 5.34943C37.3012 5.37139 37.453 5.39335 37.6095 5.41597C37.9688 5.50781 37.9688 5.50781 38.2031 5.85938C38.1709 6.33028 38.0302 6.55887 37.6973 6.88385C37.5773 7.00236 37.5773 7.00236 37.4549 7.12326C37.3286 7.24449 37.3286 7.24449 37.1997 7.36816C37.1187 7.44808 37.0376 7.52799 36.9541 7.61032C35.7112 8.82655 35.7112 8.82655 35.0555 9.29698C34.8386 9.46938 34.7026 9.59949 34.5703 9.84375C34.5157 11.0325 34.8597 12.2761 35.0812 13.437C35.1075 13.5813 35.1337 13.7256 35.1608 13.8744C35.1852 14.0035 35.2097 14.1326 35.2348 14.2657C35.2775 14.6885 35.2319 15.0518 35.1562 15.4688C34.7086 15.5912 34.4818 15.5926 34.0704 15.3781C33.9767 15.3302 33.883 15.2823 33.7864 15.2329C33.6874 15.1802 33.5884 15.1275 33.4863 15.0732C33.3835 15.0205 33.2807 14.9677 33.1748 14.9133C32.6632 14.6495 32.1571 14.377 31.6544 14.0968C31.5654 14.0479 31.4765 13.9989 31.3848 13.9485C31.2174 13.8557 31.051 13.7612 30.8857 13.6648C30.3657 13.376 30.1013 13.3289 29.5312 13.4766C29.2061 13.6176 28.897 13.7841 28.586 13.9536C28.404 14.0499 28.2221 14.1462 28.0401 14.2424C27.7556 14.3943 27.4714 14.5468 27.1876 14.7C26.9123 14.8481 26.6359 14.9942 26.3594 15.1401C26.2749 15.1865 26.1904 15.2328 26.1034 15.2806C25.7379 15.4724 25.4958 15.5917 25.0786 15.5552C24.9624 15.5124 24.9624 15.5124 24.8438 15.4688C24.7234 14.8437 24.7487 14.3222 24.8689 13.6958C24.8847 13.6076 24.9005 13.5194 24.9167 13.4285C24.9669 13.1489 25.0187 12.8696 25.0708 12.5903C25.1222 12.3106 25.1733 12.0308 25.2236 11.7509C25.2549 11.5774 25.2868 11.4041 25.3195 11.2308C25.4046 10.763 25.4705 10.3189 25.4297 9.84375C25.2204 9.57895 25.0309 9.37264 24.7852 9.14795C24.7207 9.08633 24.6562 9.02472 24.5897 8.96124C24.178 8.57066 23.7531 8.19571 23.3226 7.82593C23.0244 7.5629 22.7353 7.29226 22.4487 7.0166C22.3498 6.92204 22.2508 6.82747 22.1489 6.73004C21.8956 6.42297 21.8118 6.25498 21.7969 5.85938C22.0312 5.50781 22.0312 5.50781 22.4789 5.40336C22.672 5.37384 22.8654 5.34607 23.0589 5.31967C23.2124 5.29701 23.2124 5.29701 23.369 5.27389C23.5857 5.24217 23.8025 5.21118 24.0195 5.18088C24.3507 5.1346 24.6816 5.08625 25.0124 5.03746C25.2231 5.0069 25.4337 4.97645 25.6444 4.94614C25.7432 4.93186 25.8419 4.91758 25.9437 4.90287C26.401 4.83926 26.8416 4.78656 27.3047 4.80469C27.334 4.70798 27.3633 4.61127 27.3935 4.51163C27.5602 4.04205 27.7693 3.60959 27.9936 3.16544C28.0372 3.07827 28.0808 2.99111 28.1258 2.9013C28.2174 2.7183 28.3093 2.53542 28.4015 2.35265C28.5429 2.07186 28.6836 1.7907 28.8242 1.50948C28.9135 1.33146 29.0029 1.15347 29.0923 0.975494C29.1345 0.891152 29.1767 0.806809 29.2202 0.71991C29.583 0.00133552 29.583 0.0013355 30.0073 -0.00732422ZM29.8828 1.75781C29.8288 1.87108 29.8288 1.87108 29.7738 1.98664C29.6076 2.33522 29.4413 2.68372 29.2749 3.03223C29.2183 3.15096 29.1618 3.2697 29.1035 3.39203C28.9898 3.63003 28.8752 3.86757 28.7595 4.10462C28.6512 4.33233 28.5482 4.56264 28.4513 4.79545C28.1108 5.57965 28.1108 5.57965 27.6013 5.80399C27.4445 5.82539 27.2868 5.84113 27.1289 5.85205C27.0443 5.86237 26.9597 5.87269 26.8726 5.88332C26.6881 5.9057 26.5032 5.92594 26.3183 5.94429C25.8758 5.99148 25.4367 6.05884 24.9966 6.12445C24.5165 6.19572 24.0356 6.26205 23.5547 6.32812C23.6838 6.71556 23.7762 6.79712 24.0816 7.05139C24.1661 7.12337 24.2507 7.19535 24.3379 7.26952C24.4275 7.34558 24.5171 7.42164 24.6094 7.5C24.9701 7.81553 25.322 8.1388 25.6714 8.4668C25.7632 8.54731 25.8549 8.62783 25.9495 8.71078C26.5774 9.30945 26.5774 9.30945 26.6416 9.79434C26.6147 10.1327 26.5567 10.4497 26.4844 10.7812C26.446 11.0142 26.408 11.2472 26.3704 11.4803C26.3284 11.7137 26.2858 11.947 26.2427 12.1802C26.1994 12.4156 26.1565 12.651 26.114 12.8865C26.0952 12.9888 26.0763 13.091 26.0568 13.1964C26.0043 13.5067 26.0043 13.5067 26.0156 13.9453C26.5112 13.7929 26.9489 13.6032 27.4036 13.3548C27.5303 13.2868 27.657 13.2188 27.7876 13.1488C28.052 13.0058 28.316 12.862 28.5796 12.7176C28.7063 12.6499 28.833 12.5822 28.9636 12.5125C29.0782 12.4502 29.1928 12.3878 29.3108 12.3236C29.856 12.1038 30.1977 12.1235 30.7396 12.3489C30.879 12.4218 31.0175 12.4963 31.1554 12.572C31.2293 12.611 31.3032 12.6501 31.3793 12.6903C31.6136 12.8143 31.8469 12.9402 32.0801 13.0664C32.3151 13.1922 32.5504 13.3176 32.7859 13.4426C32.932 13.5202 33.0779 13.5984 33.2233 13.6773C33.5835 13.8816 33.5835 13.8816 33.9844 13.9453C33.8614 12.8705 33.7151 11.8059 33.5116 10.7431C33.3485 9.87108 33.3485 9.87108 33.3984 9.49219C33.5845 9.25349 33.7589 9.06042 33.9757 8.85361C34.0347 8.79517 34.0937 8.73673 34.1544 8.67652C34.343 8.49045 34.5335 8.30655 34.7241 8.12256C34.8511 7.99749 34.978 7.87229 35.1048 7.74696C36.024 6.84336 36.024 6.84336 36.4453 6.5625C36.4453 6.48516 36.4453 6.40781 36.4453 6.32812C36.3229 6.31099 36.2005 6.29385 36.0744 6.2762C35.6203 6.21254 35.1663 6.14845 34.7122 6.08422C34.5157 6.05649 34.3192 6.02887 34.1226 6.00137C33.8402 5.96182 33.5577 5.92186 33.2753 5.88181C33.1434 5.86349 33.1434 5.86349 33.0089 5.8448C32.6559 5.79439 32.3314 5.73806 31.9922 5.625C31.8054 5.31979 31.8054 5.31979 31.6072 4.91638C31.5718 4.84511 31.5365 4.77383 31.5001 4.7004C31.3871 4.47201 31.2758 4.24286 31.1646 4.01367C31.0892 3.86103 31.0137 3.70844 30.9382 3.55591C30.3487 2.36008 30.3487 2.36008 30.1172 1.75781C30.0398 1.75781 29.9625 1.75781 29.8828 1.75781Z" fill="currentColor"/>
<path d="M30.0073 -0.00732422C30.1777 -0.00369873 30.1777 -0.00369873 30.3516 0C30.9729 1.16873 31.5872 2.34074 32.1826 3.52295C32.2339 3.62397 32.2852 3.72499 32.338 3.82908C32.3849 3.92277 32.4318 4.01647 32.4802 4.11301C32.5426 4.23719 32.5426 4.23719 32.6063 4.36389C32.6953 4.57031 32.6953 4.57031 32.6953 4.80469C32.8127 4.81253 32.8127 4.81253 32.9324 4.82054C33.9107 4.89334 34.8772 5.01756 35.847 5.16174C36.1119 5.20071 36.377 5.23752 36.6422 5.27435C36.8112 5.29925 36.9803 5.32427 37.1494 5.34943C37.3012 5.37139 37.453 5.39335 37.6095 5.41597C37.9688 5.50781 37.9688 5.50781 38.2031 5.85938C38.1709 6.33028 38.0302 6.55887 37.6973 6.88385C37.5773 7.00236 37.5773 7.00236 37.4549 7.12326C37.3286 7.24449 37.3286 7.24449 37.1997 7.36816C37.1187 7.44808 37.0376 7.52799 36.9541 7.61032C35.7112 8.82655 35.7112 8.82655 35.0555 9.29698C34.8386 9.46938 34.7026 9.59949 34.5703 9.84375C34.5157 11.0325 34.8597 12.2761 35.0812 13.437C35.1075 13.5813 35.1337 13.7256 35.1608 13.8744C35.1852 14.0035 35.2097 14.1326 35.2348 14.2657C35.2775 14.6885 35.2319 15.0518 35.1562 15.4688C34.7086 15.5912 34.4818 15.5926 34.0704 15.3781C33.9767 15.3302 33.883 15.2823 33.7864 15.2329C33.6874 15.1802 33.5884 15.1275 33.4863 15.0732C33.3835 15.0205 33.2807 14.9677 33.1748 14.9133C32.6632 14.6495 32.1571 14.377 31.6544 14.0968C31.5654 14.0479 31.4765 13.9989 31.3848 13.9485C31.2174 13.8557 31.051 13.7612 30.8857 13.6648C30.3657 13.376 30.1013 13.3289 29.5312 13.4766C29.2061 13.6176 28.897 13.7841 28.586 13.9536C28.404 14.0499 28.2221 14.1462 28.0401 14.2424C27.7556 14.3943 27.4714 14.5468 27.1876 14.7C26.9123 14.8481 26.6359 14.9942 26.3594 15.1401C26.2749 15.1865 26.1904 15.2328 26.1034 15.2806C25.7379 15.4724 25.4958 15.5917 25.0786 15.5552C24.9624 15.5124 24.9624 15.5124 24.8438 15.4688C24.7234 14.8437 24.7487 14.3222 24.8689 13.6958C24.8847 13.6076 24.9005 13.5194 24.9167 13.4285C24.9669 13.1489 25.0187 12.8696 25.0708 12.5903C25.1222 12.3106 25.1733 12.0308 25.2236 11.7509C25.2549 11.5774 25.2868 11.4041 25.3195 11.2308C25.4046 10.763 25.4705 10.3189 25.4297 9.84375C25.2204 9.57895 25.0309 9.37264 24.7852 9.14795C24.7207 9.08633 24.6562 9.02472 24.5897 8.96124C24.178 8.57066 23.7531 8.19571 23.3226 7.82593C23.0244 7.5629 22.7353 7.29226 22.4487 7.0166C22.3498 6.92204 22.2508 6.82747 22.1489 6.73004C21.8956 6.42297 21.8118 6.25498 21.7969 5.85938C22.0312 5.50781 22.0312 5.50781 22.4789 5.40336C22.672 5.37384 22.8654 5.34607 23.0589 5.31967C23.2124 5.29701 23.2124 5.29701 23.369 5.27389C23.5857 5.24217 23.8025 5.21118 24.0195 5.18088C24.3507 5.1346 24.6816 5.08625 25.0124 5.03746C25.2231 5.0069 25.4337 4.97645 25.6444 4.94614C25.7432 4.93186 25.8419 4.91758 25.9437 4.90287C26.401 4.83926 26.8416 4.78656 27.3047 4.80469C27.334 4.70798 27.3633 4.61127 27.3935 4.51163C27.5602 4.04205 27.7693 3.60959 27.9936 3.16544C28.0372 3.07827 28.0808 2.99111 28.1258 2.9013C28.2174 2.7183 28.3093 2.53542 28.4015 2.35265C28.5429 2.07186 28.6836 1.7907 28.8242 1.50948C28.9135 1.33146 29.0029 1.15347 29.0923 0.975494C29.1345 0.891152 29.1767 0.806809 29.2202 0.71991C29.583 0.00133552 29.583 0.0013355 30.0073 -0.00732422ZM29.8828 1.75781C29.8288 1.87108 29.8288 1.87108 29.7738 1.98664C29.6076 2.33522 29.4413 2.68372 29.2749 3.03223C29.2183 3.15096 29.1618 3.2697 29.1035 3.39203C28.9898 3.63003 28.8752 3.86757 28.7595 4.10462C28.6512 4.33233 28.5482 4.56264 28.4513 4.79545C28.1108 5.57965 28.1108 5.57965 27.6013 5.80399C27.4445 5.82539 27.2868 5.84113 27.1289 5.85205C27.0443 5.86237 26.9597 5.87269 26.8726 5.88332C26.6881 5.9057 26.5032 5.92594 26.3183 5.94429C25.8758 5.99148 25.4367 6.05884 24.9966 6.12445C24.5165 6.19572 24.0356 6.26205 23.5547 6.32812C23.6838 6.71556 23.7762 6.79712 24.0816 7.05139C24.1661 7.12337 24.2507 7.19535 24.3379 7.26952C24.4275 7.34558 24.5171 7.42164 24.6094 7.5C24.9701 7.81553 25.322 8.1388 25.6714 8.4668C25.7632 8.54731 25.8549 8.62783 25.9495 8.71078C26.5774 9.30945 26.5774 9.30945 26.6416 9.79434C26.6147 10.1327 26.5567 10.4497 26.4844 10.7812C26.446 11.0142 26.408 11.2472 26.3704 11.4803C26.3284 11.7137 26.2858 11.947 26.2427 12.1802C26.1994 12.4156 26.1565 12.651 26.114 12.8865C26.0952 12.9888 26.0763 13.091 26.0568 13.1964C26.0043 13.5067 26.0043 13.5067 26.0156 13.9453C26.5112 13.7929 26.9489 13.6032 27.4036 13.3548C27.5303 13.2868 27.657 13.2188 27.7876 13.1488C28.052 13.0058 28.316 12.862 28.5796 12.7176C28.7063 12.6499 28.833 12.5822 28.9636 12.5125C29.0782 12.4502 29.1928 12.3878 29.3108 12.3236C29.856 12.1038 30.1977 12.1235 30.7396 12.3489C30.879 12.4218 31.0175 12.4963 31.1554 12.572C31.2293 12.611 31.3032 12.6501 31.3793 12.6903C31.6136 12.8143 31.8469 12.9402 32.0801 13.0664C32.3151 13.1922 32.5504 13.3176 32.7859 13.4426C32.932 13.5202 33.0779 13.5984 33.2233 13.6773C33.5835 13.8816 33.5835 13.8816 33.9844 13.9453C33.8614 12.8705 33.7151 11.8059 33.5116 10.7431C33.3485 9.87108 33.3485 9.87108 33.3984 9.49219C33.5845 9.25349 33.7589 9.06042 33.9757 8.85361C34.0347 8.79517 34.0937 8.73673 34.1544 8.67652C34.343 8.49045 34.5335 8.30655 34.7241 8.12256C34.8511 7.99749 34.978 7.87229 35.1048 7.74696C36.024 6.84336 36.024 6.84336 36.4453 6.5625C36.4453 6.48516 36.4453 6.40781 36.4453 6.32812C36.3229 6.31099 36.2005 6.29385 36.0744 6.2762C35.6203 6.21254 35.1663 6.14845 34.7122 6.08422C34.5157 6.05649 34.3192 6.02887 34.1226 6.00137C33.8402 5.96182 33.5577 5.92186 33.2753 5.88181C33.1434 5.86349 33.1434 5.86349 33.0089 5.8448C32.6559 5.79439 32.3314 5.73806 31.9922 5.625C31.8054 5.31979 31.8054 5.31979 31.6072 4.91638C31.5718 4.84511 31.5365 4.77383 31.5001 4.7004C31.3871 4.47201 31.2758 4.24286 31.1646 4.01367C31.0892 3.86103 31.0137 3.70844 30.9382 3.55591C30.3487 2.36008 30.3487 2.36008 30.1172 1.75781C30.0398 1.75781 29.9625 1.75781 29.8828 1.75781Z" stroke="black" stroke-width="0.4" mask="url(#path-2-outside-2_88_17)"/>
</g>
<defs>
<clipPath id="clip0_88_17">
<rect width="60" height="60" fill="white"/>
</clipPath>
</defs>
</svg>
