<svg width="60" height="60" viewBox="0 0 60 60" fill="currentColor" xmlns="http://www.w3.org/2000/svg">
<path d="M16.2089 50.7068L16.9484 50.3715C17.6286 50.0629 18.4115 50.431 18.6883 51.1894C18.9369 51.8707 18.6949 52.643 18.1501 53.0171L18.1714 53.0425C18.2931 53.1873 18.3674 53.3614 18.4013 53.5424C19.1855 53.0263 19.5361 51.933 19.1828 50.9648C19.0823 50.6892 18.934 50.4516 18.7536 50.2567C18.9898 49.6065 19.0481 48.873 18.883 48.1511L17.3312 41.3714L11.0009 38.6481C10.8031 38.5737 10.6069 38.4893 10.4176 38.3975L10.3833 38.3826L12.1106 45.9288C12.207 45.9827 12.2978 46.0525 12.3758 46.1451L16.2089 50.7068ZM16.1166 14.3908C16.0817 14.3949 16.0537 14.3987 16.0416 14.4003C15.8925 14.4233 15.7508 14.4661 15.616 14.5232C14.2767 14.9533 12.9242 16.0173 11.9271 17.9299C9.35568 22.9291 8.38848 26.3394 7.95731 32.3738C7.951 34.4464 8.50355 35.7733 9.31732 36.6451C9.62928 37.0387 10.0262 37.3584 10.496 37.5606L10.6948 37.6461C10.8762 37.7349 11.0611 37.8142 11.2483 37.8843L22.0534 42.5326C22.0791 42.5251 22.1034 42.514 22.1301 42.5088L27.2326 41.5192L27.0226 40.1726C26.8969 39.366 27.3858 38.591 28.1093 38.4508C28.8327 38.3106 29.5278 38.8558 29.6536 39.6624L29.8636 41.009L30.3896 40.907L30.1796 39.5603C30.0197 38.5355 29.2098 37.8177 28.3047 37.8361C28.2098 37.838 28.1141 37.8456 28.0175 37.8643C27.8398 37.8986 27.6733 37.9617 27.5189 38.0459C27.2021 37.6458 26.8041 37.3237 26.3417 37.1248L16.5699 32.9209C16.9202 30.6431 17.606 28.3386 18.3392 26.2135L14.4187 21.0279C13.9921 20.464 13.7882 19.7486 13.8445 19.0143C13.9006 18.2794 14.2101 17.613 14.7158 17.1377C15.1618 16.7184 15.7282 16.4875 16.3108 16.4875C17.0433 16.4875 17.7335 16.8451 18.2052 17.469L20.4428 20.4283C20.5122 20.1628 20.5715 19.8943 20.6113 19.6244C20.8327 19.7202 21.0619 19.8258 21.2988 19.9419C22.426 20.4935 23.7251 21.2826 25.1674 22.4145L25.0644 22.7115L26.0452 23.1345C26.3091 23.3587 26.5772 23.5939 26.8495 23.841L31.5882 22.731C27.0773 17.9559 23.1563 15.879 20.3782 14.995C19.6101 14.7506 18.9286 14.5952 18.3474 14.5007C17.6764 14.2791 16.9071 14.2274 16.1166 14.3908Z" fill="black"/>
<path d="M23.2017 48.2718L23.6321 51.6499L28.6609 50.6746L28.1367 47.3147L23.2017 48.2718Z" fill="currentColor"/>
<path d="M22.7236 44.5181L22.9375 46.1984L27.8151 45.2524L27.5543 43.5812L22.7236 44.5181Z" fill="currentColor"/>
<path d="M25.4857 8.89879H23.7722L25.6809 11.5639L26.0253 11.2897L25.4857 8.89879Z" fill="black"/>
<path d="M26.4903 11.1319H30.1852V11.6732H26.3788L26.0151 11.9626L28.0476 14.1139L27.7133 14.5067L25.4675 12.1293C25.4631 12.1247 25.4616 12.118 25.4577 12.1131C25.4539 12.1085 25.4485 12.1069 25.4451 12.1017L23.1419 8.88607H19.9798C19.8218 11.8765 21.6625 14.6133 24.3721 15.2113C25.6102 15.4844 26.8326 15.2665 27.8794 14.6805L28.9874 15.8419L30.8592 14.7611L31.2389 11.1319H30.6225C30.69 10.9007 30.7475 10.6636 30.7907 10.4192C30.8825 9.90274 30.9126 9.38872 30.8868 8.88607H25.9836L26.4903 11.1319ZM30.6934 11.6732L30.4066 14.4128L29.0692 15.185L28.3229 14.403C29.2423 13.7631 29.9898 12.8217 30.4382 11.6735L30.6934 11.6732ZM34.0106 7.3941C34.0106 6.89903 32.7741 6.49734 31.2491 6.49734C31.2141 6.49734 31.1804 6.4987 31.1459 6.49897C30.7069 2.78635 28.8493 0 25.4529 0C21.528 0 19.656 3.71938 19.656 8.29085H31.2488C32.7741 8.29085 34.0106 7.88944 34.0106 7.3941Z" fill="black"/>
<path d="M30.712 42.9679L30.1858 43.07L30.4466 44.7412L30.9728 44.6391L30.712 42.9679Z" fill="currentColor"/>
<path d="M31.2946 46.7015L30.7684 46.8036L31.2927 50.1636L31.8189 50.0615L31.2946 46.7015Z" fill="currentColor"/>
<path d="M32.2019 55.9956C32.3277 56.8022 29.6967 57.3124 29.571 56.5058L28.983 52.7369L23.8964 53.7235L24.187 56.0051C24.4021 57.6938 25.7007 58.9132 27.1877 58.9132C27.3297 58.9132 27.4737 58.9019 27.6181 58.8791C28.5108 58.7378 29.2547 58.1746 29.7171 57.3983C29.9361 57.4805 30.2012 57.5187 30.5052 57.5087C30.6822 57.5027 30.8713 57.4816 31.0725 57.4426C32.2087 57.2223 32.8431 56.6287 32.7282 55.8938L32.1402 52.1246L31.6142 52.2267L32.2019 55.9956ZM22.2218 43.0951C22.0026 43.1376 21.8545 43.3726 21.8926 43.617C21.9307 43.8614 22.1415 44.0265 22.3607 43.984L30.712 42.3643C30.9312 42.3218 31.0793 42.0868 31.0412 41.8424C31.0031 41.598 30.7924 41.4329 30.5731 41.4754L22.2218 43.0951ZM22.8042 46.8286C22.585 46.8711 22.4369 47.106 22.475 47.3504C22.5131 47.5949 22.7239 47.76 22.9431 47.7175L31.2944 46.0977C31.5136 46.0552 31.6617 45.8203 31.6236 45.5759C31.5855 45.3314 31.3748 45.1663 31.1556 45.2088L22.8042 46.8286ZM23.6503 52.251C23.4311 52.2935 23.283 52.5285 23.3211 52.7729C23.3592 53.0173 23.5699 53.1825 23.7891 53.14L32.1405 51.5202C32.3597 51.4777 32.5078 51.2428 32.4697 50.9984C32.4316 50.7539 32.2208 50.5888 32.0016 50.6313L23.6503 52.251ZM57.7436 38.2359C57.7436 38.2359 58.413 38.0952 59.0607 36.2278C59.7086 34.3604 59.2984 33.754 59.2984 33.754L38.6421 24.8458L37.0872 29.3274L57.7436 38.2359ZM34.4383 26.7538L35.9887 27.4223L36.5696 28.3995L37.6992 25.1435L36.6798 25.4304L34.6498 24.5548C34.6745 24.6414 34.6964 24.7294 34.7134 24.8198C34.8386 25.4873 34.7394 26.1667 34.4383 26.7538ZM20.4942 21.4201L17.7968 17.8525C17.1054 16.9379 15.8799 16.8218 15.0603 17.5927C14.2402 18.3636 14.1358 19.7297 14.8272 20.6438L18.0498 24.9059C18.3715 24.2005 19.184 22.6284 20.4942 21.4201ZM31.8904 23.2683L23.3963 25.258L20.8387 21.8756C19.4396 23.1654 18.6198 24.9484 18.4258 25.4034L21.1747 29.0388C21.5479 29.5325 22.0936 29.8086 22.6595 29.8086C22.7921 29.8086 22.9261 29.7935 23.0589 29.7624L32.6889 27.5065C33.7386 27.2607 34.4109 26.1125 34.1904 24.9421C33.9698 23.772 32.9387 23.0233 31.8904 23.2683ZM7.36007 57.9358L4.18195 59.3777C3.5017 59.6863 2.49517 56.9284 3.17541 56.6198L6.35354 55.1779L4.76727 50.8308L1.80157 52.3028C0.270411 53.0628 -0.418332 55.0626 0.263371 56.7697C0.732162 57.9437 1.72704 58.6729 2.80058 58.7671C3.23004 59.7407 3.82094 60.1843 4.3832 59.9291L7.56157 58.4872L7.36007 57.9358Z" fill="currentColor"/>
<path d="M11.9341 55.8603L9.10071 57.1457L9.302 57.6972L12.1354 56.4119L11.9341 55.8603Z" fill="currentColor"/>
<path d="M13.6709 55.0726L13.8722 55.6242L16.6932 54.3445L16.3021 53.8792L13.6709 55.0726Z" fill="currentColor"/>
<path d="M12.6647 52.3146L14.3463 51.5519L11.0995 47.688L10.9951 47.7399L12.6647 52.3146Z" fill="currentColor"/>
<path d="M8.0923 54.3889L10.9257 53.1037L9.27897 48.5915L6.48297 49.9793L8.0923 54.3889Z" fill="currentColor"/>
<path d="M17.1914 54.0665C17.3436 54.2476 17.6009 54.2568 17.7633 54.0873C17.9258 53.9176 17.934 53.6307 17.782 53.4496L11.9864 46.5527C11.8341 46.3717 11.5768 46.3625 11.4144 46.5319C11.252 46.7016 11.2437 46.9885 11.3957 47.1696L17.1914 54.0665ZM12.6632 56.2847C12.747 56.5145 12.9844 56.626 13.1905 56.5326C13.3966 56.4392 13.4966 56.1745 13.4129 55.9447L10.2183 47.1905C10.1345 46.9607 9.89706 46.8491 9.69095 46.9425C9.48484 47.0359 9.38482 47.3006 9.46857 47.5304L12.6632 56.2847ZM8.09084 58.3589C8.1746 58.5887 8.41203 58.7002 8.61814 58.6068C8.82426 58.5134 8.92428 58.2487 8.84052 58.0189L5.64589 49.2647C5.56214 49.0349 5.32471 48.9233 5.11859 49.0167C4.91248 49.1101 4.81246 49.3748 4.89621 49.6046L8.09084 58.3589Z" fill="black"/>
<path d="M57.7847 28.7208C59.0082 28.7208 60 27.615 60 26.2508C60 24.8867 59.0082 23.7809 57.7847 23.7809C56.5612 23.7809 55.5694 24.8867 55.5694 26.2508C55.5694 27.615 56.5612 28.7208 57.7847 28.7208Z" fill="black"/>
</svg>
