<svg width="64" height="58" viewBox="0 0 64 58" fill="none" xmlns="http://www.w3.org/2000/svg">
<path d="M6.71314 12L33.2931 12C34.0493 12.0414 34.7584 12.3799 35.266 12.9419C35.7736 13.5038 36.0386 14.2436 36.0031 15V35H39.0031V21C39.0031 20.4696 39.2139 19.9609 39.5889 19.5858C39.964 19.2107 40.4727 19 41.0031 19H48.8931C51.9098 19.076 54.7733 20.345 56.8559 22.5288C58.9385 24.7126 60.0703 27.6331 60.0031 30.65V37.89C60.0165 38.6999 59.7083 39.4821 59.1459 40.065C58.5835 40.648 57.813 40.9842 57.0031 41H53.9131C53.7227 42.1168 53.22 43.157 52.4631 44H54.0031C54.2684 44 54.5227 44.1054 54.7102 44.2929C54.8978 44.4804 55.0031 44.7348 55.0031 45C55.0031 45.2652 54.8978 45.5196 54.7102 45.7071C54.5227 45.8946 54.2684 46 54.0031 46H48.0031C46.5863 45.9986 45.2156 45.4958 44.1339 44.5806C43.0522 43.6655 42.3293 42.3971 42.0931 41H19.9131C19.7227 42.1168 19.22 43.157 18.4631 44H26.0031C26.2684 44 26.5227 44.1054 26.7102 44.2929C26.8978 44.4804 27.0031 44.7348 27.0031 45C27.0031 45.2652 26.8978 45.5196 26.7102 45.7071C26.5227 45.8946 26.2684 46 26.0031 46H5.00314C4.73792 46 4.48357 45.8946 4.29603 45.7071C4.1085 45.5196 4.00314 45.2652 4.00314 45C4.00314 44.7348 4.1085 44.4804 4.29603 44.2929C4.48357 44.1054 4.73792 44 5.00314 44H9.54314C8.78626 43.157 8.28354 42.1168 8.09314 41H6.71314C5.95701 40.9586 5.24789 40.6201 4.74028 40.0581C4.23266 39.4962 3.96771 38.7564 4.00314 38V15C3.96771 14.2436 4.23266 13.5038 4.74028 12.9419C5.24789 12.3799 5.95701 12.0414 6.71314 12ZM41.0031 21V35H44.6931C45.6749 34.3506 46.826 34.0044 48.0031 34.0044C49.1802 34.0044 50.3314 34.3506 51.3131 35H58.0031V32H50.0031C49.4585 31.9843 48.9423 31.7535 48.5674 31.358C48.1926 30.9626 47.9897 30.4347 48.0031 29.89V21H41.0031ZM50.0031 21.08V29.89C50.0031 30 50.0031 30 50.0031 30H58.0031C57.908 27.8171 57.0586 25.7347 55.5997 24.1081C54.1409 22.4814 52.1629 21.4112 50.0031 21.08ZM58.0031 37.89V37H53.1931C53.5503 37.6185 53.7941 38.2958 53.9131 39H57.0031C57.2826 38.9845 57.5446 38.8591 57.7319 38.6511C57.9193 38.4432 58.0168 38.1696 58.0031 37.89ZM48.0031 44C48.7943 44 49.5676 43.7654 50.2254 43.3259C50.8832 42.8864 51.3959 42.2616 51.6987 41.5307C52.0014 40.7998 52.0806 39.9956 51.9263 39.2196C51.7719 38.4437 51.391 37.731 50.8316 37.1716C50.2722 36.6122 49.5594 36.2312 48.7835 36.0769C48.0076 35.9225 47.2033 36.0017 46.4724 36.3045C45.7415 36.6072 45.1168 37.1199 44.6773 37.7777C44.2377 38.4355 44.0031 39.2089 44.0031 40C44.0031 41.0609 44.4246 42.0783 45.1747 42.8284C45.9249 43.5786 46.9423 44 48.0031 44ZM42.0931 39C42.2122 38.2958 42.456 37.6185 42.8131 37H41.0031V39H42.0931ZM39.0031 37H30.0031C29.7379 37 29.4836 36.8946 29.296 36.7071C29.1085 36.5196 29.0031 36.2652 29.0031 36C29.0031 35.7348 29.1085 35.4804 29.296 35.2929C29.4836 35.1054 29.7379 35 30.0031 35H34.0031V15C34.0031 14.46 33.6731 14 33.2931 14H30.0031V32C30.0031 32.2652 29.8978 32.5196 29.7102 32.7071C29.5227 32.8946 29.2684 33 29.0031 33C28.7379 33 28.4836 32.8946 28.296 32.7071C28.1085 32.5196 28.0031 32.2652 28.0031 32V14H24.0031V19C24.0031 19.2652 23.8978 19.5196 23.7102 19.7071C23.5227 19.8946 23.2684 20 23.0031 20C22.7379 20 22.4836 19.8946 22.296 19.7071C22.1085 19.5196 22.0031 19.2652 22.0031 19V14H18.0031V32C18.0031 32.2652 17.8978 32.5196 17.7102 32.7071C17.5227 32.8946 17.2684 33 17.0031 33C16.7379 33 16.4836 32.8946 16.296 32.7071C16.1085 32.5196 16.0031 32.2652 16.0031 32V14L12.0031 14V25C12.0031 25.2652 11.8978 25.5196 11.7102 25.7071C11.5227 25.8946 11.2684 26 11.0031 26C10.7379 26 10.4836 25.8946 10.296 25.7071C10.1085 25.5196 10.0031 25.2652 10.0031 25V14H6.71314C6.33314 14 6.00314 14.46 6.00314 15V35H10.6931C11.6749 34.3506 12.826 34.0044 14.0031 34.0044C15.1802 34.0044 16.3314 34.3506 17.3131 35H26.0031C26.2684 35 26.5227 35.1054 26.7102 35.2929C26.8978 35.4804 27.0031 35.7348 27.0031 36C27.0031 36.2652 26.8978 36.5196 26.7102 36.7071C26.5227 36.8946 26.2684 37 26.0031 37H19.1931C19.5503 37.6185 19.7941 38.2958 19.9131 39H39.0031V37ZM18.0031 40C18.0031 39.2089 17.7685 38.4355 17.329 37.7777C16.8895 37.1199 16.2648 36.6072 15.5339 36.3045C14.803 36.0017 13.9987 35.9225 13.2228 36.0769C12.4469 36.2312 11.7341 36.6122 11.1747 37.1716C10.6153 37.731 10.2343 38.4437 10.08 39.2196C9.92566 39.9956 10.0049 40.7998 10.3076 41.5307C10.6104 42.2616 11.1231 42.8864 11.7809 43.3259C12.4387 43.7654 13.212 44 14.0031 44C15.064 44 16.0814 43.5786 16.8316 42.8284C17.5817 42.0783 18.0031 41.0609 18.0031 40ZM6.71314 39H8.09314C8.21219 38.2958 8.45602 37.6185 8.81314 37H6.00314V38C6.00314 38.54 6.33314 39 6.71314 39ZM46.0031 40C46.0031 40.3956 46.1204 40.7822 46.3402 41.1111C46.56 41.44 46.8723 41.6964 47.2378 41.8478C47.6032 41.9991 48.0054 42.0387 48.3933 41.9616C48.7813 41.8844 49.1376 41.6939 49.4174 41.4142C49.6971 41.1345 49.8875 40.7781 49.9647 40.3902C50.0419 40.0022 50.0023 39.6001 49.8509 39.2346C49.6995 38.8692 49.4432 38.5568 49.1143 38.3371C48.7854 38.1173 48.3987 38 48.0031 38C47.4727 38 46.964 38.2107 46.5889 38.5858C46.2139 38.9609 46.0031 39.4696 46.0031 40ZM12.0031 40C12.0031 40.3956 12.1204 40.7822 12.3402 41.1111C12.56 41.44 12.8723 41.6964 13.2378 41.8478C13.6032 41.9991 14.0054 42.0387 14.3933 41.9616C14.7813 41.8844 15.1376 41.6939 15.4174 41.4142C15.6971 41.1345 15.8875 40.7781 15.9647 40.3902C16.0419 40.0022 16.0023 39.6001 15.8509 39.2346C15.6995 38.8692 15.4432 38.5568 15.1143 38.3371C14.7854 38.1173 14.3987 38 14.0031 38C13.4727 38 12.964 38.2107 12.5889 38.5858C12.2139 38.9609 12.0031 39.4696 12.0031 40ZM24.0031 32V23C24.0031 22.7348 23.8978 22.4804 23.7102 22.2929C23.5227 22.1054 23.2684 22 23.0031 22C22.7379 22 22.4836 22.1054 22.296 22.2929C22.1085 22.4804 22.0031 22.7348 22.0031 23V32C22.0031 32.2652 22.1085 32.5196 22.296 32.7071C22.4836 32.8946 22.7379 33 23.0031 33C23.2684 33 23.5227 32.8946 23.7102 32.7071C23.8978 32.5196 24.0031 32.2652 24.0031 32ZM12.0031 32V29C12.0031 28.7348 11.8978 28.4804 11.7102 28.2929C11.5227 28.1054 11.2684 28 11.0031 28C10.7379 28 10.4836 28.1054 10.296 28.2929C10.1085 28.4804 10.0031 28.7348 10.0031 29V32C10.0031 32.2652 10.1085 32.5196 10.296 32.7071C10.4836 32.8946 10.7379 33 11.0031 33C11.2684 33 11.5227 32.8946 11.7102 32.7071C11.8978 32.5196 12.0031 32.2652 12.0031 32ZM29.0031 45C29.0031 45.2652 29.1085 45.5196 29.296 45.7071C29.4836 45.8946 29.7379 46 30.0031 46H38.0031C38.2684 46 38.5227 45.8946 38.7102 45.7071C38.8978 45.5196 39.0031 45.2652 39.0031 45C39.0031 44.7348 38.8978 44.4804 38.7102 44.2929C38.5227 44.1054 38.2684 44 38.0031 44H30.0031C29.7379 44 29.4836 44.1054 29.296 44.2929C29.1085 44.4804 29.0031 44.7348 29.0031 45ZM56.2931 44.29C56.1048 44.4783 55.9991 44.7337 55.9991 45C55.9991 45.2663 56.1048 45.5217 56.2931 45.71C56.4814 45.8983 56.7368 46.0041 57.0031 46.0041C57.2694 46.0041 57.5248 45.8983 57.7131 45.71C57.8959 45.5184 57.9995 45.2648 58.0031 45C58.0076 44.9334 58.0076 44.8666 58.0031 44.8C57.9922 44.7374 57.972 44.6767 57.9431 44.62C57.9213 44.5563 57.891 44.4957 57.8531 44.44C57.8162 44.3876 57.7761 44.3375 57.7331 44.29C57.6399 44.1932 57.528 44.1162 57.4043 44.0637C57.2806 44.0111 57.1476 43.984 57.0131 43.984C56.8787 43.984 56.7457 44.0111 56.622 44.0637C56.4983 44.1162 56.3864 44.1932 56.2931 44.29Z" fill="currentColor"/>
</svg>
