<svg width="60" height="60" viewBox="0 0 60 60" fill="currentColor" xmlns="http://www.w3.org/2000/svg">
<g clip-path="url(#clip0_90_21)">
<path d="M43.1738 38.3578C42.6296 40.5236 41.8522 42.6039 40.8594 44.5509H45.6885C45.8973 44.696 46.1181 44.8175 46.3477 44.9135C46.8884 45.1425 47.471 45.2114 48.0413 45.1138C48.6116 45.0163 49.151 44.7554 49.6094 44.3556L50.9375 43.3234C50.3496 44.8106 49.6555 46.2401 48.8623 47.5972C47.0973 50.5902 44.8424 53.1649 42.2217 55.1795C40.8967 56.1969 39.4908 57.0693 38.0225 57.785C36.5187 58.523 34.953 59.0839 33.3496 59.4588C30.0819 60.1953 26.7198 60.1953 23.4522 59.4588C21.8767 59.0953 20.3374 58.5514 18.8574 57.8352L18.7793 57.8017C17.3115 57.0848 15.9056 56.2125 14.5801 55.1962C13.2716 54.1919 12.0517 53.0446 10.9375 51.7705C10.4492 51.2126 9.99024 50.6546 9.5459 50.0409C10.2511 49.3483 10.9913 48.7037 11.7627 48.1105C12.1305 48.5977 12.5114 49.0664 12.9053 49.5165C13.888 50.6449 14.9658 51.6597 16.1231 52.546C17.3096 53.4499 18.5665 54.2269 19.8779 54.867L19.9414 54.9005C21.2467 55.5302 22.6046 56.0069 23.9941 56.3232C24.3408 56.4013 24.6973 56.4739 25.0537 56.5297C22.0935 53.7265 19.467 50.4928 17.2412 46.9109H13.335C14.7998 45.8508 16.4307 44.8187 18.0469 43.8479C18.1689 44.0878 18.2959 44.3221 18.4277 44.5564H27.3438V38.8432L28.0273 38.514C28.3508 39.2233 28.864 39.796 29.4922 40.1488V44.5509H38.3643C40.4834 40.7513 41.626 36.9239 41.7822 33.0742L43.1885 38.3578H43.1738ZM25.0732 29.2635C25.4053 28.0528 26.3281 27.082 27.666 26.1001L23.0957 19.9963C22.7881 19.6894 22.8662 19.4383 23.1543 19.2208L24.6729 18.4787C24.7952 18.4345 24.9244 18.4211 25.0517 18.4394C25.1789 18.4577 25.3012 18.5073 25.4102 18.5847L32.0459 22.4065L39.8584 17.2457L29.0576 1.90255C28.7793 1.55105 28.8184 1.27766 29.2529 1.09912L31.6943 -0.0167389L47.9248 11.9732L53.7842 8.72047C56.0156 7.60461 57.9395 7.42607 59.1553 8.25739C59.4395 8.39087 59.6779 8.62634 59.8347 8.92827C59.9915 9.23021 60.0581 9.58222 60.0244 9.93119C60.0488 11.605 58.8232 13.4127 56.6602 14.9526L50.5713 17.6641L50.083 39.7192L47.9053 41.393C47.5293 41.6998 47.3096 41.5882 47.2119 41.1252L42.1729 22.3173L34.0479 26.7807L33.0713 35.1497C33.0646 35.3 33.0292 35.4467 32.9676 35.5797C32.9061 35.7127 32.8198 35.8288 32.7148 35.9197L31.333 36.9351C31.0156 37.0802 30.791 37.0132 30.7471 36.5501L28.9111 28.7949C27.4463 29.509 26.2158 29.8326 25.1514 29.4532C25.0537 29.4197 25.0439 29.3695 25.0732 29.2635ZM23.0225 25.3971C16.5674 29.3026 7.93457 35.6463 4.76075 39.3454C-5.62011 51.5585 2.48047 61.0768 14.6094 56.9091C10.8106 56.2674 7.83692 55.3915 6.18653 54.1529C-0.859372 48.8637 21.8115 37.4484 27.1143 34.9489L26.6992 33.1914C25.865 33.2778 25.0241 33.1774 24.2236 32.8957L23.9258 32.745C23.5315 32.5783 23.173 32.3174 22.8741 31.9797C22.5751 31.642 22.3427 31.2352 22.1924 30.7867L22.1289 30.5914C21.867 29.8298 21.8549 28.9857 22.0947 28.2146C22.3409 27.3035 22.7406 26.4563 23.2715 25.7207L23.0322 25.3971H23.0225ZM3.90625 35.2111C3.79384 34.0793 3.73841 32.9411 3.74024 31.8021C3.73871 29.9025 3.90227 28.0074 4.22852 26.1447C4.54267 24.3441 5.01714 22.5849 5.64453 20.8945L5.67383 20.8109C6.30488 19.1328 7.06983 17.5248 7.95899 16.0071C8.83505 14.5128 9.8376 13.1205 10.9522 11.8505C12.0663 10.5764 13.2863 9.4291 14.5947 8.42477C15.9203 7.40851 17.3262 6.53619 18.7939 5.81923C20.298 5.082 21.8636 4.5212 23.4668 4.14543C24.4137 3.93019 25.3707 3.77743 26.333 3.68793C26.4423 3.88297 26.5631 4.06937 26.6943 4.24586L29.4873 8.22391V16.6598H34.4775L31.9434 18.3336L27.3438 15.689V8.20718C24.751 10.747 22.3888 13.5789 20.293 16.6598H20.9424C20.4223 17.1712 20.0524 17.8529 19.8828 18.6126C19.8453 18.7588 19.8176 18.908 19.7998 19.059V19.1092H18.7891C17.6158 21.1501 16.6741 23.3529 15.9863 25.6649C15.1025 26.273 14.2139 26.8923 13.335 27.5284C13.907 24.5525 14.8964 21.7019 16.2647 19.0868H9.54102C9.05412 20.0451 8.61875 21.0363 8.23731 22.055L8.20801 22.1276C7.65315 23.6252 7.23587 25.1846 6.96289 26.7807C6.74433 28.0355 6.61047 29.3076 6.5625 30.5858H9.27735C7.4168 32.0202 5.62393 33.566 3.90625 35.2167V35.2111ZM41.7529 33.0351H36.4746L36.7627 30.5802H41.1084L41.7578 33.0351H41.7529ZM39.5508 46.9053C37.3228 50.4869 34.6966 53.7221 31.7383 56.5297C32.0947 56.4683 32.4463 56.3958 32.7979 56.3176C34.2079 55.9926 35.5854 55.5047 36.9092 54.8614C38.2211 54.2225 39.4781 53.4455 40.6641 52.5404C41.8213 51.6541 42.8991 50.6393 43.8818 49.5109C44.6086 48.6996 45.2826 47.8288 45.8984 46.9053H39.5508ZM29.4824 55.5142C32.2458 52.9829 34.7429 50.094 36.9238 46.9053H29.4824V55.5142ZM27.3438 46.9053H19.8975C22.0812 50.093 24.5799 52.9817 27.3438 55.5142V46.9053ZM17.6563 16.6598C19.8562 13.135 22.4057 9.91291 25.2539 7.05784C24.834 7.12479 24.4189 7.2029 24.0088 7.29775C22.5958 7.61664 21.2161 8.10473 19.8926 8.75395C18.5812 9.3941 17.3242 10.1711 16.1377 11.0749C14.9804 11.9613 13.9026 12.9761 12.9199 14.1045C12.2174 14.9011 11.5647 15.7531 10.9668 16.6543L17.6563 16.6598Z" fill="currentColor"/>
</g>
<defs>
<clipPath id="clip0_90_21">
<rect width="60" height="60" fill="white"/>
</clipPath>
</defs>
</svg>
